<svg width="619" height="63" viewBox="0 0 619 63" fill="none" xmlns="http://www.w3.org/2000/svg">
<path d="M37.7318 51.493L39.6219 50.8393L39.1562 49.493H37.7318V51.493ZM15.7697 51.493V49.493H14.3452L13.8796 50.8393L15.7697 51.493ZM12.1357 62V64H13.5603L14.0259 62.6537L12.1357 62ZM0.522736 62L-1.35959 61.3241L-2.32047 64H0.522736V62ZM20.3517 6.779V4.779H18.9449L18.4694 6.10308L20.3517 6.779ZM33.2288 6.779L35.1111 6.10308L34.6356 4.779H33.2288V6.779ZM53.0577 62V64H55.901L54.9401 61.3241L53.0577 62ZM41.3658 62L39.4756 62.6537L39.9413 64H41.3658V62ZM34.7298 42.645V44.645H37.5378L36.6199 41.9912L34.7298 42.645ZM26.7508 19.577L28.6409 18.9232L26.7508 13.4587L24.8606 18.9232L26.7508 19.577ZM18.7718 42.645L16.8816 41.9912L15.9637 44.645H18.7718V42.645ZM37.7318 49.493H15.7697V53.493H37.7318V49.493ZM13.8796 50.8393L10.2456 61.3463L14.0259 62.6537L17.6599 52.1467L13.8796 50.8393ZM12.1357 60H0.522736V64H12.1357V60ZM2.40506 62.6759L22.2341 7.45491L18.4694 6.10308L-1.35959 61.3241L2.40506 62.6759ZM20.3517 8.779H33.2288V4.779H20.3517V8.779ZM31.3464 7.45491L51.1754 62.6759L54.9401 61.3241L35.1111 6.10308L31.3464 7.45491ZM53.0577 60H41.3658V64H53.0577V60ZM43.2559 61.3463L39.6219 50.8393L35.8416 52.1467L39.4756 62.6537L43.2559 61.3463ZM36.6199 41.9912L28.6409 18.9232L24.8606 20.2308L32.8396 43.2988L36.6199 41.9912ZM24.8606 18.9232L16.8816 41.9912L20.6619 43.2988L28.6409 20.2308L24.8606 18.9232ZM18.7718 44.645H34.7298V40.645H18.7718V44.645ZM71.5295 24.633H69.5295V31.1708L73.1873 25.7519L71.5295 24.633ZM77.3755 19.498L76.4517 17.7242L76.444 17.7282L76.4363 17.7323L77.3755 19.498ZM96.0986 20.288L95.052 21.9923L95.0586 21.9964L95.0652 22.0004L96.0986 20.288ZM103.288 28.188L101.504 29.0934L101.513 29.1099L101.521 29.1263L103.288 28.188ZM103.288 51.888L101.51 50.9721L101.504 50.9826L103.288 51.888ZM96.0986 59.867L95.0438 58.1677L95.0372 58.1718L95.0306 58.176L96.0986 59.867ZM77.3755 60.815L76.4205 62.5723L76.4431 62.5845L76.466 62.5962L77.3755 60.815ZM71.5295 55.759L73.1542 54.5926L69.5295 49.544V55.759H71.5295ZM71.5295 62V64H73.5295V62H71.5295ZM60.4695 62H58.4695V64H60.4695V62ZM60.4695 3.54V1.54H58.4695V3.54H60.4695ZM71.5295 3.54H73.5295V1.54H71.5295V3.54ZM93.0175 33.165L91.2581 34.116L91.2736 34.1446L91.29 34.1727L93.0175 33.165ZM88.7516 28.741L87.7536 30.4742L87.7647 30.4806L87.7759 30.4869L88.7516 28.741ZM77.3755 28.82L78.3735 30.5532L78.3816 30.5486L78.3896 30.5439L77.3755 28.82ZM73.1096 33.244L71.3702 32.2568L71.36 32.2748L71.3501 32.293L73.1096 33.244ZM73.1096 46.99L71.3501 47.941L71.36 47.9592L71.3702 47.9772L73.1096 46.99ZM77.3755 51.493L76.339 53.2034L76.3691 53.2217L76.3999 53.2389L77.3755 51.493ZM88.7516 51.414L87.7375 49.6901L87.7262 49.6968L87.715 49.7036L88.7516 51.414ZM93.0175 46.911L91.2782 45.9238L91.268 45.9418L91.2581 45.96L93.0175 46.911ZM73.1873 25.7519C74.408 23.9435 76.0979 22.4429 78.3148 21.2637L76.4363 17.7323C73.7026 19.1864 71.4952 21.1092 69.8719 23.5141L73.1873 25.7519ZM78.2994 21.2718C80.5076 20.1217 83.0542 19.523 85.9865 19.523V15.523C82.4936 15.523 79.2995 16.2409 76.4517 17.7242L78.2994 21.2718ZM85.9865 19.523C89.3801 19.523 92.3845 20.3544 95.052 21.9923L97.1451 18.5837C93.8087 16.535 90.0717 15.523 85.9865 15.523V19.523ZM95.0652 22.0004C97.7748 23.6355 99.9223 25.9775 101.504 29.0934L105.071 27.2826C103.177 23.5518 100.532 20.6272 97.1319 18.5756L95.0652 22.0004ZM101.521 29.1263C103.134 32.1618 103.974 35.7529 103.974 39.959H107.974C107.974 35.2118 107.022 30.9555 105.054 27.2497L101.521 29.1263ZM103.974 39.959C103.974 44.1635 103.134 47.8179 101.51 50.9721L105.065 52.8039C107.022 49.0061 107.974 44.7078 107.974 39.959H103.974ZM101.504 50.9826C99.9202 54.1027 97.7663 56.4779 95.0438 58.1677L97.1533 61.5663C100.54 59.4641 103.179 56.52 105.071 52.7934L101.504 50.9826ZM95.0306 58.176C92.3656 59.8592 89.3689 60.711 85.9865 60.711V64.711C90.0829 64.711 93.8275 63.6668 97.1665 61.558L95.0306 58.176ZM85.9865 60.711C82.9823 60.711 80.4335 60.1308 78.2851 59.0338L76.466 62.5962C79.2683 64.0272 82.4602 64.711 85.9865 64.711V60.711ZM78.3306 59.0578C76.1485 57.8718 74.4376 56.3801 73.1542 54.5926L69.9049 56.9254C71.5709 59.2459 73.7573 61.1249 76.4205 62.5723L78.3306 59.0578ZM69.5295 55.759V62H73.5295V55.759H69.5295ZM71.5295 60H60.4695V64H71.5295V60ZM62.4695 62V3.54H58.4695V62H62.4695ZM60.4695 5.54H71.5295V1.54H60.4695V5.54ZM69.5295 3.54V24.633H73.5295V3.54H69.5295ZM96.6765 39.959C96.6765 37.0424 96.0621 34.415 94.7451 32.1573L91.29 34.1727C92.185 35.707 92.6765 37.6089 92.6765 39.959H96.6765ZM94.777 32.214C93.5581 29.9591 91.8758 28.1958 89.7272 26.9951L87.7759 30.4869C89.2086 31.2875 90.3703 32.4735 91.2581 34.116L94.777 32.214ZM89.7495 27.0078C87.7003 25.8279 85.459 25.24 83.0636 25.24V29.24C84.7762 29.24 86.3268 29.6527 87.7536 30.4742L89.7495 27.0078ZM83.0636 25.24C80.6917 25.24 78.4473 25.8692 76.3615 27.0961L78.3896 30.5439C79.8851 29.6641 81.4327 29.24 83.0636 29.24V25.24ZM76.3776 27.0868C74.2952 28.2857 72.6312 30.035 71.3702 32.2568L74.8489 34.2312C75.7999 32.5556 76.9799 31.3556 78.3735 30.5532L76.3776 27.0868ZM71.3501 32.293C70.1116 34.5843 69.5295 37.2142 69.5295 40.117H73.5295C73.5295 37.7531 74.0009 35.8011 74.869 34.195L71.3501 32.293ZM69.5295 40.117C69.5295 43.0198 70.1116 45.6497 71.3501 47.941L74.869 46.039C74.0009 44.4329 73.5295 42.4809 73.5295 40.117H69.5295ZM71.3702 47.9772C72.6271 50.1918 74.2796 51.9553 76.339 53.2034L78.4122 49.7826C76.9955 48.924 75.804 47.6855 74.8489 46.0028L71.3702 47.9772ZM76.3999 53.2389C78.481 54.4018 80.7119 54.994 83.0636 54.994V50.994C81.4126 50.994 79.8515 50.5855 78.3512 49.7471L76.3999 53.2389ZM83.0636 54.994C85.4789 54.994 87.7341 54.3693 89.7881 53.1244L87.715 49.7036C86.293 50.5654 84.7562 50.994 83.0636 50.994V54.994ZM89.7656 53.1379C91.8915 51.8873 93.5622 50.1093 94.777 47.862L91.2581 45.96C90.3662 47.61 89.193 48.834 87.7375 49.6901L89.7656 53.1379ZM94.7569 47.8982C96.0648 45.5939 96.6765 42.9223 96.6765 39.959H92.6765C92.6765 42.3677 92.1823 44.3307 91.2782 45.9238L94.7569 47.8982ZM122.069 59.946L121.088 61.6891L121.098 61.695L121.109 61.7007L122.069 59.946ZM114.09 51.967L112.34 52.936L112.346 52.9462L112.351 52.9564L114.09 51.967ZM114.169 28.267L112.442 27.2576L112.436 27.2676L112.43 27.2776L114.169 28.267ZM122.306 20.367L123.254 22.1279L123.264 22.1223L123.275 22.1166L122.306 20.367ZM145.216 20.367L144.247 22.1166L144.257 22.1223L144.267 22.1279L145.216 20.367ZM153.274 28.267L151.535 29.2564L151.541 29.2664L151.547 29.2764L153.274 28.267ZM153.195 51.967L151.48 50.938L151.474 50.9478L151.468 50.9576L153.195 51.967ZM144.979 59.946L145.927 61.707L145.936 61.7018L144.979 59.946ZM139.054 51.651L140.011 53.4068L140.02 53.4019L140.029 53.3969L139.054 51.651ZM143.32 47.227L145.079 48.178L143.32 47.227ZM141.582 30.558L140.134 31.9381L140.151 31.9554L140.167 31.9722L141.582 30.558ZM125.624 30.558L124.176 29.1778L124.175 29.1787L125.624 30.558ZM125.545 49.755L124.063 51.0986L124.079 51.1167L124.096 51.1343L125.545 49.755ZM133.445 60.711C129.533 60.711 126.077 59.8585 123.028 58.1913L121.109 61.7007C124.802 63.7202 128.929 64.711 133.445 64.711V60.711ZM123.049 58.2029C120.001 56.4882 117.6 54.0918 115.828 50.9776L112.351 52.9564C114.476 56.6889 117.395 59.6118 121.088 61.6891L123.049 58.2029ZM115.839 50.998C114.13 47.9116 113.246 44.3041 113.246 40.117H109.246C109.246 44.8833 110.257 49.1757 112.34 52.936L115.839 50.998ZM113.246 40.117C113.246 35.9391 114.152 32.339 115.907 29.2564L112.43 27.2776C110.288 31.0417 109.246 35.3415 109.246 40.117H113.246ZM115.895 29.2764C117.715 26.1637 120.161 23.7934 123.254 22.1279L121.357 18.6061C117.604 20.6272 114.625 23.5236 112.442 27.2576L115.895 29.2764ZM123.275 22.1166C126.379 20.3973 129.859 19.523 133.761 19.523V15.523C129.235 15.523 125.079 16.5447 121.337 18.6174L123.275 22.1166ZM133.761 19.523C137.662 19.523 141.142 20.3973 144.247 22.1166L146.185 18.6174C142.442 16.5447 138.286 15.523 133.761 15.523V19.523ZM144.267 22.1279C147.356 23.7909 149.77 26.1547 151.535 29.2564L155.012 27.2776C152.88 23.5326 149.922 20.6298 146.164 18.6061L144.267 22.1279ZM151.547 29.2764C153.347 32.3555 154.276 35.9484 154.276 40.117H158.276C158.276 35.3323 157.203 31.0251 155 27.2576L151.547 29.2764ZM154.276 40.117C154.276 44.2763 153.325 47.862 151.48 50.938L154.91 52.996C157.172 49.2253 158.276 44.9111 158.276 40.117H154.276ZM151.468 50.9576C149.65 54.0673 147.177 56.4687 144.021 58.1902L145.936 61.7018C149.732 59.6313 152.736 56.7133 154.921 52.9764L151.468 50.9576ZM144.03 58.1851C140.926 59.8566 137.412 60.711 133.445 60.711V64.711C138.009 64.711 142.184 63.7221 145.927 61.7069L144.03 58.1851ZM133.445 55.073C135.777 55.073 137.976 54.5169 140.011 53.4068L138.096 49.8952C136.655 50.6811 135.115 51.073 133.445 51.073V55.073ZM140.029 53.3969C142.178 52.1962 143.86 50.4329 145.079 48.178L141.56 46.276C140.672 47.9184 139.511 49.1045 138.078 49.9051L140.029 53.3969ZM145.079 48.178C146.326 45.8709 146.9 43.1557 146.9 40.117H142.9C142.9 42.6609 142.42 44.6858 141.56 46.276L145.079 48.178ZM146.9 40.117C146.9 35.6069 145.694 31.8419 142.996 29.1438L140.167 31.9722C141.893 33.6981 142.9 36.3057 142.9 40.117H146.9ZM143.029 29.1778C140.488 26.5129 137.303 25.161 133.603 25.161V29.161C136.222 29.161 138.356 30.0737 140.134 31.9381L143.029 29.1778ZM133.603 25.161C129.902 25.161 126.717 26.5129 124.176 29.1778L127.071 31.9381C128.849 30.0737 130.983 29.161 133.603 29.161V25.161ZM124.175 29.1787C121.603 31.8801 120.464 35.632 120.464 40.117H124.464C124.464 36.2807 125.431 33.6599 127.072 31.9373L124.175 29.1787ZM120.464 40.117C120.464 44.5932 121.571 48.3509 124.063 51.0986L127.026 48.4114C125.41 46.6298 124.464 43.9621 124.464 40.117H120.464ZM124.096 51.1343C126.595 53.7578 129.758 55.073 133.445 55.073V51.073C130.811 51.073 128.708 50.1762 126.993 48.3757L124.096 51.1343ZM205.706 18.234H207.706V16.234H205.706V18.234ZM205.706 62V64H207.706V62H205.706ZM194.567 62H192.567V64H194.567V62ZM194.567 56.47H196.567V50.47L192.966 55.27L194.567 56.47ZM188.958 60.973L189.801 62.7864L189.81 62.7822L189.819 62.778L188.958 60.973ZM172.447 60.42L171.469 62.165L171.483 62.1725L171.496 62.1798L172.447 60.42ZM166.206 54.021L164.43 54.9416L164.44 54.9614L164.451 54.981L166.206 54.021ZM163.993 18.234V16.234H161.993V18.234H163.993ZM175.053 18.234H177.053V16.234H175.053V18.234ZM177.66 50.387L176.186 51.7384L176.196 51.7488L176.205 51.759L177.66 50.387ZM191.959 50.387L193.415 51.759L193.424 51.7488L193.434 51.7384L191.959 50.387ZM194.567 18.234V16.234H192.567V18.234H194.567ZM203.706 18.234V62H207.706V18.234H203.706ZM205.706 60H194.567V64H205.706V60ZM196.567 62V56.47H192.567V62H196.567ZM192.966 55.27C191.754 56.8865 190.147 58.1892 188.096 59.168L189.819 62.778C192.403 61.5448 194.535 59.8455 196.167 57.67L192.966 55.27ZM188.114 59.1596C186.133 60.0809 183.948 60.553 181.531 60.553V64.553C184.487 64.553 187.253 63.9717 189.801 62.7864L188.114 59.1596ZM181.531 60.553C178.392 60.553 175.699 59.9031 173.397 58.6602L171.496 62.1798C174.461 63.7809 177.825 64.553 181.531 64.553V60.553ZM173.424 58.675C171.136 57.394 169.317 55.5416 167.96 53.061L164.451 54.981C166.148 58.0831 168.49 60.4967 171.469 62.165L173.424 58.675ZM167.981 53.1004C166.682 50.596 165.993 47.5545 165.993 43.909H161.993C161.993 48.0582 162.779 51.758 164.43 54.9416L167.981 53.1004ZM165.993 43.909V18.234H161.993V43.909H165.993ZM163.993 20.234H175.053V16.234H163.993V20.234ZM173.053 18.234V42.329H177.053V18.234H173.053ZM173.053 42.329C173.053 46.1269 174.006 49.3603 176.186 51.7384L179.135 49.0356C177.839 47.6217 177.053 45.4831 177.053 42.329H173.053ZM176.205 51.759C178.391 54.077 181.328 55.152 184.771 55.152V51.152C182.209 51.152 180.406 50.3837 179.116 49.015L176.205 51.759ZM184.771 55.152C188.254 55.152 191.222 54.0842 193.415 51.759L190.504 49.015C189.221 50.3765 187.397 51.152 184.771 51.152V55.152ZM193.434 51.7384C195.614 49.3603 196.567 46.1269 196.567 42.329H192.567C192.567 45.4831 191.781 47.6217 190.485 49.0356L193.434 51.7384ZM196.567 42.329V18.234H192.567V42.329H196.567ZM194.567 20.234H205.706V16.234H194.567V20.234ZM229.495 27.319V25.319H227.495V27.319H229.495ZM230.522 51.73L229.108 53.1442L229.162 53.1985L229.22 53.2485L230.522 51.73ZM239.291 52.678H241.291V50.678H239.291V52.678ZM239.291 62V64H241.291V62H239.291ZM218.356 27.319H220.356V25.319H218.356V27.319ZM213.142 27.319H211.142V29.319H213.142V27.319ZM213.142 18.234V16.234H211.142V18.234H213.142ZM218.356 18.234V20.234H220.356V18.234H218.356ZM218.356 7.411V5.411H216.356V7.411H218.356ZM229.495 7.411H231.495V5.411H229.495V7.411ZM229.495 18.234H227.495V20.234H229.495V18.234ZM239.291 18.234H241.291V16.234H239.291V18.234ZM239.291 27.319V29.319H241.291V27.319H239.291ZM227.495 27.319V48.491H231.495V27.319H227.495ZM227.495 48.491C227.495 50.2236 227.891 51.9279 229.108 53.1442L231.936 50.3158C231.783 50.1627 231.495 49.7077 231.495 48.491H227.495ZM229.22 53.2485C230.505 54.3498 232.312 54.678 234.156 54.678V50.678C232.629 50.678 232.013 50.3742 231.824 50.2115L229.22 53.2485ZM234.156 54.678H239.291V50.678H234.156V54.678ZM237.291 52.678V62H241.291V52.678H237.291ZM239.291 60H232.339V64H239.291V60ZM232.339 60C227.972 60 225.067 58.9386 223.246 57.1687C221.435 55.409 220.356 52.6183 220.356 48.412H216.356C216.356 53.2644 217.608 57.2676 220.458 60.0373C223.297 62.7967 227.384 64 232.339 64V60ZM220.356 48.412V27.319H216.356V48.412H220.356ZM218.356 25.319H213.142V29.319H218.356V25.319ZM215.142 27.319V18.234H211.142V27.319H215.142ZM213.142 20.234H218.356V16.234H213.142V20.234ZM220.356 18.234V7.411H216.356V18.234H220.356ZM218.356 9.411H229.495V5.411H218.356V9.411ZM227.495 7.411V18.234H231.495V7.411H227.495ZM229.495 20.234H239.291V16.234H229.495V20.234ZM237.291 18.234V27.319H241.291V18.234H237.291ZM239.291 25.319H229.495V29.319H239.291V25.319ZM274.681 60.578L273.889 62.4147L273.901 62.4195L274.681 60.578ZM267.413 54.89L265.793 56.0622L267.413 54.89ZM264.648 46.121V44.121H262.617L262.648 46.1522L264.648 46.121ZM276.498 46.121L278.493 45.9818L278.363 44.121H276.498V46.121ZM278.868 51.493L277.509 52.9605L277.523 52.9728L277.536 52.9849L278.868 51.493ZM290.955 51.651L292.225 53.1964L292.241 53.1832L292.257 53.1695L290.955 51.651ZM291.666 42.724L290.216 44.1015L291.666 42.724ZM287.874 40.275L287.086 42.1133L287.125 42.13L287.165 42.145L287.874 40.275ZM281.712 38.221L281.148 40.1397L281.16 40.1434L281.173 40.1469L281.712 38.221ZM272.943 35.14L272.083 36.9457L272.109 36.9579L272.135 36.9694L272.943 35.14ZM267.176 30.479L265.576 31.679L265.593 31.7015L265.61 31.7235L267.176 30.479ZM267.255 13.573L268.914 14.6907L267.255 13.573ZM274.128 8.043L274.916 9.88129L274.93 9.87539L274.943 9.86927L274.128 8.043ZM298.065 10.255L296.824 11.8236L296.837 11.8337L296.85 11.8437L298.065 10.255ZM303.99 21.789V23.789H306.145L305.985 21.6405L303.99 21.789ZM291.824 21.789L289.827 21.8999L289.932 23.789H291.824V21.789ZM289.375 17.128L288.074 18.6465L288.102 18.6713L288.132 18.695L289.375 17.128ZM278.236 16.891L276.95 15.3596L276.934 15.3726L276.919 15.3858L278.236 16.891ZM277.762 25.423L276.31 26.7985L276.347 26.8377L276.387 26.8749L277.762 25.423ZM281.396 27.793L280.584 29.6206L280.624 29.6385L280.665 29.6545L281.396 27.793ZM287.558 29.847L286.983 31.7627L286.994 31.7657L287.558 29.847ZM302.173 37.747L300.592 38.9721L302.173 37.747ZM302.331 54.258L300.619 53.2238L302.331 54.258ZM295.616 60.341L296.511 62.1299L296.523 62.1235L296.536 62.117L295.616 60.341ZM285.109 60.553C281.495 60.553 278.29 59.935 275.461 58.7365L273.901 62.4195C277.287 63.8543 281.034 64.553 285.109 64.553V60.553ZM275.473 58.7413C272.719 57.5543 270.594 55.8753 269.034 53.7178L265.793 56.0622C267.813 58.8554 270.534 60.9684 273.889 62.4146L275.473 58.7413ZM269.034 53.7178C267.508 51.6091 266.695 49.0946 266.648 46.0898L262.648 46.1522C262.707 49.8888 263.737 53.2202 265.793 56.0622L269.034 53.7178ZM264.648 48.121H276.498V44.121H264.648V48.121ZM274.503 46.2602C274.69 48.9395 275.651 51.2397 277.509 52.9605L280.227 50.0255C279.242 49.113 278.622 47.8318 278.493 45.9818L274.503 46.2602ZM277.536 52.9849C279.47 54.712 281.994 55.468 284.872 55.468V51.468C282.694 51.468 281.215 50.9074 280.2 50.0011L277.536 52.9849ZM284.872 55.468C287.753 55.468 290.284 54.7907 292.225 53.1964L289.686 50.1055C288.677 50.9339 287.153 51.468 284.872 51.468V55.468ZM292.257 53.1695C294.19 51.5125 295.167 49.3178 295.167 46.753H291.167C291.167 48.1909 290.67 49.2615 289.654 50.1325L292.257 53.1695ZM295.167 46.753C295.167 44.6764 294.515 42.8185 293.116 41.3465L290.216 44.1015C290.819 44.7361 291.167 45.5643 291.167 46.753H295.167ZM293.116 41.3465C291.884 40.0498 290.356 39.0775 288.583 38.405L287.165 42.145C288.447 42.6312 289.447 43.2915 290.216 44.1015L293.116 41.3465ZM288.662 38.4367C287.07 37.7543 284.919 37.0421 282.251 36.2951L281.173 40.1469C283.772 40.8745 285.729 41.5317 287.086 42.1133L288.662 38.4367ZM282.276 36.3023C278.741 35.2625 275.908 34.2635 273.751 33.3106L272.135 36.9694C274.508 38.0179 277.521 39.0729 281.148 40.1397L282.276 36.3023ZM273.803 33.3343C271.885 32.421 270.199 31.0674 268.742 29.2345L265.61 31.7235C267.419 33.9986 269.577 35.7523 272.083 36.9457L273.803 33.3343ZM268.776 29.279C267.528 27.6147 266.806 25.2863 266.806 22.105H262.806C262.806 25.8757 263.664 29.13 265.576 31.679L268.776 29.279ZM266.806 22.105C266.806 19.1893 267.529 16.7449 268.914 14.6907L265.597 12.4553C263.716 15.2464 262.806 18.4901 262.806 22.105H266.806ZM268.914 14.6907C270.31 12.618 272.284 11.0093 274.916 9.88129L273.34 6.20471C270.074 7.60472 267.465 9.68264 265.597 12.4553L268.914 14.6907ZM274.943 9.86927C277.595 8.68534 280.681 8.068 284.24 8.068V4.068C280.216 4.068 276.56 4.76733 273.313 6.21672L274.943 9.86927ZM284.24 8.068C289.599 8.068 293.733 9.37852 296.824 11.8236L299.306 8.68643C295.34 5.54881 290.257 4.068 284.24 4.068V8.068ZM296.85 11.8437C299.929 14.1982 301.665 17.4917 301.996 21.9375L305.985 21.6405C305.578 16.1849 303.364 11.7892 299.28 8.66628L296.85 11.8437ZM303.99 19.789H291.824V23.789H303.99V19.789ZM293.821 21.6781C293.683 19.1941 292.58 17.1168 290.618 15.561L288.132 18.695C289.225 19.5618 289.755 20.5919 289.827 21.8999L293.821 21.6781ZM290.677 15.6095C288.749 13.9572 286.268 13.232 283.45 13.232V17.232C285.583 17.232 287.052 17.7708 288.074 18.6465L290.677 15.6095ZM283.45 13.232C280.944 13.232 278.711 13.8799 276.95 15.3596L279.523 18.4224C280.394 17.6901 281.638 17.232 283.45 17.232V13.232ZM276.919 15.3858C275.115 16.9646 274.34 19.1847 274.34 21.71H278.34C278.34 20.0219 278.829 19.0294 279.553 18.3961L276.919 15.3858ZM274.34 21.71C274.34 23.6572 274.984 25.3988 276.31 26.7985L279.214 24.0475C278.644 23.4459 278.34 22.7122 278.34 21.71H274.34ZM276.387 26.8749C277.572 27.998 278.981 28.9081 280.584 29.6206L282.208 25.9654C280.968 25.4139 279.953 24.744 279.138 23.9711L276.387 26.8749ZM280.665 29.6545C282.215 30.2635 284.33 30.9665 286.983 31.7626L288.133 27.9314C285.52 27.1475 283.527 26.4812 282.127 25.9315L280.665 29.6545ZM286.994 31.7657C290.521 32.8033 293.342 33.8242 295.484 34.8204L297.171 31.1936C294.783 30.0832 291.758 28.9974 288.122 27.9283L286.994 31.7657ZM295.484 34.8204C297.44 35.7303 299.142 37.1002 300.592 38.9721L303.754 36.5219C301.939 34.1805 299.744 32.3904 297.171 31.1936L295.484 34.8204ZM300.592 38.9721C301.884 40.6393 302.622 42.9348 302.622 46.042H306.622C306.622 42.3025 305.727 39.068 303.754 36.5219L300.592 38.9721ZM302.622 46.042C302.622 48.6262 301.958 51.0073 300.619 53.2238L304.043 55.2922C305.759 52.4527 306.622 49.3565 306.622 46.042H302.622ZM300.619 53.2238C299.306 55.3982 297.36 57.1855 294.696 58.565L296.536 62.117C299.771 60.4418 302.302 58.1738 304.043 55.2922L300.619 53.2238ZM294.722 58.5521C292.107 59.8597 288.924 60.553 285.109 60.553V64.553C289.405 64.553 293.227 63.7716 296.511 62.1299L294.722 58.5521ZM314.132 28.267L315.887 29.2266L315.893 29.2152L314.132 28.267ZM321.795 20.367L322.778 22.1087L322.789 22.1027L322.799 22.0966L321.795 20.367ZM346.443 21.631L345.216 23.211L345.23 23.2211L345.243 23.231L346.443 21.631ZM353.632 33.007V35.007H356.187L355.573 32.5268L353.632 33.007ZM341.703 33.007L339.805 33.6395L340.261 35.007H341.703V33.007ZM338.464 28.583L337.264 30.183L337.296 30.2069L337.328 30.2294L338.464 28.583ZM325.429 30.4L326.98 31.6625L326.987 31.6538L326.994 31.645L325.429 30.4ZM325.429 49.834L323.864 51.079L323.871 51.0878L323.878 51.0965L325.429 49.834ZM341.703 47.227V45.227H340.273L339.81 46.5796L341.703 47.227ZM353.632 47.227L355.57 47.7222L356.207 45.227H353.632V47.227ZM346.443 58.524L347.672 60.1015L346.443 58.524ZM321.795 59.946L320.79 61.6756L320.801 61.6817L320.812 61.6876L321.795 59.946ZM314.132 52.046L312.371 52.9942L312.377 53.0056L314.132 52.046ZM313.367 40.117C313.367 35.8629 314.231 32.2544 315.887 29.2266L312.377 27.3074C310.346 31.0209 309.367 35.3124 309.367 40.117H313.367ZM315.893 29.2152C317.564 26.1116 319.854 23.7592 322.778 22.1087L320.812 18.6254C317.205 20.6615 314.386 23.5758 312.371 27.3188L315.893 29.2152ZM322.799 22.0966C325.725 20.3976 329.11 19.523 333.013 19.523V15.523C328.489 15.523 324.395 16.5444 320.79 18.6374L322.799 22.0966ZM333.013 19.523C338.091 19.523 342.109 20.7991 345.216 23.211L347.669 20.051C343.719 16.9856 338.784 15.523 333.013 15.523V19.523ZM345.243 23.231C348.408 25.6053 350.575 28.9765 351.69 33.4872L355.573 32.5268C354.266 27.2415 351.64 23.0287 347.643 20.031L345.243 23.231ZM353.632 31.007H341.703V35.007H353.632V31.007ZM343.6 32.3745C342.842 30.1006 341.512 28.2557 339.599 26.9366L337.328 30.2294C338.47 31.0169 339.299 32.1214 339.805 33.6395L343.6 32.3745ZM339.664 26.983C337.778 25.5686 335.49 24.924 332.934 24.924V28.924C334.802 28.924 336.2 29.3854 337.264 30.183L339.664 26.983ZM332.934 24.924C329.211 24.924 326.115 26.3249 323.864 29.155L326.994 31.645C328.429 29.8404 330.336 28.924 332.934 28.924V24.924ZM323.878 29.1375C321.639 31.8872 320.664 35.6423 320.664 40.117H324.664C324.664 36.1651 325.531 33.4421 326.98 31.6625L323.878 29.1375ZM320.664 40.117C320.664 44.5501 321.644 48.2889 323.864 51.079L326.994 48.589C325.527 46.7444 324.664 44.0052 324.664 40.117H320.664ZM323.878 51.0965C326.135 53.8699 329.229 55.231 332.934 55.231V51.231C330.319 51.231 328.409 50.3274 326.98 48.5715L323.878 51.0965ZM332.934 55.231C335.469 55.231 337.741 54.6623 339.613 53.3802C341.495 52.0916 342.799 50.2019 343.595 47.8744L339.81 46.5796C339.237 48.2548 338.395 49.3671 337.354 50.0798C336.303 50.7991 334.875 51.231 332.934 51.231V55.231ZM341.703 49.227H353.632V45.227H341.703V49.227ZM351.694 46.7318C350.583 51.078 348.417 54.4492 345.213 56.9465L347.672 60.1015C351.631 57.0161 354.258 52.856 355.57 47.7222L351.694 46.7318ZM345.213 56.9465C342.045 59.4162 338.024 60.711 333.013 60.711V64.711C338.746 64.711 343.678 63.2145 347.672 60.1015L345.213 56.9465ZM333.013 60.711C329.101 60.711 325.708 59.8582 322.778 58.2044L320.812 61.6876C324.413 63.7205 328.498 64.711 333.013 64.711V60.711ZM322.799 58.2164C319.855 56.5071 317.558 54.1426 315.887 51.0864L312.377 53.0056C314.392 56.6907 317.204 59.5929 320.79 61.6756L322.799 58.2164ZM315.893 51.0978C314.23 48.0106 313.367 44.3702 313.367 40.117H309.367C309.367 44.9225 310.346 49.2347 312.371 52.9942L315.893 51.0978ZM402.103 43.435V45.435H403.797L404.076 43.7638L402.103 43.435ZM370.108 43.435V41.435H367.935L368.115 43.6011L370.108 43.435ZM373.426 50.861L372.073 52.3337L373.426 50.861ZM389.384 48.254V46.254H388.14L387.59 47.3703L389.384 48.254ZM401.313 48.254L403.229 48.8287L404.001 46.254H401.313V48.254ZM394.045 58.682L395.245 60.282L395.253 60.2764L395.26 60.2707L394.045 58.682ZM369.476 59.946L368.484 61.6825L368.5 61.6918L368.517 61.7007L369.476 59.946ZM361.655 51.967L359.894 52.9152L359.9 52.9256L359.906 52.936L361.655 51.967ZM361.655 28.188L359.894 27.2398L361.655 28.188ZM369.397 20.288L370.368 22.0363L369.397 20.288ZM391.991 20.209L391.03 21.9627L391.041 21.969L391.991 20.209ZM399.654 27.872L397.894 28.8219L397.903 28.8386L397.913 28.8552L399.654 27.872ZM390.964 36.009V38.009H393.002L392.964 35.972L390.964 36.009ZM387.883 29.215L386.572 30.7251L386.583 30.735L386.595 30.7448L387.883 29.215ZM373.584 29.136L374.91 30.6332L374.913 30.6308L373.584 29.136ZM370.187 36.009L368.207 35.7262L367.881 38.009H370.187V36.009ZM400.419 39.169C400.419 40.6631 400.319 41.9725 400.13 43.1062L404.076 43.7638C404.308 42.3695 404.419 40.8348 404.419 39.169H400.419ZM402.103 41.435H370.108V45.435H402.103V41.435ZM368.115 43.6011C368.411 47.1566 369.684 50.1382 372.073 52.3337L374.779 49.3883C373.271 48.0025 372.332 46.0334 372.101 43.2689L368.115 43.6011ZM372.073 52.3337C374.42 54.4901 377.311 55.547 380.615 55.547V51.547C378.232 51.547 376.33 50.8132 374.779 49.3883L372.073 52.3337ZM380.615 55.547C382.959 55.547 385.091 55.0415 386.922 53.936C388.759 52.8274 390.167 51.1919 391.178 49.1377L387.59 47.3703C386.864 48.8448 385.941 49.8557 384.855 50.5115C383.763 51.1704 382.379 51.547 380.615 51.547V55.547ZM389.384 50.254H401.313V46.254H389.384V50.254ZM399.398 47.6793C398.258 51.4787 396.086 54.6036 392.83 57.0933L395.26 60.2707C399.167 57.2831 401.841 53.456 403.229 48.8287L399.398 47.6793ZM392.845 57.082C389.665 59.4672 385.707 60.711 380.852 60.711V64.711C386.425 64.711 391.263 63.2688 395.245 60.282L392.845 57.082ZM380.852 60.711C376.941 60.711 373.484 59.8585 370.436 58.1913L368.517 61.7007C372.209 63.7202 376.337 64.711 380.852 64.711V60.711ZM370.469 58.2095C367.476 56.4997 365.128 54.1091 363.405 50.998L359.906 52.936C361.975 56.6716 364.84 59.6003 368.484 61.6825L370.469 58.2095ZM363.416 51.0188C361.752 47.9283 360.89 44.3132 360.89 40.117H356.89C356.89 44.8741 357.872 49.159 359.894 52.9152L363.416 51.0188ZM360.89 40.117C360.89 35.8638 361.754 32.2234 363.416 29.1362L359.894 27.2398C357.87 30.9993 356.89 35.3115 356.89 40.117H360.89ZM363.416 29.1362C365.083 26.0409 367.393 23.6892 370.368 22.0363L368.426 18.5397C364.765 20.5735 361.914 23.4884 359.894 27.2398L363.416 29.1362ZM370.368 22.0363C373.35 20.3797 376.826 19.523 380.852 19.523V15.523C376.241 15.523 372.08 16.5097 368.426 18.5397L370.368 22.0363ZM380.852 19.523C384.717 19.523 388.092 20.3519 391.03 21.9626L392.953 18.4554C389.359 16.4848 385.309 15.523 380.852 15.523V19.523ZM391.041 21.969C394.016 23.5744 396.289 25.8472 397.894 28.8219L401.414 26.9221C399.438 23.2608 396.602 20.4249 392.941 18.449L391.041 21.969ZM397.913 28.8552C399.564 31.7812 400.419 35.1993 400.419 39.169H404.419C404.419 34.6067 403.431 30.4935 401.396 26.8888L397.913 28.8552ZM392.964 35.972C392.902 32.6077 391.656 29.7772 389.171 27.6852L386.595 30.7448C388.113 32.0235 388.922 33.7223 388.965 36.046L392.964 35.972ZM389.195 27.7049C386.795 25.6207 383.867 24.608 380.536 24.608V28.608C382.999 28.608 384.969 29.3333 386.572 30.7251L389.195 27.7049ZM380.536 24.608C377.35 24.608 374.548 25.6034 372.255 27.6412L374.913 30.6308C376.412 29.298 378.245 28.608 380.536 28.608V24.608ZM372.258 27.6388C369.989 29.6485 368.681 32.41 368.207 35.7262L372.167 36.2918C372.536 33.7093 373.493 31.8888 374.91 30.6332L372.258 27.6388ZM370.187 38.009H390.964V34.009H370.187V38.009ZM447.385 22.579L445.948 23.9702L445.954 23.976L445.959 23.9817L447.385 22.579ZM452.204 62V64H454.204V62H452.204ZM441.144 62H439.144V64H441.144V62ZM438.537 29.847L437.063 31.1984L437.072 31.2088L437.082 31.219L438.537 29.847ZM424.159 29.847L422.705 28.4738L422.704 28.475L424.159 29.847ZM421.552 62V64H423.552V62H421.552ZM410.492 62H408.492V64H410.492V62ZM410.492 18.234V16.234H408.492V18.234H410.492ZM421.552 18.234H423.552V16.234H421.552V18.234ZM421.552 23.685H419.552V29.5141L423.131 24.9129L421.552 23.685ZM427.161 19.261L428.004 21.0744L428.013 21.0702L428.022 21.066L427.161 19.261ZM434.745 19.602C439.494 19.602 443.162 21.0931 445.948 23.9702L448.822 21.1878C445.182 17.4289 440.424 15.602 434.745 15.602V19.602ZM445.959 23.9817C448.707 26.7739 450.204 30.7936 450.204 36.325H454.204C454.204 30.059 452.489 24.9147 448.811 21.1763L445.959 23.9817ZM450.204 36.325V62H454.204V36.325H450.204ZM452.204 60H441.144V64H452.204V60ZM443.144 62V37.826H439.144V62H443.144ZM443.144 37.826C443.144 34.0322 442.193 30.809 439.992 28.475L437.082 31.219C438.357 32.5716 439.144 34.6678 439.144 37.826H443.144ZM440.011 28.4956C437.83 26.1163 434.887 25.003 431.427 25.003V29.003C433.971 29.003 435.768 29.7857 437.063 31.1984L440.011 28.4956ZM431.427 25.003C427.925 25.003 424.939 26.1088 422.705 28.4738L425.613 31.2202C426.961 29.7932 428.82 29.003 431.427 29.003V25.003ZM422.704 28.475C420.503 30.809 419.552 34.0322 419.552 37.826H423.552C423.552 34.6678 424.339 32.5716 425.614 31.219L422.704 28.475ZM419.552 37.826V62H423.552V37.826H419.552ZM421.552 60H410.492V64H421.552V60ZM412.492 62V18.234H408.492V62H412.492ZM410.492 20.234H421.552V16.234H410.492V20.234ZM419.552 18.234V23.685H423.552V18.234H419.552ZM423.131 24.9129C424.402 23.2778 426.016 21.9993 428.004 21.0744L426.318 17.4476C423.777 18.6294 421.651 20.3002 419.973 22.4571L423.131 24.9129ZM428.022 21.066C430.053 20.0968 432.284 19.602 434.745 19.602V15.602C431.729 15.602 428.904 16.2132 426.3 17.456L428.022 21.066ZM463.432 11.203L462.018 12.6172L462.048 12.6467L462.078 12.6749L463.432 11.203ZM463.432 1.96L464.816 3.40397L464.818 3.40277L463.432 1.96ZM473.15 1.96L471.735 3.37421L471.765 3.40366L471.795 3.43186L473.15 1.96ZM473.15 11.203L474.533 12.647L474.535 12.6458L473.15 11.203ZM473.781 18.234H475.781V16.234H473.781V18.234ZM473.781 62V64H475.781V62H473.781ZM462.721 62H460.721V64H462.721V62ZM462.721 18.234V16.234H460.721V18.234H462.721ZM468.331 11.02C466.835 11.02 465.7 10.5713 464.787 9.73114L462.078 12.6749C463.799 14.2574 465.929 15.02 468.331 15.02V11.02ZM464.847 9.78879C463.971 8.91274 463.536 7.8734 463.536 6.542H459.536C459.536 8.89726 460.366 10.9653 462.018 12.6172L464.847 9.78879ZM463.536 6.542C463.536 5.21157 463.969 4.21631 464.816 3.40397L462.049 0.516018C460.368 2.12635 459.536 4.18576 459.536 6.542H463.536ZM464.818 3.40277C465.735 2.5221 466.86 2.064 468.331 2.064V-1.936C465.904 -1.936 463.763 -1.13011 462.047 0.51722L464.818 3.40277ZM468.331 2.064C469.801 2.064 470.882 2.52094 471.735 3.37421L474.564 0.54578C472.889 -1.12895 470.757 -1.936 468.331 -1.936V2.064ZM471.795 3.43186C472.686 4.25166 473.125 5.2388 473.125 6.542H477.125C477.125 4.15852 476.246 2.091 474.504 0.488132L471.795 3.43186ZM473.125 6.542C473.125 7.84687 472.684 8.87759 471.764 9.76023L474.535 12.6458C476.248 11.0004 477.125 8.92379 477.125 6.542H473.125ZM471.766 9.75902C470.917 10.5719 469.827 11.02 468.331 11.02V15.02C470.731 15.02 472.854 14.2567 474.533 12.647L471.766 9.75902ZM471.781 18.234V62H475.781V18.234H471.781ZM473.781 60H462.721V64H473.781V60ZM464.721 62V18.234H460.721V62H464.721ZM462.721 20.234H473.781V16.234H462.721V20.234ZM526.026 18.234H528.026V16.234H526.026V18.234ZM526.026 62V64H528.026V62H526.026ZM514.887 62H512.887V64H514.887V62ZM514.887 56.47H516.887V50.47L513.287 55.27L514.887 56.47ZM509.278 60.973L510.121 62.7864L510.13 62.7822L510.139 62.778L509.278 60.973ZM492.767 60.42L491.79 62.165L491.803 62.1725L491.817 62.1798L492.767 60.42ZM486.526 54.021L484.75 54.9416L484.761 54.9614L484.771 54.981L486.526 54.021ZM484.314 18.234V16.234H482.314V18.234H484.314ZM495.374 18.234H497.374V16.234H495.374V18.234ZM497.981 50.387L496.507 51.7384L496.516 51.7488L496.526 51.759L497.981 50.387ZM512.28 50.387L513.735 51.759L513.745 51.7488L513.754 51.7384L512.28 50.387ZM514.887 18.234V16.234H512.887V18.234H514.887ZM524.026 18.234V62H528.026V18.234H524.026ZM526.026 60H514.887V64H526.026V60ZM516.887 62V56.47H512.887V62H516.887ZM513.287 55.27C512.074 56.8865 510.467 58.1892 508.416 59.168L510.139 62.778C512.723 61.5448 514.855 59.8455 516.487 57.67L513.287 55.27ZM508.434 59.1596C506.453 60.0809 504.269 60.553 501.852 60.553V64.553C504.807 64.553 507.573 63.9717 510.121 62.7864L508.434 59.1596ZM501.852 60.553C498.712 60.553 496.019 59.9031 493.717 58.6602L491.817 62.1798C494.781 63.7809 498.145 64.553 501.852 64.553V60.553ZM493.744 58.675C491.456 57.394 489.638 55.5416 488.28 53.061L484.771 54.981C486.469 58.0831 488.81 60.4967 491.79 62.165L493.744 58.675ZM488.301 53.1004C487.003 50.596 486.314 47.5545 486.314 43.909H482.314C482.314 48.0582 483.099 51.758 484.75 54.9416L488.301 53.1004ZM486.314 43.909V18.234H482.314V43.909H486.314ZM484.314 20.234H495.374V16.234H484.314V20.234ZM493.374 18.234V42.329H497.374V18.234H493.374ZM493.374 42.329C493.374 46.1269 494.327 49.3603 496.507 51.7384L499.455 49.0356C498.159 47.6217 497.374 45.4831 497.374 42.329H493.374ZM496.526 51.759C498.711 54.077 501.648 55.152 505.091 55.152V51.152C502.529 51.152 500.726 50.3837 499.436 49.015L496.526 51.759ZM505.091 55.152C508.574 55.152 511.543 54.0842 513.735 51.759L510.825 49.015C509.541 50.3765 507.717 51.152 505.091 51.152V55.152ZM513.754 51.7384C515.934 49.3603 516.887 46.1269 516.887 42.329H512.887C512.887 45.4831 512.102 47.6217 510.805 49.0356L513.754 51.7384ZM516.887 42.329V18.234H512.887V42.329H516.887ZM514.887 20.234H526.026V16.234H514.887V20.234ZM547.05 52.915L545.449 51.7166L543.055 54.915H547.05V52.915ZM566.563 52.915H568.563V50.915H566.563V52.915ZM566.563 62V64H568.563V62H566.563ZM534.489 62H532.489V64H534.489V62ZM534.489 53.073L532.883 51.8809L532.489 52.4118V53.073H534.489ZM553.607 27.319L555.213 28.5111L557.583 25.319H553.607V27.319ZM534.568 27.319H532.568V29.319H534.568V27.319ZM534.568 18.234V16.234H532.568V18.234H534.568ZM566.326 18.234H568.326V16.234H566.326V18.234ZM566.326 27.161L567.927 28.3594L568.326 27.8266V27.161H566.326ZM547.05 54.915H566.563V50.915H547.05V54.915ZM564.563 52.915V62H568.563V52.915H564.563ZM566.563 60H534.489V64H566.563V60ZM536.489 62V53.073H532.489V62H536.489ZM536.095 54.2651L555.213 28.5111L552.001 26.1269L532.883 51.8809L536.095 54.2651ZM553.607 25.319H534.568V29.319H553.607V25.319ZM536.568 27.319V18.234H532.568V27.319H536.568ZM534.568 20.234H566.326V16.234H534.568V20.234ZM564.326 18.234V27.161H568.326V18.234H564.326ZM564.725 25.9626L545.449 51.7166L548.651 54.1134L567.927 28.3594L564.725 25.9626ZM589.426 5.91L591.425 5.97621L591.493 3.91H589.426V5.91ZM588.162 44.067V46.067H590.097L590.161 44.1332L588.162 44.067ZM578.84 44.067L576.841 44.1374L576.909 46.067H578.84V44.067ZM577.497 5.91V3.91H575.425L575.498 5.98035L577.497 5.91ZM578.761 60.736L577.347 62.1502L577.376 62.1797L577.407 62.2079L578.761 60.736ZM578.761 51.493L580.145 52.937L580.146 52.9358L578.761 51.493ZM588.557 51.493L587.143 52.9072L587.158 52.9223L587.173 52.937L588.557 51.493ZM588.557 60.736L589.941 62.18L589.956 62.1653L589.971 62.1502L588.557 60.736ZM587.427 5.84378L586.163 44.0008L590.161 44.1332L591.425 5.97621L587.427 5.84378ZM588.162 42.067H578.84V46.067H588.162V42.067ZM580.839 43.9967L579.496 5.83965L575.498 5.98035L576.841 44.1374L580.839 43.9967ZM577.497 7.91H589.426V3.91H577.497V7.91ZM583.738 60.553C582.174 60.553 581.018 60.0947 580.115 59.2641L577.407 62.2079C579.137 63.7999 581.299 64.553 583.738 64.553V60.553ZM580.175 59.3218C579.299 58.4457 578.865 57.4064 578.865 56.075H574.865C574.865 58.4303 575.695 60.4983 577.347 62.1502L580.175 59.3218ZM578.865 56.075C578.865 54.7446 579.297 53.7493 580.145 52.937L577.377 50.049C575.697 51.6593 574.865 53.7188 574.865 56.075H578.865ZM580.146 52.9358C581.053 52.0653 582.198 51.597 583.738 51.597V47.597C581.275 47.597 579.102 48.3927 577.376 50.0502L580.146 52.9358ZM583.738 51.597C585.209 51.597 586.289 52.0539 587.143 52.9072L589.971 50.0788C588.296 48.4041 586.164 47.597 583.738 47.597V51.597ZM587.173 52.937C588.021 53.7493 588.453 54.7446 588.453 56.075H592.453C592.453 53.7188 591.621 51.6593 589.941 50.049L587.173 52.937ZM588.453 56.075C588.453 57.4064 588.019 58.4457 587.143 59.3218L589.971 62.1502C591.623 60.4983 592.453 58.4303 592.453 56.075H588.453ZM587.173 59.292C586.325 60.1049 585.234 60.553 583.738 60.553V64.553C586.139 64.553 588.261 63.7897 589.941 62.18L587.173 59.292ZM617.354 5.91L619.352 5.97621L619.421 3.91H617.354V5.91ZM616.09 44.067V46.067H618.024L618.088 44.1332L616.09 44.067ZM606.768 44.067L604.769 44.1374L604.837 46.067H606.768V44.067ZM605.424 5.91V3.91H603.353L603.426 5.98035L605.424 5.91ZM606.689 60.736L605.274 62.1502L605.304 62.1797L605.334 62.2079L606.689 60.736ZM606.689 51.493L608.072 52.937L608.074 52.9358L606.689 51.493ZM616.484 51.493L615.07 52.9072L615.085 52.9223L615.101 52.937L616.484 51.493ZM616.484 60.736L617.868 62.18L617.884 62.1653L617.899 62.1502L616.484 60.736ZM615.355 5.84378L614.091 44.0008L618.088 44.1332L619.352 5.97621L615.355 5.84378ZM616.09 42.067H606.768V46.067H616.09V42.067ZM608.766 43.9967L607.423 5.83965L603.426 5.98035L604.769 44.1374L608.766 43.9967ZM605.424 7.91H617.354V3.91H605.424V7.91ZM611.666 60.553C610.102 60.553 608.945 60.0947 608.043 59.2641L605.334 62.2079C607.065 63.7999 609.227 64.553 611.666 64.553V60.553ZM608.103 59.3218C607.227 58.4457 606.793 57.4064 606.793 56.075H602.793C602.793 58.4303 603.622 60.4983 605.274 62.1502L608.103 59.3218ZM606.793 56.075C606.793 54.7446 607.225 53.7493 608.072 52.937L605.305 50.049C603.624 51.6593 602.793 53.7188 602.793 56.075H606.793ZM608.074 52.9358C608.98 52.0653 610.126 51.597 611.666 51.597V47.597C609.202 47.597 607.03 48.3927 605.303 50.0502L608.074 52.9358ZM611.666 51.597C613.136 51.597 614.217 52.0539 615.07 52.9072L617.899 50.0788C616.224 48.4041 614.092 47.597 611.666 47.597V51.597ZM615.101 52.937C615.948 53.7493 616.38 54.7446 616.38 56.075H620.38C620.38 53.7188 619.549 51.6593 617.868 50.049L615.101 52.937ZM616.38 56.075C616.38 57.4064 615.946 58.4457 615.07 59.3218L617.899 62.1502C619.551 60.4983 620.38 58.4303 620.38 56.075H616.38ZM615.101 59.292C614.252 60.1049 613.162 60.553 611.666 60.553V64.553C614.066 64.553 616.189 63.7897 617.868 62.18L615.101 59.292Z" fill="#D10000"/>
</svg>
