<svg width="1115" height="83" viewBox="0 0 1115 83" fill="none" xmlns="http://www.w3.org/2000/svg">
<path d="M14.5365 58.919L15.515 57.1747L14.5365 58.919ZM4.26647 48.886L2.54042 49.8964L2.54589 49.9056L4.26647 48.886ZM4.26647 19.814L5.98708 20.8336L5.9925 20.8244L4.26647 19.814ZM14.5365 9.702L13.558 7.95771H13.558L14.5365 9.702ZM42.9765 9.702L41.9888 11.4411L41.998 11.4463L42.9765 9.702ZM53.1675 19.814L51.4323 20.8086L51.4395 20.8211L51.4469 20.8336L53.1675 19.814ZM53.1675 48.886L51.4414 47.8756L51.4376 47.8822L53.1675 48.886ZM42.9765 58.919L41.998 57.1747L42.9765 58.919ZM37.5255 50.466L38.5332 52.1936L38.5465 52.1858L38.5597 52.1778L37.5255 50.466ZM43.4505 43.988L45.2326 44.8959L43.4505 43.988ZM43.4505 24.633L41.6684 25.5408L41.6719 25.5478L41.6755 25.5546L43.4505 24.633ZM37.5255 18.234L36.5177 19.9616L37.5255 18.234ZM19.9085 18.234L18.9162 16.4975L18.9084 16.5019L18.9007 16.5064L19.9085 18.234ZM13.9835 24.633L15.7585 25.5546L15.762 25.5478L15.7656 25.5408L13.9835 24.633ZM13.9835 43.988L15.7656 43.0801L13.9835 43.988ZM19.9085 50.466L18.8742 52.1778L18.8951 52.1904L18.9162 52.2025L19.9085 50.466ZM28.7565 60.553C23.9228 60.553 19.5219 59.4225 15.515 57.1747L13.558 60.6633C18.1884 63.2608 23.2675 64.553 28.7565 64.553V60.553ZM15.515 57.1747C11.5035 54.9244 8.336 51.8302 5.98705 47.8664L2.54589 49.9056C5.25295 54.4738 8.93207 58.0683 13.558 60.6633L15.515 57.1747ZM5.9925 47.8756C3.65886 43.889 2.47447 39.3713 2.47447 34.271H-1.52553C-1.52553 40.02 -0.181915 45.2457 2.54044 49.8964L5.9925 47.8756ZM2.47447 34.271C2.47447 29.2269 3.6571 24.7654 5.98705 20.8336L2.54589 18.7944C-0.180161 23.3946 -1.52553 28.5711 -1.52553 34.271H2.47447ZM5.9925 20.8244C8.34296 16.809 11.5097 13.6931 15.515 11.4463L13.558 7.95771C8.92591 10.5562 5.24599 14.1817 2.54044 18.8036L5.9925 20.8244ZM15.515 11.4463C19.5219 9.19851 23.9228 8.068 28.7565 8.068V4.068C23.2675 4.068 18.1884 5.36016 13.558 7.95771L15.515 11.4463ZM28.7565 8.068C33.6467 8.068 38.0429 9.20023 41.9888 11.4411L43.9641 7.96287C39.378 5.35844 34.2942 4.068 28.7565 4.068V8.068ZM41.998 11.4463C45.9995 13.6911 49.1358 16.8019 51.4323 20.8086L54.9027 18.8194C52.2485 14.1888 48.5907 10.5583 43.955 7.95771L41.998 11.4463ZM51.4469 20.8336C53.7768 24.7654 54.9595 29.2269 54.9595 34.271H58.9595C58.9595 28.5711 57.6141 23.3946 54.8881 18.7944L51.4469 20.8336ZM54.9595 34.271C54.9595 39.3713 53.7751 43.889 51.4415 47.8756L54.8935 49.8964C57.6159 45.2457 58.9595 40.02 58.9595 34.271H54.9595ZM51.4376 47.8822C49.1427 51.8373 46.0057 54.9265 41.998 57.1747L43.955 60.6633C48.5845 58.0662 52.2416 54.4667 54.8974 49.8898L51.4376 47.8822ZM41.998 57.1747C37.9911 59.4225 33.5902 60.553 28.7565 60.553V64.553C34.2454 64.553 39.3246 63.2608 43.955 60.6633L41.998 57.1747ZM28.7565 54.678C32.3803 54.678 35.6602 53.8695 38.5332 52.1936L36.5177 48.7384C34.3348 50.0118 31.7686 50.678 28.7565 50.678V54.678ZM38.5597 52.1778C41.4268 50.4457 43.6519 47.9986 45.2326 44.8959L41.6684 43.0801C40.4051 45.56 38.6802 47.4317 36.4912 48.7542L38.5597 52.1778ZM45.2326 44.8959C46.8211 41.7776 47.5835 38.2176 47.5835 34.271H43.5835C43.5835 37.6977 42.9239 40.6157 41.6684 43.0801L45.2326 44.8959ZM47.5835 34.271C47.5835 30.3256 46.8215 26.7852 45.2255 23.7114L41.6755 25.5546C42.9235 27.9582 43.5835 30.8431 43.5835 34.271H47.5835ZM45.2326 23.7251C43.6492 20.6171 41.4162 18.1882 38.5332 16.5064L36.5177 19.9616C38.6908 21.2292 40.4077 23.0662 41.6684 25.5408L45.2326 23.7251ZM38.5332 16.5064C35.6602 14.8305 32.3803 14.022 28.7565 14.022V18.022C31.7686 18.022 34.3348 18.6882 36.5177 19.9616L38.5332 16.5064ZM28.7565 14.022C25.1318 14.022 21.8331 14.8307 18.9162 16.4975L20.9007 19.9705C23.1452 18.6879 25.7452 18.022 28.7565 18.022V14.022ZM18.9007 16.5064C16.0178 18.1882 13.7847 20.6171 12.2014 23.7251L15.7656 25.5408C17.0262 23.0662 18.7432 21.2292 20.9162 19.9616L18.9007 16.5064ZM12.2085 23.7114C10.6125 26.7852 9.85047 30.3256 9.85047 34.271H13.8505C13.8505 30.8431 14.5105 27.9582 15.7585 25.5546L12.2085 23.7114ZM9.85047 34.271C9.85047 38.2176 10.6129 41.7776 12.2014 44.8959L15.7656 43.0801C14.5101 40.6157 13.8505 37.6977 13.8505 34.271H9.85047ZM12.2014 44.8959C13.7821 47.9986 16.0072 50.4456 18.8742 52.1778L20.9427 48.7542C18.7538 47.4317 17.0289 45.56 15.7656 43.0801L12.2014 44.8959ZM18.9162 52.2025C21.8331 53.8693 25.1318 54.678 28.7565 54.678V50.678C25.7452 50.678 23.1452 50.0121 20.9007 48.7295L18.9162 52.2025ZM106.505 18.234H108.505V16.234H106.505V18.234ZM106.505 62V64H108.505V62H106.505ZM95.3658 62H93.3658V64H95.3658V62ZM95.3658 56.47H97.3658V50.47L93.7658 55.27L95.3658 56.47ZM89.7568 60.973L90.6003 62.7864L90.6093 62.7822L90.6183 62.778L89.7568 60.973ZM73.2458 60.42L72.2686 62.165L72.282 62.1725L72.2955 62.1798L73.2458 60.42ZM67.0048 54.021L65.2293 54.9416L65.2396 54.9614L65.2503 54.981L67.0048 54.021ZM64.7928 18.234V16.234H62.7928V18.234H64.7928ZM75.8528 18.234H77.8528V16.234H75.8528V18.234ZM78.4598 50.387L76.9855 51.7384L76.995 51.7488L77.0046 51.759L78.4598 50.387ZM92.7588 50.387L94.214 51.759L94.2236 51.7488L94.2331 51.7384L92.7588 50.387ZM95.3658 18.234V16.234H93.3658V18.234H95.3658ZM104.505 18.234V62H108.505V18.234H104.505ZM106.505 60H95.3658V64H106.505V60ZM97.3658 62V56.47H93.3658V62H97.3658ZM93.7658 55.27C92.5535 56.8865 90.9462 58.1892 88.8954 59.168L90.6183 62.778C93.2021 61.5448 95.3342 59.8455 96.9658 57.67L93.7658 55.27ZM88.9134 59.1596C86.9324 60.0809 84.7478 60.553 82.3308 60.553V64.553C85.2859 64.553 88.0519 63.9717 90.6003 62.7864L88.9134 59.1596ZM82.3308 60.553C79.1911 60.553 76.4978 59.9031 74.1961 58.6602L72.2955 62.1798C75.2605 63.7809 78.6239 64.553 82.3308 64.553V60.553ZM74.223 58.675C71.9355 57.394 70.1167 55.5416 68.7593 53.061L65.2503 54.981C66.9476 58.0831 69.2895 60.4967 72.2686 62.165L74.223 58.675ZM68.7803 53.1004C67.4818 50.596 66.7928 47.5545 66.7928 43.909H62.7928C62.7928 48.0582 63.5785 51.758 65.2293 54.9416L68.7803 53.1004ZM66.7928 43.909V18.234H62.7928V43.909H66.7928ZM64.7928 20.234H75.8528V16.234H64.7928V20.234ZM73.8528 18.234V42.329H77.8528V18.234H73.8528ZM73.8528 42.329C73.8528 46.1269 74.8055 49.3603 76.9855 51.7384L79.9341 49.0356C78.6381 47.6217 77.8528 45.4831 77.8528 42.329H73.8528ZM77.0046 51.759C79.1902 54.077 82.1275 55.152 85.5698 55.152V51.152C83.0082 51.152 81.2055 50.3837 79.915 49.015L77.0046 51.759ZM85.5698 55.152C89.0531 55.152 92.0217 54.0842 94.214 51.759L91.3036 49.015C90.0199 50.3765 88.1959 51.152 85.5698 51.152V55.152ZM94.2331 51.7384C96.4131 49.3603 97.3658 46.1269 97.3658 42.329H93.3658C93.3658 45.4831 92.5806 47.6217 91.2845 49.0356L94.2331 51.7384ZM97.3658 42.329V18.234H93.3658V42.329H97.3658ZM95.3658 20.234H106.505V16.234H95.3658V20.234ZM128.477 25.028H126.477V32.1112L130.182 26.074L128.477 25.028ZM134.007 19.577L133.019 17.8381L133.011 17.843L133.002 17.848L134.007 19.577ZM141.907 17.602H143.907V15.602H141.907V17.602ZM141.907 29.215V31.215H143.907V29.215H141.907ZM131.084 31.664L129.737 30.1861L129.726 30.1961L129.715 30.2063L131.084 31.664ZM128.477 62V64H130.477V62H128.477ZM117.417 62H115.417V64H117.417V62ZM117.417 18.234V16.234H115.417V18.234H117.417ZM128.477 18.234H130.477V16.234H128.477V18.234ZM130.182 26.074C131.438 24.0276 133.045 22.45 135.013 21.306L133.002 17.848C130.44 19.3374 128.361 21.3937 126.773 23.982L130.182 26.074ZM134.995 21.3159C136.98 20.1881 139.267 19.602 141.907 19.602V15.602C138.649 15.602 135.669 16.3325 133.019 17.8381L134.995 21.3159ZM139.907 17.602V29.215H143.907V17.602H139.907ZM141.907 27.215H138.984V31.215H141.907V27.215ZM138.984 27.215C135.225 27.215 132.029 28.0965 129.737 30.1861L132.432 33.1419C133.721 31.9662 135.792 31.215 138.984 31.215V27.215ZM129.715 30.2063C127.369 32.4102 126.477 35.9545 126.477 40.196H130.477C130.477 36.3268 131.324 34.1831 132.454 33.1217L129.715 30.2063ZM126.477 40.196V62H130.477V40.196H126.477ZM128.477 60H117.417V64H128.477V60ZM119.417 62V18.234H115.417V62H119.417ZM117.417 20.234H128.477V16.234H117.417V20.234ZM126.477 18.234V25.028H130.477V18.234H126.477ZM202.704 10.255L201.784 12.0309L201.793 12.0353L202.704 10.255ZM212.895 19.972L211.152 20.9525L211.159 20.9655L211.167 20.9784L212.895 19.972ZM212.895 49.044L211.167 48.0376L211.163 48.0446L212.895 49.044ZM202.704 58.603L201.793 56.8227L201.784 56.8272L202.704 58.603ZM168.181 62H166.181V64H168.181V62ZM168.181 6.858V4.858H166.181V6.858H168.181ZM200.492 47.859L199.078 46.4448L200.492 47.859ZM200.492 21.078L199.055 22.4688L199.06 22.4747L199.066 22.4805L200.492 21.078ZM179.241 16.18V14.18H177.241V16.18H179.241ZM179.241 52.599H177.241V54.599H179.241V52.599ZM187.457 8.858C192.987 8.858 197.743 9.93742 201.784 12.0308L203.624 8.47916C198.922 6.04325 193.514 4.858 187.457 4.858V8.858ZM201.793 12.0353C205.877 14.1262 208.98 17.0918 211.152 20.9525L214.638 18.9915C212.07 14.4256 208.379 10.9131 203.615 8.4747L201.793 12.0353ZM211.167 20.9784C213.386 24.7905 214.529 29.2782 214.529 34.508H218.529C218.529 28.6778 217.249 23.4748 214.623 18.9656L211.167 20.9784ZM214.529 34.508C214.529 39.7378 213.386 44.2255 211.167 48.0376L214.623 50.0504C217.249 45.5412 218.529 40.3382 218.529 34.508H214.529ZM211.163 48.0446C208.995 51.8021 205.891 54.7249 201.793 56.8227L203.615 60.3833C208.365 57.9518 212.055 54.5019 214.627 50.0434L211.163 48.0446ZM201.784 56.8272C197.743 58.9206 192.987 60 187.457 60V64C193.514 64 198.922 62.8148 203.624 60.3788L201.784 56.8272ZM187.457 60H168.181V64H187.457V60ZM170.181 62V6.858H166.181V62H170.181ZM168.181 8.858H187.457V4.858H168.181V8.858ZM187.062 54.599C193.222 54.599 198.269 52.9102 201.906 49.2732L199.078 46.4448C196.395 49.1278 192.489 50.599 187.062 50.599V54.599ZM201.906 49.2732C205.54 45.6395 207.232 40.6211 207.232 34.508H203.232C203.232 39.8762 201.764 43.7585 199.078 46.4448L201.906 49.2732ZM207.232 34.508C207.232 28.3931 205.539 23.3574 201.918 19.6755L199.066 22.4805C201.765 25.224 203.232 29.1416 203.232 34.508H207.232ZM201.929 19.6872C198.296 15.9324 193.24 14.18 187.062 14.18V18.18C192.471 18.18 196.368 19.6929 199.055 22.4688L201.929 19.6872ZM187.062 14.18H179.241V18.18H187.062V14.18ZM177.241 16.18V52.599H181.241V16.18H177.241ZM179.241 54.599H187.062V50.599H179.241V54.599ZM224.571 28.188L222.799 27.261L222.793 27.2718L222.788 27.2826L224.571 28.188ZM231.76 20.288L230.727 18.5756L230.72 18.5796L230.713 18.5837L231.76 20.288ZM250.483 19.498L249.528 21.2552L249.536 21.2595L249.544 21.2637L250.483 19.498ZM256.408 24.475L254.798 25.6614L258.408 30.5608V24.475H256.408ZM256.408 18.234V16.234H254.408V18.234H256.408ZM267.547 18.234H269.547V16.234H267.547V18.234ZM267.547 62V64H269.547V62H267.547ZM256.408 62H254.408V64H256.408V62ZM256.408 55.601H258.408V49.1985L254.764 54.4626L256.408 55.601ZM250.483 60.736L251.422 62.5017L251.429 62.4982L251.436 62.4946L250.483 60.736ZM231.76 59.867L230.692 61.558L230.699 61.5622L230.705 61.5663L231.76 59.867ZM224.571 51.888L222.782 52.7824L222.79 52.7988L222.799 52.815L224.571 51.888ZM254.828 33.244L253.069 34.195L253.074 34.2052L253.08 34.2153L254.828 33.244ZM250.562 28.82L249.548 30.5439L249.567 30.5551L249.586 30.5659L250.562 28.82ZM239.107 28.741L238.109 27.0078L239.107 28.741ZM234.841 33.165L233.102 32.1778L233.097 32.1857L233.093 32.1937L234.841 33.165ZM234.841 46.911L233.071 47.8425L233.086 47.8706L233.102 47.8982L234.841 46.911ZM239.107 51.414L238.07 53.1244L238.082 53.1312L238.093 53.1379L239.107 51.414ZM250.562 51.493L251.538 53.2389L251.557 53.2281L251.576 53.2169L250.562 51.493ZM254.828 47.069L256.576 48.0403L256.582 48.0302L256.587 48.02L254.828 47.069ZM223.964 39.959C223.964 35.8016 224.779 32.1962 226.354 29.0934L222.788 27.2826C220.887 31.0264 219.964 35.2684 219.964 39.959H223.964ZM226.343 29.115C227.983 25.9796 230.141 23.6288 232.806 21.9923L230.713 18.5837C227.375 20.6339 224.74 23.5497 222.799 27.261L226.343 29.115ZM232.793 22.0004C235.521 20.3545 238.557 19.523 241.951 19.523V15.523C237.866 15.523 234.108 16.5349 230.727 18.5756L232.793 22.0004ZM241.951 19.523C244.944 19.523 247.448 20.1249 249.528 21.2552L251.438 17.7407C248.673 16.2378 245.488 15.523 241.951 15.523V19.523ZM249.544 21.2637C251.789 22.458 253.522 23.9301 254.798 25.6614L258.018 23.2886C256.344 21.0173 254.128 19.1714 251.422 17.7323L249.544 21.2637ZM258.408 24.475V18.234H254.408V24.475H258.408ZM256.408 20.234H267.547V16.234H256.408V20.234ZM265.547 18.234V62H269.547V18.234H265.547ZM267.547 60H256.408V64H267.547V60ZM258.408 62V55.601H254.408V62H258.408ZM254.764 54.4626C253.546 56.222 251.824 57.735 249.53 58.9774L251.436 62.4946C254.198 60.9983 256.426 59.088 258.052 56.7394L254.764 54.4626ZM249.544 58.9703C247.402 60.1096 244.864 60.711 241.872 60.711V64.711C245.411 64.711 248.613 63.9958 251.422 62.5017L249.544 58.9703ZM241.872 60.711C238.548 60.711 235.544 59.862 232.815 58.1677L230.705 61.5663C234.085 63.664 237.823 64.711 241.872 64.711V60.711ZM232.828 58.176C230.15 56.4846 227.985 54.1004 226.343 50.961L222.799 52.815C224.738 56.5222 227.366 59.4574 230.692 61.558L232.828 58.176ZM226.36 50.9936C224.78 47.8347 223.964 44.1724 223.964 39.959H219.964C219.964 44.6989 220.886 48.9893 222.782 52.7824L226.36 50.9936ZM258.408 40.117C258.408 37.1712 257.83 34.5287 256.576 32.2727L253.08 34.2153C253.933 35.7513 254.408 37.6908 254.408 40.117H258.408ZM256.587 32.293C255.368 30.0381 253.686 28.2748 251.538 27.0741L249.586 30.5659C251.019 31.3665 252.181 32.5526 253.069 34.195L256.587 32.293ZM251.576 27.0961C249.482 25.8642 247.21 25.24 244.795 25.24V29.24C246.488 29.24 248.061 29.6692 249.548 30.5439L251.576 27.0961ZM244.795 25.24C242.4 25.24 240.158 25.8279 238.109 27.0078L240.105 30.4742C241.532 29.6527 243.082 29.24 244.795 29.24V25.24ZM238.109 27.0078C236.027 28.2067 234.363 29.956 233.102 32.1778L236.58 34.1522C237.531 32.4766 238.711 31.2766 240.105 30.4742L238.109 27.0078ZM233.093 32.1937C231.842 34.4442 231.261 37.0581 231.261 39.959H235.261C235.261 37.5932 235.733 35.6778 236.589 34.1363L233.093 32.1937ZM231.261 39.959C231.261 42.8634 231.844 45.5101 233.071 47.8425L236.611 45.9795C235.732 44.3093 235.261 42.3213 235.261 39.959H231.261ZM233.102 47.8982C234.358 50.1128 236.011 51.8763 238.07 53.1244L240.144 49.7036C238.727 48.8451 237.535 47.6065 236.58 45.9238L233.102 47.8982ZM238.093 53.1379C240.179 54.3648 242.423 54.994 244.795 54.994V50.994C243.164 50.994 241.617 50.5699 240.121 49.6901L238.093 53.1379ZM244.795 54.994C247.19 54.994 249.448 54.4064 251.538 53.2389L249.586 49.7471C248.094 50.5809 246.508 50.994 244.795 50.994V54.994ZM251.576 53.2169C253.688 51.9745 255.358 50.2338 256.576 48.0403L253.08 46.0977C252.192 47.6962 251.017 48.9048 249.548 49.7691L251.576 53.2169ZM256.587 48.02C257.829 45.7233 258.408 43.065 258.408 40.117H254.408C254.408 42.541 253.934 44.5174 253.069 46.118L256.587 48.02ZM291.226 27.319V25.319H289.226V27.319H291.226ZM292.253 51.73L290.839 53.1442L290.893 53.1985L290.951 53.2485L292.253 51.73ZM301.022 52.678H303.022V50.678H301.022V52.678ZM301.022 62V64H303.022V62H301.022ZM280.087 27.319H282.087V25.319H280.087V27.319ZM274.873 27.319H272.873V29.319H274.873V27.319ZM274.873 18.234V16.234H272.873V18.234H274.873ZM280.087 18.234V20.234H282.087V18.234H280.087ZM280.087 7.411V5.411H278.087V7.411H280.087ZM291.226 7.411H293.226V5.411H291.226V7.411ZM291.226 18.234H289.226V20.234H291.226V18.234ZM301.022 18.234H303.022V16.234H301.022V18.234ZM301.022 27.319V29.319H303.022V27.319H301.022ZM289.226 27.319V48.491H293.226V27.319H289.226ZM289.226 48.491C289.226 50.2236 289.622 51.9279 290.839 53.1442L293.667 50.3158C293.514 50.1627 293.226 49.7077 293.226 48.491H289.226ZM290.951 53.2485C292.236 54.3498 294.043 54.678 295.887 54.678V50.678C294.36 50.678 293.744 50.3742 293.555 50.2115L290.951 53.2485ZM295.887 54.678H301.022V50.678H295.887V54.678ZM299.022 52.678V62H303.022V52.678H299.022ZM301.022 60H294.07V64H301.022V60ZM294.07 60C289.703 60 286.798 58.9386 284.977 57.1687C283.166 55.409 282.087 52.6183 282.087 48.412H278.087C278.087 53.2644 279.339 57.2676 282.189 60.0373C285.028 62.7967 289.115 64 294.07 64V60ZM282.087 48.412V27.319H278.087V48.412H282.087ZM280.087 25.319H274.873V29.319H280.087V25.319ZM276.873 27.319V18.234H272.873V27.319H276.873ZM274.873 20.234H280.087V16.234H274.873V20.234ZM282.087 18.234V7.411H278.087V18.234H282.087ZM280.087 9.411H291.226V5.411H280.087V9.411ZM289.226 7.411V18.234H293.226V7.411H289.226ZM291.226 20.234H301.022V16.234H291.226V20.234ZM299.022 18.234V27.319H303.022V18.234H299.022ZM301.022 25.319H291.226V29.319H301.022V25.319ZM308.74 28.188L306.968 27.261L306.962 27.2718L306.957 27.2826L308.74 28.188ZM315.929 20.288L314.896 18.5756L314.889 18.5796L314.882 18.5837L315.929 20.288ZM334.652 19.498L333.697 21.2552L333.705 21.2595L333.713 21.2637L334.652 19.498ZM340.577 24.475L338.967 25.6614L342.577 30.5608V24.475H340.577ZM340.577 18.234V16.234H338.577V18.234H340.577ZM351.716 18.234H353.716V16.234H351.716V18.234ZM351.716 62V64H353.716V62H351.716ZM340.577 62H338.577V64H340.577V62ZM340.577 55.601H342.577V49.1985L338.932 54.4626L340.577 55.601ZM334.652 60.736L335.591 62.5017L335.598 62.4982L335.604 62.4946L334.652 60.736ZM315.929 59.867L314.861 61.558L314.867 61.5622L314.874 61.5663L315.929 59.867ZM308.74 51.888L306.951 52.7824L306.959 52.7988L306.968 52.815L308.74 51.888ZM338.997 33.244L337.237 34.195L337.243 34.2052L337.249 34.2153L338.997 33.244ZM334.731 28.82L333.717 30.5439L333.736 30.5551L333.755 30.5659L334.731 28.82ZM323.276 28.741L322.278 27.0078L323.276 28.741ZM319.01 33.165L317.271 32.1778L317.266 32.1857L317.262 32.1937L319.01 33.165ZM319.01 46.911L317.24 47.8425L317.255 47.8706L317.271 47.8982L319.01 46.911ZM323.276 51.414L322.239 53.1244L322.251 53.1312L322.262 53.1379L323.276 51.414ZM334.731 51.493L335.707 53.2389L335.726 53.2281L335.745 53.2169L334.731 51.493ZM338.997 47.069L340.745 48.0403L340.751 48.0302L340.756 48.02L338.997 47.069ZM308.133 39.959C308.133 35.8016 308.948 32.1962 310.523 29.0934L306.957 27.2826C305.056 31.0264 304.133 35.2684 304.133 39.959H308.133ZM310.512 29.115C312.152 25.9796 314.31 23.6288 316.975 21.9923L314.882 18.5837C311.543 20.6339 308.909 23.5497 306.968 27.261L310.512 29.115ZM316.962 22.0004C319.69 20.3545 322.726 19.523 326.12 19.523V15.523C322.035 15.523 318.277 16.5349 314.896 18.5756L316.962 22.0004ZM326.12 19.523C329.113 19.523 331.617 20.1249 333.697 21.2552L335.607 17.7407C332.841 16.2378 329.657 15.523 326.12 15.523V19.523ZM333.713 21.2637C335.958 22.458 337.691 23.9301 338.967 25.6614L342.187 23.2886C340.513 21.0173 338.297 19.1714 335.591 17.7323L333.713 21.2637ZM342.577 24.475V18.234H338.577V24.475H342.577ZM340.577 20.234H351.716V16.234H340.577V20.234ZM349.716 18.234V62H353.716V18.234H349.716ZM351.716 60H340.577V64H351.716V60ZM342.577 62V55.601H338.577V62H342.577ZM338.932 54.4626C337.714 56.222 335.993 57.735 333.699 58.9774L335.604 62.4946C338.367 60.9983 340.595 59.088 342.221 56.7394L338.932 54.4626ZM333.713 58.9703C331.571 60.1096 329.033 60.711 326.041 60.711V64.711C329.58 64.711 332.782 63.9958 335.591 62.5017L333.713 58.9703ZM326.041 60.711C322.717 60.711 319.713 59.862 316.984 58.1677L314.874 61.5663C318.254 63.664 321.991 64.711 326.041 64.711V60.711ZM316.997 58.176C314.319 56.4846 312.154 54.1004 310.512 50.961L306.968 52.815C308.907 56.5222 311.535 59.4574 314.861 61.558L316.997 58.176ZM310.529 50.9936C308.949 47.8347 308.133 44.1724 308.133 39.959H304.133C304.133 44.6989 305.054 48.9893 306.951 52.7824L310.529 50.9936ZM342.577 40.117C342.577 37.1712 341.999 34.5287 340.745 32.2727L337.249 34.2153C338.102 35.7513 338.577 37.6908 338.577 40.117H342.577ZM340.756 32.293C339.537 30.0381 337.855 28.2748 335.707 27.0741L333.755 30.5659C335.188 31.3665 336.35 32.5526 337.237 34.195L340.756 32.293ZM335.745 27.0961C333.651 25.8642 331.379 25.24 328.964 25.24V29.24C330.657 29.24 332.23 29.6692 333.717 30.5439L335.745 27.0961ZM328.964 25.24C326.568 25.24 324.327 25.8279 322.278 27.0078L324.274 30.4742C325.701 29.6527 327.251 29.24 328.964 29.24V25.24ZM322.278 27.0078C320.196 28.2067 318.531 29.956 317.271 32.1778L320.749 34.1522C321.7 32.4766 322.88 31.2766 324.274 30.4742L322.278 27.0078ZM317.262 32.1937C316.011 34.4442 315.43 37.0581 315.43 39.959H319.43C319.43 37.5932 319.902 35.6778 320.758 34.1363L317.262 32.1937ZM315.43 39.959C315.43 42.8634 316.012 45.5101 317.24 47.8425L320.78 45.9795C319.901 44.3093 319.43 42.3213 319.43 39.959H315.43ZM317.271 47.8982C318.527 50.1128 320.18 51.8763 322.239 53.1244L324.312 49.7036C322.896 48.8451 321.704 47.6065 320.749 45.9238L317.271 47.8982ZM322.262 53.1379C324.348 54.3648 326.592 54.994 328.964 54.994V50.994C327.333 50.994 325.785 50.5699 324.29 49.6901L322.262 53.1379ZM328.964 54.994C331.359 54.994 333.617 54.4064 335.707 53.2389L333.755 49.7471C332.263 50.5809 330.677 50.994 328.964 50.994V54.994ZM335.745 53.2169C337.857 51.9745 339.527 50.2338 340.745 48.0403L337.249 46.0977C336.361 47.6962 335.186 48.9048 333.717 49.7691L335.745 53.2169ZM340.756 48.02C341.998 45.7233 342.577 43.065 342.577 40.117H338.577C338.577 42.541 338.103 44.5174 337.237 46.118L340.756 48.02ZM415.154 51.493L417.044 50.8393L416.579 49.493H415.154V51.493ZM393.192 51.493V49.493H391.768L391.302 50.8393L393.192 51.493ZM389.558 62V64H390.983L391.448 62.6537L389.558 62ZM377.945 62L376.063 61.3241L375.102 64H377.945V62ZM397.774 6.779V4.779H396.367L395.892 6.10308L397.774 6.779ZM410.651 6.779L412.533 6.10308L412.058 4.779H410.651V6.779ZM430.48 62V64H433.323L432.362 61.3241L430.48 62ZM418.788 62L416.898 62.6537L417.364 64H418.788V62ZM412.152 42.645V44.645H414.96L414.042 41.9912L412.152 42.645ZM404.173 19.577L406.063 18.9232L404.173 13.4587L402.283 18.9232L404.173 19.577ZM396.194 42.645L394.304 41.9912L393.386 44.645H396.194V42.645ZM415.154 49.493H393.192V53.493H415.154V49.493ZM391.302 50.8393L387.668 61.3463L391.448 62.6537L395.082 52.1467L391.302 50.8393ZM389.558 60H377.945V64H389.558V60ZM379.827 62.6759L399.656 7.45491L395.892 6.10308L376.063 61.3241L379.827 62.6759ZM397.774 8.779H410.651V4.779H397.774V8.779ZM408.769 7.45491L428.598 62.6759L432.362 61.3241L412.533 6.10308L408.769 7.45491ZM430.48 60H418.788V64H430.48V60ZM420.678 61.3463L417.044 50.8393L413.264 52.1467L416.898 62.6537L420.678 61.3463ZM414.042 41.9912L406.063 18.9232L402.283 20.2308L410.262 43.2988L414.042 41.9912ZM402.283 18.9232L394.304 41.9912L398.084 43.2988L406.063 20.2308L402.283 18.9232ZM396.194 44.645H412.152V40.645H396.194V44.645ZM437.655 28.188L435.883 27.261L435.877 27.2718L435.872 27.2826L437.655 28.188ZM444.923 20.288L445.956 22.0004L444.923 20.288ZM463.251 19.419L462.371 21.2151L462.386 21.2224L462.401 21.2295L463.251 19.419ZM469.413 24.317L467.808 25.5104L471.413 30.3584V24.317H469.413ZM469.413 3.54V1.54H467.413V3.54H469.413ZM480.631 3.54H482.631V1.54H480.631V3.54ZM480.631 62V64H482.631V62H480.631ZM469.413 62H467.413V64H469.413V62ZM469.413 55.522H471.413V48.6336L467.724 54.4509L469.413 55.522ZM463.646 60.736L462.707 58.9703L463.646 60.736ZM444.923 59.867L445.978 58.1677L444.923 59.867ZM437.655 51.888L435.866 52.7824L435.874 52.7988L435.883 52.815L437.655 51.888ZM467.912 33.244L466.153 34.195L466.158 34.2052L466.164 34.2153L467.912 33.244ZM463.646 28.82L462.632 30.5439L462.651 30.5551L462.67 30.5659L463.646 28.82ZM452.191 28.741L451.193 27.0078L452.191 28.741ZM447.925 33.165L446.186 32.1778L446.181 32.1857L446.177 32.1937L447.925 33.165ZM447.925 46.911L446.155 47.8425L446.17 47.8706L446.186 47.8982L447.925 46.911ZM452.191 51.414L451.154 53.1244L451.166 53.1312L451.177 53.1379L452.191 51.414ZM463.646 51.493L464.622 53.2389L464.641 53.2281L464.66 53.2169L463.646 51.493ZM467.912 47.069L469.66 48.0403L469.666 48.0302L469.671 48.02L467.912 47.069ZM437.048 39.959C437.048 35.8016 437.863 32.1962 439.438 29.0934L435.872 27.2826C433.971 31.0264 433.048 35.2684 433.048 39.959H437.048ZM439.427 29.115C441.063 25.9883 443.241 23.6389 445.956 22.0004L443.89 18.5756C440.495 20.6238 437.829 23.541 435.883 27.261L439.427 29.115ZM445.956 22.0004C448.684 20.3545 451.72 19.523 455.114 19.523V15.523C451.029 15.523 447.271 16.5349 443.89 18.5756L445.956 22.0004ZM455.114 19.523C457.65 19.523 460.061 20.0838 462.371 21.2151L464.131 17.6229C461.279 16.2262 458.266 15.523 455.114 15.523V19.523ZM462.401 21.2295C464.718 22.3168 466.499 23.7503 467.808 25.5104L471.018 23.1236C469.272 20.7757 466.946 18.9439 464.101 17.6085L462.401 21.2295ZM471.413 24.317V3.54H467.413V24.317H471.413ZM469.413 5.54H480.631V1.54H469.413V5.54ZM478.631 3.54V62H482.631V3.54H478.631ZM480.631 60H469.413V64H480.631V60ZM471.413 62V55.522H467.413V62H471.413ZM467.724 54.4509C466.558 56.29 464.906 57.8002 462.707 58.9703L464.585 62.5017C467.336 61.0385 469.529 59.0727 471.102 56.5931L467.724 54.4509ZM462.707 58.9703C460.565 60.1096 458.027 60.711 455.035 60.711V64.711C458.574 64.711 461.776 63.9958 464.585 62.5017L462.707 58.9703ZM455.035 60.711C451.711 60.711 448.707 59.862 445.978 58.1677L443.868 61.5663C447.248 63.664 450.986 64.711 455.035 64.711V60.711ZM445.978 58.1677C443.25 56.4744 441.065 54.0919 439.427 50.961L435.883 52.815C437.826 56.5308 440.487 59.4676 443.868 61.5663L445.978 58.1677ZM439.444 50.9936C437.864 47.8347 437.048 44.1724 437.048 39.959H433.048C433.048 44.6989 433.969 48.9893 435.866 52.7824L439.444 50.9936ZM471.492 40.117C471.492 37.1712 470.914 34.5287 469.66 32.2727L466.164 34.2153C467.017 35.7513 467.492 37.6908 467.492 40.117H471.492ZM469.671 32.293C468.453 30.0381 466.77 28.2748 464.622 27.0741L462.67 30.5659C464.103 31.3665 465.265 32.5526 466.153 34.195L469.671 32.293ZM464.66 27.0961C462.566 25.8642 460.294 25.24 457.879 25.24V29.24C459.572 29.24 461.145 29.6692 462.632 30.5439L464.66 27.0961ZM457.879 25.24C455.484 25.24 453.242 25.8279 451.193 27.0078L453.189 30.4742C454.616 29.6527 456.166 29.24 457.879 29.24V25.24ZM451.193 27.0078C449.111 28.2067 447.447 29.956 446.186 32.1778L449.664 34.1522C450.615 32.4766 451.795 31.2766 453.189 30.4742L451.193 27.0078ZM446.177 32.1937C444.926 34.4442 444.345 37.0581 444.345 39.959H448.345C448.345 37.5932 448.817 35.6778 449.673 34.1363L446.177 32.1937ZM444.345 39.959C444.345 42.8634 444.927 45.5101 446.155 47.8425L449.695 45.9795C448.816 44.3093 448.345 42.3213 448.345 39.959H444.345ZM446.186 47.8982C447.443 50.1128 449.095 51.8763 451.154 53.1244L453.228 49.7036C451.811 48.8451 450.619 47.6065 449.664 45.9238L446.186 47.8982ZM451.177 53.1379C453.263 54.3648 455.507 54.994 457.879 54.994V50.994C456.248 50.994 454.701 50.5699 453.205 49.6901L451.177 53.1379ZM457.879 54.994C460.274 54.994 462.532 54.4064 464.622 53.2389L462.67 49.7471C461.178 50.5809 459.592 50.994 457.879 50.994V54.994ZM464.66 53.2169C466.772 51.9745 468.442 50.2338 469.66 48.0403L466.164 46.0977C465.276 47.6962 464.101 48.9048 462.632 49.7691L464.66 53.2169ZM469.671 48.02C470.913 45.7233 471.492 43.065 471.492 40.117H467.492C467.492 42.541 467.018 44.5174 466.153 46.118L469.671 48.02ZM509.682 51.809L507.782 52.4347L509.682 58.2014L511.582 52.4347L509.682 51.809ZM520.742 18.234V16.234H519.295L518.842 17.6083L520.742 18.234ZM532.513 18.234L534.389 18.9281L535.386 16.234H532.513V18.234ZM516.318 62V64H517.71L518.194 62.6941L516.318 62ZM502.888 62L501.011 62.6911L501.493 64H502.888V62ZM486.772 18.234V16.234H483.904L484.895 18.9251L486.772 18.234ZM498.622 18.234L500.522 17.6083L500.069 16.234H498.622V18.234ZM511.582 52.4347L522.642 18.8597L518.842 17.6083L507.782 51.1833L511.582 52.4347ZM520.742 20.234H532.513V16.234H520.742V20.234ZM530.637 17.5399L514.442 61.3059L518.194 62.6941L534.389 18.9281L530.637 17.5399ZM516.318 60H502.888V64H516.318V60ZM504.765 61.3089L488.649 17.5429L484.895 18.9251L501.011 62.6911L504.765 61.3089ZM486.772 20.234H498.622V16.234H486.772V20.234ZM496.722 18.8597L507.782 52.4347L511.582 51.1833L500.522 17.6083L496.722 18.8597ZM539.436 11.203L538.022 12.6172L538.051 12.6467L538.082 12.6749L539.436 11.203ZM539.436 1.96L540.82 3.40397L540.821 3.40277L539.436 1.96ZM549.153 1.96L547.739 3.37421L547.768 3.40366L547.799 3.43186L549.153 1.96ZM549.153 11.203L550.537 12.647L550.538 12.6458L549.153 11.203ZM549.785 18.234H551.785V16.234H549.785V18.234ZM549.785 62V64H551.785V62H549.785ZM538.725 62H536.725V64H538.725V62ZM538.725 18.234V16.234H536.725V18.234H538.725ZM544.334 11.02C542.838 11.02 541.703 10.5713 540.79 9.73114L538.082 12.6749C539.802 14.2574 541.932 15.02 544.334 15.02V11.02ZM540.85 9.78879C539.974 8.91274 539.54 7.8734 539.54 6.542H535.54C535.54 8.89726 536.37 10.9653 538.022 12.6172L540.85 9.78879ZM539.54 6.542C539.54 5.21157 539.972 4.21631 540.82 3.40397L538.052 0.516018C536.372 2.12635 535.54 4.18576 535.54 6.542H539.54ZM540.821 3.40277C541.738 2.5221 542.863 2.064 544.334 2.064V-1.936C541.907 -1.936 539.767 -1.13011 538.051 0.51722L540.821 3.40277ZM544.334 2.064C545.805 2.064 546.885 2.52094 547.739 3.37421L550.567 0.54578C548.892 -1.12895 546.76 -1.936 544.334 -1.936V2.064ZM547.799 3.43186C548.69 4.25166 549.128 5.2388 549.128 6.542H553.128C553.128 4.15852 552.249 2.091 550.507 0.488132L547.799 3.43186ZM549.128 6.542C549.128 7.84687 548.687 8.87759 547.768 9.76023L550.538 12.6458C552.252 11.0004 553.128 8.92379 553.128 6.542H549.128ZM547.769 9.75902C546.921 10.5719 545.83 11.02 544.334 11.02V15.02C546.735 15.02 548.857 14.2567 550.537 12.647L547.769 9.75902ZM547.785 18.234V62H551.785V18.234H547.785ZM549.785 60H538.725V64H549.785V60ZM540.725 62V18.234H536.725V62H540.725ZM538.725 20.234H549.785V16.234H538.725V20.234ZM567.822 60.815L566.982 62.6299L566.996 62.6364L567.01 62.6426L567.822 60.815ZM561.028 55.522L559.419 56.7097L559.428 56.722L559.437 56.7341L561.028 55.522ZM558.342 48.175V46.175H556.221L556.346 48.2924L558.342 48.175ZM569.481 48.175L571.466 47.9269L571.247 46.175H569.481V48.175ZM571.93 52.362L570.702 53.9407L570.716 53.9515L570.73 53.962L571.93 52.362ZM582.279 52.757L581.137 51.1152L581.12 51.1272L581.103 51.1395L582.279 52.757ZM581.884 46.358L580.964 48.1335L581.002 48.1536L581.042 48.172L581.884 46.358ZM575.011 43.988L575.527 42.0555L575.504 42.0495L575.482 42.0441L575.011 43.988ZM566.953 41.539L566.194 43.3893L566.202 43.3927L566.21 43.396L566.953 41.539ZM561.581 37.668L560.056 38.962L560.067 38.9752L560.079 38.9882L561.581 37.668ZM561.423 24.001L559.793 22.8426L559.783 22.857L559.773 22.8716L561.423 24.001ZM567.427 19.261L566.622 17.4304L566.615 17.4334L566.608 17.4365L567.427 19.261ZM589.152 21.473L587.859 22.9988L587.867 23.0052L587.874 23.0116L589.152 21.473ZM594.287 31.98V33.98H596.435L596.282 31.8375L594.287 31.98ZM583.701 31.98L581.709 32.1611L581.875 33.98H583.701V31.98ZM581.489 27.872L580.209 29.4084L580.243 29.4372L580.279 29.4643L581.489 27.872ZM571.693 27.398L570.584 25.7339L570.565 25.7465L570.546 25.7595L571.693 27.398ZM572.325 33.876L571.381 35.639L571.406 35.6523L571.431 35.6649L572.325 33.876ZM579.198 36.167L578.705 38.1054L578.713 38.1073L579.198 36.167ZM587.019 38.616L586.26 40.4663L587.019 38.616ZM592.312 42.566L590.768 43.8374L590.789 43.8622L590.81 43.8862L592.312 42.566ZM594.682 49.518H596.682V49.4998L596.682 49.4816L594.682 49.518ZM592.549 56.312L590.919 55.1536L590.909 55.168L590.899 55.1826L592.549 56.312ZM586.545 61.052L587.333 62.8903L587.342 62.8865L587.351 62.8826L586.545 61.052ZM577.46 60.711C574.117 60.711 571.187 60.1218 568.635 58.9874L567.01 62.6426C570.145 64.0362 573.641 64.711 577.46 64.711V60.711ZM568.662 59.0001C566.076 57.8026 564.083 56.2315 562.619 54.3099L559.437 56.7341C561.344 59.2365 563.88 61.194 566.982 62.6299L568.662 59.0001ZM562.637 54.3343C561.229 52.4268 560.474 50.348 560.339 48.0576L556.346 48.2924C556.527 51.374 557.562 54.1932 559.419 56.7097L562.637 54.3343ZM558.342 50.175H569.481V46.175H558.342V50.175ZM567.497 48.4231C567.777 50.6691 568.89 52.531 570.702 53.9407L573.158 50.7833C572.127 49.981 571.606 49.0515 571.466 47.9269L567.497 48.4231ZM570.73 53.962C572.608 55.3703 574.866 56.021 577.381 56.021V52.021C575.578 52.021 574.202 51.5657 573.13 50.762L570.73 53.962ZM577.381 56.021C579.721 56.021 581.828 55.558 583.456 54.3745L581.103 51.1395C580.413 51.6413 579.255 52.021 577.381 52.021V56.021ZM583.421 54.3988C585.095 53.2348 586.096 51.5763 586.096 49.518H582.096C582.096 50.0931 581.887 50.5939 581.137 51.1152L583.421 54.3988ZM586.096 49.518C586.096 48.4421 585.81 47.4128 585.182 46.5146C584.564 45.6324 583.7 44.996 582.726 44.544L581.042 48.172C581.543 48.4046 581.785 48.6372 581.905 48.8084C582.013 48.9635 582.096 49.1719 582.096 49.518H586.096ZM582.805 44.5825C581.18 43.74 578.713 42.9054 575.527 42.0555L574.496 45.9205C577.629 46.756 579.744 47.5014 580.964 48.1335L582.805 44.5825ZM575.482 42.0441C572.269 41.267 569.683 40.4768 567.696 39.682L566.21 43.396C568.437 44.2865 571.222 45.129 574.541 45.9319L575.482 42.0441ZM567.712 39.6887C565.956 38.968 564.416 37.8642 563.084 36.3478L560.079 38.9882C561.801 40.9478 563.843 42.4246 566.194 43.3893L567.712 39.6887ZM563.106 36.374C562.019 35.0927 561.369 33.2544 561.369 30.637H557.369C557.369 33.9183 558.194 36.7673 560.056 38.962L563.106 36.374ZM561.369 30.637C561.369 28.6178 561.932 26.7994 563.074 25.1304L559.773 22.8716C558.176 25.2053 557.369 27.8109 557.369 30.637H561.369ZM563.054 25.1594C564.24 23.4902 565.94 22.1209 568.246 21.0855L566.608 17.4365C563.753 18.7184 561.451 20.5092 559.793 22.8426L563.054 25.1594ZM568.233 21.0916C570.562 20.0669 573.358 19.523 576.67 19.523V15.523C572.925 15.523 569.56 16.1377 566.622 17.4304L568.233 21.0916ZM576.67 19.523C581.546 19.523 585.205 20.7492 587.859 22.9988L590.445 19.9472C586.885 16.9301 582.222 15.523 576.67 15.523V19.523ZM587.874 23.0116C590.519 25.208 592.011 28.1831 592.292 32.1225L596.282 31.8375C595.932 26.9289 594 22.8994 590.43 19.9344L587.874 23.0116ZM594.287 29.98H583.701V33.98H594.287V29.98ZM585.693 31.7989C585.487 29.5365 584.49 27.6408 582.699 26.2797L580.279 29.4643C581.121 30.1046 581.599 30.9475 581.709 32.1611L585.693 31.7989ZM582.77 26.3356C581.047 24.9 578.834 24.292 576.354 24.292V28.292C578.194 28.292 579.404 28.7373 580.209 29.4084L582.77 26.3356ZM576.354 24.292C574.145 24.292 572.146 24.6928 570.584 25.7339L572.803 29.0621C573.453 28.6285 574.561 28.292 576.354 28.292V24.292ZM570.546 25.7595C568.943 26.8817 568.113 28.5284 568.113 30.479H572.113C572.113 29.7963 572.337 29.3889 572.84 29.0365L570.546 25.7595ZM568.113 30.479C568.113 31.567 568.391 32.6051 568.99 33.5256C569.581 34.4331 570.417 35.1225 571.381 35.639L573.27 32.113C572.759 31.8395 572.489 31.5677 572.342 31.3429C572.204 31.131 572.113 30.8657 572.113 30.479H568.113ZM571.431 35.6649C573.103 36.5011 575.563 37.3065 578.705 38.1053L579.691 34.2287C576.618 33.4475 574.497 32.7256 573.22 32.0871L571.431 35.6649ZM578.713 38.1073C581.819 38.8837 584.326 39.6728 586.26 40.4663L587.778 36.7657C585.605 35.8739 582.898 35.0303 579.683 34.2267L578.713 38.1073ZM586.26 40.4663C587.995 41.178 589.494 42.2897 590.768 43.8374L593.856 41.2946C592.181 39.261 590.152 37.7393 587.778 36.7657L586.26 40.4663ZM590.81 43.8862C591.952 45.186 592.636 47.008 592.683 49.5544L596.682 49.4816C596.623 46.2346 595.727 43.422 593.815 41.2458L590.81 43.8862ZM592.682 49.518C592.682 51.644 592.093 53.5012 590.919 55.1536L594.18 57.4704C595.85 55.1201 596.682 52.448 596.682 49.518H592.682ZM590.899 55.1826C589.777 56.8226 588.096 58.1847 585.74 59.2214L587.351 62.8826C590.261 61.602 592.583 59.8041 594.2 57.4414L590.899 55.1826ZM585.757 59.2137C583.477 60.1909 580.728 60.711 577.46 60.711V64.711C581.145 64.711 584.452 64.1251 587.333 62.8903L585.757 59.2137ZM611.819 59.946L610.839 61.6891L610.849 61.695L610.859 61.7007L611.819 59.946ZM603.84 51.967L602.09 52.936L602.096 52.9462L602.102 52.9564L603.84 51.967ZM603.919 28.267L602.192 27.2576L602.187 27.2676L602.181 27.2776L603.919 28.267ZM612.056 20.367L613.004 22.1279L613.015 22.1223L613.025 22.1166L612.056 20.367ZM634.966 20.367L633.997 22.1166L634.007 22.1223L634.018 22.1279L634.966 20.367ZM643.024 28.267L641.286 29.2564L641.292 29.2664L641.297 29.2764L643.024 28.267ZM642.945 51.967L641.23 50.938L641.224 50.9478L641.218 50.9576L642.945 51.967ZM634.729 59.946L635.677 61.707L635.687 61.7018L634.729 59.946ZM628.804 51.651L629.762 53.4068L629.771 53.4019L629.78 53.3969L628.804 51.651ZM633.07 47.227L634.829 48.178L633.07 47.227ZM631.332 30.558L629.885 31.9381L629.901 31.9554L629.918 31.9722L631.332 30.558ZM615.374 30.558L613.927 29.1778L613.926 29.1787L615.374 30.558ZM615.295 49.755L613.814 51.0986L613.83 51.1167L613.847 51.1343L615.295 49.755ZM623.195 60.711C619.284 60.711 615.827 59.8585 612.779 58.1913L610.859 61.7007C614.552 63.7202 618.68 64.711 623.195 64.711V60.711ZM612.8 58.2029C609.751 56.4882 607.351 54.0918 605.578 50.9776L602.102 52.9564C604.227 56.6889 607.146 59.6118 610.839 61.6891L612.8 58.2029ZM605.59 50.998C603.88 47.9116 602.996 44.3041 602.996 40.117H598.996C598.996 44.8833 600.008 49.1757 602.09 52.936L605.59 50.998ZM602.996 40.117C602.996 35.9391 603.902 32.339 605.657 29.2564L602.181 27.2776C600.038 31.0417 598.996 35.3415 598.996 40.117H602.996ZM605.646 29.2764C607.465 26.1637 609.911 23.7934 613.004 22.1279L611.108 18.6061C607.354 20.6272 604.375 23.5236 602.192 27.2576L605.646 29.2764ZM613.025 22.1166C616.129 20.3973 619.61 19.523 623.511 19.523V15.523C618.985 15.523 614.83 16.5447 611.087 18.6174L613.025 22.1166ZM623.511 19.523C627.412 19.523 630.893 20.3973 633.997 22.1166L635.935 18.6174C632.193 16.5447 628.037 15.523 623.511 15.523V19.523ZM634.018 22.1279C637.106 23.7909 639.52 26.1547 641.286 29.2564L644.762 27.2776C642.63 23.5326 639.673 20.6298 635.914 18.6061L634.018 22.1279ZM641.297 29.2764C643.098 32.3555 644.026 35.9484 644.026 40.117H648.026C648.026 35.3323 646.953 31.0251 644.751 27.2576L641.297 29.2764ZM644.026 40.117C644.026 44.2763 643.076 47.862 641.23 50.938L644.66 52.996C646.922 49.2253 648.026 44.9111 648.026 40.117H644.026ZM641.218 50.9576C639.4 54.0673 636.927 56.4687 633.771 58.1902L635.687 61.7018C639.483 59.6313 642.487 56.7133 644.672 52.9764L641.218 50.9576ZM633.781 58.1851C630.677 59.8566 627.163 60.711 623.195 60.711V64.711C627.759 64.711 631.935 63.7221 635.677 61.7069L633.781 58.1851ZM623.195 55.073C625.527 55.073 627.727 54.5169 629.762 53.4068L627.846 49.8952C626.405 50.6811 624.866 51.073 623.195 51.073V55.073ZM629.78 53.3969C631.928 52.1962 633.611 50.4329 634.829 48.178L631.311 46.276C630.423 47.9184 629.261 49.1045 627.828 49.9051L629.78 53.3969ZM634.829 48.178C636.077 45.8709 636.65 43.1557 636.65 40.117H632.65C632.65 42.6609 632.17 44.6858 631.311 46.276L634.829 48.178ZM636.65 40.117C636.65 35.6069 635.444 31.8419 632.746 29.1438L629.918 31.9722C631.644 33.6981 632.65 36.3057 632.65 40.117H636.65ZM632.78 29.1778C630.239 26.5129 627.054 25.161 623.353 25.161V29.161C625.972 29.161 628.107 30.0737 629.885 31.9381L632.78 29.1778ZM623.353 25.161C619.652 25.161 616.468 26.5129 613.927 29.1778L616.822 31.9381C618.599 30.0737 620.734 29.161 623.353 29.161V25.161ZM613.926 29.1787C611.353 31.8801 610.214 35.632 610.214 40.117H614.214C614.214 36.2807 615.182 33.6599 616.822 31.9373L613.926 29.1787ZM610.214 40.117C610.214 44.5932 611.321 48.3509 613.814 51.0986L616.776 48.4114C615.161 46.6298 614.214 43.9621 614.214 40.117H610.214ZM613.847 51.1343C616.345 53.7578 619.509 55.073 623.195 55.073V51.073C620.561 51.073 618.458 50.1762 616.743 48.3757L613.847 51.1343ZM665.199 25.028H663.199V32.1112L666.904 26.074L665.199 25.028ZM670.729 19.577L669.741 17.8381L669.732 17.843L669.724 17.848L670.729 19.577ZM678.629 17.602H680.629V15.602H678.629V17.602ZM678.629 29.215V31.215H680.629V29.215H678.629ZM667.806 31.664L666.458 30.1861L666.448 30.1961L666.437 30.2063L667.806 31.664ZM665.199 62V64H667.199V62H665.199ZM654.139 62H652.139V64H654.139V62ZM654.139 18.234V16.234H652.139V18.234H654.139ZM665.199 18.234H667.199V16.234H665.199V18.234ZM666.904 26.074C668.159 24.0276 669.767 22.45 671.734 21.306L669.724 17.848C667.162 19.3374 665.083 21.3937 663.494 23.982L666.904 26.074ZM671.717 21.3159C673.702 20.1881 675.988 19.602 678.629 19.602V15.602C675.371 15.602 672.391 16.3325 669.741 17.8381L671.717 21.3159ZM676.629 17.602V29.215H680.629V17.602H676.629ZM678.629 27.215H675.706V31.215H678.629V27.215ZM675.706 27.215C671.946 27.215 668.75 28.0965 666.458 30.1861L669.154 33.1419C670.443 31.9662 672.514 31.215 675.706 31.215V27.215ZM666.437 30.2063C664.091 32.4102 663.199 35.9545 663.199 40.196H667.199C667.199 36.3268 668.045 34.1831 669.175 33.1217L666.437 30.2063ZM663.199 40.196V62H667.199V40.196H663.199ZM665.199 60H654.139V64H665.199V60ZM656.139 62V18.234H652.139V62H656.139ZM654.139 20.234H665.199V16.234H654.139V20.234ZM663.199 18.234V25.028H667.199V18.234H663.199ZM727.948 18.234L729.792 19.009L730.959 16.234H727.948V18.234ZM700.851 82.698V84.698H702.18L702.695 83.473L700.851 82.698ZM689.08 82.698L687.246 81.9005L686.03 84.698H689.08V82.698ZM698.56 60.894L700.395 61.6915L700.732 60.9158L700.41 60.1335L698.56 60.894ZM681.022 18.234V16.234H678.038L679.173 18.9945L681.022 18.234ZM693.425 18.234L695.301 17.5408L694.819 16.234H693.425V18.234ZM704.722 48.807L702.846 49.5002L704.709 54.542L706.595 49.5087L704.722 48.807ZM716.177 18.234V16.234H714.791L714.305 17.5323L716.177 18.234ZM726.105 17.459L699.008 81.923L702.695 83.473L729.792 19.009L726.105 17.459ZM700.851 80.698H689.08V84.698H700.851V80.698ZM690.915 83.4955L700.395 61.6915L696.726 60.0965L687.246 81.9005L690.915 83.4955ZM700.41 60.1335L682.872 17.4735L679.173 18.9945L696.711 61.6545L700.41 60.1335ZM681.022 20.234H693.425V16.234H681.022V20.234ZM691.549 18.9272L702.846 49.5002L706.598 48.1138L695.301 17.5408L691.549 18.9272ZM706.595 49.5087L718.05 18.9357L714.305 17.5323L702.85 48.1053L706.595 49.5087ZM716.177 20.234H727.948V16.234H716.177V20.234ZM761.346 60.578L760.554 62.4147L760.565 62.4195L761.346 60.578ZM754.078 54.89L752.457 56.0622L754.078 54.89ZM751.313 46.121V44.121H749.281L749.313 46.1522L751.313 46.121ZM763.163 46.121L765.158 45.9818L765.028 44.121H763.163V46.121ZM765.533 51.493L764.174 52.9605L764.187 52.9728L764.201 52.9849L765.533 51.493ZM777.62 51.651L778.889 53.1964L778.905 53.1832L778.921 53.1695L777.62 51.651ZM778.331 42.724L776.881 44.1015L778.331 42.724ZM774.539 40.275L773.751 42.1133L773.79 42.13L773.829 42.145L774.539 40.275ZM768.377 38.221L767.812 40.1397L767.825 40.1434L767.837 40.1469L768.377 38.221ZM759.608 35.14L758.748 36.9457L758.773 36.9579L758.799 36.9694L759.608 35.14ZM753.841 30.479L752.241 31.679L752.258 31.7015L752.275 31.7235L753.841 30.479ZM753.92 13.573L755.578 14.6907L753.92 13.573ZM760.793 8.043L761.581 9.88129L761.594 9.87539L761.608 9.86927L760.793 8.043ZM784.73 10.255L783.489 11.8236L783.502 11.8337L783.515 11.8437L784.73 10.255ZM790.655 21.789V23.789H792.809L792.649 21.6405L790.655 21.789ZM778.489 21.789L776.492 21.8999L776.597 23.789H778.489V21.789ZM776.04 17.128L774.738 18.6465L774.767 18.6713L774.797 18.695L776.04 17.128ZM764.901 16.891L763.614 15.3596L763.599 15.3726L763.584 15.3858L764.901 16.891ZM764.427 25.423L762.975 26.7985L763.012 26.8377L763.051 26.8749L764.427 25.423ZM768.061 27.793L767.248 29.6206L767.289 29.6385L767.329 29.6545L768.061 27.793ZM774.223 29.847L773.648 31.7627L773.658 31.7657L774.223 29.847ZM788.838 37.747L787.257 38.9721L788.838 37.747ZM788.996 54.258L787.284 53.2238L788.996 54.258ZM782.281 60.341L783.175 62.1299L783.188 62.1235L783.2 62.117L782.281 60.341ZM771.774 60.553C768.16 60.553 764.954 59.935 762.126 58.7365L760.565 62.4195C763.952 63.8543 767.698 64.553 771.774 64.553V60.553ZM762.137 58.7413C759.383 57.5543 757.259 55.8753 755.698 53.7178L752.457 56.0622C754.478 58.8554 757.199 60.9684 760.554 62.4146L762.137 58.7413ZM755.698 53.7178C754.173 51.6091 753.359 49.0946 753.312 46.0898L749.313 46.1522C749.371 49.8888 750.401 53.2202 752.457 56.0622L755.698 53.7178ZM751.313 48.121H763.163V44.121H751.313V48.121ZM761.168 46.2602C761.354 48.9395 762.315 51.2397 764.174 52.9605L766.891 50.0255C765.906 49.113 765.287 47.8318 765.158 45.9818L761.168 46.2602ZM764.201 52.9849C766.135 54.712 768.659 55.468 771.537 55.468V51.468C769.359 51.468 767.88 50.9074 766.865 50.0011L764.201 52.9849ZM771.537 55.468C774.417 55.468 776.948 54.7907 778.889 53.1964L776.35 50.1055C775.342 50.9339 773.817 51.468 771.537 51.468V55.468ZM778.921 53.1695C780.854 51.5125 781.832 49.3178 781.832 46.753H777.832C777.832 48.1909 777.334 49.2615 776.318 50.1325L778.921 53.1695ZM781.832 46.753C781.832 44.6764 781.179 42.8185 779.781 41.3465L776.881 44.1015C777.484 44.7361 777.832 45.5643 777.832 46.753H781.832ZM779.781 41.3465C778.549 40.0498 777.021 39.0775 775.248 38.405L773.829 42.145C775.111 42.6312 776.111 43.2915 776.881 44.1015L779.781 41.3465ZM775.327 38.4367C773.734 37.7543 771.584 37.0421 768.916 36.2951L767.837 40.1469C770.436 40.8745 772.394 41.5317 773.751 42.1133L775.327 38.4367ZM768.941 36.3023C765.406 35.2625 762.572 34.2635 760.416 33.3106L758.799 36.9694C761.172 38.0179 764.185 39.0729 767.812 40.1397L768.941 36.3023ZM760.468 33.3343C758.55 32.421 756.863 31.0674 755.406 29.2345L752.275 31.7235C754.083 33.9986 756.242 35.7523 758.748 36.9457L760.468 33.3343ZM755.441 29.279C754.192 27.6147 753.471 25.2863 753.471 22.105H749.471C749.471 25.8757 750.329 29.13 752.241 31.679L755.441 29.279ZM753.471 22.105C753.471 19.1893 754.194 16.7449 755.578 14.6907L752.261 12.4553C750.38 15.2464 749.471 18.4901 749.471 22.105H753.471ZM755.578 14.6907C756.975 12.618 758.949 11.0093 761.581 9.88129L760.005 6.20471C756.738 7.60472 754.13 9.68264 752.261 12.4553L755.578 14.6907ZM761.608 9.86927C764.26 8.68534 767.345 8.068 770.905 8.068V4.068C766.88 4.068 763.224 4.76733 759.977 6.21672L761.608 9.86927ZM770.905 8.068C776.263 8.068 780.398 9.37852 783.489 11.8236L785.971 8.68643C782.004 5.54881 776.922 4.068 770.905 4.068V8.068ZM783.515 11.8437C786.594 14.1982 788.329 17.4917 788.66 21.9375L792.649 21.6405C792.243 16.1849 790.028 11.7892 785.945 8.66628L783.515 11.8437ZM790.655 19.789H778.489V23.789H790.655V19.789ZM780.486 21.6781C780.348 19.1941 779.244 17.1168 777.282 15.561L774.797 18.695C775.89 19.5618 776.419 20.5919 776.492 21.8999L780.486 21.6781ZM777.341 15.6095C775.414 13.9572 772.933 13.232 770.115 13.232V17.232C772.247 17.232 773.716 17.7708 774.738 18.6465L777.341 15.6095ZM770.115 13.232C767.609 13.232 765.376 13.8799 763.614 15.3596L766.187 18.4224C767.059 17.6901 768.302 17.232 770.115 17.232V13.232ZM763.584 15.3858C761.779 16.9646 761.005 19.1847 761.005 21.71H765.005C765.005 20.0219 765.494 19.0294 766.218 18.3961L763.584 15.3858ZM761.005 21.71C761.005 23.6572 761.649 25.3988 762.975 26.7985L765.879 24.0475C765.309 23.4459 765.005 22.7122 765.005 21.71H761.005ZM763.051 26.8749C764.237 27.998 765.645 28.9081 767.248 29.6206L768.873 25.9654C767.632 25.4139 766.618 24.744 765.802 23.9711L763.051 26.8749ZM767.329 29.6545C768.879 30.2635 770.994 30.9665 773.648 31.7626L774.797 27.9314C772.185 27.1475 770.191 26.4812 768.792 25.9315L767.329 29.6545ZM773.658 31.7657C777.186 32.8033 780.006 33.8242 782.148 34.8204L783.835 31.1936C781.448 30.0832 778.422 28.9974 774.787 27.9283L773.658 31.7657ZM782.148 34.8204C784.104 35.7303 785.806 37.1002 787.257 38.9721L790.419 36.5219C788.604 34.1805 786.408 32.3904 783.835 31.1936L782.148 34.8204ZM787.257 38.9721C788.549 40.6393 789.287 42.9348 789.287 46.042H793.287C793.287 42.3025 792.392 39.068 790.419 36.5219L787.257 38.9721ZM789.287 46.042C789.287 48.6262 788.623 51.0073 787.284 53.2238L790.708 55.2922C792.423 52.4527 793.287 49.3565 793.287 46.042H789.287ZM787.284 53.2238C785.97 55.3982 784.025 57.1855 781.361 58.565L783.2 62.117C786.435 60.4418 788.967 58.1738 790.708 55.2922L787.284 53.2238ZM781.386 58.5521C778.771 59.8597 775.589 60.553 771.774 60.553V64.553C776.069 64.553 779.892 63.7716 783.175 62.1299L781.386 58.5521ZM808.933 59.946L807.953 61.6891L807.963 61.695L807.974 61.7007L808.933 59.946ZM800.954 51.967L799.205 52.936L799.21 52.9462L799.216 52.9564L800.954 51.967ZM801.033 28.267L799.307 27.2576L799.301 27.2676L799.295 27.2776L801.033 28.267ZM809.17 20.367L810.119 22.1279L810.129 22.1223L810.139 22.1166L809.17 20.367ZM832.08 20.367L831.111 22.1166L831.122 22.1223L831.132 22.1279L832.08 20.367ZM840.138 28.267L838.4 29.2564L838.406 29.2664L838.412 29.2764L840.138 28.267ZM840.059 51.967L838.344 50.938L838.339 50.9478L838.333 50.9576L840.059 51.967ZM831.843 59.946L832.792 61.707L832.801 61.7018L831.843 59.946ZM825.918 51.651L826.876 53.4068L826.885 53.4019L826.894 53.3969L825.918 51.651ZM830.184 47.227L831.944 48.178L830.184 47.227ZM828.446 30.558L826.999 31.9381L827.015 31.9554L827.032 31.9722L828.446 30.558ZM812.488 30.558L811.041 29.1778L811.04 29.1787L812.488 30.558ZM812.409 49.755L810.928 51.0986L810.944 51.1167L810.961 51.1343L812.409 49.755ZM820.309 60.711C816.398 60.711 812.942 59.8585 809.893 58.1913L807.974 61.7007C811.666 63.7202 815.794 64.711 820.309 64.711V60.711ZM809.914 58.2029C806.866 56.4882 804.465 54.0918 802.692 50.9776L799.216 52.9564C801.341 56.6889 804.26 59.6118 807.953 61.6891L809.914 58.2029ZM802.704 50.998C800.995 47.9116 800.11 44.3041 800.11 40.117H796.11C796.11 44.8833 797.122 49.1757 799.205 52.936L802.704 50.998ZM800.11 40.117C800.11 35.9391 801.017 32.339 802.771 29.2564L799.295 27.2776C797.153 31.0417 796.11 35.3415 796.11 40.117H800.11ZM802.76 29.2764C804.58 26.1637 807.026 23.7934 810.119 22.1279L808.222 18.6061C804.469 20.6272 801.49 23.5236 799.307 27.2576L802.76 29.2764ZM810.139 22.1166C813.244 20.3973 816.724 19.523 820.625 19.523V15.523C816.1 15.523 811.944 16.5447 808.201 18.6174L810.139 22.1166ZM820.625 19.523C824.526 19.523 828.007 20.3973 831.111 22.1166L833.049 18.6174C829.307 16.5447 825.151 15.523 820.625 15.523V19.523ZM831.132 22.1279C834.22 23.7909 836.635 26.1547 838.4 29.2564L841.876 27.2776C839.745 23.5326 836.787 20.6298 833.029 18.6061L831.132 22.1279ZM838.412 29.2764C840.212 32.3555 841.14 35.9484 841.14 40.117H845.14C845.14 35.3323 844.067 31.0251 841.865 27.2576L838.412 29.2764ZM841.14 40.117C841.14 44.2763 840.19 47.862 838.344 50.938L841.774 52.996C844.037 49.2253 845.14 44.9111 845.14 40.117H841.14ZM838.333 50.9576C836.515 54.0673 834.042 56.4687 830.886 58.1902L832.801 61.7018C836.597 59.6313 839.601 56.7133 841.786 52.9764L838.333 50.9576ZM830.895 58.1851C827.791 59.8566 824.277 60.711 820.309 60.711V64.711C824.873 64.711 829.049 63.7221 832.792 61.7069L830.895 58.1851ZM820.309 55.073C822.641 55.073 824.841 54.5169 826.876 53.4068L824.961 49.8952C823.52 50.6811 821.98 51.073 820.309 51.073V55.073ZM826.894 53.3969C829.043 52.1962 830.725 50.4329 831.944 48.178L828.425 46.276C827.537 47.9184 826.375 49.1045 824.943 49.9051L826.894 53.3969ZM831.944 48.178C833.191 45.8709 833.764 43.1557 833.764 40.117H829.764C829.764 42.6609 829.284 44.6858 828.425 46.276L831.944 48.178ZM833.764 40.117C833.764 35.6069 832.559 31.8419 829.861 29.1438L827.032 31.9722C828.758 33.6981 829.764 36.3057 829.764 40.117H833.764ZM829.894 29.1778C827.353 26.5129 824.168 25.161 820.467 25.161V29.161C823.086 29.161 825.221 30.0737 826.999 31.9381L829.894 29.1778ZM820.467 25.161C816.766 25.161 813.582 26.5129 811.041 29.1778L813.936 31.9381C815.714 30.0737 817.848 29.161 820.467 29.161V25.161ZM811.04 29.1787C808.467 31.8801 807.328 35.632 807.328 40.117H811.328C811.328 36.2807 812.296 33.6599 813.937 31.9373L811.04 29.1787ZM807.328 40.117C807.328 44.5932 808.436 48.3509 810.928 51.0986L813.891 48.4114C812.275 46.6298 811.328 43.9621 811.328 40.117H807.328ZM810.961 51.1343C813.46 53.7578 816.623 55.073 820.309 55.073V51.073C817.675 51.073 815.572 50.1762 813.858 48.3757L810.961 51.1343ZM862.313 3.54H864.313V1.54H862.313V3.54ZM862.313 62V64H864.313V62H862.313ZM851.253 62H849.253V64H851.253V62ZM851.253 3.54V1.54H849.253V3.54H851.253ZM860.313 3.54V62H864.313V3.54H860.313ZM862.313 60H851.253V64H862.313V60ZM853.253 62V3.54H849.253V62H853.253ZM851.253 5.54H862.313V1.54H851.253V5.54ZM914.558 18.234H916.558V16.234H914.558V18.234ZM914.558 62V64H916.558V62H914.558ZM903.419 62H901.419V64H903.419V62ZM903.419 56.47H905.419V50.47L901.819 55.27L903.419 56.47ZM897.81 60.973L898.653 62.7864L898.662 62.7822L898.671 62.778L897.81 60.973ZM881.299 60.42L880.321 62.165L880.335 62.1725L880.348 62.1798L881.299 60.42ZM875.058 54.021L873.282 54.9416L873.292 54.9614L873.303 54.981L875.058 54.021ZM872.846 18.234V16.234H870.846V18.234H872.846ZM883.906 18.234H885.906V16.234H883.906V18.234ZM886.513 50.387L885.038 51.7384L885.048 51.7488L885.057 51.759L886.513 50.387ZM900.812 50.387L902.267 51.759L902.276 51.7488L902.286 51.7384L900.812 50.387ZM903.419 18.234V16.234H901.419V18.234H903.419ZM912.558 18.234V62H916.558V18.234H912.558ZM914.558 60H903.419V64H914.558V60ZM905.419 62V56.47H901.419V62H905.419ZM901.819 55.27C900.606 56.8865 898.999 58.1892 896.948 59.168L898.671 62.778C901.255 61.5448 903.387 59.8455 905.019 57.67L901.819 55.27ZM896.966 59.1596C894.985 60.0809 892.801 60.553 890.384 60.553V64.553C893.339 64.553 896.105 63.9717 898.653 62.7864L896.966 59.1596ZM890.384 60.553C887.244 60.553 884.551 59.9031 882.249 58.6602L880.348 62.1798C883.313 63.7809 886.677 64.553 890.384 64.553V60.553ZM882.276 58.675C879.988 57.394 878.169 55.5416 876.812 53.061L873.303 54.981C875 58.0831 877.342 60.4967 880.321 62.165L882.276 58.675ZM876.833 53.1004C875.534 50.596 874.846 47.5545 874.846 43.909H870.846C870.846 48.0582 871.631 51.758 873.282 54.9416L876.833 53.1004ZM874.846 43.909V18.234H870.846V43.909H874.846ZM872.846 20.234H883.906V16.234H872.846V20.234ZM881.906 18.234V42.329H885.906V18.234H881.906ZM881.906 42.329C881.906 46.1269 882.858 49.3603 885.038 51.7384L887.987 49.0356C886.691 47.6217 885.906 45.4831 885.906 42.329H881.906ZM885.057 51.759C887.243 54.077 890.18 55.152 893.623 55.152V51.152C891.061 51.152 889.258 50.3837 887.968 49.015L885.057 51.759ZM893.623 55.152C897.106 55.152 900.074 54.0842 902.267 51.759L899.356 49.015C898.073 50.3765 896.249 51.152 893.623 51.152V55.152ZM902.286 51.7384C904.466 49.3603 905.419 46.1269 905.419 42.329H901.419C901.419 45.4831 900.633 47.6217 899.337 49.0356L902.286 51.7384ZM905.419 42.329V18.234H901.419V42.329H905.419ZM903.419 20.234H914.558V16.234H903.419V20.234ZM938.347 27.319V25.319H936.347V27.319H938.347ZM939.374 51.73L937.96 53.1442L938.014 53.1985L938.072 53.2485L939.374 51.73ZM948.143 52.678H950.143V50.678H948.143V52.678ZM948.143 62V64H950.143V62H948.143ZM927.208 27.319H929.208V25.319H927.208V27.319ZM921.994 27.319H919.994V29.319H921.994V27.319ZM921.994 18.234V16.234H919.994V18.234H921.994ZM927.208 18.234V20.234H929.208V18.234H927.208ZM927.208 7.411V5.411H925.208V7.411H927.208ZM938.347 7.411H940.347V5.411H938.347V7.411ZM938.347 18.234H936.347V20.234H938.347V18.234ZM948.143 18.234H950.143V16.234H948.143V18.234ZM948.143 27.319V29.319H950.143V27.319H948.143ZM936.347 27.319V48.491H940.347V27.319H936.347ZM936.347 48.491C936.347 50.2236 936.744 51.9279 937.96 53.1442L940.788 50.3158C940.635 50.1627 940.347 49.7077 940.347 48.491H936.347ZM938.072 53.2485C939.357 54.3498 941.164 54.678 943.008 54.678V50.678C941.481 50.678 940.865 50.3742 940.676 50.2115L938.072 53.2485ZM943.008 54.678H948.143V50.678H943.008V54.678ZM946.143 52.678V62H950.143V52.678H946.143ZM948.143 60H941.191V64H948.143V60ZM941.191 60C936.824 60 933.919 58.9386 932.098 57.1687C930.287 55.409 929.208 52.6183 929.208 48.412H925.208C925.208 53.2644 926.46 57.2676 929.31 60.0373C932.15 62.7967 936.236 64 941.191 64V60ZM929.208 48.412V27.319H925.208V48.412H929.208ZM927.208 25.319H921.994V29.319H927.208V25.319ZM923.994 27.319V18.234H919.994V27.319H923.994ZM921.994 20.234H927.208V16.234H921.994V20.234ZM929.208 18.234V7.411H925.208V18.234H929.208ZM927.208 9.411H938.347V5.411H927.208V9.411ZM936.347 7.411V18.234H940.347V7.411H936.347ZM938.347 20.234H948.143V16.234H938.347V20.234ZM946.143 18.234V27.319H950.143V18.234H946.143ZM948.143 25.319H938.347V29.319H948.143V25.319ZM956.809 11.203L955.395 12.6172L955.424 12.6467L955.455 12.6749L956.809 11.203ZM956.809 1.96L958.193 3.40397L958.194 3.40277L956.809 1.96ZM966.526 1.96L965.112 3.37421L965.141 3.40366L965.172 3.43186L966.526 1.96ZM966.526 11.203L967.91 12.647L967.911 12.6458L966.526 11.203ZM967.158 18.234H969.158V16.234H967.158V18.234ZM967.158 62V64H969.158V62H967.158ZM956.098 62H954.098V64H956.098V62ZM956.098 18.234V16.234H954.098V18.234H956.098ZM961.707 11.02C960.211 11.02 959.076 10.5713 958.163 9.73114L955.455 12.6749C957.175 14.2574 959.305 15.02 961.707 15.02V11.02ZM958.223 9.78879C957.347 8.91274 956.913 7.8734 956.913 6.542H952.913C952.913 8.89726 953.743 10.9653 955.395 12.6172L958.223 9.78879ZM956.913 6.542C956.913 5.21157 957.345 4.21631 958.193 3.40397L955.425 0.516018C953.745 2.12635 952.913 4.18576 952.913 6.542H956.913ZM958.194 3.40277C959.111 2.5221 960.236 2.064 961.707 2.064V-1.936C959.28 -1.936 957.14 -1.13011 955.424 0.51722L958.194 3.40277ZM961.707 2.064C963.178 2.064 964.259 2.52094 965.112 3.37421L967.94 0.54578C966.266 -1.12895 964.133 -1.936 961.707 -1.936V2.064ZM965.172 3.43186C966.063 4.25166 966.501 5.2388 966.501 6.542H970.501C970.501 4.15852 969.622 2.091 967.88 0.488132L965.172 3.43186ZM966.501 6.542C966.501 7.84687 966.06 8.87759 965.141 9.76023L967.911 12.6458C969.625 11.0004 970.501 8.92379 970.501 6.542H966.501ZM965.142 9.75902C964.294 10.5719 963.203 11.02 961.707 11.02V15.02C964.108 15.02 966.23 14.2567 967.91 12.647L965.142 9.75902ZM965.158 18.234V62H969.158V18.234H965.158ZM967.158 60H956.098V64H967.158V60ZM958.098 62V18.234H954.098V62H958.098ZM956.098 20.234H967.158V16.234H956.098V20.234ZM986.143 59.946L985.163 61.6891L985.173 61.695L985.184 61.7007L986.143 59.946ZM978.164 51.967L976.415 52.936L976.42 52.9462L976.426 52.9564L978.164 51.967ZM978.243 28.267L976.517 27.2576L976.511 27.2676L976.505 27.2776L978.243 28.267ZM986.38 20.367L987.328 22.1279L987.339 22.1223L987.349 22.1166L986.38 20.367ZM1009.29 20.367L1008.32 22.1166L1008.33 22.1223L1008.34 22.1279L1009.29 20.367ZM1017.35 28.267L1015.61 29.2564L1015.62 29.2664L1015.62 29.2764L1017.35 28.267ZM1017.27 51.967L1015.55 50.938L1015.55 50.9478L1015.54 50.9576L1017.27 51.967ZM1009.05 59.946L1010 61.707L1010.01 61.7018L1009.05 59.946ZM1003.13 51.651L1004.09 53.4068L1004.09 53.4019L1004.1 53.3969L1003.13 51.651ZM1007.39 47.227L1009.15 48.178L1007.39 47.227ZM1005.66 30.558L1004.21 31.9381L1004.23 31.9554L1004.24 31.9722L1005.66 30.558ZM989.698 30.558L988.251 29.1778L988.25 29.1787L989.698 30.558ZM989.619 49.755L988.138 51.0986L988.154 51.1167L988.171 51.1343L989.619 49.755ZM997.519 60.711C993.608 60.711 990.151 59.8585 987.103 58.1913L985.184 61.7007C988.876 63.7202 993.004 64.711 997.519 64.711V60.711ZM987.124 58.2029C984.075 56.4882 981.675 54.0918 979.902 50.9776L976.426 52.9564C978.551 56.6889 981.47 59.6118 985.163 61.6891L987.124 58.2029ZM979.914 50.998C978.204 47.9116 977.32 44.3041 977.32 40.117H973.32C973.32 44.8833 974.332 49.1757 976.415 52.936L979.914 50.998ZM977.32 40.117C977.32 35.9391 978.227 32.339 979.981 29.2564L976.505 27.2776C974.363 31.0417 973.32 35.3415 973.32 40.117H977.32ZM979.97 29.2764C981.79 26.1637 984.235 23.7934 987.328 22.1279L985.432 18.6061C981.678 20.6272 978.7 23.5236 976.517 27.2576L979.97 29.2764ZM987.349 22.1166C990.453 20.3973 993.934 19.523 997.835 19.523V15.523C993.31 15.523 989.154 16.5447 985.411 18.6174L987.349 22.1166ZM997.835 19.523C1001.74 19.523 1005.22 20.3973 1008.32 22.1166L1010.26 18.6174C1006.52 16.5447 1002.36 15.523 997.835 15.523V19.523ZM1008.34 22.1279C1011.43 23.7909 1013.84 26.1547 1015.61 29.2564L1019.09 27.2776C1016.95 23.5326 1014 20.6298 1010.24 18.6061L1008.34 22.1279ZM1015.62 29.2764C1017.42 32.3555 1018.35 35.9484 1018.35 40.117H1022.35C1022.35 35.3323 1021.28 31.0251 1019.07 27.2576L1015.62 29.2764ZM1018.35 40.117C1018.35 44.2763 1017.4 47.862 1015.55 50.938L1018.98 52.996C1021.25 49.2253 1022.35 44.9111 1022.35 40.117H1018.35ZM1015.54 50.9576C1013.72 54.0673 1011.25 56.4687 1008.1 58.1902L1010.01 61.7018C1013.81 59.6313 1016.81 56.7133 1019 52.9764L1015.54 50.9576ZM1008.11 58.1851C1005 59.8566 1001.49 60.711 997.519 60.711V64.711C1002.08 64.711 1006.26 63.7221 1010 61.7069L1008.11 58.1851ZM997.519 55.073C999.851 55.073 1002.05 54.5169 1004.09 53.4068L1002.17 49.8952C1000.73 50.6811 999.19 51.073 997.519 51.073V55.073ZM1004.1 53.3969C1006.25 52.1962 1007.93 50.4329 1009.15 48.178L1005.63 46.276C1004.75 47.9184 1003.59 49.1045 1002.15 49.9051L1004.1 53.3969ZM1009.15 48.178C1010.4 45.8709 1010.97 43.1557 1010.97 40.117H1006.97C1006.97 42.6609 1006.49 44.6858 1005.63 46.276L1009.15 48.178ZM1010.97 40.117C1010.97 35.6069 1009.77 31.8419 1007.07 29.1438L1004.24 31.9722C1005.97 33.6981 1006.97 36.3057 1006.97 40.117H1010.97ZM1007.1 29.1778C1004.56 26.5129 1001.38 25.161 997.677 25.161V29.161C1000.3 29.161 1002.43 30.0737 1004.21 31.9381L1007.1 29.1778ZM997.677 25.161C993.976 25.161 990.792 26.5129 988.251 29.1778L991.146 31.9381C992.923 30.0737 995.058 29.161 997.677 29.161V25.161ZM988.25 29.1787C985.677 31.8801 984.538 35.632 984.538 40.117H988.538C988.538 36.2807 989.506 33.6599 991.147 31.9373L988.25 29.1787ZM984.538 40.117C984.538 44.5932 985.646 48.3509 988.138 51.0986L991.101 48.4114C989.485 46.6298 988.538 43.9621 988.538 40.117H984.538ZM988.171 51.1343C990.67 53.7578 993.833 55.073 997.519 55.073V51.073C994.885 51.073 992.782 50.1762 991.068 48.3757L988.171 51.1343ZM1065.36 22.579L1063.92 23.9702L1063.92 23.976L1063.93 23.9817L1065.36 22.579ZM1070.18 62V64H1072.18V62H1070.18ZM1059.12 62H1057.12V64H1059.12V62ZM1056.51 29.847L1055.03 31.1984L1055.04 31.2088L1055.05 31.219L1056.51 29.847ZM1042.13 29.847L1040.68 28.4738L1040.68 28.475L1042.13 29.847ZM1039.52 62V64H1041.52V62H1039.52ZM1028.46 62H1026.46V64H1028.46V62ZM1028.46 18.234V16.234H1026.46V18.234H1028.46ZM1039.52 18.234H1041.52V16.234H1039.52V18.234ZM1039.52 23.685H1037.52V29.5141L1041.1 24.9129L1039.52 23.685ZM1045.13 19.261L1045.98 21.0744L1045.98 21.0702L1045.99 21.066L1045.13 19.261ZM1052.72 19.602C1057.47 19.602 1061.13 21.0931 1063.92 23.9702L1066.79 21.1878C1063.15 17.4289 1058.4 15.602 1052.72 15.602V19.602ZM1063.93 23.9817C1066.68 26.7739 1068.18 30.7936 1068.18 36.325H1072.18C1072.18 30.059 1070.46 24.9147 1066.78 21.1763L1063.93 23.9817ZM1068.18 36.325V62H1072.18V36.325H1068.18ZM1070.18 60H1059.12V64H1070.18V60ZM1061.12 62V37.826H1057.12V62H1061.12ZM1061.12 37.826C1061.12 34.0322 1060.16 30.809 1057.96 28.475L1055.05 31.219C1056.33 32.5716 1057.12 34.6678 1057.12 37.826H1061.12ZM1057.98 28.4956C1055.8 26.1163 1052.86 25.003 1049.4 25.003V29.003C1051.94 29.003 1053.74 29.7857 1055.03 31.1984L1057.98 28.4956ZM1049.4 25.003C1045.9 25.003 1042.91 26.1088 1040.68 28.4738L1043.58 31.2202C1044.93 29.7932 1046.79 29.003 1049.4 29.003V25.003ZM1040.68 28.475C1038.47 30.809 1037.52 34.0322 1037.52 37.826H1041.52C1041.52 34.6678 1042.31 32.5716 1043.59 31.219L1040.68 28.475ZM1037.52 37.826V62H1041.52V37.826H1037.52ZM1039.52 60H1028.46V64H1039.52V60ZM1030.46 62V18.234H1026.46V62H1030.46ZM1028.46 20.234H1039.52V16.234H1028.46V20.234ZM1037.52 18.234V23.685H1041.52V18.234H1037.52ZM1041.1 24.9129C1042.37 23.2778 1043.99 21.9993 1045.98 21.0744L1044.29 17.4476C1041.75 18.6294 1039.62 20.3002 1037.94 22.4571L1041.1 24.9129ZM1045.99 21.066C1048.02 20.0968 1050.26 19.602 1052.72 19.602V15.602C1049.7 15.602 1046.87 16.2132 1044.27 17.456L1045.99 21.066ZM1087.8 60.815L1086.96 62.6299L1086.98 62.6364L1086.99 62.6426L1087.8 60.815ZM1081.01 55.522L1079.4 56.7097L1079.41 56.722L1079.42 56.7341L1081.01 55.522ZM1078.32 48.175V46.175H1076.2L1076.33 48.2924L1078.32 48.175ZM1089.46 48.175L1091.45 47.9269L1091.23 46.175H1089.46V48.175ZM1091.91 52.362L1090.68 53.9407L1090.7 53.9515L1090.71 53.962L1091.91 52.362ZM1102.26 52.757L1101.12 51.1152L1101.1 51.1272L1101.08 51.1395L1102.26 52.757ZM1101.86 46.358L1100.94 48.1335L1100.98 48.1536L1101.02 48.172L1101.86 46.358ZM1094.99 43.988L1095.51 42.0555L1095.48 42.0495L1095.46 42.0441L1094.99 43.988ZM1086.93 41.539L1086.17 43.3893L1086.18 43.3927L1086.19 43.396L1086.93 41.539ZM1081.56 37.668L1080.04 38.962L1080.05 38.9752L1080.06 38.9882L1081.56 37.668ZM1081.4 24.001L1079.77 22.8426L1079.76 22.857L1079.75 22.8716L1081.4 24.001ZM1087.41 19.261L1086.6 17.4304L1086.6 17.4334L1086.59 17.4365L1087.41 19.261ZM1109.13 21.473L1107.84 22.9988L1107.85 23.0052L1107.85 23.0116L1109.13 21.473ZM1114.27 31.98V33.98H1116.42L1116.26 31.8375L1114.27 31.98ZM1103.68 31.98L1101.69 32.1611L1101.86 33.98H1103.68V31.98ZM1101.47 27.872L1100.19 29.4084L1100.22 29.4372L1100.26 29.4643L1101.47 27.872ZM1091.67 27.398L1090.56 25.7339L1090.55 25.7465L1090.53 25.7595L1091.67 27.398ZM1092.31 33.876L1091.36 35.639L1091.39 35.6523L1091.41 35.6649L1092.31 33.876ZM1099.18 36.167L1098.69 38.1054L1098.69 38.1073L1099.18 36.167ZM1107 38.616L1106.24 40.4663L1107 38.616ZM1112.29 42.566L1110.75 43.8374L1110.77 43.8622L1110.79 43.8862L1112.29 42.566ZM1114.66 49.518H1116.66V49.4998L1116.66 49.4816L1114.66 49.518ZM1112.53 56.312L1110.9 55.1536L1110.89 55.168L1110.88 55.1826L1112.53 56.312ZM1106.53 61.052L1107.31 62.8903L1107.32 62.8865L1107.33 62.8826L1106.53 61.052ZM1097.44 60.711C1094.1 60.711 1091.17 60.1218 1088.61 58.9874L1086.99 62.6426C1090.13 64.0362 1093.62 64.711 1097.44 64.711V60.711ZM1088.64 59.0001C1086.06 57.8026 1084.06 56.2315 1082.6 54.3099L1079.42 56.7341C1081.32 59.2365 1083.86 61.194 1086.96 62.6299L1088.64 59.0001ZM1082.62 54.3343C1081.21 52.4268 1080.45 50.348 1080.32 48.0576L1076.33 48.2924C1076.51 51.374 1077.54 54.1932 1079.4 56.7097L1082.62 54.3343ZM1078.32 50.175H1089.46V46.175H1078.32V50.175ZM1087.48 48.4231C1087.76 50.6691 1088.87 52.531 1090.68 53.9407L1093.14 50.7833C1092.11 49.981 1091.59 49.0515 1091.45 47.9269L1087.48 48.4231ZM1090.71 53.962C1092.59 55.3703 1094.85 56.021 1097.36 56.021V52.021C1095.56 52.021 1094.18 51.5657 1093.11 50.762L1090.71 53.962ZM1097.36 56.021C1099.7 56.021 1101.81 55.558 1103.44 54.3745L1101.08 51.1395C1100.39 51.6413 1099.24 52.021 1097.36 52.021V56.021ZM1103.4 54.3988C1105.08 53.2348 1106.08 51.5763 1106.08 49.518H1102.08C1102.08 50.0931 1101.87 50.5939 1101.12 51.1152L1103.4 54.3988ZM1106.08 49.518C1106.08 48.4421 1105.79 47.4128 1105.16 46.5146C1104.54 45.6324 1103.68 44.996 1102.71 44.544L1101.02 48.172C1101.52 48.4046 1101.77 48.6372 1101.89 48.8084C1101.99 48.9635 1102.08 49.1719 1102.08 49.518H1106.08ZM1102.79 44.5825C1101.16 43.74 1098.69 42.9054 1095.51 42.0555L1094.48 45.9205C1097.61 46.756 1099.72 47.5014 1100.94 48.1335L1102.79 44.5825ZM1095.46 42.0441C1092.25 41.267 1089.66 40.4768 1087.68 39.682L1086.19 43.396C1088.42 44.2865 1091.2 45.129 1094.52 45.9319L1095.46 42.0441ZM1087.69 39.6887C1085.94 38.968 1084.4 37.8642 1083.06 36.3478L1080.06 38.9882C1081.78 40.9478 1083.82 42.4246 1086.17 43.3893L1087.69 39.6887ZM1083.09 36.374C1082 35.0927 1081.35 33.2544 1081.35 30.637H1077.35C1077.35 33.9183 1078.17 36.7673 1080.04 38.962L1083.09 36.374ZM1081.35 30.637C1081.35 28.6178 1081.91 26.7994 1083.05 25.1304L1079.75 22.8716C1078.16 25.2053 1077.35 27.8109 1077.35 30.637H1081.35ZM1083.03 25.1594C1084.22 23.4902 1085.92 22.1209 1088.23 21.0855L1086.59 17.4365C1083.73 18.7184 1081.43 20.5092 1079.77 22.8426L1083.03 25.1594ZM1088.21 21.0916C1090.54 20.0669 1093.34 19.523 1096.65 19.523V15.523C1092.91 15.523 1089.54 16.1377 1086.6 17.4304L1088.21 21.0916ZM1096.65 19.523C1101.53 19.523 1105.19 20.7492 1107.84 22.9988L1110.43 19.9472C1106.87 16.9301 1102.2 15.523 1096.65 15.523V19.523ZM1107.85 23.0116C1110.5 25.208 1111.99 28.1831 1112.27 32.1225L1116.26 31.8375C1115.91 26.9289 1113.98 22.8994 1110.41 19.9344L1107.85 23.0116ZM1114.27 29.98H1103.68V33.98H1114.27V29.98ZM1105.67 31.7989C1105.47 29.5365 1104.47 27.6408 1102.68 26.2797L1100.26 29.4643C1101.1 30.1046 1101.58 30.9475 1101.69 32.1611L1105.67 31.7989ZM1102.75 26.3356C1101.03 24.9 1098.81 24.292 1096.33 24.292V28.292C1098.17 28.292 1099.38 28.7373 1100.19 29.4084L1102.75 26.3356ZM1096.33 24.292C1094.13 24.292 1092.13 24.6928 1090.56 25.7339L1092.78 29.0621C1093.43 28.6285 1094.54 28.292 1096.33 28.292V24.292ZM1090.53 25.7595C1088.92 26.8817 1088.09 28.5284 1088.09 30.479H1092.09C1092.09 29.7963 1092.32 29.3889 1092.82 29.0365L1090.53 25.7595ZM1088.09 30.479C1088.09 31.567 1088.37 32.6051 1088.97 33.5256C1089.56 34.4331 1090.4 35.1225 1091.36 35.639L1093.25 32.113C1092.74 31.8395 1092.47 31.5677 1092.32 31.3429C1092.18 31.131 1092.09 30.8657 1092.09 30.479H1088.09ZM1091.41 35.6649C1093.08 36.5011 1095.54 37.3065 1098.69 38.1053L1099.67 34.2287C1096.6 33.4475 1094.48 32.7256 1093.2 32.0871L1091.41 35.6649ZM1098.69 38.1073C1101.8 38.8837 1104.31 39.6728 1106.24 40.4663L1107.76 36.7657C1105.59 35.8739 1102.88 35.0303 1099.66 34.2267L1098.69 38.1073ZM1106.24 40.4663C1107.98 41.178 1109.47 42.2897 1110.75 43.8374L1113.84 41.2946C1112.16 39.261 1110.13 37.7393 1107.76 36.7657L1106.24 40.4663ZM1110.79 43.8862C1111.93 45.186 1112.62 47.008 1112.66 49.5544L1116.66 49.4816C1116.6 46.2346 1115.71 43.422 1113.8 41.2458L1110.79 43.8862ZM1112.66 49.518C1112.66 51.644 1112.07 53.5012 1110.9 55.1536L1114.16 57.4704C1115.83 55.1201 1116.66 52.448 1116.66 49.518H1112.66ZM1110.88 55.1826C1109.76 56.8226 1108.08 58.1847 1105.72 59.2214L1107.33 62.8826C1110.24 61.602 1112.56 59.8041 1114.18 57.4414L1110.88 55.1826ZM1105.74 59.2137C1103.46 60.1909 1100.71 60.711 1097.44 60.711V64.711C1101.12 64.711 1104.43 64.1251 1107.31 62.8903L1105.74 59.2137Z" fill="#D10000"/>
</svg>
