<svg width="1159" height="83" viewBox="0 0 1159 83" fill="none" xmlns="http://www.w3.org/2000/svg">
<path d="M14.7806 58.919L15.7591 57.1747L14.7806 58.919ZM4.51061 48.886L2.78456 49.8964L2.79003 49.9056L4.51061 48.886ZM4.51061 19.814L6.23122 20.8336L6.23664 20.8244L4.51061 19.814ZM14.7806 9.702L13.8021 7.95771H13.8021L14.7806 9.702ZM43.2206 9.702L42.2329 11.4411L42.2421 11.4463L43.2206 9.702ZM53.4116 19.814L51.6764 20.8086L51.6836 20.8211L51.691 20.8336L53.4116 19.814ZM53.4116 48.886L51.6856 47.8756L51.6817 47.8822L53.4116 48.886ZM43.2206 58.919L42.2421 57.1747L43.2206 58.919ZM37.7696 50.466L38.7774 52.1936L38.7907 52.1858L38.8038 52.1778L37.7696 50.466ZM43.6946 43.988L45.4767 44.8959L43.6946 43.988ZM43.6946 24.633L41.9125 25.5408L41.9161 25.5478L41.9196 25.5546L43.6946 24.633ZM37.7696 18.234L36.7619 19.9616L37.7696 18.234ZM20.1526 18.234L19.1603 16.4975L19.1526 16.5019L19.1449 16.5064L20.1526 18.234ZM14.2276 24.633L16.0026 25.5546L16.0062 25.5478L16.0097 25.5408L14.2276 24.633ZM14.2276 43.988L16.0097 43.0801L14.2276 43.988ZM20.1526 50.466L19.1184 52.1778L19.1392 52.1904L19.1603 52.2025L20.1526 50.466ZM29.0006 60.553C24.1669 60.553 19.766 59.4225 15.7591 57.1747L13.8021 60.6633C18.4325 63.2608 23.5117 64.553 29.0006 64.553V60.553ZM15.7591 57.1747C11.7477 54.9244 8.58014 51.8302 6.23119 47.8664L2.79003 49.9056C5.49709 54.4738 9.17621 58.0683 13.8021 60.6633L15.7591 57.1747ZM6.23664 47.8756C3.903 43.889 2.71861 39.3713 2.71861 34.271H-1.28139C-1.28139 40.02 0.0622253 45.2457 2.78458 49.8964L6.23664 47.8756ZM2.71861 34.271C2.71861 29.2269 3.90125 24.7654 6.23119 20.8336L2.79003 18.7944C0.0639839 23.3946 -1.28139 28.5711 -1.28139 34.271H2.71861ZM6.23664 20.8244C8.5871 16.809 11.7538 13.6931 15.7591 11.4463L13.8021 7.95771C9.17005 10.5562 5.49013 14.1817 2.78458 18.8036L6.23664 20.8244ZM15.7591 11.4463C19.766 9.19851 24.1669 8.068 29.0006 8.068V4.068C23.5117 4.068 18.4325 5.36016 13.8021 7.95771L15.7591 11.4463ZM29.0006 8.068C33.8909 8.068 38.287 9.20023 42.233 11.4411L44.2083 7.96287C39.6222 5.35844 34.5383 4.068 29.0006 4.068V8.068ZM42.2421 11.4463C46.2437 13.6911 49.3799 16.8019 51.6764 20.8086L55.1468 18.8194C52.4926 14.1888 48.8349 10.5583 44.1991 7.95771L42.2421 11.4463ZM51.691 20.8336C54.021 24.7654 55.2036 29.2269 55.2036 34.271H59.2036C59.2036 28.5711 57.8582 23.3946 55.1322 18.7944L51.691 20.8336ZM55.2036 34.271C55.2036 39.3713 54.0192 43.889 51.6856 47.8756L55.1376 49.8964C57.86 45.2457 59.2036 40.02 59.2036 34.271H55.2036ZM51.6817 47.8822C49.3868 51.8373 46.2499 54.9265 42.2421 57.1747L44.1991 60.6633C48.8287 58.0662 52.4857 54.4667 55.1415 49.8898L51.6817 47.8822ZM42.2421 57.1747C38.2352 59.4225 33.8343 60.553 29.0006 60.553V64.553C34.4896 64.553 39.5687 63.2608 44.1991 60.6633L42.2421 57.1747ZM29.0006 54.678C32.6245 54.678 35.9043 53.8695 38.7774 52.1936L36.7619 48.7384C34.5789 50.0118 32.0128 50.678 29.0006 50.678V54.678ZM38.8038 52.1778C41.6709 50.4457 43.896 47.9986 45.4767 44.8959L41.9125 43.0801C40.6492 45.56 38.9243 47.4317 36.7354 48.7542L38.8038 52.1778ZM45.4767 44.8959C47.0652 41.7776 47.8276 38.2176 47.8276 34.271H43.8276C43.8276 37.6977 43.168 40.6157 41.9125 43.0801L45.4767 44.8959ZM47.8276 34.271C47.8276 30.3256 47.0656 26.7852 45.4696 23.7114L41.9196 25.5546C43.1676 27.9582 43.8276 30.8431 43.8276 34.271H47.8276ZM45.4767 23.7251C43.8934 20.6171 41.6603 18.1882 38.7774 16.5064L36.7619 19.9616C38.9349 21.2292 40.6519 23.0662 41.9125 25.5408L45.4767 23.7251ZM38.7774 16.5064C35.9043 14.8305 32.6245 14.022 29.0006 14.022V18.022C32.0128 18.022 34.5789 18.6882 36.7619 19.9616L38.7774 16.5064ZM29.0006 14.022C25.3759 14.022 22.0772 14.8307 19.1603 16.4975L21.1449 19.9705C23.3894 18.6879 25.9893 18.022 29.0006 18.022V14.022ZM19.1449 16.5064C16.2619 18.1882 14.0289 20.6171 12.4455 23.7251L16.0097 25.5408C17.2704 23.0662 18.9873 21.2292 21.1604 19.9616L19.1449 16.5064ZM12.4526 23.7114C10.8566 26.7852 10.0946 30.3256 10.0946 34.271H14.0946C14.0946 30.8431 14.7546 27.9582 16.0026 25.5546L12.4526 23.7114ZM10.0946 34.271C10.0946 38.2176 10.857 41.7776 12.4455 44.8959L16.0097 43.0801C14.7542 40.6157 14.0946 37.6977 14.0946 34.271H10.0946ZM12.4455 44.8959C14.0262 47.9986 16.2513 50.4456 19.1184 52.1778L21.1868 48.7542C18.9979 47.4317 17.273 45.56 16.0097 43.0801L12.4455 44.8959ZM19.1603 52.2025C22.0772 53.8693 25.3759 54.678 29.0006 54.678V50.678C25.9893 50.678 23.3894 50.0121 21.1449 48.7295L19.1603 52.2025ZM106.749 18.234H108.749V16.234H106.749V18.234ZM106.749 62V64H108.749V62H106.749ZM95.61 62H93.61V64H95.61V62ZM95.61 56.47H97.61V50.47L94.01 55.27L95.61 56.47ZM90.001 60.973L90.8444 62.7864L90.8534 62.7822L90.8624 62.778L90.001 60.973ZM73.49 60.42L72.5128 62.165L72.5262 62.1725L72.5397 62.1798L73.49 60.42ZM67.249 54.021L65.4734 54.9416L65.4837 54.9614L65.4944 54.981L67.249 54.021ZM65.037 18.234V16.234H63.037V18.234H65.037ZM76.097 18.234H78.097V16.234H76.097V18.234ZM78.704 50.387L77.2296 51.7384L77.2391 51.7488L77.2488 51.759L78.704 50.387ZM93.003 50.387L94.4581 51.759L94.4678 51.7488L94.4773 51.7384L93.003 50.387ZM95.61 18.234V16.234H93.61V18.234H95.61ZM104.749 18.234V62H108.749V18.234H104.749ZM106.749 60H95.61V64H106.749V60ZM97.61 62V56.47H93.61V62H97.61ZM94.01 55.27C92.7976 56.8865 91.1903 58.1892 89.1395 59.168L90.8624 62.778C93.4463 61.5448 95.5783 59.8455 97.21 57.67L94.01 55.27ZM89.1575 59.1596C87.1766 60.0809 84.9919 60.553 82.575 60.553V64.553C85.53 64.553 88.296 63.9717 90.8444 62.7864L89.1575 59.1596ZM82.575 60.553C79.4352 60.553 76.742 59.9031 74.4403 58.6602L72.5397 62.1798C75.5046 63.7809 78.8681 64.553 82.575 64.553V60.553ZM74.4672 58.675C72.1796 57.394 70.3608 55.5416 69.0035 53.061L65.4944 54.981C67.1918 58.0831 69.5336 60.4967 72.5128 62.165L74.4672 58.675ZM69.0245 53.1004C67.7259 50.596 67.037 47.5545 67.037 43.909H63.037C63.037 48.0582 63.8227 51.758 65.4734 54.9416L69.0245 53.1004ZM67.037 43.909V18.234H63.037V43.909H67.037ZM65.037 20.234H76.097V16.234H65.037V20.234ZM74.097 18.234V42.329H78.097V18.234H74.097ZM74.097 42.329C74.097 46.1269 75.0497 49.3603 77.2296 51.7384L80.1783 49.0356C78.8822 47.6217 78.097 45.4831 78.097 42.329H74.097ZM77.2488 51.759C79.4343 54.077 82.3716 55.152 85.814 55.152V51.152C83.2523 51.152 81.4496 50.3837 80.1591 49.015L77.2488 51.759ZM85.814 55.152C89.2972 55.152 92.2659 54.0842 94.4581 51.759L91.5478 49.015C90.2641 50.3765 88.44 51.152 85.814 51.152V55.152ZM94.4773 51.7384C96.6572 49.3603 97.61 46.1269 97.61 42.329H93.61C93.61 45.4831 92.8247 47.6217 91.5287 49.0356L94.4773 51.7384ZM97.61 42.329V18.234H93.61V42.329H97.61ZM95.61 20.234H106.749V16.234H95.61V20.234ZM128.721 25.028H126.721V32.1112L130.426 26.074L128.721 25.028ZM134.251 19.577L133.263 17.8381L133.255 17.843L133.246 17.848L134.251 19.577ZM142.151 17.602H144.151V15.602H142.151V17.602ZM142.151 29.215V31.215H144.151V29.215H142.151ZM131.328 31.664L129.981 30.1861L129.97 30.1961L129.959 30.2063L131.328 31.664ZM128.721 62V64H130.721V62H128.721ZM117.661 62H115.661V64H117.661V62ZM117.661 18.234V16.234H115.661V18.234H117.661ZM128.721 18.234H130.721V16.234H128.721V18.234ZM130.426 26.074C131.682 24.0276 133.289 22.45 135.257 21.306L133.246 17.848C130.684 19.3374 128.605 21.3937 127.017 23.982L130.426 26.074ZM135.239 21.3159C137.224 20.1881 139.511 19.602 142.151 19.602V15.602C138.894 15.602 135.913 16.3325 133.263 17.8381L135.239 21.3159ZM140.151 17.602V29.215H144.151V17.602H140.151ZM142.151 27.215H139.228V31.215H142.151V27.215ZM139.228 27.215C135.469 27.215 132.273 28.0965 129.981 30.1861L132.676 33.1419C133.965 31.9662 136.036 31.215 139.228 31.215V27.215ZM129.959 30.2063C127.613 32.4102 126.721 35.9545 126.721 40.196H130.721C130.721 36.3268 131.568 34.1831 132.698 33.1217L129.959 30.2063ZM126.721 40.196V62H130.721V40.196H126.721ZM128.721 60H117.661V64H128.721V60ZM119.661 62V18.234H115.661V62H119.661ZM117.661 20.234H128.721V16.234H117.661V20.234ZM126.721 18.234V25.028H130.721V18.234H126.721ZM202.948 10.255L202.028 12.0309L202.037 12.0353L202.948 10.255ZM213.139 19.972L211.396 20.9525L211.403 20.9655L211.411 20.9784L213.139 19.972ZM213.139 49.044L211.411 48.0376L211.407 48.0446L213.139 49.044ZM202.948 58.603L202.037 56.8227L202.028 56.8272L202.948 58.603ZM168.425 62H166.425V64H168.425V62ZM168.425 6.858V4.858H166.425V6.858H168.425ZM200.736 47.859L199.322 46.4448L200.736 47.859ZM200.736 21.078L199.299 22.4688L199.305 22.4747L199.31 22.4805L200.736 21.078ZM179.485 16.18V14.18H177.485V16.18H179.485ZM179.485 52.599H177.485V54.599H179.485V52.599ZM187.701 8.858C193.231 8.858 197.987 9.93742 202.028 12.0308L203.868 8.47916C199.166 6.04325 193.758 4.858 187.701 4.858V8.858ZM202.037 12.0353C206.121 14.1262 209.224 17.0918 211.396 20.9525L214.882 18.9915C212.314 14.4256 208.623 10.9131 203.859 8.4747L202.037 12.0353ZM211.411 20.9784C213.63 24.7905 214.773 29.2782 214.773 34.508H218.773C218.773 28.6778 217.493 23.4748 214.867 18.9656L211.411 20.9784ZM214.773 34.508C214.773 39.7378 213.63 44.2255 211.411 48.0376L214.867 50.0504C217.493 45.5412 218.773 40.3382 218.773 34.508H214.773ZM211.407 48.0446C209.239 51.8021 206.135 54.7249 202.037 56.8227L203.859 60.3833C208.609 57.9518 212.299 54.5019 214.871 50.0434L211.407 48.0446ZM202.028 56.8272C197.987 58.9206 193.231 60 187.701 60V64C193.758 64 199.166 62.8148 203.868 60.3788L202.028 56.8272ZM187.701 60H168.425V64H187.701V60ZM170.425 62V6.858H166.425V62H170.425ZM168.425 8.858H187.701V4.858H168.425V8.858ZM187.306 54.599C193.466 54.599 198.513 52.9102 202.15 49.2732L199.322 46.4448C196.639 49.1278 192.733 50.599 187.306 50.599V54.599ZM202.15 49.2732C205.784 45.6395 207.476 40.6211 207.476 34.508H203.476C203.476 39.8762 202.008 43.7585 199.322 46.4448L202.15 49.2732ZM207.476 34.508C207.476 28.3931 205.783 23.3574 202.162 19.6755L199.31 22.4805C202.009 25.224 203.476 29.1416 203.476 34.508H207.476ZM202.173 19.6872C198.54 15.9324 193.484 14.18 187.306 14.18V18.18C192.715 18.18 196.613 19.6929 199.299 22.4688L202.173 19.6872ZM187.306 14.18H179.485V18.18H187.306V14.18ZM177.485 16.18V52.599H181.485V16.18H177.485ZM179.485 54.599H187.306V50.599H179.485V54.599ZM224.815 28.188L223.043 27.261L223.037 27.2718L223.032 27.2826L224.815 28.188ZM232.004 20.288L230.971 18.5756L230.964 18.5796L230.958 18.5837L232.004 20.288ZM250.727 19.498L249.772 21.2552L249.78 21.2595L249.788 21.2637L250.727 19.498ZM256.652 24.475L255.042 25.6614L258.652 30.5608V24.475H256.652ZM256.652 18.234V16.234H254.652V18.234H256.652ZM267.791 18.234H269.791V16.234H267.791V18.234ZM267.791 62V64H269.791V62H267.791ZM256.652 62H254.652V64H256.652V62ZM256.652 55.601H258.652V49.1985L255.008 54.4626L256.652 55.601ZM250.727 60.736L251.666 62.5017L251.673 62.4982L251.68 62.4946L250.727 60.736ZM232.004 59.867L230.936 61.558L230.943 61.5622L230.949 61.5663L232.004 59.867ZM224.815 51.888L223.026 52.7824L223.034 52.7988L223.043 52.815L224.815 51.888ZM255.072 33.244L253.313 34.195L253.318 34.2052L253.324 34.2153L255.072 33.244ZM250.806 28.82L249.792 30.5439L249.811 30.5551L249.83 30.5659L250.806 28.82ZM239.351 28.741L238.353 27.0078L239.351 28.741ZM235.085 33.165L233.346 32.1778L233.341 32.1857L233.337 32.1937L235.085 33.165ZM235.085 46.911L233.315 47.8425L233.33 47.8706L233.346 47.8982L235.085 46.911ZM239.351 51.414L238.314 53.1244L238.326 53.1312L238.337 53.1379L239.351 51.414ZM250.806 51.493L251.782 53.2389L251.801 53.2281L251.82 53.2169L250.806 51.493ZM255.072 47.069L256.82 48.0403L256.826 48.0302L256.831 48.02L255.072 47.069ZM224.208 39.959C224.208 35.8016 225.023 32.1962 226.598 29.0934L223.032 27.2826C221.131 31.0264 220.208 35.2684 220.208 39.959H224.208ZM226.587 29.115C228.227 25.9796 230.385 23.6288 233.051 21.9923L230.958 18.5837C227.619 20.6339 224.984 23.5497 223.043 27.261L226.587 29.115ZM233.037 22.0004C235.765 20.3545 238.802 19.523 242.195 19.523V15.523C238.11 15.523 234.353 16.5349 230.971 18.5756L233.037 22.0004ZM242.195 19.523C245.188 19.523 247.692 20.1249 249.772 21.2552L251.682 17.7407C248.917 16.2378 245.733 15.523 242.195 15.523V19.523ZM249.788 21.2637C252.033 22.458 253.766 23.9301 255.042 25.6614L258.262 23.2886C256.589 21.0173 254.372 19.1714 251.666 17.7323L249.788 21.2637ZM258.652 24.475V18.234H254.652V24.475H258.652ZM256.652 20.234H267.791V16.234H256.652V20.234ZM265.791 18.234V62H269.791V18.234H265.791ZM267.791 60H256.652V64H267.791V60ZM258.652 62V55.601H254.652V62H258.652ZM255.008 54.4626C253.79 56.222 252.068 57.735 249.775 58.9774L251.68 62.4946C254.442 60.9983 256.671 59.088 258.296 56.7394L255.008 54.4626ZM249.788 58.9703C247.646 60.1096 245.108 60.711 242.116 60.711V64.711C245.655 64.711 248.858 63.9958 251.666 62.5017L249.788 58.9703ZM242.116 60.711C238.792 60.711 235.788 59.862 233.059 58.1677L230.949 61.5663C234.329 63.664 238.067 64.711 242.116 64.711V60.711ZM233.072 58.176C230.394 56.4846 228.229 54.1004 226.587 50.961L223.043 52.815C224.982 56.5222 227.61 59.4574 230.936 61.558L233.072 58.176ZM226.604 50.9936C225.024 47.8347 224.208 44.1724 224.208 39.959H220.208C220.208 44.6989 221.13 48.9893 223.026 52.7824L226.604 50.9936ZM258.652 40.117C258.652 37.1712 258.074 34.5287 256.82 32.2727L253.324 34.2153C254.177 35.7513 254.652 37.6908 254.652 40.117H258.652ZM256.831 32.293C255.613 30.0381 253.93 28.2748 251.782 27.0741L249.83 30.5659C251.263 31.3665 252.425 32.5526 253.313 34.195L256.831 32.293ZM251.82 27.0961C249.726 25.8642 247.454 25.24 245.039 25.24V29.24C246.732 29.24 248.305 29.6692 249.792 30.5439L251.82 27.0961ZM245.039 25.24C242.644 25.24 240.402 25.8279 238.353 27.0078L240.349 30.4742C241.776 29.6527 243.326 29.24 245.039 29.24V25.24ZM238.353 27.0078C236.271 28.2067 234.607 29.956 233.346 32.1778L236.824 34.1522C237.775 32.4766 238.955 31.2766 240.349 30.4742L238.353 27.0078ZM233.337 32.1937C232.086 34.4442 231.505 37.0581 231.505 39.959H235.505C235.505 37.5932 235.977 35.6778 236.833 34.1363L233.337 32.1937ZM231.505 39.959C231.505 42.8634 232.088 45.5101 233.315 47.8425L236.855 45.9795C235.976 44.3093 235.505 42.3213 235.505 39.959H231.505ZM233.346 47.8982C234.603 50.1128 236.255 51.8763 238.314 53.1244L240.388 49.7036C238.971 48.8451 237.78 47.6065 236.824 45.9238L233.346 47.8982ZM238.337 53.1379C240.423 54.3648 242.667 54.994 245.039 54.994V50.994C243.408 50.994 241.861 50.5699 240.365 49.6901L238.337 53.1379ZM245.039 54.994C247.434 54.994 249.692 54.4064 251.782 53.2389L249.83 49.7471C248.338 50.5809 246.752 50.994 245.039 50.994V54.994ZM251.82 53.2169C253.932 51.9745 255.602 50.2338 256.82 48.0403L253.324 46.0977C252.436 47.6962 251.261 48.9048 249.792 49.7691L251.82 53.2169ZM256.831 48.02C258.073 45.7233 258.652 43.065 258.652 40.117H254.652C254.652 42.541 254.178 44.5174 253.313 46.118L256.831 48.02ZM291.47 27.319V25.319H289.47V27.319H291.47ZM292.497 51.73L291.083 53.1442L291.137 53.1985L291.195 53.2485L292.497 51.73ZM301.266 52.678H303.266V50.678H301.266V52.678ZM301.266 62V64H303.266V62H301.266ZM280.331 27.319H282.331V25.319H280.331V27.319ZM275.117 27.319H273.117V29.319H275.117V27.319ZM275.117 18.234V16.234H273.117V18.234H275.117ZM280.331 18.234V20.234H282.331V18.234H280.331ZM280.331 7.411V5.411H278.331V7.411H280.331ZM291.47 7.411H293.47V5.411H291.47V7.411ZM291.47 18.234H289.47V20.234H291.47V18.234ZM301.266 18.234H303.266V16.234H301.266V18.234ZM301.266 27.319V29.319H303.266V27.319H301.266ZM289.47 27.319V48.491H293.47V27.319H289.47ZM289.47 48.491C289.47 50.2236 289.867 51.9279 291.083 53.1442L293.911 50.3158C293.758 50.1627 293.47 49.7077 293.47 48.491H289.47ZM291.195 53.2485C292.48 54.3498 294.287 54.678 296.131 54.678V50.678C294.604 50.678 293.989 50.3742 293.799 50.2115L291.195 53.2485ZM296.131 54.678H301.266V50.678H296.131V54.678ZM299.266 52.678V62H303.266V52.678H299.266ZM301.266 60H294.314V64H301.266V60ZM294.314 60C289.947 60 287.042 58.9386 285.221 57.1687C283.41 55.409 282.331 52.6183 282.331 48.412H278.331C278.331 53.2644 279.583 57.2676 282.433 60.0373C285.273 62.7967 289.359 64 294.314 64V60ZM282.331 48.412V27.319H278.331V48.412H282.331ZM280.331 25.319H275.117V29.319H280.331V25.319ZM277.117 27.319V18.234H273.117V27.319H277.117ZM275.117 20.234H280.331V16.234H275.117V20.234ZM282.331 18.234V7.411H278.331V18.234H282.331ZM280.331 9.411H291.47V5.411H280.331V9.411ZM289.47 7.411V18.234H293.47V7.411H289.47ZM291.47 20.234H301.266V16.234H291.47V20.234ZM299.266 18.234V27.319H303.266V18.234H299.266ZM301.266 25.319H291.47V29.319H301.266V25.319ZM308.984 28.188L307.212 27.261L307.206 27.2718L307.201 27.2826L308.984 28.188ZM316.173 20.288L315.14 18.5756L315.133 18.5796L315.126 18.5837L316.173 20.288ZM334.896 19.498L333.941 21.2552L333.949 21.2595L333.957 21.2637L334.896 19.498ZM340.821 24.475L339.211 25.6614L342.821 30.5608V24.475H340.821ZM340.821 18.234V16.234H338.821V18.234H340.821ZM351.96 18.234H353.96V16.234H351.96V18.234ZM351.96 62V64H353.96V62H351.96ZM340.821 62H338.821V64H340.821V62ZM340.821 55.601H342.821V49.1985L339.177 54.4626L340.821 55.601ZM334.896 60.736L335.835 62.5017L335.842 62.4982L335.849 62.4946L334.896 60.736ZM316.173 59.867L315.105 61.558L315.112 61.5622L315.118 61.5663L316.173 59.867ZM308.984 51.888L307.195 52.7824L307.203 52.7988L307.212 52.815L308.984 51.888ZM339.241 33.244L337.482 34.195L337.487 34.2052L337.493 34.2153L339.241 33.244ZM334.975 28.82L333.961 30.5439L333.98 30.5551L333.999 30.5659L334.975 28.82ZM323.52 28.741L322.522 27.0078L323.52 28.741ZM319.254 33.165L317.515 32.1778L317.51 32.1857L317.506 32.1937L319.254 33.165ZM319.254 46.911L317.484 47.8425L317.499 47.8706L317.515 47.8982L319.254 46.911ZM323.52 51.414L322.483 53.1244L322.495 53.1312L322.506 53.1379L323.52 51.414ZM334.975 51.493L335.951 53.2389L335.97 53.2281L335.989 53.2169L334.975 51.493ZM339.241 47.069L340.989 48.0403L340.995 48.0302L341 48.02L339.241 47.069ZM308.377 39.959C308.377 35.8016 309.192 32.1962 310.767 29.0934L307.201 27.2826C305.3 31.0264 304.377 35.2684 304.377 39.959H308.377ZM310.756 29.115C312.396 25.9796 314.554 23.6288 317.22 21.9923L315.126 18.5837C311.788 20.6339 309.153 23.5497 307.212 27.261L310.756 29.115ZM317.206 22.0004C319.934 20.3545 322.971 19.523 326.364 19.523V15.523C322.279 15.523 318.521 16.5349 315.14 18.5756L317.206 22.0004ZM326.364 19.523C329.357 19.523 331.861 20.1249 333.941 21.2552L335.851 17.7407C333.086 16.2378 329.901 15.523 326.364 15.523V19.523ZM333.957 21.2637C336.202 22.458 337.935 23.9301 339.211 25.6614L342.431 23.2886C340.758 21.0173 338.541 19.1714 335.835 17.7323L333.957 21.2637ZM342.821 24.475V18.234H338.821V24.475H342.821ZM340.821 20.234H351.96V16.234H340.821V20.234ZM349.96 18.234V62H353.96V18.234H349.96ZM351.96 60H340.821V64H351.96V60ZM342.821 62V55.601H338.821V62H342.821ZM339.177 54.4626C337.959 56.222 336.237 57.735 333.943 58.9774L335.849 62.4946C338.611 60.9983 340.839 59.088 342.465 56.7394L339.177 54.4626ZM333.957 58.9703C331.815 60.1096 329.277 60.711 326.285 60.711V64.711C329.824 64.711 333.026 63.9958 335.835 62.5017L333.957 58.9703ZM326.285 60.711C322.961 60.711 319.957 59.862 317.228 58.1677L315.118 61.5663C318.498 63.664 322.236 64.711 326.285 64.711V60.711ZM317.241 58.176C314.563 56.4846 312.398 54.1004 310.756 50.961L307.212 52.815C309.151 56.5222 311.779 59.4574 315.105 61.558L317.241 58.176ZM310.773 50.9936C309.193 47.8347 308.377 44.1724 308.377 39.959H304.377C304.377 44.6989 305.299 48.9893 307.195 52.7824L310.773 50.9936ZM342.821 40.117C342.821 37.1712 342.243 34.5287 340.989 32.2727L337.493 34.2153C338.346 35.7513 338.821 37.6908 338.821 40.117H342.821ZM341 32.293C339.782 30.0381 338.099 28.2748 335.951 27.0741L333.999 30.5659C335.432 31.3665 336.594 32.5526 337.482 34.195L341 32.293ZM335.989 27.0961C333.895 25.8642 331.623 25.24 329.208 25.24V29.24C330.901 29.24 332.474 29.6692 333.961 30.5439L335.989 27.0961ZM329.208 25.24C326.813 25.24 324.571 25.8279 322.522 27.0078L324.518 30.4742C325.945 29.6527 327.495 29.24 329.208 29.24V25.24ZM322.522 27.0078C320.44 28.2067 318.776 29.956 317.515 32.1778L320.993 34.1522C321.944 32.4766 323.124 31.2766 324.518 30.4742L322.522 27.0078ZM317.506 32.1937C316.255 34.4442 315.674 37.0581 315.674 39.959H319.674C319.674 37.5932 320.146 35.6778 321.002 34.1363L317.506 32.1937ZM315.674 39.959C315.674 42.8634 316.257 45.5101 317.484 47.8425L321.024 45.9795C320.145 44.3093 319.674 42.3213 319.674 39.959H315.674ZM317.515 47.8982C318.772 50.1128 320.424 51.8763 322.483 53.1244L324.557 49.7036C323.14 48.8451 321.948 47.6065 320.993 45.9238L317.515 47.8982ZM322.506 53.1379C324.592 54.3648 326.836 54.994 329.208 54.994V50.994C327.577 50.994 326.03 50.5699 324.534 49.6901L322.506 53.1379ZM329.208 54.994C331.603 54.994 333.861 54.4064 335.951 53.2389L333.999 49.7471C332.507 50.5809 330.921 50.994 329.208 50.994V54.994ZM335.989 53.2169C338.101 51.9745 339.771 50.2338 340.989 48.0403L337.493 46.0977C336.605 47.6962 335.43 48.9048 333.961 49.7691L335.989 53.2169ZM341 48.02C342.242 45.7233 342.821 43.065 342.821 40.117H338.821C338.821 42.541 338.347 44.5174 337.482 46.118L341 48.02ZM415.398 51.493L417.288 50.8393L416.823 49.493H415.398V51.493ZM393.436 51.493V49.493H392.012L391.546 50.8393L393.436 51.493ZM389.802 62V64H391.227L391.692 62.6537L389.802 62ZM378.189 62L376.307 61.3241L375.346 64H378.189V62ZM398.018 6.779V4.779H396.611L396.136 6.10308L398.018 6.779ZM410.895 6.779L412.778 6.10308L412.302 4.779H410.895V6.779ZM430.724 62V64H433.567L432.607 61.3241L430.724 62ZM419.032 62L417.142 62.6537L417.608 64H419.032V62ZM412.396 42.645V44.645H415.204L414.286 41.9912L412.396 42.645ZM404.417 19.577L406.307 18.9232L404.417 13.4587L402.527 18.9232L404.417 19.577ZM396.438 42.645L394.548 41.9912L393.63 44.645H396.438V42.645ZM415.398 49.493H393.436V53.493H415.398V49.493ZM391.546 50.8393L387.912 61.3463L391.692 62.6537L395.326 52.1467L391.546 50.8393ZM389.802 60H378.189V64H389.802V60ZM380.072 62.6759L399.901 7.45491L396.136 6.10308L376.307 61.3241L380.072 62.6759ZM398.018 8.779H410.895V4.779H398.018V8.779ZM409.013 7.45491L428.842 62.6759L432.607 61.3241L412.778 6.10308L409.013 7.45491ZM430.724 60H419.032V64H430.724V60ZM420.922 61.3463L417.288 50.8393L413.508 52.1467L417.142 62.6537L420.922 61.3463ZM414.286 41.9912L406.307 18.9232L402.527 20.2308L410.506 43.2988L414.286 41.9912ZM402.527 18.9232L394.548 41.9912L398.328 43.2988L406.307 20.2308L402.527 18.9232ZM396.438 44.645H412.396V40.645H396.438V44.645ZM475.029 22.579L473.592 23.9702L473.598 23.976L473.603 23.9817L475.029 22.579ZM479.848 62V64H481.848V62H479.848ZM468.788 62H466.788V64H468.788V62ZM466.181 29.847L464.707 31.1984L464.716 31.2088L464.726 31.219L466.181 29.847ZM451.803 29.847L450.349 28.4738L450.348 28.475L451.803 29.847ZM449.196 62V64H451.196V62H449.196ZM438.136 62H436.136V64H438.136V62ZM438.136 18.234V16.234H436.136V18.234H438.136ZM449.196 18.234H451.196V16.234H449.196V18.234ZM449.196 23.685H447.196V29.5141L450.775 24.9129L449.196 23.685ZM454.805 19.261L455.648 21.0744L455.658 21.0702L455.667 21.066L454.805 19.261ZM462.389 19.602C467.138 19.602 470.806 21.0931 473.592 23.9702L476.466 21.1878C472.826 17.4289 468.068 15.602 462.389 15.602V19.602ZM473.603 23.9817C476.351 26.7739 477.848 30.7936 477.848 36.325H481.848C481.848 30.059 480.133 24.9147 476.455 21.1763L473.603 23.9817ZM477.848 36.325V62H481.848V36.325H477.848ZM479.848 60H468.788V64H479.848V60ZM470.788 62V37.826H466.788V62H470.788ZM470.788 37.826C470.788 34.0322 469.837 30.809 467.636 28.475L464.726 31.219C466.001 32.5716 466.788 34.6678 466.788 37.826H470.788ZM467.655 28.4956C465.474 26.1163 462.531 25.003 459.071 25.003V29.003C461.615 29.003 463.412 29.7857 464.707 31.1984L467.655 28.4956ZM459.071 25.003C455.569 25.003 452.583 26.1088 450.349 28.4738L453.257 31.2202C454.605 29.7932 456.464 29.003 459.071 29.003V25.003ZM450.348 28.475C448.147 30.809 447.196 34.0322 447.196 37.826H451.196C451.196 34.6678 451.983 32.5716 453.258 31.219L450.348 28.475ZM447.196 37.826V62H451.196V37.826H447.196ZM449.196 60H438.136V64H449.196V60ZM440.136 62V18.234H436.136V62H440.136ZM438.136 20.234H449.196V16.234H438.136V20.234ZM447.196 18.234V23.685H451.196V18.234H447.196ZM450.775 24.9129C452.046 23.2778 453.66 21.9993 455.648 21.0744L453.962 17.4476C451.421 18.6294 449.295 20.3002 447.617 22.4571L450.775 24.9129ZM455.667 21.066C457.697 20.0968 459.928 19.602 462.389 19.602V15.602C459.373 15.602 456.548 16.2132 453.944 17.456L455.667 21.066ZM490.129 28.188L488.356 27.261L488.351 27.2718L488.345 27.2826L490.129 28.188ZM497.318 20.288L496.284 18.5756L496.278 18.5796L496.271 18.5837L497.318 20.288ZM516.041 19.498L515.086 21.2552L515.093 21.2595L515.101 21.2637L516.041 19.498ZM521.966 24.475L520.355 25.6614L523.966 30.5608V24.475H521.966ZM521.966 18.234V16.234H519.966V18.234H521.966ZM533.105 18.234H535.105V16.234H533.105V18.234ZM533.105 62V64H535.105V62H533.105ZM521.966 62H519.966V64H521.966V62ZM521.966 55.601H523.966V49.1985L520.321 54.4626L521.966 55.601ZM516.041 60.736L516.98 62.5017L516.986 62.4982L516.993 62.4946L516.041 60.736ZM497.318 59.867L496.25 61.558L496.256 61.5622L496.263 61.5663L497.318 59.867ZM490.129 51.888L488.34 52.7824L488.348 52.7988L488.356 52.815L490.129 51.888ZM520.386 33.244L518.626 34.195L518.632 34.2052L518.637 34.2153L520.386 33.244ZM516.12 28.82L515.106 30.5439L515.125 30.5551L515.144 30.5659L516.12 28.82ZM504.665 28.741L503.667 27.0078L504.665 28.741ZM500.399 33.165L498.659 32.1778L498.655 32.1857L498.65 32.1937L500.399 33.165ZM500.399 46.911L498.629 47.8425L498.643 47.8706L498.659 47.8982L500.399 46.911ZM504.665 51.414L503.628 53.1244L503.639 53.1312L503.651 53.1379L504.665 51.414ZM516.12 51.493L517.095 53.2389L517.115 53.2281L517.134 53.2169L516.12 51.493ZM520.386 47.069L522.134 48.0403L522.139 48.0302L522.145 48.02L520.386 47.069ZM489.522 39.959C489.522 35.8016 490.337 32.1962 491.912 29.0934L488.345 27.2826C486.445 31.0264 485.522 35.2684 485.522 39.959H489.522ZM491.901 29.115C493.541 25.9796 495.699 23.6288 498.364 21.9923L496.271 18.5837C492.932 20.6339 490.298 23.5497 488.356 27.261L491.901 29.115ZM498.351 22.0004C501.078 20.3545 504.115 19.523 507.509 19.523V15.523C503.423 15.523 499.666 16.5349 496.284 18.5756L498.351 22.0004ZM507.509 19.523C510.502 19.523 513.006 20.1249 515.086 21.2552L516.996 17.7407C514.23 16.2378 511.046 15.523 507.509 15.523V19.523ZM515.101 21.2637C517.346 22.458 519.08 23.9301 520.355 25.6614L523.576 23.2886C521.902 21.0173 519.685 19.1714 516.98 17.7323L515.101 21.2637ZM523.966 24.475V18.234H519.966V24.475H523.966ZM521.966 20.234H533.105V16.234H521.966V20.234ZM531.105 18.234V62H535.105V18.234H531.105ZM533.105 60H521.966V64H533.105V60ZM523.966 62V55.601H519.966V62H523.966ZM520.321 54.4626C519.103 56.222 517.382 57.735 515.088 58.9774L516.993 62.4946C519.755 60.9983 521.984 59.088 523.61 56.7394L520.321 54.4626ZM515.101 58.9703C512.959 60.1096 510.421 60.711 507.43 60.711V64.711C510.968 64.711 514.171 63.9958 516.98 62.5017L515.101 58.9703ZM507.43 60.711C504.106 60.711 501.102 59.862 498.372 58.1677L496.263 61.5663C499.643 63.664 503.38 64.711 507.43 64.711V60.711ZM498.386 58.176C495.707 56.4846 493.543 54.1004 491.901 50.961L488.356 52.815C490.296 56.5222 492.924 59.4574 496.25 61.558L498.386 58.176ZM491.917 50.9936C490.338 47.8347 489.522 44.1724 489.522 39.959H485.522C485.522 44.6989 486.443 48.9893 488.34 52.7824L491.917 50.9936ZM523.966 40.117C523.966 37.1712 523.387 34.5287 522.134 32.2727L518.637 34.2153C519.491 35.7513 519.966 37.6908 519.966 40.117H523.966ZM522.145 32.293C520.926 30.0381 519.244 28.2748 517.095 27.0741L515.144 30.5659C516.577 31.3665 517.738 32.5526 518.626 34.195L522.145 32.293ZM517.134 27.0961C515.039 25.8642 512.767 25.24 510.353 25.24V29.24C512.046 29.24 513.618 29.6692 515.106 30.5439L517.134 27.0961ZM510.353 25.24C507.957 25.24 505.716 25.8279 503.667 27.0078L505.662 30.4742C507.089 29.6527 508.64 29.24 510.353 29.24V25.24ZM503.667 27.0078C501.584 28.2067 499.92 29.956 498.659 32.1778L502.138 34.1522C503.089 32.4766 504.269 31.2766 505.662 30.4742L503.667 27.0078ZM498.65 32.1937C497.4 34.4442 496.819 37.0581 496.819 39.959H500.819C500.819 37.5932 501.29 35.6778 502.147 34.1363L498.65 32.1937ZM496.819 39.959C496.819 42.8634 497.401 45.5101 498.629 47.8425L502.168 45.9795C501.289 44.3093 500.819 42.3213 500.819 39.959H496.819ZM498.659 47.8982C499.916 50.1128 501.569 51.8763 503.628 53.1244L505.701 49.7036C504.285 48.8451 503.093 47.6065 502.138 45.9238L498.659 47.8982ZM503.651 53.1379C505.736 54.3648 507.981 54.994 510.353 54.994V50.994C508.722 50.994 507.174 50.5699 505.679 49.6901L503.651 53.1379ZM510.353 54.994C512.748 54.994 515.006 54.4064 517.095 53.2389L515.144 49.7471C513.652 50.5809 512.065 50.994 510.353 50.994V54.994ZM517.134 53.2169C519.246 51.9745 520.915 50.2338 522.134 48.0403L518.637 46.0977C517.749 47.6962 516.575 48.9048 515.106 49.7691L517.134 53.2169ZM522.145 48.02C523.386 45.7233 523.966 43.065 523.966 40.117H519.966C519.966 42.541 519.491 44.5174 518.626 46.118L522.145 48.02ZM554.967 3.54H556.967V1.54H554.967V3.54ZM554.967 62V64H556.967V62H554.967ZM543.907 62H541.907V64H543.907V62ZM543.907 3.54V1.54H541.907V3.54H543.907ZM552.967 3.54V62H556.967V3.54H552.967ZM554.967 60H543.907V64H554.967V60ZM545.907 62V3.54H541.907V62H545.907ZM543.907 5.54H554.967V1.54H543.907V5.54ZM607.764 18.234L609.608 19.009L610.774 16.234H607.764V18.234ZM580.667 82.698V84.698H581.996L582.511 83.473L580.667 82.698ZM568.896 82.698L567.062 81.9005L565.845 84.698H568.896V82.698ZM578.376 60.894L580.21 61.6915L580.547 60.9158L580.226 60.1335L578.376 60.894ZM560.838 18.234V16.234H557.853L558.988 18.9945L560.838 18.234ZM573.241 18.234L575.117 17.5408L574.634 16.234H573.241V18.234ZM584.538 48.807L582.662 49.5002L584.525 54.542L586.411 49.5087L584.538 48.807ZM595.993 18.234V16.234H594.606L594.12 17.5323L595.993 18.234ZM605.92 17.459L578.823 81.923L582.511 83.473L609.608 19.009L605.92 17.459ZM580.667 80.698H568.896V84.698H580.667V80.698ZM570.73 83.4955L580.21 61.6915L576.542 60.0965L567.062 81.9005L570.73 83.4955ZM580.226 60.1335L562.688 17.4735L558.988 18.9945L576.526 61.6545L580.226 60.1335ZM560.838 20.234H573.241V16.234H560.838V20.234ZM571.365 18.9272L582.662 49.5002L586.414 48.1138L575.117 17.5408L571.365 18.9272ZM586.411 49.5087L597.866 18.9357L594.12 17.5323L582.665 48.1053L586.411 49.5087ZM595.993 20.234H607.764V16.234H595.993V20.234ZM626.603 27.319V25.319H624.603V27.319H626.603ZM627.63 51.73L626.216 53.1442L626.27 53.1985L626.328 53.2485L627.63 51.73ZM636.399 52.678H638.399V50.678H636.399V52.678ZM636.399 62V64H638.399V62H636.399ZM615.464 27.319H617.464V25.319H615.464V27.319ZM610.25 27.319H608.25V29.319H610.25V27.319ZM610.25 18.234V16.234H608.25V18.234H610.25ZM615.464 18.234V20.234H617.464V18.234H615.464ZM615.464 7.411V5.411H613.464V7.411H615.464ZM626.603 7.411H628.603V5.411H626.603V7.411ZM626.603 18.234H624.603V20.234H626.603V18.234ZM636.399 18.234H638.399V16.234H636.399V18.234ZM636.399 27.319V29.319H638.399V27.319H636.399ZM624.603 27.319V48.491H628.603V27.319H624.603ZM624.603 48.491C624.603 50.2236 624.999 51.9279 626.216 53.1442L629.044 50.3158C628.891 50.1627 628.603 49.7077 628.603 48.491H624.603ZM626.328 53.2485C627.613 54.3498 629.42 54.678 631.264 54.678V50.678C629.737 50.678 629.121 50.3742 628.931 50.2115L626.328 53.2485ZM631.264 54.678H636.399V50.678H631.264V54.678ZM634.399 52.678V62H638.399V52.678H634.399ZM636.399 60H629.447V64H636.399V60ZM629.447 60C625.08 60 622.175 58.9386 620.353 57.1687C618.543 55.409 617.464 52.6183 617.464 48.412H613.464C613.464 53.2644 614.716 57.2676 617.566 60.0373C620.405 62.7967 624.492 64 629.447 64V60ZM617.464 48.412V27.319H613.464V48.412H617.464ZM615.464 25.319H610.25V29.319H615.464V25.319ZM612.25 27.319V18.234H608.25V27.319H612.25ZM610.25 20.234H615.464V16.234H610.25V20.234ZM617.464 18.234V7.411H613.464V18.234H617.464ZM615.464 9.411H626.603V5.411H615.464V9.411ZM624.603 7.411V18.234H628.603V7.411H624.603ZM626.603 20.234H636.399V16.234H626.603V20.234ZM634.399 18.234V27.319H638.399V18.234H634.399ZM636.399 25.319H626.603V29.319H636.399V25.319ZM645.065 11.203L643.651 12.6172L643.68 12.6467L643.711 12.6749L645.065 11.203ZM645.065 1.96L646.449 3.40397L646.45 3.40277L645.065 1.96ZM654.782 1.96L653.368 3.37421L653.397 3.40366L653.428 3.43186L654.782 1.96ZM654.782 11.203L656.166 12.647L656.167 12.6458L654.782 11.203ZM655.414 18.234H657.414V16.234H655.414V18.234ZM655.414 62V64H657.414V62H655.414ZM644.354 62H642.354V64H644.354V62ZM644.354 18.234V16.234H642.354V18.234H644.354ZM649.963 11.02C648.467 11.02 647.332 10.5713 646.419 9.73114L643.711 12.6749C645.431 14.2574 647.561 15.02 649.963 15.02V11.02ZM646.479 9.78879C645.603 8.91274 645.169 7.8734 645.169 6.542H641.169C641.169 8.89726 641.999 10.9653 643.651 12.6172L646.479 9.78879ZM645.169 6.542C645.169 5.21157 645.601 4.21631 646.449 3.40397L643.681 0.516018C642.001 2.12635 641.169 4.18576 641.169 6.542H645.169ZM646.45 3.40277C647.367 2.5221 648.492 2.064 649.963 2.064V-1.936C647.536 -1.936 645.396 -1.13011 643.68 0.51722L646.45 3.40277ZM649.963 2.064C651.434 2.064 652.514 2.52094 653.368 3.37421L656.196 0.54578C654.521 -1.12895 652.389 -1.936 649.963 -1.936V2.064ZM653.428 3.43186C654.319 4.25166 654.757 5.2388 654.757 6.542H658.757C658.757 4.15852 657.878 2.091 656.136 0.488132L653.428 3.43186ZM654.757 6.542C654.757 7.84687 654.316 8.87759 653.397 9.76023L656.167 12.6458C657.881 11.0004 658.757 8.92379 658.757 6.542H654.757ZM653.398 9.75902C652.55 10.5719 651.459 11.02 649.963 11.02V15.02C652.364 15.02 654.486 14.2567 656.166 12.647L653.398 9.75902ZM653.414 18.234V62H657.414V18.234H653.414ZM655.414 60H644.354V64H655.414V60ZM646.354 62V18.234H642.354V62H646.354ZM644.354 20.234H655.414V16.234H644.354V20.234ZM666.262 28.267L668.017 29.2266L668.023 29.2152L666.262 28.267ZM673.925 20.367L674.908 22.1087L674.919 22.1027L674.929 22.0966L673.925 20.367ZM698.573 21.631L697.347 23.211L697.36 23.2211L697.373 23.231L698.573 21.631ZM705.762 33.007V35.007H708.317L707.704 32.5268L705.762 33.007ZM693.833 33.007L691.936 33.6395L692.392 35.007H693.833V33.007ZM690.594 28.583L689.394 30.183L689.426 30.2069L689.459 30.2294L690.594 28.583ZM677.559 30.4L679.11 31.6625L679.117 31.6538L679.124 31.645L677.559 30.4ZM677.559 49.834L675.994 51.079L676.001 51.0878L676.008 51.0965L677.559 49.834ZM693.833 47.227V45.227H692.404L691.941 46.5796L693.833 47.227ZM705.762 47.227L707.7 47.7222L708.338 45.227H705.762V47.227ZM698.573 58.524L699.803 60.1015L698.573 58.524ZM673.925 59.946L672.921 61.6756L672.931 61.6817L672.942 61.6876L673.925 59.946ZM666.262 52.046L664.501 52.9942L664.507 53.0056L666.262 52.046ZM665.497 40.117C665.497 35.8629 666.361 32.2544 668.017 29.2266L664.507 27.3074C662.477 31.0209 661.497 35.3124 661.497 40.117H665.497ZM668.023 29.2152C669.694 26.1116 671.984 23.7592 674.908 22.1087L672.942 18.6254C669.335 20.6615 666.517 23.5758 664.501 27.3188L668.023 29.2152ZM674.929 22.0966C677.855 20.3976 681.241 19.523 685.143 19.523V15.523C680.619 15.523 676.526 16.5444 672.921 18.6374L674.929 22.0966ZM685.143 19.523C690.222 19.523 694.239 20.7991 697.347 23.211L699.799 20.051C695.85 16.9856 690.914 15.523 685.143 15.523V19.523ZM697.373 23.231C700.539 25.6053 702.705 28.9765 703.821 33.4872L707.704 32.5268C706.397 27.2415 703.77 23.0287 699.773 20.031L697.373 23.231ZM705.762 31.007H693.833V35.007H705.762V31.007ZM695.731 32.3745C694.973 30.1006 693.642 28.2557 691.73 26.9366L689.459 30.2294C690.601 31.0169 691.43 32.1214 691.936 33.6395L695.731 32.3745ZM691.794 26.983C689.908 25.5686 687.62 24.924 685.064 24.924V28.924C686.932 28.924 688.331 29.3854 689.394 30.183L691.794 26.983ZM685.064 24.924C681.342 24.924 678.245 26.3249 675.994 29.155L679.124 31.645C680.56 29.8404 682.466 28.924 685.064 28.924V24.924ZM676.008 29.1375C673.77 31.8872 672.794 35.6423 672.794 40.117H676.794C676.794 36.1651 677.662 33.4421 679.11 31.6625L676.008 29.1375ZM672.794 40.117C672.794 44.5501 673.775 48.2889 675.994 51.079L679.124 48.589C677.657 46.7444 676.794 44.0052 676.794 40.117H672.794ZM676.008 51.0965C678.265 53.8699 681.359 55.231 685.064 55.231V51.231C682.449 51.231 680.539 50.3274 679.11 48.5715L676.008 51.0965ZM685.064 55.231C687.599 55.231 689.871 54.6623 691.744 53.3802C693.626 52.0916 694.929 50.2019 695.725 47.8744L691.941 46.5796C691.368 48.2548 690.525 49.3671 689.484 50.0798C688.433 50.7991 687.006 51.231 685.064 51.231V55.231ZM693.833 49.227H705.762V45.227H693.833V49.227ZM703.824 46.7318C702.714 51.078 700.548 54.4492 697.344 56.9465L699.803 60.1015C703.761 57.0161 706.388 52.856 707.7 47.7222L703.824 46.7318ZM697.344 56.9465C694.175 59.4162 690.154 60.711 685.143 60.711V64.711C690.876 64.711 695.809 63.2145 699.803 60.1015L697.344 56.9465ZM685.143 60.711C681.231 60.711 677.838 59.8582 674.908 58.2044L672.942 61.6876C676.543 63.7205 680.629 64.711 685.143 64.711V60.711ZM674.929 58.2164C671.986 56.5071 669.688 54.1426 668.017 51.0864L664.507 53.0056C666.523 56.6907 669.334 59.5929 672.921 61.6756L674.929 58.2164ZM668.023 51.0978C666.361 48.0106 665.497 44.3702 665.497 40.117H661.497C661.497 44.9225 662.477 49.2347 664.501 52.9942L668.023 51.0978ZM720.975 60.815L720.134 62.6299L720.148 62.6364L720.162 62.6426L720.975 60.815ZM714.181 55.522L712.571 56.7097L712.581 56.722L712.59 56.7341L714.181 55.522ZM711.495 48.175V46.175H709.373L709.498 48.2924L711.495 48.175ZM722.634 48.175L724.618 47.9269L724.399 46.175H722.634V48.175ZM725.083 52.362L723.855 53.9407L723.869 53.9515L723.883 53.962L725.083 52.362ZM735.432 52.757L734.289 51.1152L734.272 51.1272L734.255 51.1395L735.432 52.757ZM735.037 46.358L734.116 48.1335L734.155 48.1536L734.194 48.172L735.037 46.358ZM728.164 43.988L728.679 42.0555L728.656 42.0495L728.634 42.0441L728.164 43.988ZM720.106 41.539L719.346 43.3893L719.355 43.3927L719.363 43.396L720.106 41.539ZM714.734 37.668L713.209 38.962L713.22 38.9752L713.231 38.9882L714.734 37.668ZM714.576 24.001L712.945 22.8426L712.935 22.857L712.925 22.8716L714.576 24.001ZM720.58 19.261L719.774 17.4304L719.767 17.4334L719.76 17.4365L720.58 19.261ZM742.305 21.473L741.012 22.9988L741.019 23.0052L741.027 23.0116L742.305 21.473ZM747.44 31.98V33.98H749.588L749.435 31.8375L747.44 31.98ZM736.854 31.98L734.862 32.1611L735.027 33.98H736.854V31.98ZM734.642 27.872L733.361 29.4084L733.396 29.4372L733.431 29.4643L734.642 27.872ZM724.846 27.398L723.736 25.7339L723.717 25.7465L723.699 25.7595L724.846 27.398ZM725.478 33.876L724.533 35.639L724.558 35.6523L724.583 35.6649L725.478 33.876ZM732.351 36.167L731.858 38.1054L731.865 38.1073L732.351 36.167ZM740.172 38.616L739.412 40.4663L740.172 38.616ZM745.465 42.566L743.921 43.8374L743.941 43.8622L743.962 43.8862L745.465 42.566ZM747.835 49.518H749.835V49.4998L749.834 49.4816L747.835 49.518ZM745.702 56.312L744.071 55.1536L744.061 55.168L744.051 55.1826L745.702 56.312ZM739.698 61.052L740.485 62.8903L740.494 62.8865L740.503 62.8826L739.698 61.052ZM730.613 60.711C727.269 60.711 724.339 60.1218 721.787 58.9874L720.162 62.6426C723.298 64.0362 726.793 64.711 730.613 64.711V60.711ZM721.815 59.0001C719.228 57.8026 717.235 56.2315 715.771 54.3099L712.59 56.7341C714.496 59.2365 717.033 61.194 720.134 62.6299L721.815 59.0001ZM715.79 54.3343C714.382 52.4268 713.626 50.348 713.491 48.0576L709.498 48.2924C709.679 51.374 710.714 54.1932 712.571 56.7097L715.79 54.3343ZM711.495 50.175H722.634V46.175H711.495V50.175ZM720.649 48.4231C720.93 50.6691 722.042 52.531 723.855 53.9407L726.31 50.7833C725.279 49.981 724.759 49.0515 724.618 47.9269L720.649 48.4231ZM723.883 53.962C725.76 55.3703 728.018 56.021 730.534 56.021V52.021C728.73 52.021 727.354 51.5657 726.283 50.762L723.883 53.962ZM730.534 56.021C732.873 56.021 734.981 55.558 736.608 54.3745L734.255 51.1395C733.565 51.6413 732.407 52.021 730.534 52.021V56.021ZM736.574 54.3988C738.247 53.2348 739.249 51.5763 739.249 49.518H735.249C735.249 50.0931 735.039 50.5939 734.289 51.1152L736.574 54.3988ZM739.249 49.518C739.249 48.4421 738.963 47.4128 738.334 46.5146C737.717 45.6324 736.852 44.996 735.879 44.544L734.194 48.172C734.695 48.4046 734.937 48.6372 735.057 48.8084C735.166 48.9635 735.249 49.1719 735.249 49.518H739.249ZM735.957 44.5825C734.332 43.74 731.866 42.9054 728.679 42.0555L727.648 45.9205C730.781 46.756 732.897 47.5014 734.116 48.1335L735.957 44.5825ZM728.634 42.0441C725.422 41.267 722.835 40.4768 720.848 39.682L719.363 43.396C721.589 44.2865 724.375 45.129 727.693 45.9319L728.634 42.0441ZM720.865 39.6887C719.108 38.968 717.569 37.8642 716.236 36.3478L713.231 38.9882C714.953 40.9478 716.995 42.4246 719.346 43.3893L720.865 39.6887ZM716.259 36.374C715.171 35.0927 714.522 33.2544 714.522 30.637H710.522C710.522 33.9183 711.346 36.7673 713.209 38.962L716.259 36.374ZM714.522 30.637C714.522 28.6178 715.084 26.7994 716.226 25.1304L712.925 22.8716C711.328 25.2053 710.522 27.8109 710.522 30.637H714.522ZM716.206 25.1594C717.392 23.4902 719.093 22.1209 721.399 21.0855L719.76 17.4365C716.905 18.7184 714.603 20.5092 712.945 22.8426L716.206 25.1594ZM721.385 21.0916C723.714 20.0669 726.51 19.523 729.823 19.523V15.523C726.078 15.523 722.712 16.1377 719.774 17.4304L721.385 21.0916ZM729.823 19.523C734.699 19.523 738.357 20.7492 741.012 22.9988L743.598 19.9472C740.037 16.9301 735.374 15.523 729.823 15.523V19.523ZM741.027 23.0116C743.671 25.208 745.163 28.1831 745.445 32.1225L749.435 31.8375C749.084 26.9289 747.152 22.8994 743.582 19.9344L741.027 23.0116ZM747.44 29.98H736.854V33.98H747.44V29.98ZM738.845 31.7989C738.64 29.5365 737.643 27.6408 735.852 26.2797L733.431 29.4643C734.274 30.1046 734.751 30.9475 734.862 32.1611L738.845 31.7989ZM735.922 26.3356C734.199 24.9 731.986 24.292 729.507 24.292V28.292C731.346 28.292 732.556 28.7373 733.361 29.4084L735.922 26.3356ZM729.507 24.292C727.297 24.292 725.298 24.6928 723.736 25.7339L725.955 29.0621C726.605 28.6285 727.713 28.292 729.507 28.292V24.292ZM723.699 25.7595C722.096 26.8817 721.266 28.5284 721.266 30.479H725.266C725.266 29.7963 725.489 29.3889 725.992 29.0365L723.699 25.7595ZM721.266 30.479C721.266 31.567 721.543 32.6051 722.143 33.5256C722.734 34.4331 723.569 35.1225 724.533 35.639L726.422 32.113C725.911 31.8395 725.641 31.5677 725.495 31.3429C725.357 31.131 725.266 30.8657 725.266 30.479H721.266ZM724.583 35.6649C726.256 36.5011 728.716 37.3065 731.858 38.1053L732.843 34.2287C729.771 33.4475 727.649 32.7256 726.372 32.0871L724.583 35.6649ZM731.865 38.1073C734.971 38.8837 737.478 39.6728 739.412 40.4663L740.931 36.7657C738.757 35.8739 736.05 35.0303 732.836 34.2267L731.865 38.1073ZM739.412 40.4663C741.147 41.178 742.646 42.2897 743.921 43.8374L747.008 41.2946C745.334 39.261 743.304 37.7393 740.931 36.7657L739.412 40.4663ZM743.962 43.8862C745.104 45.186 745.789 47.008 745.835 49.5544L749.834 49.4816C749.775 46.2346 748.879 43.422 746.967 41.2458L743.962 43.8862ZM745.835 49.518C745.835 51.644 745.245 53.5012 744.071 55.1536L747.332 57.4704C749.002 55.1201 749.835 52.448 749.835 49.518H745.835ZM744.051 55.1826C742.929 56.8226 741.248 58.1847 738.892 59.2214L740.503 62.8826C743.414 61.602 745.736 59.8041 747.352 57.4414L744.051 55.1826ZM738.91 59.2137C736.63 60.1909 733.88 60.711 730.613 60.711V64.711C734.297 64.711 737.604 64.1251 740.485 62.8903L738.91 59.2137ZM784.349 60.578L783.557 62.4147L783.568 62.4195L784.349 60.578ZM777.081 54.89L775.46 56.0622L777.081 54.89ZM774.316 46.121V44.121H772.284L772.316 46.1522L774.316 46.121ZM786.166 46.121L788.161 45.9818L788.031 44.121H786.166V46.121ZM788.536 51.493L787.177 52.9605L787.19 52.9728L787.204 52.9849L788.536 51.493ZM800.623 51.651L801.892 53.1964L801.908 53.1832L801.924 53.1695L800.623 51.651ZM801.334 42.724L799.884 44.1015L801.334 42.724ZM797.542 40.275L796.754 42.1133L796.793 42.13L796.832 42.145L797.542 40.275ZM791.38 38.221L790.815 40.1397L790.828 40.1434L790.84 40.1469L791.38 38.221ZM782.611 35.14L781.751 36.9457L781.776 36.9579L781.802 36.9694L782.611 35.14ZM776.844 30.479L775.244 31.679L775.26 31.7015L775.278 31.7235L776.844 30.479ZM776.923 13.573L778.581 14.6907L776.923 13.573ZM783.796 8.043L784.583 9.88129L784.597 9.87539L784.611 9.86927L783.796 8.043ZM807.733 10.255L806.492 11.8236L806.505 11.8337L806.518 11.8437L807.733 10.255ZM813.658 21.789V23.789H815.812L815.652 21.6405L813.658 21.789ZM801.492 21.789L799.495 21.8999L799.6 23.789H801.492V21.789ZM799.043 17.128L797.741 18.6465L797.77 18.6713L797.8 18.695L799.043 17.128ZM787.904 16.891L786.617 15.3596L786.602 15.3726L786.587 15.3858L787.904 16.891ZM787.43 25.423L785.978 26.7985L786.015 26.8377L786.054 26.8749L787.43 25.423ZM791.064 27.793L790.251 29.6206L790.291 29.6385L790.332 29.6545L791.064 27.793ZM797.226 29.847L796.651 31.7627L796.661 31.7657L797.226 29.847ZM811.841 37.747L810.26 38.9721L811.841 37.747ZM811.999 54.258L810.287 53.2238L811.999 54.258ZM805.284 60.341L806.178 62.1299L806.191 62.1235L806.203 62.117L805.284 60.341ZM794.777 60.553C791.163 60.553 787.957 59.935 785.129 58.7365L783.568 62.4195C786.955 63.8543 790.701 64.553 794.777 64.553V60.553ZM785.14 58.7413C782.386 57.5543 780.262 55.8753 778.701 53.7178L775.46 56.0622C777.481 58.8554 780.202 60.9684 783.557 62.4146L785.14 58.7413ZM778.701 53.7178C777.176 51.6091 776.362 49.0946 776.315 46.0898L772.316 46.1522C772.374 49.8888 773.404 53.2202 775.46 56.0622L778.701 53.7178ZM774.316 48.121H786.166V44.121H774.316V48.121ZM784.17 46.2602C784.357 48.9395 785.318 51.2397 787.177 52.9605L789.894 50.0255C788.909 49.113 788.29 47.8318 788.161 45.9818L784.17 46.2602ZM787.204 52.9849C789.138 54.712 791.661 55.468 794.54 55.468V51.468C792.362 51.468 790.883 50.9074 789.868 50.0011L787.204 52.9849ZM794.54 55.468C797.42 55.468 799.951 54.7907 801.892 53.1964L799.353 50.1055C798.345 50.9339 796.82 51.468 794.54 51.468V55.468ZM801.924 53.1695C803.857 51.5125 804.835 49.3178 804.835 46.753H800.835C800.835 48.1909 800.337 49.2615 799.321 50.1325L801.924 53.1695ZM804.835 46.753C804.835 44.6764 804.182 42.8185 802.784 41.3465L799.884 44.1015C800.487 44.7361 800.835 45.5643 800.835 46.753H804.835ZM802.784 41.3465C801.552 40.0498 800.024 39.0775 798.251 38.405L796.832 42.145C798.114 42.6312 799.114 43.2915 799.884 44.1015L802.784 41.3465ZM798.329 38.4367C796.737 37.7543 794.587 37.0421 791.919 36.2951L790.84 40.1469C793.439 40.8745 795.397 41.5317 796.754 42.1133L798.329 38.4367ZM791.944 36.3023C788.409 35.2625 785.575 34.2635 783.419 33.3106L781.802 36.9694C784.175 38.0179 787.188 39.0729 790.815 40.1397L791.944 36.3023ZM783.47 33.3343C781.553 32.421 779.866 31.0674 778.409 29.2345L775.278 31.7235C777.086 33.9986 779.245 35.7523 781.751 36.9457L783.47 33.3343ZM778.444 29.279C777.195 27.6147 776.474 25.2863 776.474 22.105H772.474C772.474 25.8757 773.332 29.13 775.244 31.679L778.444 29.279ZM776.474 22.105C776.474 19.1893 777.197 16.7449 778.581 14.6907L775.264 12.4553C773.383 15.2464 772.474 18.4901 772.474 22.105H776.474ZM778.581 14.6907C779.978 12.618 781.951 11.0093 784.583 9.88129L783.008 6.20471C779.741 7.60472 777.133 9.68264 775.264 12.4553L778.581 14.6907ZM784.611 9.86927C787.263 8.68534 790.348 8.068 793.908 8.068V4.068C789.883 4.068 786.227 4.76733 782.98 6.21672L784.611 9.86927ZM793.908 8.068C799.266 8.068 803.401 9.37852 806.492 11.8236L808.973 8.68643C805.007 5.54881 799.925 4.068 793.908 4.068V8.068ZM806.518 11.8437C809.597 14.1982 811.332 17.4917 811.663 21.9375L815.652 21.6405C815.246 16.1849 813.031 11.7892 808.948 8.66628L806.518 11.8437ZM813.658 19.789H801.492V23.789H813.658V19.789ZM803.489 21.6781C803.351 19.1941 802.247 17.1168 800.285 15.561L797.8 18.695C798.893 19.5618 799.422 20.5919 799.495 21.8999L803.489 21.6781ZM800.344 15.6095C798.417 13.9572 795.936 13.232 793.118 13.232V17.232C795.25 17.232 796.719 17.7708 797.741 18.6465L800.344 15.6095ZM793.118 13.232C790.611 13.232 788.379 13.8799 786.617 15.3596L789.19 18.4224C790.062 17.6901 791.305 17.232 793.118 17.232V13.232ZM786.587 15.3858C784.782 16.9646 784.008 19.1847 784.008 21.71H788.008C788.008 20.0219 788.497 19.0294 789.221 18.3961L786.587 15.3858ZM784.008 21.71C784.008 23.6572 784.652 25.3988 785.978 26.7985L788.882 24.0475C788.312 23.4459 788.008 22.7122 788.008 21.71H784.008ZM786.054 26.8749C787.24 27.998 788.648 28.9081 790.251 29.6206L791.876 25.9654C790.635 25.4139 789.621 24.744 788.805 23.9711L786.054 26.8749ZM790.332 29.6545C791.882 30.2635 793.997 30.9665 796.651 31.7626L797.8 27.9314C795.188 27.1475 793.194 26.4812 791.795 25.9315L790.332 29.6545ZM796.661 31.7657C800.189 32.8033 803.009 33.8242 805.151 34.8204L806.838 31.1936C804.451 30.0832 801.425 28.9974 797.79 27.9283L796.661 31.7657ZM805.151 34.8204C807.107 35.7303 808.809 37.1002 810.26 38.9721L813.421 36.5219C811.607 34.1805 809.411 32.3904 806.838 31.1936L805.151 34.8204ZM810.26 38.9721C811.552 40.6393 812.29 42.9348 812.29 46.042H816.29C816.29 42.3025 815.395 39.068 813.421 36.5219L810.26 38.9721ZM812.29 46.042C812.29 48.6262 811.626 51.0073 810.287 53.2238L813.71 55.2922C815.426 52.4527 816.29 49.3565 816.29 46.042H812.29ZM810.287 53.2238C808.973 55.3982 807.028 57.1855 804.364 58.565L806.203 62.117C809.438 60.4418 811.97 58.1738 813.71 55.2922L810.287 53.2238ZM804.389 58.5521C801.774 59.8597 798.592 60.553 794.777 60.553V64.553C799.072 64.553 802.894 63.7716 806.178 62.1299L804.389 58.5521ZM831.936 59.946L830.956 61.6891L830.966 61.695L830.977 61.7007L831.936 59.946ZM823.957 51.967L822.208 52.936L822.213 52.9462L822.219 52.9564L823.957 51.967ZM824.036 28.267L822.31 27.2576L822.304 27.2676L822.298 27.2776L824.036 28.267ZM832.173 20.367L833.121 22.1279L833.132 22.1223L833.142 22.1166L832.173 20.367ZM855.083 20.367L854.114 22.1166L854.125 22.1223L854.135 22.1279L855.083 20.367ZM863.141 28.267L861.403 29.2564L861.409 29.2664L861.415 29.2764L863.141 28.267ZM863.062 51.967L861.347 50.938L861.341 50.9478L861.336 50.9576L863.062 51.967ZM854.846 59.946L855.794 61.707L855.804 61.7018L854.846 59.946ZM848.921 51.651L849.879 53.4068L849.888 53.4019L849.897 53.3969L848.921 51.651ZM853.187 47.227L854.947 48.178L853.187 47.227ZM851.449 30.558L850.002 31.9381L850.018 31.9554L850.035 31.9722L851.449 30.558ZM835.491 30.558L834.044 29.1778L834.043 29.1787L835.491 30.558ZM835.412 49.755L833.931 51.0986L833.947 51.1167L833.964 51.1343L835.412 49.755ZM843.312 60.711C839.401 60.711 835.944 59.8585 832.896 58.1913L830.977 61.7007C834.669 63.7202 838.797 64.711 843.312 64.711V60.711ZM832.917 58.2029C829.868 56.4882 827.468 54.0918 825.695 50.9776L822.219 52.9564C824.344 56.6889 827.263 59.6118 830.956 61.6891L832.917 58.2029ZM825.707 50.998C823.997 47.9116 823.113 44.3041 823.113 40.117H819.113C819.113 44.8833 820.125 49.1757 822.208 52.936L825.707 50.998ZM823.113 40.117C823.113 35.9391 824.02 32.339 825.774 29.2564L822.298 27.2776C820.156 31.0417 819.113 35.3415 819.113 40.117H823.113ZM825.763 29.2764C827.583 26.1637 830.028 23.7934 833.121 22.1279L831.225 18.6061C827.471 20.6272 824.493 23.5236 822.31 27.2576L825.763 29.2764ZM833.142 22.1166C836.246 20.3973 839.727 19.523 843.628 19.523V15.523C839.103 15.523 834.947 16.5447 831.204 18.6174L833.142 22.1166ZM843.628 19.523C847.529 19.523 851.01 20.3973 854.114 22.1166L856.052 18.6174C852.31 16.5447 848.154 15.523 843.628 15.523V19.523ZM854.135 22.1279C857.223 23.7909 859.638 26.1547 861.403 29.2564L864.879 27.2776C862.748 23.5326 859.79 20.6298 856.031 18.6061L854.135 22.1279ZM861.415 29.2764C863.215 32.3555 864.143 35.9484 864.143 40.117H868.143C868.143 35.3323 867.07 31.0251 864.868 27.2576L861.415 29.2764ZM864.143 40.117C864.143 44.2763 863.193 47.862 861.347 50.938L864.777 52.996C867.04 49.2253 868.143 44.9111 868.143 40.117H864.143ZM861.336 50.9576C859.518 54.0673 857.045 56.4687 853.889 58.1902L855.804 61.7018C859.6 59.6313 862.604 56.7133 864.789 52.9764L861.336 50.9576ZM853.898 58.1851C850.794 59.8566 847.28 60.711 843.312 60.711V64.711C847.876 64.711 852.052 63.7221 855.794 61.7069L853.898 58.1851ZM843.312 55.073C845.644 55.073 847.844 54.5169 849.879 53.4068L847.964 49.8952C846.523 50.6811 844.983 51.073 843.312 51.073V55.073ZM849.897 53.3969C852.045 52.1962 853.728 50.4329 854.947 48.178L851.428 46.276C850.54 47.9184 849.378 49.1045 847.946 49.9051L849.897 53.3969ZM854.947 48.178C856.194 45.8709 856.767 43.1557 856.767 40.117H852.767C852.767 42.6609 852.287 44.6858 851.428 46.276L854.947 48.178ZM856.767 40.117C856.767 35.6069 855.562 31.8419 852.863 29.1438L850.035 31.9722C851.761 33.6981 852.767 36.3057 852.767 40.117H856.767ZM852.897 29.1778C850.356 26.5129 847.171 25.161 843.47 25.161V29.161C846.089 29.161 848.224 30.0737 850.002 31.9381L852.897 29.1778ZM843.47 25.161C839.769 25.161 836.585 26.5129 834.044 29.1778L836.939 31.9381C838.716 30.0737 840.851 29.161 843.47 29.161V25.161ZM834.043 29.1787C831.47 31.8801 830.331 35.632 830.331 40.117H834.331C834.331 36.2807 835.299 33.6599 836.94 31.9373L834.043 29.1787ZM830.331 40.117C830.331 44.5932 831.439 48.3509 833.931 51.0986L836.894 48.4114C835.278 46.6298 834.331 43.9621 834.331 40.117H830.331ZM833.964 51.1343C836.463 53.7578 839.626 55.073 843.312 55.073V51.073C840.678 51.073 838.575 50.1762 836.861 48.3757L833.964 51.1343ZM885.316 3.54H887.316V1.54H885.316V3.54ZM885.316 62V64H887.316V62H885.316ZM874.256 62H872.256V64H874.256V62ZM874.256 3.54V1.54H872.256V3.54H874.256ZM883.316 3.54V62H887.316V3.54H883.316ZM885.316 60H874.256V64H885.316V60ZM876.256 62V3.54H872.256V62H876.256ZM874.256 5.54H885.316V1.54H874.256V5.54ZM937.56 18.234H939.56V16.234H937.56V18.234ZM937.56 62V64H939.56V62H937.56ZM926.422 62H924.422V64H926.422V62ZM926.422 56.47H928.422V50.47L924.821 55.27L926.422 56.47ZM920.812 60.973L921.656 62.7864L921.665 62.7822L921.674 62.778L920.812 60.973ZM904.301 60.42L903.324 62.165L903.338 62.1725L903.351 62.1798L904.301 60.42ZM898.06 54.021L896.285 54.9416L896.295 54.9614L896.306 54.981L898.06 54.021ZM895.849 18.234V16.234H893.849V18.234H895.849ZM906.909 18.234H908.909V16.234H906.909V18.234ZM909.516 50.387L908.041 51.7384L908.051 51.7488L908.06 51.759L909.516 50.387ZM923.814 50.387L925.27 51.759L925.279 51.7488L925.289 51.7384L923.814 50.387ZM926.422 18.234V16.234H924.422V18.234H926.422ZM935.56 18.234V62H939.56V18.234H935.56ZM937.56 60H926.422V64H937.56V60ZM928.422 62V56.47H924.422V62H928.422ZM924.821 55.27C923.609 56.8865 922.002 58.1892 919.951 59.168L921.674 62.778C924.258 61.5448 926.39 59.8455 928.021 57.67L924.821 55.27ZM919.969 59.1596C917.988 60.0809 915.803 60.553 913.386 60.553V64.553C916.341 64.553 919.108 63.9717 921.656 62.7864L919.969 59.1596ZM913.386 60.553C910.247 60.553 907.554 59.9031 905.252 58.6602L903.351 62.1798C906.316 63.7809 909.68 64.553 913.386 64.553V60.553ZM905.279 58.675C902.991 57.394 901.172 55.5416 899.815 53.061L896.306 54.981C898.003 58.0831 900.345 60.4967 903.324 62.165L905.279 58.675ZM899.836 53.1004C898.537 50.596 897.849 47.5545 897.849 43.909H893.849C893.849 48.0582 894.634 51.758 896.285 54.9416L899.836 53.1004ZM897.849 43.909V18.234H893.849V43.909H897.849ZM895.849 20.234H906.909V16.234H895.849V20.234ZM904.909 18.234V42.329H908.909V18.234H904.909ZM904.909 42.329C904.909 46.1269 905.861 49.3603 908.041 51.7384L910.99 49.0356C909.694 47.6217 908.909 45.4831 908.909 42.329H904.909ZM908.06 51.759C910.246 54.077 913.183 55.152 916.625 55.152V51.152C914.064 51.152 912.261 50.3837 910.971 49.015L908.06 51.759ZM916.625 55.152C920.109 55.152 923.077 54.0842 925.27 51.759L922.359 49.015C921.076 50.3765 919.252 51.152 916.625 51.152V55.152ZM925.289 51.7384C927.469 49.3603 928.422 46.1269 928.422 42.329H924.422C924.422 45.4831 923.636 47.6217 922.34 49.0356L925.289 51.7384ZM928.422 42.329V18.234H924.422V42.329H928.422ZM926.422 20.234H937.56V16.234H926.422V20.234ZM961.35 27.319V25.319H959.35V27.319H961.35ZM962.377 51.73L960.963 53.1442L961.017 53.1985L961.075 53.2485L962.377 51.73ZM971.146 52.678H973.146V50.678H971.146V52.678ZM971.146 62V64H973.146V62H971.146ZM950.211 27.319H952.211V25.319H950.211V27.319ZM944.997 27.319H942.997V29.319H944.997V27.319ZM944.997 18.234V16.234H942.997V18.234H944.997ZM950.211 18.234V20.234H952.211V18.234H950.211ZM950.211 7.411V5.411H948.211V7.411H950.211ZM961.35 7.411H963.35V5.411H961.35V7.411ZM961.35 18.234H959.35V20.234H961.35V18.234ZM971.146 18.234H973.146V16.234H971.146V18.234ZM971.146 27.319V29.319H973.146V27.319H971.146ZM959.35 27.319V48.491H963.35V27.319H959.35ZM959.35 48.491C959.35 50.2236 959.746 51.9279 960.963 53.1442L963.791 50.3158C963.638 50.1627 963.35 49.7077 963.35 48.491H959.35ZM961.075 53.2485C962.36 54.3498 964.167 54.678 966.011 54.678V50.678C964.484 50.678 963.868 50.3742 963.679 50.2115L961.075 53.2485ZM966.011 54.678H971.146V50.678H966.011V54.678ZM969.146 52.678V62H973.146V52.678H969.146ZM971.146 60H964.194V64H971.146V60ZM964.194 60C959.827 60 956.922 58.9386 955.101 57.1687C953.29 55.409 952.211 52.6183 952.211 48.412H948.211C948.211 53.2644 949.463 57.2676 952.313 60.0373C955.152 62.7967 959.239 64 964.194 64V60ZM952.211 48.412V27.319H948.211V48.412H952.211ZM950.211 25.319H944.997V29.319H950.211V25.319ZM946.997 27.319V18.234H942.997V27.319H946.997ZM944.997 20.234H950.211V16.234H944.997V20.234ZM952.211 18.234V7.411H948.211V18.234H952.211ZM950.211 9.411H961.35V5.411H950.211V9.411ZM959.35 7.411V18.234H963.35V7.411H959.35ZM961.35 20.234H971.146V16.234H961.35V20.234ZM969.146 18.234V27.319H973.146V18.234H969.146ZM971.146 25.319H961.35V29.319H971.146V25.319ZM979.812 11.203L978.398 12.6172L978.427 12.6467L978.458 12.6749L979.812 11.203ZM979.812 1.96L981.196 3.40397L981.197 3.40277L979.812 1.96ZM989.529 1.96L988.115 3.37421L988.144 3.40366L988.175 3.43186L989.529 1.96ZM989.529 11.203L990.913 12.647L990.914 12.6458L989.529 11.203ZM990.161 18.234H992.161V16.234H990.161V18.234ZM990.161 62V64H992.161V62H990.161ZM979.101 62H977.101V64H979.101V62ZM979.101 18.234V16.234H977.101V18.234H979.101ZM984.71 11.02C983.214 11.02 982.079 10.5713 981.166 9.73114L978.458 12.6749C980.178 14.2574 982.308 15.02 984.71 15.02V11.02ZM981.226 9.78879C980.35 8.91274 979.916 7.8734 979.916 6.542H975.916C975.916 8.89726 976.746 10.9653 978.398 12.6172L981.226 9.78879ZM979.916 6.542C979.916 5.21157 980.348 4.21631 981.196 3.40397L978.428 0.516018C976.748 2.12635 975.916 4.18576 975.916 6.542H979.916ZM981.197 3.40277C982.114 2.5221 983.239 2.064 984.71 2.064V-1.936C982.283 -1.936 980.143 -1.13011 978.427 0.51722L981.197 3.40277ZM984.71 2.064C986.181 2.064 987.261 2.52094 988.115 3.37421L990.943 0.54578C989.268 -1.12895 987.136 -1.936 984.71 -1.936V2.064ZM988.175 3.43186C989.066 4.25166 989.504 5.2388 989.504 6.542H993.504C993.504 4.15852 992.625 2.091 990.883 0.488132L988.175 3.43186ZM989.504 6.542C989.504 7.84687 989.063 8.87759 988.144 9.76023L990.914 12.6458C992.628 11.0004 993.504 8.92379 993.504 6.542H989.504ZM988.145 9.75902C987.297 10.5719 986.206 11.02 984.71 11.02V15.02C987.111 15.02 989.233 14.2567 990.913 12.647L988.145 9.75902ZM988.161 18.234V62H992.161V18.234H988.161ZM990.161 60H979.101V64H990.161V60ZM981.101 62V18.234H977.101V62H981.101ZM979.101 20.234H990.161V16.234H979.101V20.234ZM1009.15 59.946L1008.17 61.6891L1008.18 61.695L1008.19 61.7007L1009.15 59.946ZM1001.17 51.967L999.418 52.936L999.423 52.9462L999.429 52.9564L1001.17 51.967ZM1001.25 28.267L999.52 27.2576L999.514 27.2676L999.508 27.2776L1001.25 28.267ZM1009.38 20.367L1010.33 22.1279L1010.34 22.1223L1010.35 22.1166L1009.38 20.367ZM1032.29 20.367L1031.32 22.1166L1031.33 22.1223L1031.34 22.1279L1032.29 20.367ZM1040.35 28.267L1038.61 29.2564L1038.62 29.2664L1038.62 29.2764L1040.35 28.267ZM1040.27 51.967L1038.56 50.938L1038.55 50.9478L1038.55 50.9576L1040.27 51.967ZM1032.06 59.946L1033 61.707L1033.01 61.7018L1032.06 59.946ZM1026.13 51.651L1027.09 53.4068L1027.1 53.4019L1027.11 53.3969L1026.13 51.651ZM1030.4 47.227L1032.16 48.178L1030.4 47.227ZM1028.66 30.558L1027.21 31.9381L1027.23 31.9554L1027.24 31.9722L1028.66 30.558ZM1012.7 30.558L1011.25 29.1778L1011.25 29.1787L1012.7 30.558ZM1012.62 49.755L1011.14 51.0986L1011.16 51.1167L1011.17 51.1343L1012.62 49.755ZM1020.52 60.711C1016.61 60.711 1013.15 59.8585 1010.11 58.1913L1008.19 61.7007C1011.88 63.7202 1016.01 64.711 1020.52 64.711V60.711ZM1010.13 58.2029C1007.08 56.4882 1004.68 54.0918 1002.91 50.9776L999.429 52.9564C1001.55 56.6889 1004.47 59.6118 1008.17 61.6891L1010.13 58.2029ZM1002.92 50.998C1001.21 47.9116 1000.32 44.3041 1000.32 40.117H996.323C996.323 44.8833 997.335 49.1757 999.418 52.936L1002.92 50.998ZM1000.32 40.117C1000.32 35.9391 1001.23 32.339 1002.98 29.2564L999.508 27.2776C997.365 31.0417 996.323 35.3415 996.323 40.117H1000.32ZM1002.97 29.2764C1004.79 26.1637 1007.24 23.7934 1010.33 22.1279L1008.44 18.6061C1004.68 20.6272 1001.7 23.5236 999.52 27.2576L1002.97 29.2764ZM1010.35 22.1166C1013.46 20.3973 1016.94 19.523 1020.84 19.523V15.523C1016.31 15.523 1012.16 16.5447 1008.41 18.6174L1010.35 22.1166ZM1020.84 19.523C1024.74 19.523 1028.22 20.3973 1031.32 22.1166L1033.26 18.6174C1029.52 16.5447 1025.36 15.523 1020.84 15.523V19.523ZM1031.34 22.1279C1034.43 23.7909 1036.85 26.1547 1038.61 29.2564L1042.09 27.2776C1039.96 23.5326 1037 20.6298 1033.24 18.6061L1031.34 22.1279ZM1038.62 29.2764C1040.42 32.3555 1041.35 35.9484 1041.35 40.117H1045.35C1045.35 35.3323 1044.28 31.0251 1042.08 27.2576L1038.62 29.2764ZM1041.35 40.117C1041.35 44.2763 1040.4 47.862 1038.56 50.938L1041.99 52.996C1044.25 49.2253 1045.35 44.9111 1045.35 40.117H1041.35ZM1038.55 50.9576C1036.73 54.0673 1034.25 56.4687 1031.1 58.1902L1033.01 61.7018C1036.81 59.6313 1039.81 56.7133 1042 52.9764L1038.55 50.9576ZM1031.11 58.1851C1028 59.8566 1024.49 60.711 1020.52 60.711V64.711C1025.09 64.711 1029.26 63.7221 1033 61.7069L1031.11 58.1851ZM1020.52 55.073C1022.85 55.073 1025.05 54.5169 1027.09 53.4068L1025.17 49.8952C1023.73 50.6811 1022.19 51.073 1020.52 51.073V55.073ZM1027.11 53.3969C1029.26 52.1962 1030.94 50.4329 1032.16 48.178L1028.64 46.276C1027.75 47.9184 1026.59 49.1045 1025.16 49.9051L1027.11 53.3969ZM1032.16 48.178C1033.4 45.8709 1033.98 43.1557 1033.98 40.117H1029.98C1029.98 42.6609 1029.5 44.6858 1028.64 46.276L1032.16 48.178ZM1033.98 40.117C1033.98 35.6069 1032.77 31.8419 1030.07 29.1438L1027.24 31.9722C1028.97 33.6981 1029.98 36.3057 1029.98 40.117H1033.98ZM1030.11 29.1778C1027.57 26.5129 1024.38 25.161 1020.68 25.161V29.161C1023.3 29.161 1025.43 30.0737 1027.21 31.9381L1030.11 29.1778ZM1020.68 25.161C1016.98 25.161 1013.79 26.5129 1011.25 29.1778L1014.15 31.9381C1015.93 30.0737 1018.06 29.161 1020.68 29.161V25.161ZM1011.25 29.1787C1008.68 31.8801 1007.54 35.632 1007.54 40.117H1011.54C1011.54 36.2807 1012.51 33.6599 1014.15 31.9373L1011.25 29.1787ZM1007.54 40.117C1007.54 44.5932 1008.65 48.3509 1011.14 51.0986L1014.1 48.4114C1012.49 46.6298 1011.54 43.9621 1011.54 40.117H1007.54ZM1011.17 51.1343C1013.67 53.7578 1016.84 55.073 1020.52 55.073V51.073C1017.89 51.073 1015.79 50.1762 1014.07 48.3757L1011.17 51.1343ZM1088.36 22.579L1086.92 23.9702L1086.93 23.976L1086.93 23.9817L1088.36 22.579ZM1093.18 62V64H1095.18V62H1093.18ZM1082.12 62H1080.12V64H1082.12V62ZM1079.51 29.847L1078.04 31.1984L1078.05 31.2088L1078.06 31.219L1079.51 29.847ZM1065.13 29.847L1063.68 28.4738L1063.68 28.475L1065.13 29.847ZM1062.53 62V64H1064.53V62H1062.53ZM1051.47 62H1049.47V64H1051.47V62ZM1051.47 18.234V16.234H1049.47V18.234H1051.47ZM1062.53 18.234H1064.53V16.234H1062.53V18.234ZM1062.53 23.685H1060.53V29.5141L1064.1 24.9129L1062.53 23.685ZM1068.14 19.261L1068.98 21.0744L1068.99 21.0702L1069 21.066L1068.14 19.261ZM1075.72 19.602C1080.47 19.602 1084.14 21.0931 1086.92 23.9702L1089.8 21.1878C1086.16 17.4289 1081.4 15.602 1075.72 15.602V19.602ZM1086.93 23.9817C1089.68 26.7739 1091.18 30.7936 1091.18 36.325H1095.18C1095.18 30.059 1093.46 24.9147 1089.78 21.1763L1086.93 23.9817ZM1091.18 36.325V62H1095.18V36.325H1091.18ZM1093.18 60H1082.12V64H1093.18V60ZM1084.12 62V37.826H1080.12V62H1084.12ZM1084.12 37.826C1084.12 34.0322 1083.17 30.809 1080.97 28.475L1078.06 31.219C1079.33 32.5716 1080.12 34.6678 1080.12 37.826H1084.12ZM1080.99 28.4956C1078.8 26.1163 1075.86 25.003 1072.4 25.003V29.003C1074.95 29.003 1076.74 29.7857 1078.04 31.1984L1080.99 28.4956ZM1072.4 25.003C1068.9 25.003 1065.91 26.1088 1063.68 28.4738L1066.59 31.2202C1067.93 29.7932 1069.79 29.003 1072.4 29.003V25.003ZM1063.68 28.475C1061.48 30.809 1060.53 34.0322 1060.53 37.826H1064.53C1064.53 34.6678 1065.31 32.5716 1066.59 31.219L1063.68 28.475ZM1060.53 37.826V62H1064.53V37.826H1060.53ZM1062.53 60H1051.47V64H1062.53V60ZM1053.47 62V18.234H1049.47V62H1053.47ZM1051.47 20.234H1062.53V16.234H1051.47V20.234ZM1060.53 18.234V23.685H1064.53V18.234H1060.53ZM1064.1 24.9129C1065.38 23.2778 1066.99 21.9993 1068.98 21.0744L1067.29 17.4476C1064.75 18.6294 1062.62 20.3002 1060.95 22.4571L1064.1 24.9129ZM1069 21.066C1071.03 20.0968 1073.26 19.602 1075.72 19.602V15.602C1072.7 15.602 1069.88 16.2132 1067.27 17.456L1069 21.066ZM1110.81 60.815L1109.97 62.6299L1109.98 62.6364L1109.99 62.6426L1110.81 60.815ZM1104.01 55.522L1102.4 56.7097L1102.41 56.722L1102.42 56.7341L1104.01 55.522ZM1101.33 48.175V46.175H1099.2L1099.33 48.2924L1101.33 48.175ZM1112.46 48.175L1114.45 47.9269L1114.23 46.175H1112.46V48.175ZM1114.91 52.362L1113.69 53.9407L1113.7 53.9515L1113.71 53.962L1114.91 52.362ZM1125.26 52.757L1124.12 51.1152L1124.1 51.1272L1124.09 51.1395L1125.26 52.757ZM1124.87 46.358L1123.95 48.1335L1123.99 48.1536L1124.03 48.172L1124.87 46.358ZM1117.99 43.988L1118.51 42.0555L1118.49 42.0495L1118.46 42.0441L1117.99 43.988ZM1109.94 41.539L1109.18 43.3893L1109.19 43.3927L1109.19 43.396L1109.94 41.539ZM1104.56 37.668L1103.04 38.962L1103.05 38.9752L1103.06 38.9882L1104.56 37.668ZM1104.41 24.001L1102.78 22.8426L1102.77 22.857L1102.76 22.8716L1104.41 24.001ZM1110.41 19.261L1109.61 17.4304L1109.6 17.4334L1109.59 17.4365L1110.41 19.261ZM1132.14 21.473L1130.84 22.9988L1130.85 23.0052L1130.86 23.0116L1132.14 21.473ZM1137.27 31.98V33.98H1139.42L1139.27 31.8375L1137.27 31.98ZM1126.68 31.98L1124.69 32.1611L1124.86 33.98H1126.68V31.98ZM1124.47 27.872L1123.19 29.4084L1123.23 29.4372L1123.26 29.4643L1124.47 27.872ZM1114.68 27.398L1113.57 25.7339L1113.55 25.7465L1113.53 25.7595L1114.68 27.398ZM1115.31 33.876L1114.36 35.639L1114.39 35.6523L1114.41 35.6649L1115.31 33.876ZM1122.18 36.167L1121.69 38.1054L1121.7 38.1073L1122.18 36.167ZM1130 38.616L1129.24 40.4663L1130 38.616ZM1135.3 42.566L1133.75 43.8374L1133.77 43.8622L1133.79 43.8862L1135.3 42.566ZM1137.67 49.518H1139.67V49.4998L1139.67 49.4816L1137.67 49.518ZM1135.53 56.312L1133.9 55.1536L1133.89 55.168L1133.88 55.1826L1135.53 56.312ZM1129.53 61.052L1130.32 62.8903L1130.33 62.8865L1130.33 62.8826L1129.53 61.052ZM1120.44 60.711C1117.1 60.711 1114.17 60.1218 1111.62 58.9874L1109.99 62.6426C1113.13 64.0362 1116.62 64.711 1120.44 64.711V60.711ZM1111.65 59.0001C1109.06 57.8026 1107.07 56.2315 1105.6 54.3099L1102.42 56.7341C1104.33 59.2365 1106.86 61.194 1109.97 62.6299L1111.65 59.0001ZM1105.62 54.3343C1104.21 52.4268 1103.46 50.348 1103.32 48.0576L1099.33 48.2924C1099.51 51.374 1100.55 54.1932 1102.4 56.7097L1105.62 54.3343ZM1101.33 50.175H1112.46V46.175H1101.33V50.175ZM1110.48 48.4231C1110.76 50.6691 1111.87 52.531 1113.69 53.9407L1116.14 50.7833C1115.11 49.981 1114.59 49.0515 1114.45 47.9269L1110.48 48.4231ZM1113.71 53.962C1115.59 55.3703 1117.85 56.021 1120.36 56.021V52.021C1118.56 52.021 1117.19 51.5657 1116.11 50.762L1113.71 53.962ZM1120.36 56.021C1122.7 56.021 1124.81 55.558 1126.44 54.3745L1124.09 51.1395C1123.4 51.6413 1122.24 52.021 1120.36 52.021V56.021ZM1126.4 54.3988C1128.08 53.2348 1129.08 51.5763 1129.08 49.518H1125.08C1125.08 50.0931 1124.87 50.5939 1124.12 51.1152L1126.4 54.3988ZM1129.08 49.518C1129.08 48.4421 1128.79 47.4128 1128.17 46.5146C1127.55 45.6324 1126.68 44.996 1125.71 44.544L1124.03 48.172C1124.53 48.4046 1124.77 48.6372 1124.89 48.8084C1125 48.9635 1125.08 49.1719 1125.08 49.518H1129.08ZM1125.79 44.5825C1124.16 43.74 1121.7 42.9054 1118.51 42.0555L1117.48 45.9205C1120.61 46.756 1122.73 47.5014 1123.95 48.1335L1125.79 44.5825ZM1118.46 42.0441C1115.25 41.267 1112.67 40.4768 1110.68 39.682L1109.19 43.396C1111.42 44.2865 1114.21 45.129 1117.52 45.9319L1118.46 42.0441ZM1110.7 39.6887C1108.94 38.968 1107.4 37.8642 1106.07 36.3478L1103.06 38.9882C1104.78 40.9478 1106.83 42.4246 1109.18 43.3893L1110.7 39.6887ZM1106.09 36.374C1105 35.0927 1104.35 33.2544 1104.35 30.637H1100.35C1100.35 33.9183 1101.18 36.7673 1103.04 38.962L1106.09 36.374ZM1104.35 30.637C1104.35 28.6178 1104.92 26.7994 1106.06 25.1304L1102.76 22.8716C1101.16 25.2053 1100.35 27.8109 1100.35 30.637H1104.35ZM1106.04 25.1594C1107.22 23.4902 1108.92 22.1209 1111.23 21.0855L1109.59 17.4365C1106.74 18.7184 1104.43 20.5092 1102.78 22.8426L1106.04 25.1594ZM1111.22 21.0916C1113.54 20.0669 1116.34 19.523 1119.65 19.523V15.523C1115.91 15.523 1112.54 16.1377 1109.61 17.4304L1111.22 21.0916ZM1119.65 19.523C1124.53 19.523 1128.19 20.7492 1130.84 22.9988L1133.43 19.9472C1129.87 16.9301 1125.21 15.523 1119.65 15.523V19.523ZM1130.86 23.0116C1133.5 25.208 1134.99 28.1831 1135.28 32.1225L1139.27 31.8375C1138.91 26.9289 1136.98 22.8994 1133.41 19.9344L1130.86 23.0116ZM1137.27 29.98H1126.68V33.98H1137.27V29.98ZM1128.68 31.7989C1128.47 29.5365 1127.47 27.6408 1125.68 26.2797L1123.26 29.4643C1124.1 30.1046 1124.58 30.9475 1124.69 32.1611L1128.68 31.7989ZM1125.75 26.3356C1124.03 24.9 1121.82 24.292 1119.34 24.292V28.292C1121.18 28.292 1122.39 28.7373 1123.19 29.4084L1125.75 26.3356ZM1119.34 24.292C1117.13 24.292 1115.13 24.6928 1113.57 25.7339L1115.79 29.0621C1116.44 28.6285 1117.54 28.292 1119.34 28.292V24.292ZM1113.53 25.7595C1111.93 26.8817 1111.1 28.5284 1111.1 30.479H1115.1C1115.1 29.7963 1115.32 29.3889 1115.82 29.0365L1113.53 25.7595ZM1111.1 30.479C1111.1 31.567 1111.37 32.6051 1111.97 33.5256C1112.56 34.4331 1113.4 35.1225 1114.36 35.639L1116.25 32.113C1115.74 31.8395 1115.47 31.5677 1115.33 31.3429C1115.19 31.131 1115.1 30.8657 1115.1 30.479H1111.1ZM1114.41 35.6649C1116.09 36.5011 1118.55 37.3065 1121.69 38.1053L1122.67 34.2287C1119.6 33.4475 1117.48 32.7256 1116.2 32.0871L1114.41 35.6649ZM1121.7 38.1073C1124.8 38.8837 1127.31 39.6728 1129.24 40.4663L1130.76 36.7657C1128.59 35.8739 1125.88 35.0303 1122.67 34.2267L1121.7 38.1073ZM1129.24 40.4663C1130.98 41.178 1132.48 42.2897 1133.75 43.8374L1136.84 41.2946C1135.16 39.261 1133.14 37.7393 1130.76 36.7657L1129.24 40.4663ZM1133.79 43.8862C1134.94 45.186 1135.62 47.008 1135.67 49.5544L1139.67 49.4816C1139.61 46.2346 1138.71 43.422 1136.8 41.2458L1133.79 43.8862ZM1135.67 49.518C1135.67 51.644 1135.08 53.5012 1133.9 55.1536L1137.16 57.4704C1138.83 55.1201 1139.67 52.448 1139.67 49.518H1135.67ZM1133.88 55.1826C1132.76 56.8226 1131.08 58.1847 1128.72 59.2214L1130.33 62.8826C1133.24 61.602 1135.57 59.8041 1137.18 57.4414L1133.88 55.1826ZM1128.74 59.2137C1126.46 60.1909 1123.71 60.711 1120.44 60.711V64.711C1124.13 64.711 1127.44 64.1251 1130.32 62.8903L1128.74 59.2137ZM1146.67 60.736L1145.25 62.1502L1145.28 62.1797L1145.31 62.2079L1146.67 60.736ZM1146.67 51.493L1148.05 52.937L1148.05 52.9358L1146.67 51.493ZM1156.46 51.493L1155.05 52.9072L1155.06 52.9223L1155.08 52.937L1156.46 51.493ZM1156.46 60.736L1157.85 62.18L1157.86 62.1653L1157.88 62.1502L1156.46 60.736ZM1146.67 28.03L1145.25 29.4442L1145.28 29.4737L1145.31 29.5019L1146.67 28.03ZM1146.67 18.787L1148.05 20.231L1148.05 20.2298L1146.67 18.787ZM1156.46 18.787L1155.05 20.2012L1155.06 20.2163L1155.08 20.231L1156.46 18.787ZM1156.46 28.03L1157.85 29.474L1157.86 29.4593L1157.88 29.4442L1156.46 28.03ZM1151.64 60.553C1150.08 60.553 1148.92 60.0947 1148.02 59.2641L1145.31 62.2079C1147.04 63.7999 1149.2 64.553 1151.64 64.553V60.553ZM1148.08 59.3218C1147.2 58.4457 1146.77 57.4064 1146.77 56.075H1142.77C1142.77 58.4303 1143.6 60.4983 1145.25 62.1502L1148.08 59.3218ZM1146.77 56.075C1146.77 54.7446 1147.2 53.7493 1148.05 52.937L1145.28 50.049C1143.6 51.6593 1142.77 53.7188 1142.77 56.075H1146.77ZM1148.05 52.9358C1148.96 52.0653 1150.1 51.597 1151.64 51.597V47.597C1149.18 47.597 1147.01 48.3927 1145.28 50.0502L1148.05 52.9358ZM1151.64 51.597C1153.11 51.597 1154.19 52.0539 1155.05 52.9072L1157.88 50.0788C1156.2 48.4041 1154.07 47.597 1151.64 47.597V51.597ZM1155.08 52.937C1155.93 53.7493 1156.36 54.7446 1156.36 56.075H1160.36C1160.36 53.7188 1159.53 51.6593 1157.85 50.049L1155.08 52.937ZM1156.36 56.075C1156.36 57.4064 1155.92 58.4457 1155.05 59.3218L1157.88 62.1502C1159.53 60.4983 1160.36 58.4303 1160.36 56.075H1156.36ZM1155.08 59.292C1154.23 60.1049 1153.14 60.553 1151.64 60.553V64.553C1154.04 64.553 1156.17 63.7897 1157.85 62.18L1155.08 59.292ZM1151.64 27.847C1150.08 27.847 1148.92 27.3887 1148.02 26.5581L1145.31 29.5019C1147.04 31.0939 1149.2 31.847 1151.64 31.847V27.847ZM1148.08 26.6158C1147.2 25.7397 1146.77 24.7004 1146.77 23.369H1142.77C1142.77 25.7243 1143.6 27.7923 1145.25 29.4442L1148.08 26.6158ZM1146.77 23.369C1146.77 22.0386 1147.2 21.0433 1148.05 20.231L1145.28 17.343C1143.6 18.9533 1142.77 21.0128 1142.77 23.369H1146.77ZM1148.05 20.2298C1148.96 19.3593 1150.1 18.891 1151.64 18.891V14.891C1149.18 14.891 1147.01 15.6867 1145.28 17.3442L1148.05 20.2298ZM1151.64 18.891C1153.11 18.891 1154.19 19.3479 1155.05 20.2012L1157.88 17.3728C1156.2 15.6981 1154.07 14.891 1151.64 14.891V18.891ZM1155.08 20.231C1155.93 21.0433 1156.36 22.0386 1156.36 23.369H1160.36C1160.36 21.0128 1159.53 18.9533 1157.85 17.343L1155.08 20.231ZM1156.36 23.369C1156.36 24.7004 1155.92 25.7397 1155.05 26.6158L1157.88 29.4442C1159.53 27.7923 1160.36 25.7243 1160.36 23.369H1156.36ZM1155.08 26.586C1154.23 27.3989 1153.14 27.847 1151.64 27.847V31.847C1154.04 31.847 1156.17 31.0837 1157.85 29.474L1155.08 26.586Z" fill="#D10000"/>
</svg>
