<svg width="1242" height="84" viewBox="0 0 1242 84" fill="none" xmlns="http://www.w3.org/2000/svg">
<path d="M14.1976 58.919L15.1761 57.1747L14.1976 58.919ZM3.92761 48.886L2.20155 49.8964L2.20702 49.9056L3.92761 48.886ZM3.92761 19.814L5.64821 20.8336L5.65364 20.8244L3.92761 19.814ZM14.1976 9.702L13.2191 7.95771L14.1976 9.702ZM42.6376 9.702L41.6499 11.4411L41.6591 11.4463L42.6376 9.702ZM52.8286 19.814L51.0934 20.8086L51.1006 20.8211L51.108 20.8336L52.8286 19.814ZM52.8286 48.886L51.1026 47.8756L51.0987 47.8822L52.8286 48.886ZM42.6376 58.919L41.6591 57.1747L42.6376 58.919ZM37.1866 50.466L38.1943 52.1936L38.2077 52.1858L38.2208 52.1778L37.1866 50.466ZM43.1116 43.988L44.8937 44.8959L43.1116 43.988ZM43.1116 24.633L41.3295 25.5408L41.333 25.5478L41.3366 25.5546L43.1116 24.633ZM37.1866 18.234L36.1789 19.9616L37.1866 18.234ZM19.5696 18.234L18.5773 16.4975L18.5696 16.5019L18.5619 16.5064L19.5696 18.234ZM13.6446 24.633L15.4196 25.5546L15.4232 25.5478L15.4267 25.5408L13.6446 24.633ZM13.6446 43.988L15.4267 43.0801L13.6446 43.988ZM19.5696 50.466L18.5354 52.1778L18.5562 52.1904L18.5773 52.2025L19.5696 50.466ZM28.4176 60.553C23.5839 60.553 19.183 59.4225 15.1761 57.1747L13.2191 60.6633C17.8495 63.2608 22.9287 64.553 28.4176 64.553V60.553ZM15.1761 57.1747C11.1647 54.9244 7.99713 51.8302 5.64819 47.8664L2.20702 49.9056C4.91408 54.4738 8.5932 58.0683 13.2191 60.6633L15.1761 57.1747ZM5.65364 47.8756C3.31999 43.889 2.1356 39.3713 2.1356 34.271H-1.8644C-1.8644 40.02 -0.520784 45.2457 2.20158 49.8964L5.65364 47.8756ZM2.1356 34.271C2.1356 29.2269 3.31824 24.7654 5.64819 20.8336L2.20702 18.7944C-0.519024 23.3946 -1.8644 28.5711 -1.8644 34.271H2.1356ZM5.65364 20.8244C8.00409 16.809 11.1708 13.6931 15.1761 11.4463L13.2191 7.95771C8.58705 10.5562 4.90712 14.1817 2.20158 18.8036L5.65364 20.8244ZM15.1761 11.4463C19.183 9.19851 23.5839 8.068 28.4176 8.068V4.068C22.9287 4.068 17.8495 5.36016 13.2191 7.95771L15.1761 11.4463ZM28.4176 8.068C33.3079 8.068 37.704 9.20023 41.65 11.4411L43.6253 7.96287C39.0392 5.35844 33.9553 4.068 28.4176 4.068V8.068ZM41.6591 11.4463C45.6607 13.6911 48.7969 16.8019 51.0934 20.8086L54.5638 18.8194C51.9096 14.1888 48.2519 10.5583 43.6161 7.95771L41.6591 11.4463ZM51.108 20.8336C53.438 24.7654 54.6206 29.2269 54.6206 34.271H58.6206C58.6206 28.5711 57.2752 23.3946 54.5492 18.7944L51.108 20.8336ZM54.6206 34.271C54.6206 39.3713 53.4362 43.889 51.1026 47.8756L54.5546 49.8964C57.277 45.2457 58.6206 40.02 58.6206 34.271H54.6206ZM51.0987 47.8822C48.8038 51.8373 45.6669 54.9265 41.6591 57.1747L43.6161 60.6633C48.2457 58.0662 51.9027 54.4667 54.5585 49.8898L51.0987 47.8822ZM41.6591 57.1747C37.6522 59.4225 33.2513 60.553 28.4176 60.553V64.553C33.9066 64.553 38.9857 63.2608 43.6161 60.6633L41.6591 57.1747ZM28.4176 54.678C32.0415 54.678 35.3213 53.8695 38.1943 52.1936L36.1789 48.7384C33.9959 50.0118 31.4298 50.678 28.4176 50.678V54.678ZM38.2208 52.1778C41.0879 50.4457 43.313 47.9986 44.8937 44.8959L41.3295 43.0801C40.0662 45.56 38.3413 47.4317 36.1524 48.7542L38.2208 52.1778ZM44.8937 44.8959C46.4822 41.7776 47.2446 38.2176 47.2446 34.271H43.2446C43.2446 37.6977 42.585 40.6157 41.3295 43.0801L44.8937 44.8959ZM47.2446 34.271C47.2446 30.3256 46.4826 26.7852 44.8866 23.7114L41.3366 25.5546C42.5846 27.9582 43.2446 30.8431 43.2446 34.271H47.2446ZM44.8937 23.7251C43.3104 20.6171 41.0773 18.1882 38.1943 16.5064L36.1789 19.9616C38.3519 21.2292 40.0689 23.0662 41.3295 25.5408L44.8937 23.7251ZM38.1943 16.5064C35.3213 14.8305 32.0415 14.022 28.4176 14.022V18.022C31.4298 18.022 33.9959 18.6882 36.1789 19.9616L38.1943 16.5064ZM28.4176 14.022C24.7929 14.022 21.4942 14.8307 18.5773 16.4975L20.5619 19.9705C22.8064 18.6879 25.4063 18.022 28.4176 18.022V14.022ZM18.5619 16.5064C15.6789 18.1882 13.4459 20.6171 11.8625 23.7251L15.4267 25.5408C16.6874 23.0662 18.4043 21.2292 20.5774 19.9616L18.5619 16.5064ZM11.8696 23.7114C10.2736 26.7852 9.51161 30.3256 9.51161 34.271H13.5116C13.5116 30.8431 14.1716 27.9582 15.4196 25.5546L11.8696 23.7114ZM9.51161 34.271C9.51161 38.2176 10.274 41.7776 11.8625 44.8959L15.4267 43.0801C14.1712 40.6157 13.5116 37.6977 13.5116 34.271H9.51161ZM11.8625 44.8959C13.4432 47.9986 15.6683 50.4456 18.5354 52.1778L20.6038 48.7542C18.4149 47.4317 16.69 45.56 15.4267 43.0801L11.8625 44.8959ZM18.5773 52.2025C21.4942 53.8693 24.7929 54.678 28.4176 54.678V50.678C25.4063 50.678 22.8064 50.0121 20.5619 48.7295L18.5773 52.2025ZM106.166 18.234H108.166V16.234H106.166V18.234ZM106.166 62V64H108.166V62H106.166ZM95.027 62H93.027V64H95.027V62ZM95.027 56.47H97.027V50.47L93.4269 55.27L95.027 56.47ZM89.418 60.973L90.2614 62.7864L90.2704 62.7822L90.2794 62.778L89.418 60.973ZM72.907 60.42L71.9297 62.165L71.9431 62.1725L71.9566 62.1798L72.907 60.42ZM66.6659 54.021L64.8904 54.9416L64.9007 54.9614L64.9114 54.981L66.6659 54.021ZM64.4539 18.234V16.234H62.4539V18.234H64.4539ZM75.5139 18.234H77.5139V16.234H75.5139V18.234ZM78.1209 50.387L76.6466 51.7384L76.6561 51.7488L76.6658 51.759L78.1209 50.387ZM92.42 50.387L93.8751 51.759L93.8848 51.7488L93.8943 51.7384L92.42 50.387ZM95.027 18.234V16.234H93.027V18.234H95.027ZM104.166 18.234V62H108.166V18.234H104.166ZM106.166 60H95.027V64H106.166V60ZM97.027 62V56.47H93.027V62H97.027ZM93.4269 55.27C92.2146 56.8865 90.6073 58.1892 88.5565 59.168L90.2794 62.778C92.8633 61.5448 94.9953 59.8455 96.627 57.67L93.4269 55.27ZM88.5745 59.1596C86.5936 60.0809 84.4089 60.553 81.992 60.553V64.553C84.947 64.553 87.713 63.9717 90.2614 62.7864L88.5745 59.1596ZM81.992 60.553C78.8522 60.553 76.159 59.9031 73.8572 58.6602L71.9566 62.1798C74.9216 63.7809 78.285 64.553 81.992 64.553V60.553ZM73.8842 58.675C71.5966 57.394 69.7778 55.5416 68.4205 53.061L64.9114 54.981C66.6088 58.0831 68.9506 60.4967 71.9297 62.165L73.8842 58.675ZM68.4415 53.1004C67.1429 50.596 66.4539 47.5545 66.4539 43.909H62.4539C62.4539 48.0582 63.2397 51.758 64.8904 54.9416L68.4415 53.1004ZM66.4539 43.909V18.234H62.4539V43.909H66.4539ZM64.4539 20.234H75.5139V16.234H64.4539V20.234ZM73.5139 18.234V42.329H77.5139V18.234H73.5139ZM73.5139 42.329C73.5139 46.1269 74.4667 49.3603 76.6466 51.7384L79.5953 49.0356C78.2992 47.6217 77.5139 45.4831 77.5139 42.329H73.5139ZM76.6658 51.759C78.8513 54.077 81.7886 55.152 85.2309 55.152V51.152C82.6693 51.152 80.8666 50.3837 79.5761 49.015L76.6658 51.759ZM85.2309 55.152C88.7142 55.152 91.6829 54.0842 93.8751 51.759L90.9648 49.015C89.681 50.3765 87.857 51.152 85.2309 51.152V55.152ZM93.8943 51.7384C96.0742 49.3603 97.027 46.1269 97.027 42.329H93.027C93.027 45.4831 92.2417 47.6217 90.9456 49.0356L93.8943 51.7384ZM97.027 42.329V18.234H93.027V42.329H97.027ZM95.027 20.234H106.166V16.234H95.027V20.234ZM128.138 25.028H126.138V32.1112L129.843 26.074L128.138 25.028ZM133.668 19.577L132.68 17.8381L132.672 17.843L132.663 17.848L133.668 19.577ZM141.568 17.602H143.568V15.602H141.568V17.602ZM141.568 29.215V31.215H143.568V29.215H141.568ZM130.745 31.664L129.398 30.1861L129.387 30.1961L129.376 30.2063L130.745 31.664ZM128.138 62V64H130.138V62H128.138ZM117.078 62H115.078V64H117.078V62ZM117.078 18.234V16.234H115.078V18.234H117.078ZM128.138 18.234H130.138V16.234H128.138V18.234ZM129.843 26.074C131.099 24.0276 132.706 22.45 134.674 21.306L132.663 17.848C130.101 19.3374 128.022 21.3937 126.434 23.982L129.843 26.074ZM134.656 21.3159C136.641 20.1881 138.928 19.602 141.568 19.602V15.602C138.311 15.602 135.33 16.3325 132.68 17.8381L134.656 21.3159ZM139.568 17.602V29.215H143.568V17.602H139.568ZM141.568 27.215H138.645V31.215H141.568V27.215ZM138.645 27.215C134.886 27.215 131.69 28.0965 129.398 30.1861L132.093 33.1419C133.382 31.9662 135.453 31.215 138.645 31.215V27.215ZM129.376 30.2063C127.03 32.4102 126.138 35.9545 126.138 40.196H130.138C130.138 36.3268 130.985 34.1831 132.115 33.1217L129.376 30.2063ZM126.138 40.196V62H130.138V40.196H126.138ZM128.138 60H117.078V64H128.138V60ZM119.078 62V18.234H115.078V62H119.078ZM117.078 20.234H128.138V16.234H117.078V20.234ZM126.138 18.234V25.028H130.138V18.234H126.138ZM202.365 10.255L201.445 12.0309L201.454 12.0353L202.365 10.255ZM212.556 19.972L210.813 20.9525L210.82 20.9655L210.828 20.9784L212.556 19.972ZM212.556 49.044L210.828 48.0376L210.824 48.0446L212.556 49.044ZM202.365 58.603L201.454 56.8227L201.445 56.8272L202.365 58.603ZM167.842 62H165.842V64H167.842V62ZM167.842 6.858V4.858H165.842V6.858H167.842ZM200.153 47.859L198.739 46.4448L200.153 47.859ZM200.153 21.078L198.716 22.4688L198.722 22.4747L198.727 22.4805L200.153 21.078ZM178.902 16.18V14.18H176.902V16.18H178.902ZM178.902 52.599H176.902V54.599H178.902V52.599ZM187.118 8.858C192.648 8.858 197.404 9.93742 201.445 12.0308L203.285 8.47916C198.583 6.04325 193.175 4.858 187.118 4.858V8.858ZM201.454 12.0353C205.538 14.1262 208.641 17.0918 210.813 20.9525L214.299 18.9915C211.731 14.4256 208.04 10.9131 203.276 8.4747L201.454 12.0353ZM210.828 20.9784C213.047 24.7905 214.19 29.2782 214.19 34.508H218.19C218.19 28.6778 216.91 23.4748 214.284 18.9656L210.828 20.9784ZM214.19 34.508C214.19 39.7378 213.047 44.2255 210.828 48.0376L214.284 50.0504C216.91 45.5412 218.19 40.3382 218.19 34.508H214.19ZM210.824 48.0446C208.656 51.8021 205.552 54.7249 201.454 56.8227L203.276 60.3833C208.026 57.9518 211.716 54.5019 214.288 50.0434L210.824 48.0446ZM201.445 56.8272C197.404 58.9206 192.648 60 187.118 60V64C193.175 64 198.583 62.8148 203.285 60.3788L201.445 56.8272ZM187.118 60H167.842V64H187.118V60ZM169.842 62V6.858H165.842V62H169.842ZM167.842 8.858H187.118V4.858H167.842V8.858ZM186.723 54.599C192.883 54.599 197.93 52.9102 201.567 49.2732L198.739 46.4448C196.056 49.1278 192.15 50.599 186.723 50.599V54.599ZM201.567 49.2732C205.201 45.6395 206.893 40.6211 206.893 34.508H202.893C202.893 39.8762 201.425 43.7585 198.739 46.4448L201.567 49.2732ZM206.893 34.508C206.893 28.3931 205.2 23.3574 201.579 19.6755L198.727 22.4805C201.426 25.224 202.893 29.1416 202.893 34.508H206.893ZM201.59 19.6872C197.957 15.9324 192.901 14.18 186.723 14.18V18.18C192.132 18.18 196.03 19.6929 198.716 22.4688L201.59 19.6872ZM186.723 14.18H178.902V18.18H186.723V14.18ZM176.902 16.18V52.599H180.902V16.18H176.902ZM178.902 54.599H186.723V50.599H178.902V54.599ZM224.232 28.188L222.46 27.261L222.454 27.2718L222.449 27.2826L224.232 28.188ZM231.421 20.288L230.388 18.5756L230.381 18.5796L230.375 18.5837L231.421 20.288ZM250.144 19.498L249.189 21.2552L249.197 21.2595L249.205 21.2637L250.144 19.498ZM256.069 24.475L254.459 25.6614L258.069 30.5608V24.475H256.069ZM256.069 18.234V16.234H254.069V18.234H256.069ZM267.208 18.234H269.208V16.234H267.208V18.234ZM267.208 62V64H269.208V62H267.208ZM256.069 62H254.069V64H256.069V62ZM256.069 55.601H258.069V49.1985L254.425 54.4626L256.069 55.601ZM250.144 60.736L251.083 62.5017L251.09 62.4982L251.097 62.4946L250.144 60.736ZM231.421 59.867L230.353 61.558L230.36 61.5622L230.366 61.5663L231.421 59.867ZM224.232 51.888L222.443 52.7824L222.451 52.7988L222.46 52.815L224.232 51.888ZM254.489 33.244L252.73 34.195L252.735 34.2052L252.741 34.2153L254.489 33.244ZM250.223 28.82L249.209 30.5439L249.228 30.5551L249.247 30.5659L250.223 28.82ZM238.768 28.741L237.77 27.0078L238.768 28.741ZM234.502 33.165L232.763 32.1778L232.758 32.1857L232.754 32.1937L234.502 33.165ZM234.502 46.911L232.732 47.8425L232.747 47.8706L232.763 47.8982L234.502 46.911ZM238.768 51.414L237.731 53.1244L237.743 53.1312L237.754 53.1379L238.768 51.414ZM250.223 51.493L251.199 53.2389L251.218 53.2281L251.237 53.2169L250.223 51.493ZM254.489 47.069L256.237 48.0403L256.243 48.0302L256.248 48.02L254.489 47.069ZM223.625 39.959C223.625 35.8016 224.44 32.1962 226.015 29.0934L222.449 27.2826C220.548 31.0264 219.625 35.2684 219.625 39.959H223.625ZM226.004 29.115C227.644 25.9796 229.802 23.6288 232.468 21.9923L230.375 18.5837C227.036 20.6339 224.401 23.5497 222.46 27.261L226.004 29.115ZM232.454 22.0004C235.182 20.3545 238.219 19.523 241.612 19.523V15.523C237.527 15.523 233.77 16.5349 230.388 18.5756L232.454 22.0004ZM241.612 19.523C244.605 19.523 247.109 20.1249 249.189 21.2552L251.099 17.7407C248.334 16.2378 245.15 15.523 241.612 15.523V19.523ZM249.205 21.2637C251.45 22.458 253.183 23.9301 254.459 25.6614L257.679 23.2886C256.006 21.0173 253.789 19.1714 251.083 17.7323L249.205 21.2637ZM258.069 24.475V18.234H254.069V24.475H258.069ZM256.069 20.234H267.208V16.234H256.069V20.234ZM265.208 18.234V62H269.208V18.234H265.208ZM267.208 60H256.069V64H267.208V60ZM258.069 62V55.601H254.069V62H258.069ZM254.425 54.4626C253.207 56.222 251.485 57.735 249.191 58.9774L251.097 62.4946C253.859 60.9983 256.087 59.088 257.713 56.7394L254.425 54.4626ZM249.205 58.9703C247.063 60.1096 244.525 60.711 241.533 60.711V64.711C245.072 64.711 248.275 63.9958 251.083 62.5017L249.205 58.9703ZM241.533 60.711C238.209 60.711 235.205 59.862 232.476 58.1677L230.366 61.5663C233.746 63.664 237.484 64.711 241.533 64.711V60.711ZM232.489 58.176C229.811 56.4846 227.646 54.1004 226.004 50.961L222.46 52.815C224.399 56.5222 227.027 59.4574 230.353 61.558L232.489 58.176ZM226.021 50.9936C224.441 47.8347 223.625 44.1724 223.625 39.959H219.625C219.625 44.6989 220.547 48.9893 222.443 52.7824L226.021 50.9936ZM258.069 40.117C258.069 37.1712 257.491 34.5287 256.237 32.2727L252.741 34.2153C253.594 35.7513 254.069 37.6908 254.069 40.117H258.069ZM256.248 32.293C255.03 30.0381 253.347 28.2748 251.199 27.0741L249.247 30.5659C250.68 31.3665 251.842 32.5526 252.73 34.195L256.248 32.293ZM251.237 27.0961C249.143 25.8642 246.871 25.24 244.456 25.24V29.24C246.149 29.24 247.722 29.6692 249.209 30.5439L251.237 27.0961ZM244.456 25.24C242.061 25.24 239.819 25.8279 237.77 27.0078L239.766 30.4742C241.193 29.6527 242.743 29.24 244.456 29.24V25.24ZM237.77 27.0078C235.688 28.2067 234.024 29.956 232.763 32.1778L236.241 34.1522C237.192 32.4766 238.372 31.2766 239.766 30.4742L237.77 27.0078ZM232.754 32.1937C231.503 34.4442 230.922 37.0581 230.922 39.959H234.922C234.922 37.5932 235.394 35.6778 236.25 34.1363L232.754 32.1937ZM230.922 39.959C230.922 42.8634 231.505 45.5101 232.732 47.8425L236.272 45.9795C235.393 44.3093 234.922 42.3213 234.922 39.959H230.922ZM232.763 47.8982C234.02 50.1128 235.672 51.8763 237.731 53.1244L239.805 49.7036C238.388 48.8451 237.197 47.6065 236.241 45.9238L232.763 47.8982ZM237.754 53.1379C239.84 54.3648 242.084 54.994 244.456 54.994V50.994C242.825 50.994 241.278 50.5699 239.782 49.6901L237.754 53.1379ZM244.456 54.994C246.851 54.994 249.109 54.4064 251.199 53.2389L249.247 49.7471C247.755 50.5809 246.169 50.994 244.456 50.994V54.994ZM251.237 53.2169C253.349 51.9745 255.019 50.2338 256.237 48.0403L252.741 46.0977C251.853 47.6962 250.678 48.9048 249.209 49.7691L251.237 53.2169ZM256.248 48.02C257.49 45.7233 258.069 43.065 258.069 40.117H254.069C254.069 42.541 253.595 44.5174 252.73 46.118L256.248 48.02ZM290.887 27.319V25.319H288.887V27.319H290.887ZM291.914 51.73L290.5 53.1442L290.554 53.1985L290.612 53.2485L291.914 51.73ZM300.683 52.678H302.683V50.678H300.683V52.678ZM300.683 62V64H302.683V62H300.683ZM279.748 27.319H281.748V25.319H279.748V27.319ZM274.534 27.319H272.534V29.319H274.534V27.319ZM274.534 18.234V16.234H272.534V18.234H274.534ZM279.748 18.234V20.234H281.748V18.234H279.748ZM279.748 7.411V5.411H277.748V7.411H279.748ZM290.887 7.411H292.887V5.411H290.887V7.411ZM290.887 18.234H288.887V20.234H290.887V18.234ZM300.683 18.234H302.683V16.234H300.683V18.234ZM300.683 27.319V29.319H302.683V27.319H300.683ZM288.887 27.319V48.491H292.887V27.319H288.887ZM288.887 48.491C288.887 50.2236 289.284 51.9279 290.5 53.1442L293.328 50.3158C293.175 50.1627 292.887 49.7077 292.887 48.491H288.887ZM290.612 53.2485C291.897 54.3498 293.704 54.678 295.548 54.678V50.678C294.021 50.678 293.406 50.3742 293.216 50.2115L290.612 53.2485ZM295.548 54.678H300.683V50.678H295.548V54.678ZM298.683 52.678V62H302.683V52.678H298.683ZM300.683 60H293.731V64H300.683V60ZM293.731 60C289.364 60 286.459 58.9386 284.638 57.1687C282.827 55.409 281.748 52.6183 281.748 48.412H277.748C277.748 53.2644 279 57.2676 281.85 60.0373C284.69 62.7967 288.776 64 293.731 64V60ZM281.748 48.412V27.319H277.748V48.412H281.748ZM279.748 25.319H274.534V29.319H279.748V25.319ZM276.534 27.319V18.234H272.534V27.319H276.534ZM274.534 20.234H279.748V16.234H274.534V20.234ZM281.748 18.234V7.411H277.748V18.234H281.748ZM279.748 9.411H290.887V5.411H279.748V9.411ZM288.887 7.411V18.234H292.887V7.411H288.887ZM290.887 20.234H300.683V16.234H290.887V20.234ZM298.683 18.234V27.319H302.683V18.234H298.683ZM300.683 25.319H290.887V29.319H300.683V25.319ZM308.401 28.188L306.629 27.261L306.623 27.2718L306.618 27.2826L308.401 28.188ZM315.59 20.288L314.557 18.5756L314.55 18.5796L314.543 18.5837L315.59 20.288ZM334.313 19.498L333.358 21.2552L333.366 21.2595L333.374 21.2637L334.313 19.498ZM340.238 24.475L338.628 25.6614L342.238 30.5608V24.475H340.238ZM340.238 18.234V16.234H338.238V18.234H340.238ZM351.377 18.234H353.377V16.234H351.377V18.234ZM351.377 62V64H353.377V62H351.377ZM340.238 62H338.238V64H340.238V62ZM340.238 55.601H342.238V49.1985L338.594 54.4626L340.238 55.601ZM334.313 60.736L335.252 62.5017L335.259 62.4982L335.266 62.4946L334.313 60.736ZM315.59 59.867L314.522 61.558L314.529 61.5622L314.535 61.5663L315.59 59.867ZM308.401 51.888L306.612 52.7824L306.62 52.7988L306.629 52.815L308.401 51.888ZM338.658 33.244L336.899 34.195L336.904 34.2052L336.91 34.2153L338.658 33.244ZM334.392 28.82L333.378 30.5439L333.397 30.5551L333.416 30.5659L334.392 28.82ZM322.937 28.741L321.939 27.0078L322.937 28.741ZM318.671 33.165L316.932 32.1778L316.927 32.1857L316.923 32.1937L318.671 33.165ZM318.671 46.911L316.901 47.8425L316.916 47.8706L316.932 47.8982L318.671 46.911ZM322.937 51.414L321.9 53.1244L321.912 53.1312L321.923 53.1379L322.937 51.414ZM334.392 51.493L335.368 53.2389L335.387 53.2281L335.406 53.2169L334.392 51.493ZM338.658 47.069L340.406 48.0403L340.412 48.0302L340.417 48.02L338.658 47.069ZM307.794 39.959C307.794 35.8016 308.609 32.1962 310.184 29.0934L306.618 27.2826C304.717 31.0264 303.794 35.2684 303.794 39.959H307.794ZM310.173 29.115C311.813 25.9796 313.971 23.6288 316.637 21.9923L314.543 18.5837C311.205 20.6339 308.57 23.5497 306.629 27.261L310.173 29.115ZM316.623 22.0004C319.351 20.3545 322.388 19.523 325.781 19.523V15.523C321.696 15.523 317.938 16.5349 314.557 18.5756L316.623 22.0004ZM325.781 19.523C328.774 19.523 331.278 20.1249 333.358 21.2552L335.268 17.7407C332.503 16.2378 329.318 15.523 325.781 15.523V19.523ZM333.374 21.2637C335.619 22.458 337.352 23.9301 338.628 25.6614L341.848 23.2886C340.174 21.0173 337.958 19.1714 335.252 17.7323L333.374 21.2637ZM342.238 24.475V18.234H338.238V24.475H342.238ZM340.238 20.234H351.377V16.234H340.238V20.234ZM349.377 18.234V62H353.377V18.234H349.377ZM351.377 60H340.238V64H351.377V60ZM342.238 62V55.601H338.238V62H342.238ZM338.594 54.4626C337.376 56.222 335.654 57.735 333.36 58.9774L335.266 62.4946C338.028 60.9983 340.256 59.088 341.882 56.7394L338.594 54.4626ZM333.374 58.9703C331.232 60.1096 328.694 60.711 325.702 60.711V64.711C329.241 64.711 332.443 63.9958 335.252 62.5017L333.374 58.9703ZM325.702 60.711C322.378 60.711 319.374 59.862 316.645 58.1677L314.535 61.5663C317.915 63.664 321.653 64.711 325.702 64.711V60.711ZM316.658 58.176C313.98 56.4846 311.815 54.1004 310.173 50.961L306.629 52.815C308.568 56.5222 311.196 59.4574 314.522 61.558L316.658 58.176ZM310.19 50.9936C308.61 47.8347 307.794 44.1724 307.794 39.959H303.794C303.794 44.6989 304.716 48.9893 306.612 52.7824L310.19 50.9936ZM342.238 40.117C342.238 37.1712 341.66 34.5287 340.406 32.2727L336.91 34.2153C337.763 35.7513 338.238 37.6908 338.238 40.117H342.238ZM340.417 32.293C339.199 30.0381 337.516 28.2748 335.368 27.0741L333.416 30.5659C334.849 31.3665 336.011 32.5526 336.899 34.195L340.417 32.293ZM335.406 27.0961C333.312 25.8642 331.04 25.24 328.625 25.24V29.24C330.318 29.24 331.891 29.6692 333.378 30.5439L335.406 27.0961ZM328.625 25.24C326.23 25.24 323.988 25.8279 321.939 27.0078L323.935 30.4742C325.362 29.6527 326.912 29.24 328.625 29.24V25.24ZM321.939 27.0078C319.857 28.2067 318.193 29.956 316.932 32.1778L320.41 34.1522C321.361 32.4766 322.541 31.2766 323.935 30.4742L321.939 27.0078ZM316.923 32.1937C315.672 34.4442 315.091 37.0581 315.091 39.959H319.091C319.091 37.5932 319.563 35.6778 320.419 34.1363L316.923 32.1937ZM315.091 39.959C315.091 42.8634 315.674 45.5101 316.901 47.8425L320.441 45.9795C319.562 44.3093 319.091 42.3213 319.091 39.959H315.091ZM316.932 47.8982C318.189 50.1128 319.841 51.8763 321.9 53.1244L323.974 49.7036C322.557 48.8451 321.365 47.6065 320.41 45.9238L316.932 47.8982ZM321.923 53.1379C324.009 54.3648 326.253 54.994 328.625 54.994V50.994C326.994 50.994 325.447 50.5699 323.951 49.6901L321.923 53.1379ZM328.625 54.994C331.02 54.994 333.278 54.4064 335.368 53.2389L333.416 49.7471C331.924 50.5809 330.338 50.994 328.625 50.994V54.994ZM335.406 53.2169C337.518 51.9745 339.188 50.2338 340.406 48.0403L336.91 46.0977C336.022 47.6962 334.847 48.9048 333.378 49.7691L335.406 53.2169ZM340.417 48.02C341.659 45.7233 342.238 43.065 342.238 40.117H338.238C338.238 42.541 337.764 44.5174 336.899 46.118L340.417 48.02ZM392.063 15.785V13.785H390.063V15.785H392.063ZM392.063 29.61H390.063V31.61H392.063V29.61ZM410.628 29.61H412.628V27.61H410.628V29.61ZM410.628 38.379V40.379H412.628V38.379H410.628ZM392.063 38.379V36.379H390.063V38.379H392.063ZM392.063 52.994H390.063V54.994H392.063V52.994ZM412.998 52.994H414.998V50.994H412.998V52.994ZM412.998 62V64H414.998V62H412.998ZM381.003 62H379.003V64H381.003V62ZM381.003 6.779V4.779H379.003V6.779H381.003ZM412.998 6.779H414.998V4.779H412.998V6.779ZM412.998 15.785V17.785H414.998V15.785H412.998ZM390.063 15.785V29.61H394.063V15.785H390.063ZM392.063 31.61H410.628V27.61H392.063V31.61ZM408.628 29.61V38.379H412.628V29.61H408.628ZM410.628 36.379H392.063V40.379H410.628V36.379ZM390.063 38.379V52.994H394.063V38.379H390.063ZM392.063 54.994H412.998V50.994H392.063V54.994ZM410.998 52.994V62H414.998V52.994H410.998ZM412.998 60H381.003V64H412.998V60ZM383.003 62V6.779H379.003V62H383.003ZM381.003 8.779H412.998V4.779H381.003V8.779ZM410.998 6.779V15.785H414.998V6.779H410.998ZM412.998 13.785H392.063V17.785H412.998V13.785ZM459.942 22.579L458.505 23.9702L458.511 23.976L458.516 23.9817L459.942 22.579ZM464.761 62V64H466.761V62H464.761ZM453.701 62H451.701V64H453.701V62ZM451.094 29.847L449.62 31.1984L449.629 31.2088L449.639 31.219L451.094 29.847ZM436.716 29.847L435.262 28.4738L435.261 28.475L436.716 29.847ZM434.109 62V64H436.109V62H434.109ZM423.049 62H421.049V64H423.049V62ZM423.049 18.234V16.234H421.049V18.234H423.049ZM434.109 18.234H436.109V16.234H434.109V18.234ZM434.109 23.685H432.109V29.5141L435.688 24.9129L434.109 23.685ZM439.718 19.261L440.562 21.0744L440.571 21.0702L440.58 21.066L439.718 19.261ZM447.302 19.602C452.051 19.602 455.72 21.0931 458.505 23.9702L461.379 21.1878C457.739 17.4289 452.981 15.602 447.302 15.602V19.602ZM458.516 23.9817C461.264 26.7739 462.761 30.7936 462.761 36.325H466.761C466.761 30.059 465.046 24.9147 461.368 21.1763L458.516 23.9817ZM462.761 36.325V62H466.761V36.325H462.761ZM464.761 60H453.701V64H464.761V60ZM455.701 62V37.826H451.701V62H455.701ZM455.701 37.826C455.701 34.0322 454.75 30.809 452.549 28.475L449.639 31.219C450.914 32.5716 451.701 34.6678 451.701 37.826H455.701ZM452.568 28.4956C450.387 26.1163 447.444 25.003 443.984 25.003V29.003C446.528 29.003 448.325 29.7857 449.62 31.1984L452.568 28.4956ZM443.984 25.003C440.482 25.003 437.496 26.1088 435.262 28.4738L438.17 31.2202C439.518 29.7932 441.377 29.003 443.984 29.003V25.003ZM435.261 28.475C433.06 30.809 432.109 34.0322 432.109 37.826H436.109C436.109 34.6678 436.896 32.5716 438.171 31.219L435.261 28.475ZM432.109 37.826V62H436.109V37.826H432.109ZM434.109 60H423.049V64H434.109V60ZM425.049 62V18.234H421.049V62H425.049ZM423.049 20.234H434.109V16.234H423.049V20.234ZM432.109 18.234V23.685H436.109V18.234H432.109ZM435.688 24.9129C436.96 23.2778 438.573 21.9993 440.562 21.0744L438.875 17.4476C436.334 18.6294 434.208 20.3002 432.53 22.4571L435.688 24.9129ZM440.58 21.066C442.61 20.0968 444.841 19.602 447.302 19.602V15.602C444.286 15.602 441.461 16.2132 438.857 17.456L440.58 21.066ZM501.033 19.498L500.093 21.2637L500.108 21.2716L500.123 21.2792L501.033 19.498ZM506.879 24.475L505.234 25.6134L508.879 30.8775V24.475H506.879ZM506.879 18.234V16.234H504.879V18.234H506.879ZM518.018 18.234H520.018V16.234H518.018V18.234ZM515.569 73.139L513.792 72.2209L513.786 72.2329L515.569 73.139ZM508.222 80.723L507.238 78.9814L507.228 78.9873L507.217 78.9934L508.222 80.723ZM481.046 79.222L479.863 80.8348L479.873 80.8422L481.046 79.222ZM474.331 67.372V65.372H472.109L472.342 67.5814L474.331 67.372ZM485.312 67.372L487.233 66.8159L486.815 65.372H485.312V67.372ZM489.025 72.112L490.081 70.4134L490.074 70.4094L490.068 70.4054L489.025 72.112ZM503.877 71.006L502.501 69.5541L502.491 69.5635L502.481 69.5731L503.877 71.006ZM506.879 55.522H508.879V49.1195L505.234 54.3836L506.879 55.522ZM500.954 60.657L500.001 58.8984L499.993 58.9026L499.986 58.9069L500.954 60.657ZM482.31 59.867L483.364 58.1677L482.31 59.867ZM475.042 51.888L473.253 52.7824L473.261 52.7988L473.269 52.815L475.042 51.888ZM475.042 28.188L473.269 27.261L473.264 27.2718L473.258 27.2826L475.042 28.188ZM482.231 20.288L481.197 18.5756L481.191 18.5796L481.184 18.5837L482.231 20.288ZM505.299 33.244L503.539 34.195L503.545 34.2052L503.55 34.2153L505.299 33.244ZM501.033 28.82L500.019 30.5439L500.038 30.5551L500.057 30.5659L501.033 28.82ZM489.578 28.741L488.58 27.0078L489.578 28.741ZM485.312 33.165L483.572 32.1778L483.568 32.1857L483.563 32.1937L485.312 33.165ZM485.312 46.911L483.542 47.8425L483.557 47.8706L483.572 47.8982L485.312 46.911ZM489.578 51.414L488.541 53.1244L488.552 53.1312L488.564 53.1379L489.578 51.414ZM501.033 51.493L502.008 53.2389L502.028 53.2281L502.047 53.2169L501.033 51.493ZM505.299 47.069L507.047 48.0403L507.053 48.0302L507.058 48.02L505.299 47.069ZM492.422 19.523C495.414 19.523 497.952 20.1244 500.093 21.2637L501.972 17.7323C499.163 16.2382 495.96 15.523 492.422 15.523V19.523ZM500.123 21.2792C502.338 22.4101 504.021 23.8606 505.234 25.6134L508.523 23.3366C506.893 20.9814 504.678 19.1138 501.942 17.7168L500.123 21.2792ZM508.879 24.475V18.234H504.879V24.475H508.879ZM506.879 20.234H518.018V16.234H506.879V20.234ZM516.018 18.234V62.316H520.018V18.234H516.018ZM516.018 62.316C516.018 66.097 515.258 69.3823 513.792 72.221L517.346 74.057C519.144 70.5757 520.018 66.6457 520.018 62.316H516.018ZM513.786 72.2329C512.339 75.0796 510.175 77.3234 507.238 78.9814L509.205 82.4646C512.799 80.4359 515.533 77.6237 517.352 74.0451L513.786 72.2329ZM507.217 78.9934C504.319 80.6761 500.733 81.567 496.372 81.567V85.567C501.279 85.567 505.593 84.5619 509.226 82.4526L507.217 78.9934ZM496.372 81.567C490.469 81.567 485.801 80.1943 482.218 77.6018L479.873 80.8422C484.296 84.043 489.845 85.567 496.372 85.567V81.567ZM482.228 77.6092C478.747 75.056 476.789 71.6227 476.32 67.1626L472.342 67.5814C472.925 73.128 475.445 77.5947 479.863 80.8348L482.228 77.6092ZM474.331 69.372H485.312V65.372H474.331V69.372ZM483.391 67.9281C484.118 70.4429 485.691 72.4184 487.982 73.8186L490.068 70.4054C488.567 69.4882 487.663 68.3038 487.233 66.8159L483.391 67.9281ZM487.969 73.8106C490.291 75.2542 493.017 75.929 496.056 75.929V71.929C493.617 71.929 491.656 71.3925 490.081 70.4134L487.969 73.8106ZM496.056 75.929C499.705 75.929 502.841 74.8062 505.272 72.4389L502.481 69.5731C500.91 71.1032 498.832 71.929 496.056 71.929V75.929ZM505.252 72.4579C507.794 70.05 508.879 66.5308 508.879 62.316H504.879C504.879 65.8958 503.962 68.17 502.501 69.5541L505.252 72.4579ZM508.879 62.316V55.522H504.879V62.316H508.879ZM505.234 54.3836C504.016 56.143 502.295 57.656 500.001 58.8984L501.906 62.4156C504.669 60.9193 506.897 59.009 508.523 56.6604L505.234 54.3836ZM499.986 58.9069C497.845 60.0912 495.342 60.711 492.422 60.711V64.711C495.926 64.711 499.112 63.9615 501.922 62.4071L499.986 58.9069ZM492.422 60.711C489.098 60.711 486.094 59.862 483.364 58.1677L481.255 61.5663C484.635 63.664 488.372 64.711 492.422 64.711V60.711ZM483.364 58.1677C480.636 56.4744 478.452 54.0919 476.814 50.961L473.269 52.815C475.213 56.5308 477.874 59.4676 481.255 61.5663L483.364 58.1677ZM476.831 50.9936C475.251 47.8347 474.435 44.1724 474.435 39.959H470.435C470.435 44.6989 471.356 48.9893 473.253 52.7824L476.831 50.9936ZM474.435 39.959C474.435 35.8016 475.25 32.1962 476.825 29.0934L473.258 27.2826C471.358 31.0264 470.435 35.2684 470.435 39.959H474.435ZM476.814 29.115C478.454 25.9796 480.612 23.6288 483.277 21.9923L481.184 18.5837C477.845 20.6339 475.211 23.5497 473.269 27.261L476.814 29.115ZM483.264 22.0004C485.991 20.3545 489.028 19.523 492.422 19.523V15.523C488.336 15.523 484.579 16.5349 481.197 18.5756L483.264 22.0004ZM508.879 40.117C508.879 37.1712 508.3 34.5287 507.047 32.2727L503.55 34.2153C504.404 35.7513 504.879 37.6908 504.879 40.117H508.879ZM507.058 32.293C505.839 30.0381 504.157 28.2748 502.008 27.0741L500.057 30.5659C501.49 31.3665 502.651 32.5526 503.539 34.195L507.058 32.293ZM502.047 27.0961C499.952 25.8642 497.68 25.24 495.266 25.24V29.24C496.959 29.24 498.532 29.6692 500.019 30.5439L502.047 27.0961ZM495.266 25.24C492.87 25.24 490.629 25.8279 488.58 27.0078L490.576 30.4742C492.002 29.6527 493.553 29.24 495.266 29.24V25.24ZM488.58 27.0078C486.497 28.2067 484.833 29.956 483.572 32.1778L487.051 34.1522C488.002 32.4766 489.182 31.2766 490.576 30.4742L488.58 27.0078ZM483.563 32.1937C482.313 34.4442 481.732 37.0581 481.732 39.959H485.732C485.732 37.5932 486.204 35.6778 487.06 34.1363L483.563 32.1937ZM481.732 39.959C481.732 42.8634 482.314 45.5101 483.542 47.8425L487.081 45.9795C486.202 44.3093 485.732 42.3213 485.732 39.959H481.732ZM483.572 47.8982C484.829 50.1128 486.482 51.8763 488.541 53.1244L490.614 49.7036C489.198 48.8451 488.006 47.6065 487.051 45.9238L483.572 47.8982ZM488.564 53.1379C490.649 54.3648 492.894 54.994 495.266 54.994V50.994C493.635 50.994 492.087 50.5699 490.592 49.6901L488.564 53.1379ZM495.266 54.994C497.661 54.994 499.919 54.4064 502.008 53.2389L500.057 49.7471C498.565 50.5809 496.979 50.994 495.266 50.994V54.994ZM502.047 53.2169C504.159 51.9745 505.828 50.2338 507.047 48.0403L503.55 46.0977C502.662 47.6962 501.488 48.9048 500.019 49.7691L502.047 53.2169ZM507.058 48.02C508.3 45.7233 508.879 43.065 508.879 40.117H504.879C504.879 42.541 504.404 44.5174 503.539 46.118L507.058 48.02ZM529.531 11.203L528.116 12.6172L528.146 12.6467L528.177 12.6749L529.531 11.203ZM529.531 1.96L530.914 3.40397L530.916 3.40277L529.531 1.96ZM539.248 1.96L537.833 3.37421L537.863 3.40366L537.894 3.43186L539.248 1.96ZM539.248 11.203L540.631 12.647L540.633 12.6458L539.248 11.203ZM539.88 18.234H541.88V16.234H539.88V18.234ZM539.88 62V64H541.88V62H539.88ZM528.82 62H526.82V64H528.82V62ZM528.82 18.234V16.234H526.82V18.234H528.82ZM534.429 11.02C532.933 11.02 531.798 10.5713 530.885 9.73114L528.177 12.6749C529.897 14.2574 532.027 15.02 534.429 15.02V11.02ZM530.945 9.78879C530.069 8.91274 529.635 7.8734 529.635 6.542H525.635C525.635 8.89726 526.464 10.9653 528.116 12.6172L530.945 9.78879ZM529.635 6.542C529.635 5.21157 530.067 4.21631 530.914 3.40397L528.147 0.516018C526.466 2.12635 525.635 4.18576 525.635 6.542H529.635ZM530.916 3.40277C531.833 2.5221 532.958 2.064 534.429 2.064V-1.936C532.002 -1.936 529.862 -1.13011 528.146 0.51722L530.916 3.40277ZM534.429 2.064C535.9 2.064 536.98 2.52094 537.833 3.37421L540.662 0.54578C538.987 -1.12895 536.855 -1.936 534.429 -1.936V2.064ZM537.894 3.43186C538.785 4.25166 539.223 5.2388 539.223 6.542H543.223C543.223 4.15852 542.344 2.091 540.602 0.488132L537.894 3.43186ZM539.223 6.542C539.223 7.84687 538.782 8.87759 537.863 9.76023L540.633 12.6458C542.347 11.0004 543.223 8.92379 543.223 6.542H539.223ZM537.864 9.75902C537.016 10.5719 535.925 11.02 534.429 11.02V15.02C536.83 15.02 538.952 14.2567 540.631 12.647L537.864 9.75902ZM537.88 18.234V62H541.88V18.234H537.88ZM539.88 60H528.82V64H539.88V60ZM530.82 62V18.234H526.82V62H530.82ZM528.82 20.234H539.88V16.234H528.82V20.234ZM587.7 22.579L586.263 23.9702L586.269 23.976L586.274 23.9817L587.7 22.579ZM592.519 62V64H594.519V62H592.519ZM581.459 62H579.459V64H581.459V62ZM578.852 29.847L577.378 31.1984L577.387 31.2088L577.397 31.219L578.852 29.847ZM564.474 29.847L563.02 28.4738L563.019 28.475L564.474 29.847ZM561.867 62V64H563.867V62H561.867ZM550.807 62H548.807V64H550.807V62ZM550.807 18.234V16.234H548.807V18.234H550.807ZM561.867 18.234H563.867V16.234H561.867V18.234ZM561.867 23.685H559.867V29.5141L563.446 24.9129L561.867 23.685ZM567.476 19.261L568.319 21.0744L568.328 21.0702L568.337 21.066L567.476 19.261ZM575.06 19.602C579.809 19.602 583.477 21.0931 586.263 23.9702L589.137 21.1878C585.497 17.4289 580.739 15.602 575.06 15.602V19.602ZM586.274 23.9817C589.021 26.7739 590.519 30.7936 590.519 36.325H594.519C594.519 30.059 592.804 24.9147 589.126 21.1763L586.274 23.9817ZM590.519 36.325V62H594.519V36.325H590.519ZM592.519 60H581.459V64H592.519V60ZM583.459 62V37.826H579.459V62H583.459ZM583.459 37.826C583.459 34.0322 582.508 30.809 580.307 28.475L577.397 31.219C578.672 32.5716 579.459 34.6678 579.459 37.826H583.459ZM580.326 28.4956C578.145 26.1163 575.202 25.003 571.742 25.003V29.003C574.286 29.003 576.083 29.7857 577.378 31.1984L580.326 28.4956ZM571.742 25.003C568.24 25.003 565.254 26.1088 563.02 28.4738L565.928 31.2202C567.276 29.7932 569.135 29.003 571.742 29.003V25.003ZM563.019 28.475C560.818 30.809 559.867 34.0322 559.867 37.826H563.867C563.867 34.6678 564.654 32.5716 565.929 31.219L563.019 28.475ZM559.867 37.826V62H563.867V37.826H559.867ZM561.867 60H550.807V64H561.867V60ZM552.807 62V18.234H548.807V62H552.807ZM550.807 20.234H561.867V16.234H550.807V20.234ZM559.867 18.234V23.685H563.867V18.234H559.867ZM563.446 24.9129C564.717 23.2778 566.331 21.9993 568.319 21.0744L566.633 17.4476C564.092 18.6294 561.966 20.3002 560.288 22.4571L563.446 24.9129ZM568.337 21.066C570.368 20.0968 572.599 19.602 575.06 19.602V15.602C572.043 15.602 569.219 16.2132 566.615 17.456L568.337 21.066ZM643.405 43.435V45.435H645.1L645.378 43.7638L643.405 43.435ZM611.41 43.435V41.435H609.237L609.417 43.6011L611.41 43.435ZM614.728 50.861L613.375 52.3337L614.728 50.861ZM630.686 48.254V46.254H629.442L628.892 47.3703L630.686 48.254ZM642.615 48.254L644.531 48.8287L645.304 46.254H642.615V48.254ZM635.347 58.682L636.547 60.282L636.555 60.2764L636.562 60.2707L635.347 58.682ZM610.778 59.946L609.786 61.6825L609.802 61.6918L609.819 61.7007L610.778 59.946ZM602.957 51.967L601.197 52.9152L601.202 52.9256L601.208 52.936L602.957 51.967ZM602.957 28.188L601.197 27.2398L602.957 28.188ZM610.699 20.288L611.671 22.0363L610.699 20.288ZM633.293 20.209L632.332 21.9627L632.344 21.969L633.293 20.209ZM640.956 27.872L639.196 28.8219L639.205 28.8386L639.215 28.8552L640.956 27.872ZM632.266 36.009V38.009H634.304L634.266 35.972L632.266 36.009ZM629.185 29.215L627.874 30.7251L627.886 30.735L627.897 30.7448L629.185 29.215ZM614.886 29.136L616.213 30.6332L616.215 30.6308L614.886 29.136ZM611.489 36.009L609.51 35.7262L609.183 38.009H611.489V36.009ZM641.721 39.169C641.721 40.6631 641.622 41.9725 641.433 43.1062L645.378 43.7638C645.611 42.3695 645.721 40.8348 645.721 39.169H641.721ZM643.405 41.435H611.41V45.435H643.405V41.435ZM609.417 43.6011C609.714 47.1566 610.986 50.1382 613.375 52.3337L616.082 49.3883C614.574 48.0025 613.634 46.0334 613.404 43.2689L609.417 43.6011ZM613.375 52.3337C615.722 54.4901 618.613 55.547 621.917 55.547V51.547C619.534 51.547 617.632 50.8132 616.082 49.3883L613.375 52.3337ZM621.917 55.547C624.261 55.547 626.393 55.0415 628.224 53.936C630.061 52.8274 631.469 51.1919 632.481 49.1377L628.892 47.3703C628.166 48.8448 627.244 49.8557 626.157 50.5115C625.066 51.1704 623.682 51.547 621.917 51.547V55.547ZM630.686 50.254H642.615V46.254H630.686V50.254ZM640.7 47.6793C639.56 51.4787 637.388 54.6036 634.133 57.0933L636.562 60.2707C640.469 57.2831 643.143 53.456 644.531 48.8287L640.7 47.6793ZM634.147 57.082C630.967 59.4672 627.01 60.711 622.154 60.711V64.711C627.727 64.711 632.565 63.2688 636.547 60.282L634.147 57.082ZM622.154 60.711C618.243 60.711 614.787 59.8585 611.738 58.1913L609.819 61.7007C613.512 63.7202 617.639 64.711 622.154 64.711V60.711ZM611.771 58.2095C608.779 56.4997 606.43 54.1091 604.707 50.998L601.208 52.936C603.277 56.6716 606.142 59.6003 609.786 61.6825L611.771 58.2095ZM604.718 51.0188C603.054 47.9283 602.192 44.3132 602.192 40.117H598.192C598.192 44.8741 599.174 49.159 601.197 52.9152L604.718 51.0188ZM602.192 40.117C602.192 35.8638 603.056 32.2234 604.718 29.1362L601.197 27.2398C599.172 30.9993 598.192 35.3115 598.192 40.117H602.192ZM604.718 29.1362C606.385 26.0409 608.696 23.6892 611.671 22.0363L609.728 18.5397C606.067 20.5735 603.216 23.4884 601.197 27.2398L604.718 29.1362ZM611.671 22.0363C614.653 20.3797 618.128 19.523 622.154 19.523V15.523C617.543 15.523 613.382 16.5097 609.728 18.5397L611.671 22.0363ZM622.154 19.523C626.019 19.523 629.394 20.3519 632.332 21.9626L634.255 18.4554C630.662 16.4848 626.611 15.523 622.154 15.523V19.523ZM632.344 21.969C635.318 23.5744 637.591 25.8472 639.196 28.8219L642.716 26.9221C640.741 23.2608 637.905 20.4249 634.243 18.449L632.344 21.969ZM639.215 28.8552C640.867 31.7812 641.721 35.1993 641.721 39.169H645.721C645.721 34.6067 644.733 30.4935 642.698 26.8888L639.215 28.8552ZM634.266 35.972C634.204 32.6077 632.958 29.7772 630.474 27.6852L627.897 30.7448C629.416 32.0235 630.224 33.7223 630.267 36.046L634.266 35.972ZM630.497 27.7049C628.097 25.6207 625.169 24.608 621.838 24.608V28.608C624.301 28.608 626.271 29.3333 627.874 30.7251L630.497 27.7049ZM621.838 24.608C618.652 24.608 615.85 25.6034 613.558 27.6412L616.215 30.6308C617.715 29.298 619.547 28.608 621.838 28.608V24.608ZM613.56 27.6388C611.291 29.6485 609.983 32.41 609.51 35.7262L613.469 36.2918C613.838 33.7093 614.795 31.8888 616.213 30.6332L613.56 27.6388ZM611.489 38.009H632.266V34.009H611.489V38.009ZM692.163 43.435V45.435H693.858L694.136 43.7638L692.163 43.435ZM660.168 43.435V41.435H657.995L658.175 43.6011L660.168 43.435ZM663.486 50.861L662.133 52.3337L663.486 50.861ZM679.444 48.254V46.254H678.2L677.65 47.3703L679.444 48.254ZM691.373 48.254L693.289 48.8287L694.061 46.254H691.373V48.254ZM684.105 58.682L685.305 60.282L685.313 60.2764L685.32 60.2707L684.105 58.682ZM659.536 59.946L658.544 61.6825L658.56 61.6918L658.577 61.7007L659.536 59.946ZM651.715 51.967L649.954 52.9152L649.96 52.9256L649.966 52.936L651.715 51.967ZM651.715 28.188L649.954 27.2398L651.715 28.188ZM659.457 20.288L660.429 22.0363L659.457 20.288ZM682.051 20.209L681.09 21.9627L681.101 21.969L682.051 20.209ZM689.714 27.872L687.954 28.8219L687.963 28.8386L687.973 28.8552L689.714 27.872ZM681.024 36.009V38.009H683.062L683.024 35.972L681.024 36.009ZM677.943 29.215L676.632 30.7251L676.643 30.735L676.655 30.7448L677.943 29.215ZM663.644 29.136L664.97 30.6332L664.973 30.6308L663.644 29.136ZM660.247 36.009L658.267 35.7262L657.941 38.009H660.247V36.009ZM690.479 39.169C690.479 40.6631 690.379 41.9725 690.19 43.1062L694.136 43.7638C694.368 42.3695 694.479 40.8348 694.479 39.169H690.479ZM692.163 41.435H660.168V45.435H692.163V41.435ZM658.175 43.6011C658.471 47.1566 659.744 50.1382 662.133 52.3337L664.84 49.3883C663.331 48.0025 662.392 46.0334 662.161 43.2689L658.175 43.6011ZM662.133 52.3337C664.48 54.4901 667.371 55.547 670.675 55.547V51.547C668.292 51.547 666.39 50.8132 664.84 49.3883L662.133 52.3337ZM670.675 55.547C673.019 55.547 675.151 55.0415 676.982 53.936C678.819 52.8274 680.227 51.1919 681.238 49.1377L677.65 47.3703C676.924 48.8448 676.001 49.8557 674.915 50.5115C673.823 51.1704 672.439 51.547 670.675 51.547V55.547ZM679.444 50.254H691.373V46.254H679.444V50.254ZM689.458 47.6793C688.318 51.4787 686.146 54.6036 682.89 57.0933L685.32 60.2707C689.227 57.2831 691.901 53.456 693.289 48.8287L689.458 47.6793ZM682.905 57.082C679.725 59.4672 675.768 60.711 670.912 60.711V64.711C676.485 64.711 681.323 63.2688 685.305 60.282L682.905 57.082ZM670.912 60.711C667.001 60.711 663.544 59.8585 660.496 58.1913L658.577 61.7007C662.269 63.7202 666.397 64.711 670.912 64.711V60.711ZM660.529 58.2095C657.536 56.4997 655.188 54.1091 653.465 50.998L649.966 52.936C652.035 56.6716 654.9 59.6003 658.544 61.6825L660.529 58.2095ZM653.476 51.0188C651.812 47.9283 650.95 44.3132 650.95 40.117H646.95C646.95 44.8741 647.932 49.159 649.954 52.9152L653.476 51.0188ZM650.95 40.117C650.95 35.8638 651.814 32.2234 653.476 29.1362L649.954 27.2398C647.93 30.9993 646.95 35.3115 646.95 40.117H650.95ZM653.476 29.1362C655.143 26.0409 657.453 23.6892 660.429 22.0363L658.486 18.5397C654.825 20.5735 651.974 23.4884 649.954 27.2398L653.476 29.1362ZM660.429 22.0363C663.411 20.3797 666.886 19.523 670.912 19.523V15.523C666.301 15.523 662.14 16.5097 658.486 18.5397L660.429 22.0363ZM670.912 19.523C674.777 19.523 678.152 20.3519 681.09 21.9626L683.013 18.4554C679.42 16.4848 675.369 15.523 670.912 15.523V19.523ZM681.101 21.969C684.076 23.5744 686.349 25.8472 687.954 28.8219L691.474 26.9221C689.498 23.2608 686.662 20.4249 683.001 18.449L681.101 21.969ZM687.973 28.8552C689.624 31.7812 690.479 35.1993 690.479 39.169H694.479C694.479 34.6067 693.491 30.4935 691.456 26.8888L687.973 28.8552ZM683.024 35.972C682.962 32.6077 681.716 29.7772 679.232 27.6852L676.655 30.7448C678.173 32.0235 678.982 33.7223 679.025 36.046L683.024 35.972ZM679.255 27.7049C676.855 25.6207 673.927 24.608 670.596 24.608V28.608C673.059 28.608 675.029 29.3333 676.632 30.7251L679.255 27.7049ZM670.596 24.608C667.41 24.608 664.608 25.6034 662.316 27.6412L664.973 30.6308C666.472 29.298 668.305 28.608 670.596 28.608V24.608ZM662.318 27.6388C660.049 29.6485 658.741 32.41 658.267 35.7262L662.227 36.2918C662.596 33.7093 663.553 31.8888 664.97 30.6332L662.318 27.6388ZM660.247 38.009H681.024V34.009H660.247V38.009ZM711.612 25.028H709.612V32.1112L713.317 26.074L711.612 25.028ZM717.142 19.577L716.154 17.8381L716.145 17.843L716.137 17.848L717.142 19.577ZM725.042 17.602H727.042V15.602H725.042V17.602ZM725.042 29.215V31.215H727.042V29.215H725.042ZM714.219 31.664L712.872 30.1861L712.861 30.1961L712.85 30.2063L714.219 31.664ZM711.612 62V64H713.612V62H711.612ZM700.552 62H698.552V64H700.552V62ZM700.552 18.234V16.234H698.552V18.234H700.552ZM711.612 18.234H713.612V16.234H711.612V18.234ZM713.317 26.074C714.572 24.0276 716.18 22.45 718.147 21.306L716.137 17.848C713.575 19.3374 711.496 21.3937 709.907 23.982L713.317 26.074ZM718.13 21.3159C720.115 20.1881 722.401 19.602 725.042 19.602V15.602C721.784 15.602 718.804 16.3325 716.154 17.8381L718.13 21.3159ZM723.042 17.602V29.215H727.042V17.602H723.042ZM725.042 27.215H722.119V31.215H725.042V27.215ZM722.119 27.215C718.359 27.215 715.163 28.0965 712.872 30.1861L715.567 33.1419C716.856 31.9662 718.927 31.215 722.119 31.215V27.215ZM712.85 30.2063C710.504 32.4102 709.612 35.9545 709.612 40.196H713.612C713.612 36.3268 714.458 34.1831 715.588 33.1217L712.85 30.2063ZM709.612 40.196V62H713.612V40.196H709.612ZM711.612 60H700.552V64H711.612V60ZM702.552 62V18.234H698.552V62H702.552ZM700.552 20.234H711.612V16.234H700.552V20.234ZM709.612 18.234V25.028H713.612V18.234H709.612ZM733.203 11.203L731.788 12.6172L731.818 12.6467L731.848 12.6749L733.203 11.203ZM733.203 1.96L734.586 3.40397L734.588 3.40277L733.203 1.96ZM742.92 1.96L741.505 3.37421L741.535 3.40366L741.565 3.43186L742.92 1.96ZM742.92 11.203L744.303 12.647L744.305 12.6458L742.92 11.203ZM743.552 18.234H745.552V16.234H743.552V18.234ZM743.552 62V64H745.552V62H743.552ZM732.492 62H730.492V64H732.492V62ZM732.492 18.234V16.234H730.492V18.234H732.492ZM738.101 11.02C736.605 11.02 735.47 10.5713 734.557 9.73114L731.848 12.6749C733.569 14.2574 735.699 15.02 738.101 15.02V11.02ZM734.617 9.78879C733.741 8.91274 733.307 7.8734 733.307 6.542H729.307C729.307 8.89726 730.136 10.9653 731.788 12.6172L734.617 9.78879ZM733.307 6.542C733.307 5.21157 733.739 4.21631 734.586 3.40397L731.819 0.516018C730.138 2.12635 729.307 4.18576 729.307 6.542H733.307ZM734.588 3.40277C735.505 2.5221 736.63 2.064 738.101 2.064V-1.936C735.674 -1.936 733.533 -1.13011 731.817 0.51722L734.588 3.40277ZM738.101 2.064C739.571 2.064 740.652 2.52094 741.505 3.37421L744.334 0.54578C742.659 -1.12895 740.527 -1.936 738.101 -1.936V2.064ZM741.565 3.43186C742.456 4.25166 742.895 5.2388 742.895 6.542H746.895C746.895 4.15852 746.016 2.091 744.274 0.488132L741.565 3.43186ZM742.895 6.542C742.895 7.84687 742.454 8.87759 741.534 9.76023L744.305 12.6458C746.018 11.0004 746.895 8.92379 746.895 6.542H742.895ZM741.536 9.75902C740.687 10.5719 739.597 11.02 738.101 11.02V15.02C740.501 15.02 742.624 14.2567 744.303 12.647L741.536 9.75902ZM741.552 18.234V62H745.552V18.234H741.552ZM743.552 60H732.492V64H743.552V60ZM734.492 62V18.234H730.492V62H734.492ZM732.492 20.234H743.552V16.234H732.492V20.234ZM791.372 22.579L789.935 23.9702L789.941 23.976L789.946 23.9817L791.372 22.579ZM796.191 62V64H798.191V62H796.191ZM785.131 62H783.131V64H785.131V62ZM782.524 29.847L781.049 31.1984L781.059 31.2088L781.069 31.219L782.524 29.847ZM768.146 29.847L766.692 28.4738L766.691 28.475L768.146 29.847ZM765.539 62V64H767.539V62H765.539ZM754.479 62H752.479V64H754.479V62ZM754.479 18.234V16.234H752.479V18.234H754.479ZM765.539 18.234H767.539V16.234H765.539V18.234ZM765.539 23.685H763.539V29.5141L767.118 24.9129L765.539 23.685ZM771.148 19.261L771.991 21.0744L772 21.0702L772.009 21.066L771.148 19.261ZM778.732 19.602C783.481 19.602 787.149 21.0931 789.935 23.9702L792.809 21.1878C789.169 17.4289 784.411 15.602 778.732 15.602V19.602ZM789.946 23.9817C792.693 26.7739 794.191 30.7936 794.191 36.325H798.191C798.191 30.059 796.476 24.9147 792.797 21.1763L789.946 23.9817ZM794.191 36.325V62H798.191V36.325H794.191ZM796.191 60H785.131V64H796.191V60ZM787.131 62V37.826H783.131V62H787.131ZM787.131 37.826C787.131 34.0322 786.18 30.809 783.979 28.475L781.069 31.219C782.344 32.5716 783.131 34.6678 783.131 37.826H787.131ZM783.998 28.4956C781.817 26.1163 778.874 25.003 775.414 25.003V29.003C777.958 29.003 779.755 29.7857 781.049 31.1984L783.998 28.4956ZM775.414 25.003C771.911 25.003 768.925 26.1088 766.692 28.4738L769.6 31.2202C770.948 29.7932 772.807 29.003 775.414 29.003V25.003ZM766.691 28.475C764.49 30.809 763.539 34.0322 763.539 37.826H767.539C767.539 34.6678 768.326 32.5716 769.601 31.219L766.691 28.475ZM763.539 37.826V62H767.539V37.826H763.539ZM765.539 60H754.479V64H765.539V60ZM756.479 62V18.234H752.479V62H756.479ZM754.479 20.234H765.539V16.234H754.479V20.234ZM763.539 18.234V23.685H767.539V18.234H763.539ZM767.118 24.9129C768.389 23.2778 770.003 21.9993 771.991 21.0744L770.304 17.4476C767.763 18.6294 765.638 20.3002 763.96 22.4571L767.118 24.9129ZM772.009 21.066C774.04 20.0968 776.271 19.602 778.732 19.602V15.602C775.715 15.602 772.89 16.2132 770.286 17.456L772.009 21.066ZM832.462 19.498L831.523 21.2637L831.538 21.2716L831.553 21.2792L832.462 19.498ZM838.308 24.475L836.664 25.6134L840.308 30.8775V24.475H838.308ZM838.308 18.234V16.234H836.308V18.234H838.308ZM849.447 18.234H851.447V16.234H849.447V18.234ZM846.998 73.139L845.221 72.2209L845.215 72.2329L846.998 73.139ZM839.651 80.723L838.668 78.9814L838.658 78.9873L838.647 78.9934L839.651 80.723ZM812.475 79.222L811.293 80.8348L811.303 80.8422L812.475 79.222ZM805.76 67.372V65.372H803.539L803.771 67.5814L805.76 67.372ZM816.741 67.372L818.662 66.8159L818.245 65.372H816.741V67.372ZM820.454 72.112L821.51 70.4134L821.504 70.4094L821.497 70.4054L820.454 72.112ZM835.306 71.006L833.931 69.5541L833.921 69.5635L833.911 69.5731L835.306 71.006ZM838.308 55.522H840.308V49.1195L836.664 54.3836L838.308 55.522ZM832.383 60.657L831.431 58.8984L831.423 58.9026L831.415 58.9069L832.383 60.657ZM813.739 59.867L814.794 58.1677L813.739 59.867ZM806.471 51.888L804.682 52.7824L804.691 52.7988L804.699 52.815L806.471 51.888ZM806.471 28.188L804.699 27.261L804.693 27.2718L804.688 27.2826L806.471 28.188ZM813.66 20.288L812.627 18.5756L812.62 18.5796L812.614 18.5837L813.66 20.288ZM836.728 33.244L834.969 34.195L834.974 34.2052L834.98 34.2153L836.728 33.244ZM832.462 28.82L831.448 30.5439L831.467 30.5551L831.487 30.5659L832.462 28.82ZM821.007 28.741L820.009 27.0078L821.007 28.741ZM816.741 33.165L815.002 32.1778L814.997 32.1857L814.993 32.1937L816.741 33.165ZM816.741 46.911L814.971 47.8425L814.986 47.8706L815.002 47.8982L816.741 46.911ZM821.007 51.414L819.971 53.1244L819.982 53.1312L819.993 53.1379L821.007 51.414ZM832.462 51.493L833.438 53.2389L833.457 53.2281L833.476 53.2169L832.462 51.493ZM836.728 47.069L838.477 48.0403L838.482 48.0302L838.488 48.02L836.728 47.069ZM823.851 19.523C826.843 19.523 829.381 20.1244 831.523 21.2637L833.402 17.7323C830.593 16.2382 827.39 15.523 823.851 15.523V19.523ZM831.553 21.2792C833.768 22.4101 835.45 23.8606 836.664 25.6134L839.953 23.3366C838.322 20.9814 836.108 19.1138 833.372 17.7168L831.553 21.2792ZM840.308 24.475V18.234H836.308V24.475H840.308ZM838.308 20.234H849.447V16.234H838.308V20.234ZM847.447 18.234V62.316H851.447V18.234H847.447ZM847.447 62.316C847.447 66.097 846.688 69.3823 845.221 72.221L848.775 74.057C850.574 70.5757 851.447 66.6457 851.447 62.316H847.447ZM845.215 72.2329C843.769 75.0796 841.605 77.3234 838.668 78.9814L840.635 82.4646C844.228 80.4359 846.963 77.6237 848.781 74.0451L845.215 72.2329ZM838.647 78.9934C835.749 80.6761 832.163 81.567 827.801 81.567V85.567C832.709 85.567 837.023 84.5619 840.656 82.4526L838.647 78.9934ZM827.801 81.567C821.898 81.567 817.23 80.1943 813.648 77.6018L811.303 80.8422C815.726 84.043 821.275 85.567 827.801 85.567V81.567ZM813.658 77.6092C810.176 75.056 808.219 71.6227 807.749 67.1626L803.771 67.5814C804.355 73.128 806.874 77.5947 811.293 80.8348L813.658 77.6092ZM805.76 69.372H816.741V65.372H805.76V69.372ZM814.82 67.9281C815.548 70.4429 817.12 72.4184 819.411 73.8186L821.497 70.4054C819.996 69.4882 819.093 68.3038 818.662 66.8159L814.82 67.9281ZM819.398 73.8106C821.721 75.2542 824.446 75.929 827.485 75.929V71.929C825.047 71.929 823.085 71.3925 821.51 70.4134L819.398 73.8106ZM827.485 75.929C831.135 75.929 834.27 74.8062 836.702 72.4389L833.911 69.5731C832.34 71.1032 830.261 71.929 827.485 71.929V75.929ZM836.682 72.4579C839.224 70.05 840.308 66.5308 840.308 62.316H836.308C836.308 65.8958 835.392 68.17 833.931 69.5541L836.682 72.4579ZM840.308 62.316V55.522H836.308V62.316H840.308ZM836.664 54.3836C835.446 56.143 833.724 57.656 831.431 58.8984L833.336 62.4156C836.098 60.9193 838.327 59.009 839.953 56.6604L836.664 54.3836ZM831.415 58.9069C829.274 60.0912 826.772 60.711 823.851 60.711V64.711C827.356 64.711 830.542 63.9615 833.351 62.4071L831.415 58.9069ZM823.851 60.711C820.527 60.711 817.524 59.862 814.794 58.1677L812.685 61.5663C816.064 63.664 819.802 64.711 823.851 64.711V60.711ZM814.794 58.1677C812.066 56.4744 809.881 54.0919 808.244 50.961L804.699 52.815C806.643 56.5308 809.303 59.4676 812.685 61.5663L814.794 58.1677ZM808.26 50.9936C806.681 47.8347 805.864 44.1724 805.864 39.959H801.864C801.864 44.6989 802.786 48.9893 804.682 52.7824L808.26 50.9936ZM805.864 39.959C805.864 35.8016 806.679 32.1962 808.255 29.0934L804.688 27.2826C802.787 31.0264 801.864 35.2684 801.864 39.959H805.864ZM808.244 29.115C809.884 25.9796 812.042 23.6288 814.707 21.9923L812.614 18.5837C809.275 20.6339 806.64 23.5497 804.699 27.261L808.244 29.115ZM814.694 22.0004C817.421 20.3545 820.458 19.523 823.851 19.523V15.523C819.766 15.523 816.009 16.5349 812.627 18.5756L814.694 22.0004ZM840.308 40.117C840.308 37.1712 839.73 34.5287 838.477 32.2727L834.98 34.2153C835.833 35.7513 836.308 37.6908 836.308 40.117H840.308ZM838.488 32.293C837.269 30.0381 835.587 28.2748 833.438 27.0741L831.487 30.5659C832.919 31.3665 834.081 32.5526 834.969 34.195L838.488 32.293ZM833.476 27.0961C831.382 25.8642 829.11 25.24 826.695 25.24V29.24C828.388 29.24 829.961 29.6692 831.448 30.5439L833.476 27.0961ZM826.695 25.24C824.3 25.24 822.059 25.8279 820.009 27.0078L822.005 30.4742C823.432 29.6527 824.983 29.24 826.695 29.24V25.24ZM820.009 27.0078C817.927 28.2067 816.263 29.956 815.002 32.1778L818.481 34.1522C819.432 32.4766 820.612 31.2766 822.005 30.4742L820.009 27.0078ZM814.993 32.1937C813.743 34.4442 813.161 37.0581 813.161 39.959H817.161C817.161 37.5932 817.633 35.6778 818.49 34.1363L814.993 32.1937ZM813.161 39.959C813.161 42.8634 813.744 45.5101 814.971 47.8425L818.511 45.9795C817.632 44.3093 817.161 42.3213 817.161 39.959H813.161ZM815.002 47.8982C816.259 50.1128 817.911 51.8763 819.971 53.1244L822.044 49.7036C820.627 48.8451 819.436 47.6065 818.481 45.9238L815.002 47.8982ZM819.993 53.1379C822.079 54.3648 824.323 54.994 826.695 54.994V50.994C825.065 50.994 823.517 50.5699 822.021 49.6901L819.993 53.1379ZM826.695 54.994C829.09 54.994 831.349 54.4064 833.438 53.2389L831.487 49.7471C829.995 50.5809 828.408 50.994 826.695 50.994V54.994ZM833.476 53.2169C835.588 51.9745 837.258 50.2338 838.477 48.0403L834.98 46.0977C834.092 47.6962 832.918 48.9048 831.448 49.7691L833.476 53.2169ZM838.488 48.02C839.729 45.7233 840.308 43.065 840.308 40.117H836.308C836.308 42.541 835.834 44.5174 834.969 46.118L838.488 48.02ZM887.685 60.578L886.893 62.4147L886.904 62.4195L887.685 60.578ZM880.417 54.89L878.796 56.0622L880.417 54.89ZM877.652 46.121V44.121H875.62L875.652 46.1522L877.652 46.121ZM889.502 46.121L891.497 45.9818L891.367 44.121H889.502V46.121ZM891.872 51.493L890.513 52.9605L890.526 52.9728L890.54 52.9849L891.872 51.493ZM903.959 51.651L905.228 53.1964L905.244 53.1832L905.26 53.1695L903.959 51.651ZM904.67 42.724L903.22 44.1015L904.67 42.724ZM900.878 40.275L900.09 42.1133L900.129 42.13L900.168 42.145L900.878 40.275ZM894.716 38.221L894.151 40.1397L894.164 40.1434L894.176 40.1469L894.716 38.221ZM885.947 35.14L885.087 36.9457L885.112 36.9579L885.138 36.9694L885.947 35.14ZM880.18 30.479L878.58 31.679L878.596 31.7015L878.614 31.7235L880.18 30.479ZM880.259 13.573L881.917 14.6907L880.259 13.573ZM887.132 8.043L887.919 9.88129L887.933 9.87539L887.947 9.86927L887.132 8.043ZM911.069 10.255L909.828 11.8236L909.841 11.8337L909.854 11.8437L911.069 10.255ZM916.994 21.789V23.789H919.148L918.988 21.6405L916.994 21.789ZM904.828 21.789L902.831 21.8999L902.936 23.789H904.828V21.789ZM902.379 17.128L901.077 18.6465L901.106 18.6713L901.136 18.695L902.379 17.128ZM891.24 16.891L889.953 15.3596L889.938 15.3726L889.923 15.3858L891.24 16.891ZM890.766 25.423L889.314 26.7985L889.351 26.8377L889.39 26.8749L890.766 25.423ZM894.4 27.793L893.587 29.6206L893.627 29.6385L893.668 29.6545L894.4 27.793ZM900.562 29.847L899.987 31.7627L899.997 31.7657L900.562 29.847ZM915.177 37.747L913.596 38.9721L915.177 37.747ZM915.335 54.258L913.623 53.2238L915.335 54.258ZM908.62 60.341L909.514 62.1299L909.527 62.1235L909.539 62.117L908.62 60.341ZM898.113 60.553C894.499 60.553 891.293 59.935 888.465 58.7365L886.904 62.4195C890.29 63.8543 894.037 64.553 898.113 64.553V60.553ZM888.476 58.7413C885.722 57.5543 883.598 55.8753 882.037 53.7178L878.796 56.0622C880.817 58.8554 883.537 60.9684 886.893 62.4146L888.476 58.7413ZM882.037 53.7178C880.512 51.6091 879.698 49.0946 879.651 46.0898L875.652 46.1522C875.71 49.8888 876.74 53.2202 878.796 56.0622L882.037 53.7178ZM877.652 48.121H889.502V44.121H877.652V48.121ZM887.506 46.2602C887.693 48.9395 888.654 51.2397 890.513 52.9605L893.23 50.0255C892.245 49.113 891.626 47.8318 891.497 45.9818L887.506 46.2602ZM890.54 52.9849C892.474 54.712 894.997 55.468 897.876 55.468V51.468C895.698 51.468 894.219 50.9074 893.204 50.0011L890.54 52.9849ZM897.876 55.468C900.756 55.468 903.287 54.7907 905.228 53.1964L902.689 50.1055C901.681 50.9339 900.156 51.468 897.876 51.468V55.468ZM905.26 53.1695C907.193 51.5125 908.171 49.3178 908.171 46.753H904.171C904.171 48.1909 903.673 49.2615 902.657 50.1325L905.26 53.1695ZM908.171 46.753C908.171 44.6764 907.518 42.8185 906.12 41.3465L903.22 44.1015C903.822 44.7361 904.171 45.5643 904.171 46.753H908.171ZM906.12 41.3465C904.888 40.0498 903.36 39.0775 901.587 38.405L900.168 42.145C901.45 42.6312 902.45 43.2915 903.22 44.1015L906.12 41.3465ZM901.665 38.4367C900.073 37.7543 897.923 37.0421 895.255 36.2951L894.176 40.1469C896.775 40.8745 898.733 41.5317 900.09 42.1133L901.665 38.4367ZM895.28 36.3023C891.745 35.2625 888.911 34.2635 886.755 33.3106L885.138 36.9694C887.511 38.0179 890.524 39.0729 894.151 40.1397L895.28 36.3023ZM886.806 33.3343C884.889 32.421 883.202 31.0674 881.745 29.2345L878.614 31.7235C880.422 33.9986 882.581 35.7523 885.087 36.9457L886.806 33.3343ZM881.78 29.279C880.531 27.6147 879.81 25.2863 879.81 22.105H875.81C875.81 25.8757 876.668 29.13 878.58 31.679L881.78 29.279ZM879.81 22.105C879.81 19.1893 880.533 16.7449 881.917 14.6907L878.6 12.4553C876.719 15.2464 875.81 18.4901 875.81 22.105H879.81ZM881.917 14.6907C883.314 12.618 885.287 11.0093 887.919 9.88129L886.344 6.20471C883.077 7.60472 880.469 9.68264 878.6 12.4553L881.917 14.6907ZM887.947 9.86927C890.599 8.68534 893.684 8.068 897.244 8.068V4.068C893.219 4.068 889.563 4.76733 886.316 6.21672L887.947 9.86927ZM897.244 8.068C902.602 8.068 906.737 9.37852 909.828 11.8236L912.309 8.68643C908.343 5.54881 903.261 4.068 897.244 4.068V8.068ZM909.854 11.8437C912.933 14.1982 914.668 17.4917 914.999 21.9375L918.988 21.6405C918.582 16.1849 916.367 11.7892 912.283 8.66628L909.854 11.8437ZM916.994 19.789H904.828V23.789H916.994V19.789ZM906.824 21.6781C906.686 19.1941 905.583 17.1168 903.621 15.561L901.136 18.695C902.229 19.5618 902.758 20.5919 902.831 21.8999L906.824 21.6781ZM903.68 15.6095C901.753 13.9572 899.272 13.232 896.454 13.232V17.232C898.586 17.232 900.055 17.7708 901.077 18.6465L903.68 15.6095ZM896.454 13.232C893.947 13.232 891.715 13.8799 889.953 15.3596L892.526 18.4224C893.398 17.6901 894.641 17.232 896.454 17.232V13.232ZM889.923 15.3858C888.118 16.9646 887.344 19.1847 887.344 21.71H891.344C891.344 20.0219 891.833 19.0294 892.557 18.3961L889.923 15.3858ZM887.344 21.71C887.344 23.6572 887.988 25.3988 889.314 26.7985L892.217 24.0475C891.648 23.4459 891.344 22.7122 891.344 21.71H887.344ZM889.39 26.8749C890.576 27.998 891.984 28.9081 893.587 29.6206L895.212 25.9654C893.971 25.4139 892.957 24.744 892.141 23.9711L889.39 26.8749ZM893.668 29.6545C895.218 30.2635 897.333 30.9665 899.987 31.7626L901.136 27.9314C898.524 27.1475 896.53 26.4812 895.131 25.9315L893.668 29.6545ZM899.997 31.7657C903.525 32.8033 906.345 33.8242 908.487 34.8204L910.174 31.1936C907.787 30.0832 904.761 28.9974 901.126 27.9283L899.997 31.7657ZM908.487 34.8204C910.443 35.7303 912.145 37.1002 913.596 38.9721L916.757 36.5219C914.943 34.1805 912.747 32.3904 910.174 31.1936L908.487 34.8204ZM913.596 38.9721C914.888 40.6393 915.626 42.9348 915.626 46.042H919.626C919.626 42.3025 918.731 39.068 916.757 36.5219L913.596 38.9721ZM915.626 46.042C915.626 48.6262 914.962 51.0073 913.623 53.2238L917.046 55.2922C918.762 52.4527 919.626 49.3565 919.626 46.042H915.626ZM913.623 53.2238C912.309 55.3982 910.364 57.1855 907.7 58.565L909.539 62.117C912.774 60.4418 915.305 58.1738 917.046 55.2922L913.623 53.2238ZM907.725 58.5521C905.11 59.8597 901.927 60.553 898.113 60.553V64.553C902.408 64.553 906.23 63.7716 909.514 62.1299L907.725 58.5521ZM935.272 59.946L934.292 61.6891L934.302 61.695L934.313 61.7007L935.272 59.946ZM927.293 51.967L925.544 52.936L925.549 52.9462L925.555 52.9564L927.293 51.967ZM927.372 28.267L925.646 27.2576L925.64 27.2676L925.634 27.2776L927.372 28.267ZM935.509 20.367L936.457 22.1279L936.468 22.1223L936.478 22.1166L935.509 20.367ZM958.419 20.367L957.45 22.1166L957.461 22.1223L957.471 22.1279L958.419 20.367ZM966.477 28.267L964.739 29.2564L964.745 29.2664L964.751 29.2764L966.477 28.267ZM966.398 51.967L964.683 50.938L964.677 50.9478L964.672 50.9576L966.398 51.967ZM958.182 59.946L959.13 61.707L959.14 61.7018L958.182 59.946ZM952.257 51.651L953.215 53.4068L953.224 53.4019L953.233 53.3969L952.257 51.651ZM956.523 47.227L958.283 48.178L956.523 47.227ZM954.785 30.558L953.338 31.9381L953.354 31.9554L953.371 31.9722L954.785 30.558ZM938.827 30.558L937.38 29.1778L937.379 29.1787L938.827 30.558ZM938.748 49.755L937.267 51.0986L937.283 51.1167L937.3 51.1343L938.748 49.755ZM946.648 60.711C942.737 60.711 939.28 59.8585 936.232 58.1913L934.313 61.7007C938.005 63.7202 942.133 64.711 946.648 64.711V60.711ZM936.253 58.2029C933.204 56.4882 930.804 54.0918 929.031 50.9776L925.555 52.9564C927.68 56.6889 930.599 59.6118 934.292 61.6891L936.253 58.2029ZM929.043 50.998C927.333 47.9116 926.449 44.3041 926.449 40.117H922.449C922.449 44.8833 923.461 49.1757 925.544 52.936L929.043 50.998ZM926.449 40.117C926.449 35.9391 927.356 32.339 929.11 29.2564L925.634 27.2776C923.491 31.0417 922.449 35.3415 922.449 40.117H926.449ZM929.099 29.2764C930.919 26.1637 933.364 23.7934 936.457 22.1279L934.561 18.6061C930.807 20.6272 927.828 23.5236 925.646 27.2576L929.099 29.2764ZM936.478 22.1166C939.582 20.3973 943.063 19.523 946.964 19.523V15.523C942.439 15.523 938.283 16.5447 934.54 18.6174L936.478 22.1166ZM946.964 19.523C950.865 19.523 954.346 20.3973 957.45 22.1166L959.388 18.6174C955.646 16.5447 951.49 15.523 946.964 15.523V19.523ZM957.471 22.1279C960.559 23.7909 962.974 26.1547 964.739 29.2564L968.215 27.2776C966.084 23.5326 963.126 20.6298 959.367 18.6061L957.471 22.1279ZM964.751 29.2764C966.551 32.3555 967.479 35.9484 967.479 40.117H971.479C971.479 35.3323 970.406 31.0251 968.204 27.2576L964.751 29.2764ZM967.479 40.117C967.479 44.2763 966.529 47.862 964.683 50.938L968.113 52.996C970.376 49.2253 971.479 44.9111 971.479 40.117H967.479ZM964.672 50.9576C962.854 54.0673 960.381 56.4687 957.224 58.1902L959.14 61.7018C962.936 59.6313 965.94 56.7133 968.125 52.9764L964.672 50.9576ZM957.234 58.1851C954.13 59.8566 950.616 60.711 946.648 60.711V64.711C951.212 64.711 955.388 63.7221 959.13 61.7069L957.234 58.1851ZM946.648 55.073C948.98 55.073 951.18 54.5169 953.215 53.4068L951.299 49.8952C949.859 50.6811 948.319 51.073 946.648 51.073V55.073ZM953.233 53.3969C955.381 52.1962 957.064 50.4329 958.283 48.178L954.764 46.276C953.876 47.9184 952.714 49.1045 951.282 49.9051L953.233 53.3969ZM958.283 48.178C959.53 45.8709 960.103 43.1557 960.103 40.117H956.103C956.103 42.6609 955.623 44.6858 954.764 46.276L958.283 48.178ZM960.103 40.117C960.103 35.6069 958.898 31.8419 956.199 29.1438L953.371 31.9722C955.097 33.6981 956.103 36.3057 956.103 40.117H960.103ZM956.233 29.1778C953.692 26.5129 950.507 25.161 946.806 25.161V29.161C949.425 29.161 951.56 30.0737 953.338 31.9381L956.233 29.1778ZM946.806 25.161C943.105 25.161 939.921 26.5129 937.38 29.1778L940.275 31.9381C942.052 30.0737 944.187 29.161 946.806 29.161V25.161ZM937.379 29.1787C934.806 31.8801 933.667 35.632 933.667 40.117H937.667C937.667 36.2807 938.635 33.6599 940.275 31.9373L937.379 29.1787ZM933.667 40.117C933.667 44.5932 934.775 48.3509 937.267 51.0986L940.23 48.4114C938.614 46.6298 937.667 43.9621 937.667 40.117H933.667ZM937.3 51.1343C939.798 53.7578 942.962 55.073 946.648 55.073V51.073C944.014 51.073 941.911 50.1762 940.196 48.3757L937.3 51.1343ZM988.652 3.54H990.652V1.54H988.652V3.54ZM988.652 62V64H990.652V62H988.652ZM977.592 62H975.592V64H977.592V62ZM977.592 3.54V1.54H975.592V3.54H977.592ZM986.652 3.54V62H990.652V3.54H986.652ZM988.652 60H977.592V64H988.652V60ZM979.592 62V3.54H975.592V62H979.592ZM977.592 5.54H988.652V1.54H977.592V5.54ZM1040.9 18.234H1042.9V16.234H1040.9V18.234ZM1040.9 62V64H1042.9V62H1040.9ZM1029.76 62H1027.76V64H1029.76V62ZM1029.76 56.47H1031.76V50.47L1028.16 55.27L1029.76 56.47ZM1024.15 60.973L1024.99 62.7864L1025 62.7822L1025.01 62.778L1024.15 60.973ZM1007.64 60.42L1006.66 62.165L1006.67 62.1725L1006.69 62.1798L1007.64 60.42ZM1001.4 54.021L999.621 54.9416L999.631 54.9614L999.642 54.981L1001.4 54.021ZM999.184 18.234V16.234H997.184V18.234H999.184ZM1010.24 18.234H1012.24V16.234H1010.24V18.234ZM1012.85 50.387L1011.38 51.7384L1011.39 51.7488L1011.4 51.759L1012.85 50.387ZM1027.15 50.387L1028.61 51.759L1028.62 51.7488L1028.62 51.7384L1027.15 50.387ZM1029.76 18.234V16.234H1027.76V18.234H1029.76ZM1038.9 18.234V62H1042.9V18.234H1038.9ZM1040.9 60H1029.76V64H1040.9V60ZM1031.76 62V56.47H1027.76V62H1031.76ZM1028.16 55.27C1026.95 56.8865 1025.34 58.1892 1023.29 59.168L1025.01 62.778C1027.59 61.5448 1029.73 59.8455 1031.36 57.67L1028.16 55.27ZM1023.3 59.1596C1021.32 60.0809 1019.14 60.553 1016.72 60.553V64.553C1019.68 64.553 1022.44 63.9717 1024.99 62.7864L1023.3 59.1596ZM1016.72 60.553C1013.58 60.553 1010.89 59.9031 1008.59 58.6602L1006.69 62.1798C1009.65 63.7809 1013.02 64.553 1016.72 64.553V60.553ZM1008.61 58.675C1006.33 57.394 1004.51 55.5416 1003.15 53.061L999.642 54.981C1001.34 58.0831 1003.68 60.4967 1006.66 62.165L1008.61 58.675ZM1003.17 53.1004C1001.87 50.596 1001.18 47.5545 1001.18 43.909H997.184C997.184 48.0582 997.97 51.758 999.621 54.9416L1003.17 53.1004ZM1001.18 43.909V18.234H997.184V43.909H1001.18ZM999.184 20.234H1010.24V16.234H999.184V20.234ZM1008.24 18.234V42.329H1012.24V18.234H1008.24ZM1008.24 42.329C1008.24 46.1269 1009.2 49.3603 1011.38 51.7384L1014.33 49.0356C1013.03 47.6217 1012.24 45.4831 1012.24 42.329H1008.24ZM1011.4 51.759C1013.58 54.077 1016.52 55.152 1019.96 55.152V51.152C1017.4 51.152 1015.6 50.3837 1014.31 49.015L1011.4 51.759ZM1019.96 55.152C1023.44 55.152 1026.41 54.0842 1028.61 51.759L1025.7 49.015C1024.41 50.3765 1022.59 51.152 1019.96 51.152V55.152ZM1028.62 51.7384C1030.8 49.3603 1031.76 46.1269 1031.76 42.329H1027.76C1027.76 45.4831 1026.97 47.6217 1025.68 49.0356L1028.62 51.7384ZM1031.76 42.329V18.234H1027.76V42.329H1031.76ZM1029.76 20.234H1040.9V16.234H1029.76V20.234ZM1064.69 27.319V25.319H1062.69V27.319H1064.69ZM1065.71 51.73L1064.3 53.1442L1064.35 53.1985L1064.41 53.2485L1065.71 51.73ZM1074.48 52.678H1076.48V50.678H1074.48V52.678ZM1074.48 62V64H1076.48V62H1074.48ZM1053.55 27.319H1055.55V25.319H1053.55V27.319ZM1048.33 27.319H1046.33V29.319H1048.33V27.319ZM1048.33 18.234V16.234H1046.33V18.234H1048.33ZM1053.55 18.234V20.234H1055.55V18.234H1053.55ZM1053.55 7.411V5.411H1051.55V7.411H1053.55ZM1064.69 7.411H1066.69V5.411H1064.69V7.411ZM1064.69 18.234H1062.69V20.234H1064.69V18.234ZM1074.48 18.234H1076.48V16.234H1074.48V18.234ZM1074.48 27.319V29.319H1076.48V27.319H1074.48ZM1062.69 27.319V48.491H1066.69V27.319H1062.69ZM1062.69 48.491C1062.69 50.2236 1063.08 51.9279 1064.3 53.1442L1067.13 50.3158C1066.97 50.1627 1066.69 49.7077 1066.69 48.491H1062.69ZM1064.41 53.2485C1065.7 54.3498 1067.5 54.678 1069.35 54.678V50.678C1067.82 50.678 1067.2 50.3742 1067.01 50.2115L1064.41 53.2485ZM1069.35 54.678H1074.48V50.678H1069.35V54.678ZM1072.48 52.678V62H1076.48V52.678H1072.48ZM1074.48 60H1067.53V64H1074.48V60ZM1067.53 60C1063.16 60 1060.26 58.9386 1058.44 57.1687C1056.63 55.409 1055.55 52.6183 1055.55 48.412H1051.55C1051.55 53.2644 1052.8 57.2676 1055.65 60.0373C1058.49 62.7967 1062.57 64 1067.53 64V60ZM1055.55 48.412V27.319H1051.55V48.412H1055.55ZM1053.55 25.319H1048.33V29.319H1053.55V25.319ZM1050.33 27.319V18.234H1046.33V27.319H1050.33ZM1048.33 20.234H1053.55V16.234H1048.33V20.234ZM1055.55 18.234V7.411H1051.55V18.234H1055.55ZM1053.55 9.411H1064.69V5.411H1053.55V9.411ZM1062.69 7.411V18.234H1066.69V7.411H1062.69ZM1064.69 20.234H1074.48V16.234H1064.69V20.234ZM1072.48 18.234V27.319H1076.48V18.234H1072.48ZM1074.48 25.319H1064.69V29.319H1074.48V25.319ZM1083.15 11.203L1081.73 12.6172L1081.76 12.6467L1081.79 12.6749L1083.15 11.203ZM1083.15 1.96L1084.53 3.40397L1084.53 3.40277L1083.15 1.96ZM1092.86 1.96L1091.45 3.37421L1091.48 3.40366L1091.51 3.43186L1092.86 1.96ZM1092.86 11.203L1094.25 12.647L1094.25 12.6458L1092.86 11.203ZM1093.5 18.234H1095.5V16.234H1093.5V18.234ZM1093.5 62V64H1095.5V62H1093.5ZM1082.44 62H1080.44V64H1082.44V62ZM1082.44 18.234V16.234H1080.44V18.234H1082.44ZM1088.05 11.02C1086.55 11.02 1085.42 10.5713 1084.5 9.73114L1081.79 12.6749C1083.51 14.2574 1085.64 15.02 1088.05 15.02V11.02ZM1084.56 9.78879C1083.69 8.91274 1083.25 7.8734 1083.25 6.542H1079.25C1079.25 8.89726 1080.08 10.9653 1081.73 12.6172L1084.56 9.78879ZM1083.25 6.542C1083.25 5.21157 1083.68 4.21631 1084.53 3.40397L1081.76 0.516018C1080.08 2.12635 1079.25 4.18576 1079.25 6.542H1083.25ZM1084.53 3.40277C1085.45 2.5221 1086.58 2.064 1088.05 2.064V-1.936C1085.62 -1.936 1083.48 -1.13011 1081.76 0.51722L1084.53 3.40277ZM1088.05 2.064C1089.52 2.064 1090.6 2.52094 1091.45 3.37421L1094.28 0.54578C1092.6 -1.12895 1090.47 -1.936 1088.05 -1.936V2.064ZM1091.51 3.43186C1092.4 4.25166 1092.84 5.2388 1092.84 6.542H1096.84C1096.84 4.15852 1095.96 2.091 1094.22 0.488132L1091.51 3.43186ZM1092.84 6.542C1092.84 7.84687 1092.4 8.87759 1091.48 9.76023L1094.25 12.6458C1095.96 11.0004 1096.84 8.92379 1096.84 6.542H1092.84ZM1091.48 9.75902C1090.63 10.5719 1089.54 11.02 1088.05 11.02V15.02C1090.45 15.02 1092.57 14.2567 1094.25 12.647L1091.48 9.75902ZM1091.5 18.234V62H1095.5V18.234H1091.5ZM1093.5 60H1082.44V64H1093.5V60ZM1084.44 62V18.234H1080.44V62H1084.44ZM1082.44 20.234H1093.5V16.234H1082.44V20.234ZM1112.48 59.946L1111.5 61.6891L1111.51 61.695L1111.52 61.7007L1112.48 59.946ZM1104.5 51.967L1102.75 52.936L1102.76 52.9462L1102.77 52.9564L1104.5 51.967ZM1104.58 28.267L1102.86 27.2576L1102.85 27.2676L1102.84 27.2776L1104.58 28.267ZM1112.72 20.367L1113.67 22.1279L1113.68 22.1223L1113.69 22.1166L1112.72 20.367ZM1135.63 20.367L1134.66 22.1166L1134.67 22.1223L1134.68 22.1279L1135.63 20.367ZM1143.69 28.267L1141.95 29.2564L1141.95 29.2664L1141.96 29.2764L1143.69 28.267ZM1143.61 51.967L1141.89 50.938L1141.89 50.9478L1141.88 50.9576L1143.61 51.967ZM1135.39 59.946L1136.34 61.707L1136.35 61.7018L1135.39 59.946ZM1129.47 51.651L1130.42 53.4068L1130.43 53.4019L1130.44 53.3969L1129.47 51.651ZM1133.73 47.227L1135.49 48.178L1133.73 47.227ZM1132 30.558L1130.55 31.9381L1130.56 31.9554L1130.58 31.9722L1132 30.558ZM1116.04 30.558L1114.59 29.1778L1114.59 29.1787L1116.04 30.558ZM1115.96 49.755L1114.48 51.0986L1114.49 51.1167L1114.51 51.1343L1115.96 49.755ZM1123.86 60.711C1119.95 60.711 1116.49 59.8585 1113.44 58.1913L1111.52 61.7007C1115.22 63.7202 1119.34 64.711 1123.86 64.711V60.711ZM1113.46 58.2029C1110.41 56.4882 1108.01 54.0918 1106.24 50.9776L1102.77 52.9564C1104.89 56.6889 1107.81 59.6118 1111.5 61.6891L1113.46 58.2029ZM1106.25 50.998C1104.54 47.9116 1103.66 44.3041 1103.66 40.117H1099.66C1099.66 44.8833 1100.67 49.1757 1102.75 52.936L1106.25 50.998ZM1103.66 40.117C1103.66 35.9391 1104.57 32.339 1106.32 29.2564L1102.84 27.2776C1100.7 31.0417 1099.66 35.3415 1099.66 40.117H1103.66ZM1106.31 29.2764C1108.13 26.1637 1110.57 23.7934 1113.67 22.1279L1111.77 18.6061C1108.02 20.6272 1105.04 23.5236 1102.86 27.2576L1106.31 29.2764ZM1113.69 22.1166C1116.79 20.3973 1120.27 19.523 1124.17 19.523V15.523C1119.65 15.523 1115.49 16.5447 1111.75 18.6174L1113.69 22.1166ZM1124.17 19.523C1128.08 19.523 1131.56 20.3973 1134.66 22.1166L1136.6 18.6174C1132.86 16.5447 1128.7 15.523 1124.17 15.523V19.523ZM1134.68 22.1279C1137.77 23.7909 1140.18 26.1547 1141.95 29.2564L1145.43 27.2776C1143.29 23.5326 1140.34 20.6298 1136.58 18.6061L1134.68 22.1279ZM1141.96 29.2764C1143.76 32.3555 1144.69 35.9484 1144.69 40.117H1148.69C1148.69 35.3323 1147.62 31.0251 1145.41 27.2576L1141.96 29.2764ZM1144.69 40.117C1144.69 44.2763 1143.74 47.862 1141.89 50.938L1145.32 52.996C1147.59 49.2253 1148.69 44.9111 1148.69 40.117H1144.69ZM1141.88 50.9576C1140.06 54.0673 1137.59 56.4687 1134.43 58.1902L1136.35 61.7018C1140.15 59.6313 1143.15 56.7133 1145.33 52.9764L1141.88 50.9576ZM1134.44 58.1851C1131.34 59.8566 1127.83 60.711 1123.86 60.711V64.711C1128.42 64.711 1132.6 63.7221 1136.34 61.7069L1134.44 58.1851ZM1123.86 55.073C1126.19 55.073 1128.39 54.5169 1130.42 53.4068L1128.51 49.8952C1127.07 50.6811 1125.53 51.073 1123.86 51.073V55.073ZM1130.44 53.3969C1132.59 52.1962 1134.27 50.4329 1135.49 48.178L1131.97 46.276C1131.09 47.9184 1129.92 49.1045 1128.49 49.9051L1130.44 53.3969ZM1135.49 48.178C1136.74 45.8709 1137.31 43.1557 1137.31 40.117H1133.31C1133.31 42.6609 1132.83 44.6858 1131.97 46.276L1135.49 48.178ZM1137.31 40.117C1137.31 35.6069 1136.11 31.8419 1133.41 29.1438L1130.58 31.9722C1132.31 33.6981 1133.31 36.3057 1133.31 40.117H1137.31ZM1133.44 29.1778C1130.9 26.5129 1127.72 25.161 1124.02 25.161V29.161C1126.64 29.161 1128.77 30.0737 1130.55 31.9381L1133.44 29.1778ZM1124.02 25.161C1120.32 25.161 1117.13 26.5129 1114.59 29.1778L1117.48 31.9381C1119.26 30.0737 1121.4 29.161 1124.02 29.161V25.161ZM1114.59 29.1787C1112.02 31.8801 1110.88 35.632 1110.88 40.117H1114.88C1114.88 36.2807 1115.84 33.6599 1117.49 31.9373L1114.59 29.1787ZM1110.88 40.117C1110.88 44.5932 1111.98 48.3509 1114.48 51.0986L1117.44 48.4114C1115.82 46.6298 1114.88 43.9621 1114.88 40.117H1110.88ZM1114.51 51.1343C1117.01 53.7578 1120.17 55.073 1123.86 55.073V51.073C1121.22 51.073 1119.12 50.1762 1117.41 48.3757L1114.51 51.1343ZM1191.7 22.579L1190.26 23.9702L1190.26 23.976L1190.27 23.9817L1191.7 22.579ZM1196.51 62V64H1198.51V62H1196.51ZM1185.45 62H1183.45V64H1185.45V62ZM1182.85 29.847L1181.37 31.1984L1181.38 31.2088L1181.39 31.219L1182.85 29.847ZM1168.47 29.847L1167.02 28.4738L1167.01 28.475L1168.47 29.847ZM1165.86 62V64H1167.86V62H1165.86ZM1154.8 62H1152.8V64H1154.8V62ZM1154.8 18.234V16.234H1152.8V18.234H1154.8ZM1165.86 18.234H1167.86V16.234H1165.86V18.234ZM1165.86 23.685H1163.86V29.5141L1167.44 24.9129L1165.86 23.685ZM1171.47 19.261L1172.31 21.0744L1172.32 21.0702L1172.33 21.066L1171.47 19.261ZM1179.06 19.602C1183.8 19.602 1187.47 21.0931 1190.26 23.9702L1193.13 21.1878C1189.49 17.4289 1184.73 15.602 1179.06 15.602V19.602ZM1190.27 23.9817C1193.02 26.7739 1194.51 30.7936 1194.51 36.325H1198.51C1198.51 30.059 1196.8 24.9147 1193.12 21.1763L1190.27 23.9817ZM1194.51 36.325V62H1198.51V36.325H1194.51ZM1196.51 60H1185.45V64H1196.51V60ZM1187.45 62V37.826H1183.45V62H1187.45ZM1187.45 37.826C1187.45 34.0322 1186.5 30.809 1184.3 28.475L1181.39 31.219C1182.67 32.5716 1183.45 34.6678 1183.45 37.826H1187.45ZM1184.32 28.4956C1182.14 26.1163 1179.2 25.003 1175.74 25.003V29.003C1178.28 29.003 1180.08 29.7857 1181.37 31.1984L1184.32 28.4956ZM1175.74 25.003C1172.23 25.003 1169.25 26.1088 1167.02 28.4738L1169.92 31.2202C1171.27 29.7932 1173.13 29.003 1175.74 29.003V25.003ZM1167.01 28.475C1164.81 30.809 1163.86 34.0322 1163.86 37.826H1167.86C1167.86 34.6678 1168.65 32.5716 1169.92 31.219L1167.01 28.475ZM1163.86 37.826V62H1167.86V37.826H1163.86ZM1165.86 60H1154.8V64H1165.86V60ZM1156.8 62V18.234H1152.8V62H1156.8ZM1154.8 20.234H1165.86V16.234H1154.8V20.234ZM1163.86 18.234V23.685H1167.86V18.234H1163.86ZM1167.44 24.9129C1168.71 23.2778 1170.33 21.9993 1172.31 21.0744L1170.63 17.4476C1168.09 18.6294 1165.96 20.3002 1164.28 22.4571L1167.44 24.9129ZM1172.33 21.066C1174.36 20.0968 1176.59 19.602 1179.06 19.602V15.602C1176.04 15.602 1173.21 16.2132 1170.61 17.456L1172.33 21.066ZM1214.14 60.815L1213.3 62.6299L1213.32 62.6364L1213.33 62.6426L1214.14 60.815ZM1207.35 55.522L1205.74 56.7097L1205.75 56.722L1205.76 56.7341L1207.35 55.522ZM1204.66 48.175V46.175H1202.54L1202.67 48.2924L1204.66 48.175ZM1215.8 48.175L1217.79 47.9269L1217.57 46.175H1215.8V48.175ZM1218.25 52.362L1217.02 53.9407L1217.04 53.9515L1217.05 53.962L1218.25 52.362ZM1228.6 52.757L1227.46 51.1152L1227.44 51.1272L1227.42 51.1395L1228.6 52.757ZM1228.2 46.358L1227.28 48.1335L1227.32 48.1536L1227.36 48.172L1228.2 46.358ZM1221.33 43.988L1221.85 42.0555L1221.82 42.0495L1221.8 42.0441L1221.33 43.988ZM1213.27 41.539L1212.51 43.3893L1212.52 43.3927L1212.53 43.396L1213.27 41.539ZM1207.9 37.668L1206.38 38.962L1206.39 38.9752L1206.4 38.9882L1207.9 37.668ZM1207.74 24.001L1206.11 22.8426L1206.1 22.857L1206.09 22.8716L1207.74 24.001ZM1213.75 19.261L1212.94 17.4304L1212.93 17.4334L1212.93 17.4365L1213.75 19.261ZM1235.47 21.473L1234.18 22.9988L1234.19 23.0052L1234.19 23.0116L1235.47 21.473ZM1240.61 31.98V33.98H1242.75L1242.6 31.8375L1240.61 31.98ZM1230.02 31.98L1228.03 32.1611L1228.19 33.98H1230.02V31.98ZM1227.81 27.872L1226.53 29.4084L1226.56 29.4372L1226.6 29.4643L1227.81 27.872ZM1218.01 27.398L1216.9 25.7339L1216.88 25.7465L1216.87 25.7595L1218.01 27.398ZM1218.64 33.876L1217.7 35.639L1217.72 35.6523L1217.75 35.6649L1218.64 33.876ZM1225.52 36.167L1225.02 38.1054L1225.03 38.1073L1225.52 36.167ZM1233.34 38.616L1232.58 40.4663L1233.34 38.616ZM1238.63 42.566L1237.09 43.8374L1237.11 43.8622L1237.13 43.8862L1238.63 42.566ZM1241 49.518H1243V49.4998L1243 49.4816L1241 49.518ZM1238.87 56.312L1237.24 55.1536L1237.23 55.168L1237.22 55.1826L1238.87 56.312ZM1232.86 61.052L1233.65 62.8903L1233.66 62.8865L1233.67 62.8826L1232.86 61.052ZM1223.78 60.711C1220.44 60.711 1217.51 60.1218 1214.95 58.9874L1213.33 62.6426C1216.46 64.0362 1219.96 64.711 1223.78 64.711V60.711ZM1214.98 59.0001C1212.4 57.8026 1210.4 56.2315 1208.94 54.3099L1205.76 56.7341C1207.66 59.2365 1210.2 61.194 1213.3 62.6299L1214.98 59.0001ZM1208.96 54.3343C1207.55 52.4268 1206.79 50.348 1206.66 48.0576L1202.67 48.2924C1202.85 51.374 1203.88 54.1932 1205.74 56.7097L1208.96 54.3343ZM1204.66 50.175H1215.8V46.175H1204.66V50.175ZM1213.82 48.4231C1214.1 50.6691 1215.21 52.531 1217.02 53.9407L1219.48 50.7833C1218.45 49.981 1217.93 49.0515 1217.79 47.9269L1213.82 48.4231ZM1217.05 53.962C1218.93 55.3703 1221.19 56.021 1223.7 56.021V52.021C1221.9 52.021 1220.52 51.5657 1219.45 50.762L1217.05 53.962ZM1223.7 56.021C1226.04 56.021 1228.15 55.558 1229.77 54.3745L1227.42 51.1395C1226.73 51.6413 1225.57 52.021 1223.7 52.021V56.021ZM1229.74 54.3988C1231.41 53.2348 1232.42 51.5763 1232.42 49.518H1228.42C1228.42 50.0931 1228.21 50.5939 1227.46 51.1152L1229.74 54.3988ZM1232.42 49.518C1232.42 48.4421 1232.13 47.4128 1231.5 46.5146C1230.88 45.6324 1230.02 44.996 1229.05 44.544L1227.36 48.172C1227.86 48.4046 1228.1 48.6372 1228.22 48.8084C1228.33 48.9635 1228.42 49.1719 1228.42 49.518H1232.42ZM1229.12 44.5825C1227.5 43.74 1225.03 42.9054 1221.85 42.0555L1220.82 45.9205C1223.95 46.756 1226.06 47.5014 1227.28 48.1335L1229.12 44.5825ZM1221.8 42.0441C1218.59 41.267 1216 40.4768 1214.02 39.682L1212.53 43.396C1214.76 44.2865 1217.54 45.129 1220.86 45.9319L1221.8 42.0441ZM1214.03 39.6887C1212.28 38.968 1210.74 37.8642 1209.4 36.3478L1206.4 38.9882C1208.12 40.9478 1210.16 42.4246 1212.51 43.3893L1214.03 39.6887ZM1209.43 36.374C1208.34 35.0927 1207.69 33.2544 1207.69 30.637H1203.69C1203.69 33.9183 1204.51 36.7673 1206.38 38.962L1209.43 36.374ZM1207.69 30.637C1207.69 28.6178 1208.25 26.7994 1209.39 25.1304L1206.09 22.8716C1204.5 25.2053 1203.69 27.8109 1203.69 30.637H1207.69ZM1209.37 25.1594C1210.56 23.4902 1212.26 22.1209 1214.57 21.0855L1212.93 17.4365C1210.07 18.7184 1207.77 20.5092 1206.11 22.8426L1209.37 25.1594ZM1214.55 21.0916C1216.88 20.0669 1219.68 19.523 1222.99 19.523V15.523C1219.24 15.523 1215.88 16.1377 1212.94 17.4304L1214.55 21.0916ZM1222.99 19.523C1227.87 19.523 1231.52 20.7492 1234.18 22.9988L1236.76 19.9472C1233.2 16.9301 1228.54 15.523 1222.99 15.523V19.523ZM1234.19 23.0116C1236.84 25.208 1238.33 28.1831 1238.61 32.1225L1242.6 31.8375C1242.25 26.9289 1240.32 22.8994 1236.75 19.9344L1234.19 23.0116ZM1240.61 29.98H1230.02V33.98H1240.61V29.98ZM1232.01 31.7989C1231.81 29.5365 1230.81 27.6408 1229.02 26.2797L1226.6 29.4643C1227.44 30.1046 1227.92 30.9475 1228.03 32.1611L1232.01 31.7989ZM1229.09 26.3356C1227.37 24.9 1225.15 24.292 1222.67 24.292V28.292C1224.51 28.292 1225.72 28.7373 1226.53 29.4084L1229.09 26.3356ZM1222.67 24.292C1220.46 24.292 1218.46 24.6928 1216.9 25.7339L1219.12 29.0621C1219.77 28.6285 1220.88 28.292 1222.67 28.292V24.292ZM1216.87 25.7595C1215.26 26.8817 1214.43 28.5284 1214.43 30.479H1218.43C1218.43 29.7963 1218.66 29.3889 1219.16 29.0365L1216.87 25.7595ZM1214.43 30.479C1214.43 31.567 1214.71 32.6051 1215.31 33.5256C1215.9 34.4331 1216.74 35.1225 1217.7 35.639L1219.59 32.113C1219.08 31.8395 1218.81 31.5677 1218.66 31.3429C1218.52 31.131 1218.43 30.8657 1218.43 30.479H1214.43ZM1217.75 35.6649C1219.42 36.5011 1221.88 37.3065 1225.02 38.1053L1226.01 34.2287C1222.94 33.4475 1220.82 32.7256 1219.54 32.0871L1217.75 35.6649ZM1225.03 38.1073C1228.14 38.8837 1230.65 39.6728 1232.58 40.4663L1234.1 36.7657C1231.92 35.8739 1229.22 35.0303 1226 34.2267L1225.03 38.1073ZM1232.58 40.4663C1234.31 41.178 1235.81 42.2897 1237.09 43.8374L1240.18 41.2946C1238.5 39.261 1236.47 37.7393 1234.1 36.7657L1232.58 40.4663ZM1237.13 43.8862C1238.27 45.186 1238.96 47.008 1239 49.5544L1243 49.4816C1242.94 46.2346 1242.05 43.422 1240.13 41.2458L1237.13 43.8862ZM1239 49.518C1239 51.644 1238.41 53.5012 1237.24 55.1536L1240.5 57.4704C1242.17 55.1201 1243 52.448 1243 49.518H1239ZM1237.22 55.1826C1236.1 56.8226 1234.42 58.1847 1232.06 59.2214L1233.67 62.8826C1236.58 61.602 1238.9 59.8041 1240.52 57.4414L1237.22 55.1826ZM1232.08 59.2137C1229.8 60.1909 1227.05 60.711 1223.78 60.711V64.711C1227.46 64.711 1230.77 64.1251 1233.65 62.8903L1232.08 59.2137Z" fill="#D10000"/>
</svg>
