<svg width="9" height="10" viewBox="0 0 9 10" fill="none" xmlns="http://www.w3.org/2000/svg">
<path d="M8.24414 4.52118L6.65859 5.90493L7.13355 7.96508C7.15868 8.07278 7.15151 8.1855 7.11293 8.28915C7.07435 8.39279 7.00607 8.48276 6.91664 8.54782C6.8272 8.61287 6.72057 8.65011 6.61008 8.65489C6.49959 8.65967 6.39015 8.63178 6.29543 8.57469L4.49859 7.48485L2.70562 8.57469C2.6109 8.63178 2.50145 8.65967 2.39096 8.65489C2.28047 8.65011 2.17384 8.61287 2.08441 8.54782C1.99497 8.48276 1.92669 8.39279 1.88811 8.28915C1.84953 8.1855 1.84236 8.07278 1.8675 7.96508L2.34175 5.90704L0.755855 4.52118C0.671975 4.44883 0.611321 4.35334 0.5815 4.24666C0.551678 4.13998 0.554016 4.02687 0.58822 3.92152C0.622424 3.81617 0.686973 3.72326 0.77377 3.65444C0.860567 3.58563 0.96575 3.54397 1.07613 3.53469L3.16652 3.35364L3.9825 1.40739C4.02511 1.30527 4.09698 1.21803 4.18907 1.15667C4.28116 1.09532 4.38934 1.06258 4.5 1.06258C4.61065 1.06258 4.71884 1.09532 4.81092 1.15667C4.90301 1.21803 4.97488 1.30527 5.0175 1.40739L5.83593 3.35364L7.92562 3.53469C8.036 3.54397 8.14118 3.58563 8.22798 3.65444C8.31478 3.72326 8.37932 3.81617 8.41353 3.92152C8.44773 4.02687 8.45007 4.13998 8.42025 4.24666C8.39043 4.35334 8.32977 4.44883 8.24589 4.52118H8.24414Z" fill="#E09808"/>
</svg>
