<svg width="1194" height="112" viewBox="0 0 1194 112" fill="none" xmlns="http://www.w3.org/2000/svg">
<path d="M104.132 10.012L106.058 10.5501L106.767 8.012H104.132V10.012ZM83.4619 84V86H84.9798L85.3882 84.5381L83.4619 84ZM65.9719 84L64.038 84.5098L64.4308 86H65.9719V84ZM52.0859 31.318L54.0199 30.8082L52.1292 23.6351L50.1578 30.7865L52.0859 31.318ZM37.5639 84L37.5761 86L39.0898 85.9907L39.492 84.5315L37.5639 84ZM20.1799 84.106L18.2486 84.6255L18.6493 86.1154L20.1921 86.106L20.1799 84.106ZM0.251923 10.012V8.012H-2.35706L-1.67944 10.5314L0.251923 10.012ZM16.1519 10.012L18.1023 9.56938L17.7489 8.012H16.1519V10.012ZM29.1899 67.464L27.2395 67.9066L31.1246 67.9709L29.1899 67.464ZM44.2419 10.012V8.012H42.6984L42.3072 9.50512L44.2419 10.012ZM60.7779 10.012L62.7188 9.52947L62.3416 8.012H60.7779V10.012ZM74.9819 67.146L73.041 67.6285L76.931 67.5944L74.9819 67.146ZM88.1259 10.012V8.012H86.5338L86.1768 9.5636L88.1259 10.012ZM102.206 9.47387L81.5357 83.4619L85.3882 84.5381L106.058 10.5501L102.206 9.47387ZM83.4619 82H65.9719V86H83.4619V82ZM67.9059 83.4902L54.0199 30.8082L50.152 31.8278L64.038 84.5098L67.9059 83.4902ZM50.1578 30.7865L35.6358 83.4685L39.492 84.5315L54.014 31.8495L50.1578 30.7865ZM37.5517 82L20.1677 82.106L20.1921 86.106L37.5761 86L37.5517 82ZM22.1113 83.5865L2.18329 9.49255L-1.67944 10.5314L18.2486 84.6255L22.1113 83.5865ZM0.251923 12.012H16.1519V8.012H0.251923V12.012ZM14.2015 10.4546L27.2395 67.9066L31.1403 67.0214L18.1023 9.56938L14.2015 10.4546ZM31.1246 67.9709L46.1766 10.5189L42.3072 9.50512L27.2552 66.9571L31.1246 67.9709ZM44.2419 12.012H60.7779V8.012H44.2419V12.012ZM58.837 10.4945L73.041 67.6285L76.9228 66.6635L62.7188 9.52947L58.837 10.4945ZM76.931 67.5944L90.075 10.4604L86.1768 9.5636L73.0328 66.6976L76.931 67.5944ZM88.1259 12.012H104.132V8.012H88.1259V12.012ZM158.766 27.396L157.774 29.1325L157.787 29.1402L157.801 29.1477L158.766 27.396ZM166.822 35.982L165.033 36.8764L165.043 36.8964L165.053 36.9162L166.822 35.982ZM169.79 84V86H171.79V84H169.79ZM154.95 84H152.95V86H154.95V84ZM151.452 40.858L149.978 42.2094L149.987 42.2198L149.997 42.23L151.452 40.858ZM132.16 40.858L130.706 39.4847L130.705 39.486L132.16 40.858ZM128.662 84V86H130.662V84H128.662ZM113.822 84H111.822V86H113.822V84ZM113.822 5.56V3.56H111.822V5.56H113.822ZM128.662 5.56H130.662V3.56H128.662V5.56ZM128.662 32.59H126.662V38.59L130.262 33.79L128.662 32.59ZM136.294 26.654L137.106 28.4816L137.123 28.4741L137.14 28.4664L136.294 26.654ZM146.894 26.428C151.039 26.428 154.647 27.3459 157.774 29.1325L159.758 25.6595C155.959 23.4887 151.652 22.428 146.894 22.428V26.428ZM157.801 29.1477C160.88 30.8443 163.291 33.3929 165.033 36.8764L168.611 35.0876C166.536 30.9391 163.577 27.7636 159.731 25.6443L157.801 29.1477ZM165.053 36.9162C166.846 40.3102 167.79 44.4954 167.79 49.55H171.79C171.79 44.0046 170.754 39.1444 168.59 35.0478L165.053 36.9162ZM167.79 49.55V84H171.79V49.55H167.79ZM169.79 82H154.95V86H169.79V82ZM156.95 84V51.564H152.95V84H156.95ZM156.95 51.564C156.95 46.5822 155.702 42.45 152.907 39.486L149.997 42.23C151.866 44.2126 152.95 47.2178 152.95 51.564H156.95ZM152.926 39.5066C150.151 36.4793 146.398 35.042 141.912 35.042V39.042C145.482 39.042 148.089 40.1487 149.978 42.2094L152.926 39.5066ZM141.912 35.042C137.365 35.042 133.551 36.4718 130.706 39.4847L133.614 42.2312C135.574 40.1562 138.261 39.042 141.912 39.042V35.042ZM130.705 39.486C127.91 42.45 126.662 46.5822 126.662 51.564H130.662C130.662 47.2178 131.746 44.2126 133.615 42.23L130.705 39.486ZM126.662 51.564V84H130.662V51.564H126.662ZM128.662 82H113.822V86H128.662V82ZM115.822 84V5.56H111.822V84H115.822ZM113.822 7.56H128.662V3.56H113.822V7.56ZM126.662 5.56V32.59H130.662V5.56H126.662ZM130.262 33.79C131.946 31.5442 134.208 29.7698 137.106 28.4816L135.482 24.8264C132.02 26.3649 129.193 28.5478 127.062 31.39L130.262 33.79ZM137.14 28.4664C140.027 27.1187 143.268 26.428 146.894 26.428V22.428C142.747 22.428 138.92 23.2213 135.448 24.8416L137.14 28.4664ZM240.082 25.276L241.926 26.051L243.092 23.276H240.082V25.276ZM203.724 111.772V113.772H205.053L205.568 112.547L203.724 111.772ZM187.93 111.772L186.096 110.975L184.879 113.772H187.93V111.772ZM200.65 82.516L202.484 83.3135L202.821 82.5378L202.5 81.7555L200.65 82.516ZM177.118 25.276V23.276H174.133L175.268 26.0365L177.118 25.276ZM193.76 25.276L195.636 24.5828L195.153 23.276H193.76V25.276ZM208.918 66.298L207.042 66.9912L208.905 72.0331L210.791 66.9997L208.918 66.298ZM224.288 25.276V23.276H222.901L222.415 24.5743L224.288 25.276ZM238.238 24.501L201.88 110.997L205.568 112.547L241.926 26.051L238.238 24.501ZM203.724 109.772H187.93V113.772H203.724V109.772ZM189.764 112.569L202.484 83.3135L198.816 81.7185L186.096 110.975L189.764 112.569ZM202.5 81.7555L178.968 24.5155L175.268 26.0365L198.8 83.2765L202.5 81.7555ZM177.118 27.276H193.76V23.276H177.118V27.276ZM191.884 25.9692L207.042 66.9912L210.794 65.6048L195.636 24.5828L191.884 25.9692ZM210.791 66.9997L226.161 25.9777L222.415 24.5743L207.045 65.5963L210.791 66.9997ZM224.288 27.276H240.082V23.276H224.288V27.276ZM274.611 27.396L272.876 26.4014L272.872 26.4083L274.611 27.396ZM288.073 13.934L289.054 15.6772L289.061 15.6731L288.073 13.934ZM328.989 15.418L327.863 17.0705L328.989 15.418ZM342.027 33.014V35.014H344.794L343.927 32.3869L342.027 33.014ZM324.961 33.014L323.158 33.8795L323.703 35.014H324.961V33.014ZM317.753 25.064L316.748 26.793L316.757 26.798L316.765 26.8029L317.753 25.064ZM295.599 25.488L296.623 27.2062L296.634 27.1998L295.599 25.488ZM287.755 33.968L285.98 33.0464L285.973 33.0599L285.967 33.0736L287.755 33.968ZM287.755 59.832L285.96 60.7128L285.97 60.7334L285.98 60.7536L287.755 59.832ZM295.599 68.418L294.549 70.1201L294.57 70.1331L294.592 70.1456L295.599 68.418ZM317.753 68.736L318.759 70.465L318.765 70.4615L318.771 70.4579L317.753 68.736ZM324.961 60.68V58.68H323.703L323.158 59.8145L324.961 60.68ZM342.027 60.68L343.928 61.3018L344.786 58.68H342.027V60.68ZM328.989 78.382L330.112 80.0373L330.116 80.0345L328.989 78.382ZM288.073 79.866L287.076 81.5998L287.089 81.6072L287.102 81.6143L288.073 79.866ZM274.611 66.404L272.872 67.3916L272.877 67.3997L272.882 67.4078L274.611 66.404ZM271.735 46.9C271.735 39.9301 273.288 33.7756 276.351 28.3836L272.872 26.4083C269.433 32.4644 267.735 39.3126 267.735 46.9H271.735ZM276.347 28.3905C279.494 22.8992 283.725 18.6748 289.054 15.6772L287.093 12.1908C281.115 15.5532 276.371 20.3035 272.876 26.4014L276.347 28.3905ZM289.061 15.6731C294.462 12.606 300.513 11.058 307.259 11.058V7.058C299.873 7.058 293.133 8.76069 287.086 12.1949L289.061 15.6731ZM307.259 11.058C315.167 11.058 322.009 13.0791 327.863 17.0705L330.116 13.7655C323.533 9.27688 315.888 7.058 307.259 7.058V11.058ZM327.863 17.0705C333.7 21.0504 337.786 26.5463 340.128 33.6411L343.927 32.3869C341.323 24.5004 336.716 18.2656 330.116 13.7655L327.863 17.0705ZM342.027 31.014H324.961V35.014H342.027V31.014ZM326.764 32.1485C324.91 28.2847 322.239 25.3124 318.741 23.3251L316.765 26.8029C319.486 28.3489 321.621 30.6766 323.158 33.8795L326.764 32.1485ZM318.759 23.335C315.372 21.3662 311.482 20.414 307.153 20.414V24.414C310.881 24.414 314.057 25.2284 316.748 26.793L318.759 23.335ZM307.153 20.414C302.511 20.414 298.296 21.5219 294.565 23.7762L296.634 27.1998C299.686 25.3554 303.174 24.414 307.153 24.414V20.414ZM294.576 23.7698C290.912 25.9525 288.047 29.0659 285.98 33.0464L289.53 34.8896C291.28 31.5208 293.644 28.9808 296.623 27.2062L294.576 23.7698ZM285.967 33.0736C283.965 37.077 282.999 41.7055 282.999 46.9H286.999C286.999 42.2012 287.871 38.2083 289.544 34.8624L285.967 33.0736ZM282.999 46.9C282.999 52.03 283.967 56.6507 285.96 60.7128L289.551 58.9511C287.869 55.5226 286.999 51.522 286.999 46.9H282.999ZM285.98 60.7536C288.044 64.7288 290.901 67.8692 294.549 70.1201L296.65 66.7159C293.655 64.8681 291.282 62.2845 289.53 58.9104L285.98 60.7536ZM294.592 70.1456C298.319 72.3198 302.524 73.386 307.153 73.386V69.386C303.161 69.386 299.664 68.4736 296.607 66.6904L294.592 70.1456ZM307.153 73.386C311.482 73.386 315.372 72.4338 318.759 70.465L316.748 67.007C314.057 68.5716 310.881 69.386 307.153 69.386V73.386ZM318.771 70.4579C322.25 68.4019 324.912 65.4039 326.764 61.5455L323.158 59.8145C321.618 63.0227 319.475 65.3955 316.736 67.0141L318.771 70.4579ZM324.961 62.68H342.027V58.68H324.961V62.68ZM340.126 60.0582C337.782 67.2256 333.695 72.753 327.863 76.7295L330.116 80.0345C336.721 75.531 341.326 69.2571 343.928 61.3018L340.126 60.0582ZM327.867 76.7267C322.09 80.6445 315.249 82.636 307.259 82.636V86.636C315.947 86.636 323.593 84.4582 330.112 80.0373L327.867 76.7267ZM307.259 82.636C300.505 82.636 294.448 81.1197 289.045 78.1177L287.102 81.6143C293.147 84.9723 299.881 86.636 307.259 86.636V82.636ZM289.07 78.1322C283.726 75.0591 279.489 70.8255 276.341 65.4002L272.882 67.4078C276.376 73.4305 281.114 78.1716 287.076 81.5998L289.07 78.1322ZM276.351 65.4164C273.288 60.0244 271.735 53.8699 271.735 46.9H267.735C267.735 54.4874 269.433 61.3356 272.872 67.3916L276.351 65.4164ZM399.647 27.396L398.654 29.1325L398.668 29.1402L398.681 29.1477L399.647 27.396ZM407.703 35.982L405.914 36.8764L405.924 36.8964L405.934 36.9162L407.703 35.982ZM410.671 84V86H412.671V84H410.671ZM395.831 84H393.831V86H395.831V84ZM392.333 40.858L390.858 42.2094L390.868 42.2198L390.878 42.23L392.333 40.858ZM373.041 40.858L371.587 39.4847L371.585 39.486L373.041 40.858ZM369.543 84V86H371.543V84H369.543ZM354.703 84H352.703V86H354.703V84ZM354.703 5.56V3.56H352.703V5.56H354.703ZM369.543 5.56H371.543V3.56H369.543V5.56ZM369.543 32.59H367.543V38.59L371.143 33.79L369.543 32.59ZM377.175 26.654L377.987 28.4816L378.004 28.4741L378.02 28.4664L377.175 26.654ZM387.775 26.428C391.92 26.428 395.528 27.3459 398.654 29.1325L400.639 25.6595C396.84 23.4887 392.533 22.428 387.775 22.428V26.428ZM398.681 29.1477C401.761 30.8443 404.172 33.3929 405.914 36.8764L409.492 35.0876C407.417 30.9391 404.458 27.7636 400.612 25.6443L398.681 29.1477ZM405.934 36.9162C407.727 40.3102 408.671 44.4954 408.671 49.55H412.671C412.671 44.0046 411.635 39.1444 409.471 35.0478L405.934 36.9162ZM408.671 49.55V84H412.671V49.55H408.671ZM410.671 82H395.831V86H410.671V82ZM397.831 84V51.564H393.831V84H397.831ZM397.831 51.564C397.831 46.5822 396.583 42.45 393.788 39.486L390.878 42.23C392.747 44.2126 393.831 47.2178 393.831 51.564H397.831ZM393.807 39.5066C391.032 36.4793 387.279 35.042 382.793 35.042V39.042C386.363 39.042 388.969 40.1487 390.858 42.2094L393.807 39.5066ZM382.793 35.042C378.246 35.042 374.432 36.4718 371.587 39.4847L374.495 42.2312C376.454 40.1562 379.142 39.042 382.793 39.042V35.042ZM371.585 39.486C368.791 42.45 367.543 46.5822 367.543 51.564H371.543C371.543 47.2178 372.627 44.2126 374.496 42.23L371.585 39.486ZM367.543 51.564V84H371.543V51.564H367.543ZM369.543 82H354.703V86H369.543V82ZM356.703 84V5.56H352.703V84H356.703ZM354.703 7.56H369.543V3.56H354.703V7.56ZM367.543 5.56V32.59H371.543V5.56H367.543ZM371.143 33.79C372.827 31.5442 375.089 29.7698 377.987 28.4816L376.362 24.8264C372.901 26.3649 370.074 28.5478 367.943 31.39L371.143 33.79ZM378.02 28.4664C380.908 27.1187 384.149 26.428 387.775 26.428V22.428C383.627 22.428 379.801 23.2213 376.329 24.8416L378.02 28.4664ZM435.595 81.244L434.614 82.9872L434.625 82.993L434.635 82.9987L435.595 81.244ZM424.889 70.538L423.139 71.507L423.145 71.5172L423.151 71.5274L424.889 70.538ZM424.995 38.738L423.268 37.7286L423.262 37.7386L423.257 37.7486L424.995 38.738ZM435.913 28.138L436.861 29.8989L436.871 29.8933L436.882 29.8876L435.913 28.138ZM466.653 28.138L465.684 29.8876L465.694 29.8933L465.705 29.8989L466.653 28.138ZM477.465 38.738L475.727 39.7274L475.732 39.7374L475.738 39.7474L477.465 38.738ZM477.359 70.538L475.644 69.509L475.638 69.5188L475.632 69.5286L477.359 70.538ZM466.335 81.244L467.283 83.005L467.292 82.9998L466.335 81.244ZM458.385 70.114L459.342 71.8698L459.351 71.8649L459.36 71.8599L458.385 70.114ZM464.109 64.178L465.868 65.129L464.109 64.178ZM461.777 41.812L460.329 43.1921L460.346 43.2094L460.363 43.2262L461.777 41.812ZM440.365 41.812L438.917 40.4318L438.916 40.4327L440.365 41.812ZM440.259 67.57L438.777 68.9136L438.794 68.9317L438.81 68.9493L440.259 67.57ZM450.859 82.954C445.508 82.954 440.755 81.7865 436.554 79.4893L434.635 82.9987C439.48 85.6482 444.903 86.954 450.859 86.954V82.954ZM436.575 79.5008C432.375 77.1382 429.066 73.8328 426.627 69.5486L423.151 71.5274C425.941 76.4299 429.769 80.2618 434.614 82.9872L436.575 79.5008ZM426.638 69.569C424.281 65.3126 423.073 60.3551 423.073 54.638H419.073C419.073 60.9343 420.409 66.5767 423.139 71.507L426.638 69.569ZM423.073 54.638C423.073 48.9301 424.312 43.98 426.733 39.7274L423.257 37.7486C420.448 42.6827 419.073 48.3325 419.073 54.638H423.073ZM426.721 39.7474C429.225 35.4647 432.598 32.1944 436.861 29.8989L434.965 26.3771C430.041 29.0282 426.135 32.8246 423.268 37.7286L426.721 39.7474ZM436.882 29.8876C441.156 27.5203 445.942 26.322 451.283 26.322V22.322C445.317 22.322 439.856 23.6677 434.944 26.3884L436.882 29.8876ZM451.283 26.322C456.624 26.322 461.41 27.5203 465.684 29.8876L467.622 26.3884C462.709 23.6677 457.248 22.322 451.283 22.322V26.322ZM465.705 29.8989C469.963 32.1919 473.295 35.4557 475.727 39.7274L479.203 37.7486C476.405 32.8336 472.529 29.0308 467.601 26.3771L465.705 29.8989ZM475.738 39.7474C478.222 43.9965 479.493 48.9394 479.493 54.638H483.493C483.493 48.3233 482.078 42.6661 479.191 37.7286L475.738 39.7474ZM479.493 54.638C479.493 60.3273 478.191 65.263 475.644 69.509L479.074 71.567C482.038 66.6263 483.493 60.9621 483.493 54.638H479.493ZM475.632 69.5286C473.13 73.8083 469.721 77.1187 465.377 79.4882L467.292 82.9998C472.276 80.2813 476.217 76.4543 479.085 71.5474L475.632 69.5286ZM465.387 79.4831C461.112 81.7846 456.285 82.954 450.859 82.954V86.954C456.881 86.954 462.371 85.6501 467.283 83.0049L465.387 79.4831ZM450.859 74.022C453.875 74.022 456.713 73.3038 459.342 71.8698L457.427 68.3582C455.392 69.4681 453.213 70.022 450.859 70.022V74.022ZM459.36 71.8599C462.121 70.3172 464.289 68.0499 465.868 65.129L462.349 63.227C461.102 65.5354 459.454 67.2255 457.409 68.3681L459.36 71.8599ZM465.868 65.129C467.475 62.1559 468.229 58.6307 468.229 54.638H464.229C464.229 58.1359 463.569 60.9708 462.349 63.227L465.868 65.129ZM468.229 54.638C468.229 48.7059 466.645 43.8519 463.191 40.3978L460.363 43.2262C462.844 45.7081 464.229 49.4047 464.229 54.638H468.229ZM463.224 40.4318C459.945 36.9929 455.852 35.254 451.071 35.254V39.254C454.77 39.254 457.814 40.5537 460.329 43.1921L463.224 40.4318ZM451.071 35.254C446.29 35.254 442.196 36.9929 438.917 40.4318L441.812 43.1921C444.328 40.5537 447.372 39.254 451.071 39.254V35.254ZM438.916 40.4327C435.624 43.8901 434.125 48.731 434.125 54.638H438.125C438.125 49.3797 439.452 45.6699 441.813 43.1913L438.916 40.4327ZM434.125 54.638C434.125 60.5362 435.583 65.3919 438.777 68.9136L441.74 66.2264C439.422 63.6708 438.125 59.9051 438.125 54.638H434.125ZM438.81 68.9493C442.029 72.3288 446.093 74.022 450.859 74.022V70.022C447.145 70.022 444.142 68.7472 441.707 66.1907L438.81 68.9493ZM503.19 81.244L502.21 82.9872L502.22 82.993L502.231 82.9987L503.19 81.244ZM492.484 70.538L490.735 71.507L490.741 71.5172L490.746 71.5274L492.484 70.538ZM492.59 38.738L490.864 37.7286L490.858 37.7386L490.852 37.7486L492.59 38.738ZM503.508 28.138L504.457 29.8989L504.467 29.8933L504.477 29.8876L503.508 28.138ZM534.248 28.138L533.279 29.8876L533.29 29.8933L533.3 29.8989L534.248 28.138ZM545.06 38.738L543.322 39.7274L543.328 39.7374L543.334 39.7474L545.06 38.738ZM544.954 70.538L543.239 69.509L543.234 69.5188L543.228 69.5286L544.954 70.538ZM533.93 81.244L534.879 83.005L534.888 82.9998L533.93 81.244ZM525.98 70.114L526.938 71.8698L526.947 71.8649L526.956 71.8599L525.98 70.114ZM531.704 64.178L533.464 65.129L531.704 64.178ZM529.372 41.812L527.925 43.1921L527.941 43.2094L527.958 43.2262L529.372 41.812ZM507.96 41.812L506.513 40.4318L506.512 40.4327L507.96 41.812ZM507.854 67.57L506.373 68.9136L506.389 68.9317L506.406 68.9493L507.854 67.57ZM518.454 82.954C513.103 82.954 508.351 81.7865 504.15 79.4893L502.231 82.9987C507.076 85.6482 512.499 86.954 518.454 86.954V82.954ZM504.171 79.5008C499.971 77.1382 496.661 73.8328 494.223 69.5486L490.746 71.5274C493.537 76.4299 497.365 80.2618 502.21 82.9872L504.171 79.5008ZM494.234 69.569C491.877 65.3126 490.668 60.3551 490.668 54.638H486.668C486.668 60.9343 488.004 66.5767 490.735 71.507L494.234 69.569ZM490.668 54.638C490.668 48.9301 491.908 43.98 494.329 39.7274L490.852 37.7486C488.044 42.6827 486.668 48.3325 486.668 54.638H490.668ZM494.317 39.7474C496.821 35.4647 500.194 32.1944 504.457 29.8989L502.56 26.3771C497.637 29.0282 493.731 32.8246 490.864 37.7286L494.317 39.7474ZM504.477 29.8876C508.752 27.5203 513.537 26.322 518.878 26.322V22.322C512.913 22.322 507.452 23.6677 502.539 26.3884L504.477 29.8876ZM518.878 26.322C524.22 26.322 529.005 27.5203 533.279 29.8876L535.217 26.3884C530.305 23.6677 524.844 22.322 518.878 22.322V26.322ZM533.3 29.8989C537.559 32.1919 540.891 35.4557 543.322 39.7274L546.799 37.7486C544.001 32.8336 540.125 29.0308 535.197 26.3771L533.3 29.8989ZM543.334 39.7474C545.818 43.9965 547.088 48.9394 547.088 54.638H551.088C551.088 48.3233 549.674 42.6661 546.787 37.7286L543.334 39.7474ZM547.088 54.638C547.088 60.3273 545.787 65.263 543.239 69.509L546.669 71.567C549.634 66.6263 551.088 60.9621 551.088 54.638H547.088ZM543.228 69.5286C540.726 73.8083 537.317 77.1187 532.973 79.4882L534.888 82.9998C539.872 80.2813 543.812 76.4543 546.681 71.5474L543.228 69.5286ZM532.982 79.4831C528.708 81.7846 523.88 82.954 518.454 82.954V86.954C524.477 86.954 529.966 85.6501 534.879 83.0049L532.982 79.4831ZM518.454 74.022C521.471 74.022 524.309 73.3038 526.938 71.8698L525.023 68.3582C522.988 69.4681 520.809 70.022 518.454 70.022V74.022ZM526.956 71.8599C529.717 70.3172 531.885 68.0499 533.464 65.129L529.945 63.227C528.697 65.5354 527.05 67.2255 525.005 68.3681L526.956 71.8599ZM533.464 65.129C535.071 62.1559 535.824 58.6307 535.824 54.638H531.824C531.824 58.1359 531.165 60.9708 529.945 63.227L533.464 65.129ZM535.824 54.638C535.824 48.7059 534.241 43.8519 530.787 40.3978L527.958 43.2262C530.44 45.7081 531.824 49.4047 531.824 54.638H535.824ZM530.82 40.4318C527.541 36.9929 523.447 35.254 518.666 35.254V39.254C522.366 39.254 525.409 40.5537 527.925 43.1921L530.82 40.4318ZM518.666 35.254C513.886 35.254 509.792 36.9929 506.513 40.4318L509.408 43.1921C511.924 40.5537 514.967 39.254 518.666 39.254V35.254ZM506.512 40.4327C503.219 43.8901 501.72 48.731 501.72 54.638H505.72C505.72 49.3797 507.048 45.6699 509.409 43.1913L506.512 40.4327ZM501.72 54.638C501.72 60.5362 503.179 65.3919 506.373 68.9136L509.336 66.2264C507.018 63.6708 505.72 59.9051 505.72 54.638H501.72ZM506.406 68.9493C509.625 72.3288 513.688 74.022 518.454 74.022V70.022C514.741 70.022 511.737 68.7472 509.303 66.1907L506.406 68.9493ZM569.514 82.41L568.674 84.2249L568.688 84.2314L568.702 84.2376L569.514 82.41ZM560.398 75.308L558.789 76.4957L558.798 76.508L558.807 76.5201L560.398 75.308ZM556.794 65.45V63.45H554.673L554.798 65.5674L556.794 65.45ZM571.74 65.45L573.725 65.2019L573.506 63.45H571.74V65.45ZM575.026 71.068L573.798 72.6467L573.812 72.6575L573.826 72.668L575.026 71.068ZM588.912 71.598L587.77 69.9562L587.753 69.9682L587.736 69.9805L588.912 71.598ZM588.382 63.012L587.462 64.7875L587.5 64.8076L587.54 64.826L588.382 63.012ZM579.16 59.832L579.675 57.8995L579.653 57.8935L579.63 57.8881L579.16 59.832ZM568.348 56.546L567.589 58.3963L567.597 58.3997L567.605 58.403L568.348 56.546ZM561.14 51.352L559.615 52.646L559.626 52.6592L559.638 52.6722L561.14 51.352ZM560.928 33.014L559.298 31.8556L559.288 31.87L559.278 31.8846L560.928 33.014ZM568.984 26.654L568.179 24.8234L568.172 24.8264L568.165 24.8295L568.984 26.654ZM598.134 29.622L596.841 31.1478L596.849 31.1542L596.856 31.1606L598.134 29.622ZM605.024 43.72V45.72H607.172L607.019 43.5775L605.024 43.72ZM590.82 43.72L588.828 43.9011L588.994 45.72H590.82V43.72ZM587.852 38.208L586.572 39.7444L586.606 39.7732L586.642 39.8003L587.852 38.208ZM574.708 37.572L573.599 35.9079L573.58 35.9205L573.561 35.9335L574.708 37.572ZM575.556 46.264L574.612 48.027L574.637 48.0403L574.662 48.0529L575.556 46.264ZM584.778 49.338L584.285 51.2764L584.293 51.2783L584.778 49.338ZM602.374 57.924L600.83 59.1954L600.851 59.2202L600.872 59.2442L602.374 57.924ZM605.554 67.252H607.554V67.2338L607.554 67.2156L605.554 67.252ZM602.692 76.368L601.062 75.2096L601.052 75.224L601.042 75.2386L602.692 76.368ZM594.636 82.728L595.424 84.5663L595.433 84.5625L595.442 84.5586L594.636 82.728ZM582.446 82.954C577.879 82.954 573.851 82.1488 570.326 80.5824L568.702 84.2376C572.809 86.0632 577.403 86.954 582.446 86.954V82.954ZM570.354 80.5951C566.796 78.9476 564.029 76.7735 561.989 74.0959L558.807 76.5201C561.29 79.7785 564.6 82.339 568.674 84.2249L570.354 80.5951ZM562.007 74.1203C560.041 71.4568 558.979 68.541 558.791 65.3326L554.798 65.5674C555.033 69.567 556.374 73.2232 558.789 76.4957L562.007 74.1203ZM556.794 67.45H571.74V63.45H556.794V67.45ZM569.756 65.6981C570.108 68.5201 571.5 70.859 573.798 72.6467L576.254 69.4893C574.737 68.309 573.937 66.9025 573.725 65.2019L569.756 65.6981ZM573.826 72.668C576.208 74.4543 579.087 75.294 582.34 75.294V71.294C579.799 71.294 577.802 70.6497 576.226 69.468L573.826 72.668ZM582.34 75.294C585.4 75.294 588.065 74.687 590.089 73.2155L587.736 69.9805C586.65 70.7703 584.934 71.294 582.34 71.294V75.294ZM590.054 73.2398C592.142 71.7878 593.35 69.7603 593.35 67.252H589.35C589.35 68.2771 588.933 69.1469 587.77 69.9562L590.054 73.2398ZM593.35 67.252C593.35 65.9331 593.001 64.6923 592.247 63.6141C591.503 62.5519 590.45 61.767 589.224 61.198L587.54 64.826C588.293 65.1756 588.724 65.5567 588.97 65.9079C589.204 66.243 589.35 66.6629 589.35 67.252H593.35ZM589.303 61.2365C587.192 60.142 583.942 59.0374 579.675 57.8995L578.645 61.7645C582.858 62.888 585.756 63.9034 587.462 64.7875L589.303 61.2365ZM579.63 57.8881C575.302 56.841 571.798 55.7718 569.091 54.689L567.605 58.403C570.552 59.5815 574.255 60.703 578.69 61.7759L579.63 57.8881ZM569.107 54.6957C566.649 53.687 564.497 52.1422 562.643 50.0318L559.638 52.6722C561.882 55.2258 564.536 57.1436 567.589 58.3963L569.107 54.6957ZM562.665 50.058C561.074 48.1827 560.172 45.5434 560.172 41.918H556.172C556.172 46.2073 557.249 49.8573 559.615 52.646L562.665 50.058ZM560.172 41.918C560.172 39.0708 560.969 36.4964 562.579 34.1434L559.278 31.8846C557.213 34.9023 556.172 38.2639 556.172 41.918H560.172ZM562.559 34.1724C564.231 31.8192 566.615 29.9099 569.803 28.4785L568.165 24.8295C564.428 26.5074 561.442 28.8382 559.298 31.8556L562.559 34.1724ZM569.79 28.4846C573.018 27.0639 576.868 26.322 581.386 26.322V22.322C576.435 22.322 572.016 23.1347 568.179 24.8234L569.79 28.4846ZM581.386 26.322C588.044 26.322 593.125 27.9982 596.841 31.1478L599.427 28.0962C594.805 24.1791 588.72 22.322 581.386 22.322V26.322ZM596.856 31.1606C600.563 34.239 602.64 38.4111 603.029 43.8625L607.019 43.5775C606.56 37.1569 604.044 31.9304 599.412 28.0834L596.856 31.1606ZM605.024 41.72H590.82V45.72H605.024V41.72ZM592.812 43.5389C592.552 40.6825 591.303 38.3188 589.062 36.6157L586.642 39.8003C587.934 40.7826 588.664 42.0935 588.828 43.9011L592.812 43.5389ZM589.133 36.6716C586.978 34.876 584.179 34.088 580.962 34.088V38.088C583.539 38.088 585.334 38.7133 586.572 39.7444L589.133 36.6716ZM580.962 34.088C578.069 34.088 575.538 34.6148 573.599 35.9079L575.818 39.2361C576.846 38.5505 578.485 38.088 580.962 38.088V34.088ZM573.561 35.9335C571.598 37.3077 570.588 39.3054 570.588 41.706H574.588C574.588 40.5733 574.992 39.8149 575.855 39.2105L573.561 35.9335ZM570.588 41.706C570.588 43.046 570.929 44.3069 571.654 45.4208C572.371 46.5219 573.396 47.3755 574.612 48.027L576.501 44.501C575.738 44.0925 575.279 43.6565 575.006 43.2382C574.742 42.8328 574.588 42.3447 574.588 41.706H570.588ZM574.662 48.0529C576.838 49.1411 580.081 50.2075 584.285 51.2763L585.271 47.3997C581.136 46.3485 578.232 45.3656 576.451 44.4751L574.662 48.0529ZM584.293 51.2783C588.479 52.3247 591.877 53.3928 594.513 54.4743L596.031 50.7737C593.156 49.5939 589.558 48.4713 585.263 47.3977L584.293 51.2783ZM594.513 54.4743C596.95 55.474 599.052 57.0357 600.83 59.1954L603.918 56.6526C601.739 54.007 599.107 52.0353 596.031 50.7737L594.513 54.4743ZM600.872 59.2442C602.536 61.138 603.49 63.752 603.555 67.2884L607.554 67.2156C607.477 62.9786 606.311 59.374 603.876 56.6038L600.872 59.2442ZM603.554 67.252C603.554 70.242 602.722 72.8732 601.062 75.2096L604.323 77.5264C606.479 74.4921 607.554 71.046 607.554 67.252H603.554ZM601.042 75.2386C599.451 77.5626 597.087 79.4647 593.831 80.8974L595.442 84.5586C599.252 82.882 602.258 80.5441 604.343 77.4974L601.042 75.2386ZM593.848 80.8897C590.686 82.2449 586.902 82.954 582.446 82.954V86.954C587.318 86.954 591.661 86.1791 595.424 84.5663L593.848 80.8897ZM671.902 59.09V61.09H673.596L673.875 59.4188L671.902 59.09ZM628.972 59.09V57.09H626.798L626.979 59.2561L628.972 59.09ZM633.424 69.054L632.071 70.5267L633.424 69.054ZM654.836 65.556V63.556H653.591L653.042 64.6723L654.836 65.556ZM670.842 65.556L672.758 66.1307L673.53 63.556H670.842V65.556ZM661.09 79.548L662.29 81.148L662.297 81.1424L662.305 81.1367L661.09 79.548ZM628.124 81.244L627.132 82.9805L627.148 82.9898L627.164 82.9987L628.124 81.244ZM617.63 70.538L615.869 71.4862L615.875 71.4966L615.88 71.507L617.63 70.538ZM617.63 38.632L615.869 37.6838L617.63 38.632ZM628.018 28.032L628.989 29.7803L628.018 28.032ZM658.334 27.926L657.372 29.6797L657.384 29.686L658.334 27.926ZM668.616 38.208L666.856 39.1579L666.865 39.1746L666.874 39.1912L668.616 38.208ZM656.956 49.126V51.126H658.993L658.956 49.089L656.956 49.126ZM652.822 40.01L651.51 41.5201L651.522 41.53L651.534 41.5398L652.822 40.01ZM633.636 39.904L634.962 41.4012L634.965 41.3988L633.636 39.904ZM629.078 49.126L627.098 48.8432L626.772 51.126H629.078V49.126ZM670.326 53.366C670.326 55.4001 670.19 57.1955 669.929 58.7612L673.875 59.4188C674.179 57.5925 674.326 55.5719 674.326 53.366H670.326ZM671.902 57.09H628.972V61.09H671.902V57.09ZM626.979 59.2561C627.365 63.8916 629.015 67.7192 632.071 70.5267L634.777 67.5813C632.603 65.5835 631.285 62.7684 630.965 58.9239L626.979 59.2561ZM632.071 70.5267C635.083 73.2951 638.794 74.658 643.07 74.658V70.658C639.714 70.658 636.994 69.6182 634.777 67.5813L632.071 70.5267ZM643.07 74.658C646.116 74.658 648.848 74.0017 651.179 72.5948C653.515 71.1847 655.321 69.0969 656.63 66.4397L653.042 64.6723C652.018 66.7498 650.698 68.213 649.112 69.1702C647.521 70.1306 645.536 70.658 643.07 70.658V74.658ZM654.836 67.556H670.842V63.556H654.836V67.556ZM668.926 64.9813C667.354 70.2206 664.355 74.5336 659.875 77.9593L662.305 81.1367C667.436 77.2131 670.937 72.198 672.758 66.1307L668.926 64.9813ZM659.89 77.948C655.486 81.2512 650.025 82.954 643.388 82.954V86.954C650.743 86.954 657.083 85.0528 662.29 81.148L659.89 77.948ZM643.388 82.954C638.037 82.954 633.284 81.7865 629.083 79.4893L627.164 82.9987C632.009 85.6482 637.432 86.954 643.388 86.954V82.954ZM629.116 79.5075C624.99 77.1497 621.751 73.8501 619.379 69.569L615.88 71.507C618.597 76.4126 622.354 80.2503 627.132 82.9805L629.116 79.5075ZM619.391 69.5898C617.097 65.3293 615.92 60.3642 615.92 54.638H611.92C611.92 60.9251 613.216 66.56 615.869 71.4862L619.391 69.5898ZM615.92 54.638C615.92 48.8368 617.099 43.8374 619.391 39.5802L615.869 37.6838C613.215 42.6133 611.92 48.2845 611.92 54.638H615.92ZM619.391 39.5802C621.688 35.3149 624.88 32.0632 628.989 29.7803L627.047 26.2837C622.252 28.9475 618.519 32.7624 615.869 37.6838L619.391 39.5802ZM628.989 29.7803C633.105 27.4937 637.886 26.322 643.388 26.322V22.322C637.301 22.322 631.835 23.6237 627.047 26.2837L628.989 29.7803ZM643.388 26.322C648.674 26.322 653.319 27.4568 657.372 29.6796L659.296 26.1724C654.586 23.5898 649.267 22.322 643.388 22.322V26.322ZM657.384 29.686C661.493 31.9034 664.638 35.0492 666.856 39.1579L670.376 37.2581C667.788 32.4628 664.079 28.7539 659.284 26.166L657.384 29.686ZM666.874 39.1912C669.156 43.2332 670.326 47.9383 670.326 53.366H674.326C674.326 47.3456 673.022 41.9455 670.358 37.2248L666.874 39.1912ZM658.956 49.089C658.875 44.7527 657.278 41.1482 654.11 38.4802L651.534 41.5398C653.736 43.3945 654.895 45.8673 654.956 49.163L658.956 49.089ZM654.133 38.4999C651.049 35.8217 647.284 34.512 642.964 34.512V38.512C646.417 38.512 649.224 39.5343 651.51 41.5201L654.133 38.4999ZM642.964 34.512C638.842 34.512 635.248 35.7954 632.307 38.4092L634.965 41.3988C637.112 39.49 639.737 38.512 642.964 38.512V34.512ZM632.31 38.4068C629.411 40.9745 627.716 44.519 627.098 48.8432L631.058 49.4088C631.571 45.8183 632.914 43.2148 634.962 41.4012L632.31 38.4068ZM629.078 51.126H656.956V47.126H629.078V51.126ZM719.97 82.092L719.178 83.9287L719.189 83.9335L719.97 82.092ZM710.218 74.46L708.597 75.6322L710.218 74.46ZM706.508 62.694V60.694H704.476L704.508 62.7252L706.508 62.694ZM722.408 62.694L724.403 62.5548L724.273 60.694H722.408V62.694ZM725.588 69.902L724.229 71.3695L724.242 71.3818L724.256 71.3939L725.588 69.902ZM741.806 70.114L743.075 71.6595L743.091 71.6461L743.107 71.6325L741.806 70.114ZM742.76 58.136L741.31 59.5135L742.76 58.136ZM737.672 54.85L736.884 56.6883L736.923 56.705L736.962 56.72L737.672 54.85ZM729.404 52.094L728.839 54.0127L728.852 54.0164L728.864 54.0199L729.404 52.094ZM717.638 47.96L716.778 49.7657L716.803 49.7779L716.829 49.7894L717.638 47.96ZM709.9 41.706L708.3 42.906L708.316 42.9285L708.334 42.9505L709.9 41.706ZM710.006 19.022L711.664 20.1397L710.006 19.022ZM719.228 11.602L720.015 13.4403L720.029 13.4344L720.043 13.4283L719.228 11.602ZM751.346 14.57L750.105 16.1386L750.118 16.1487L750.131 16.1587L751.346 14.57ZM759.296 30.046V32.046H761.45L761.29 29.8975L759.296 30.046ZM742.972 30.046L740.975 30.1569L741.08 32.046H742.972V30.046ZM739.686 23.792L738.384 25.3105L738.413 25.3353L738.443 25.359L739.686 23.792ZM724.74 23.474L723.453 21.9426L723.438 21.9556L723.423 21.9688L724.74 23.474ZM724.104 34.922L722.652 36.2975L722.689 36.3367L722.728 36.3739L724.104 34.922ZM728.98 38.102L728.167 39.9296L728.207 39.9474L728.248 39.9635L728.98 38.102ZM737.248 40.858L736.673 42.7737L736.683 42.7767L737.248 40.858ZM756.858 51.458L755.277 52.6831L756.858 51.458ZM757.07 73.612L755.358 72.5778L757.07 73.612ZM748.06 81.774L748.954 83.5629L748.967 83.5565L748.979 83.55L748.06 81.774ZM733.962 82.742C729.034 82.742 724.64 81.899 720.75 80.2505L719.189 83.9335C723.638 85.8183 728.572 86.742 733.962 86.742V82.742ZM720.761 80.2553C716.963 78.6183 714.011 76.2913 711.838 73.2878L708.597 75.6322C711.23 79.2714 714.779 82.0324 719.178 83.9286L720.761 80.2553ZM711.838 73.2878C709.701 70.3331 708.572 66.8196 708.507 62.6628L704.508 62.7252C704.584 67.6138 705.929 71.9442 708.597 75.6322L711.838 73.2878ZM706.508 64.694H722.408V60.694H706.508V64.694ZM720.412 62.8332C720.653 66.2865 721.884 69.1987 724.229 71.3695L726.946 68.4345C725.475 67.072 724.586 65.1788 724.403 62.5548L720.412 62.8332ZM724.256 71.3939C726.694 73.571 729.901 74.552 733.644 74.552V70.552C730.602 70.552 728.439 69.7664 726.92 68.4101L724.256 71.3939ZM733.644 74.552C737.406 74.552 740.63 73.6677 743.075 71.6595L740.536 68.5686C739.024 69.8109 736.806 70.552 733.644 70.552V74.552ZM743.107 71.6325C745.544 69.5435 746.774 66.7908 746.774 63.542H742.774C742.774 65.6639 742.024 67.2925 740.504 68.5955L743.107 71.6325ZM746.774 63.542C746.774 60.9074 745.95 58.5905 744.21 56.7585L741.31 59.5135C742.254 60.5081 742.774 61.7953 742.774 63.542H746.774ZM744.21 56.7585C742.636 55.1018 740.676 53.8505 738.381 52.98L736.962 56.72C738.766 57.4042 740.198 58.3435 741.31 59.5135L744.21 56.7585ZM738.459 53.0117C736.363 52.1133 733.511 51.1671 729.943 50.1681L728.864 54.0199C732.363 54.9995 735.023 55.8907 736.884 56.6883L738.459 53.0117ZM729.968 50.1753C725.209 48.7755 721.376 47.4255 718.446 46.1306L716.829 49.7894C719.976 51.1799 723.988 52.5859 728.839 54.0127L729.968 50.1753ZM718.497 46.1543C715.824 44.881 713.48 42.9964 711.465 40.4615L708.334 42.9505C710.7 45.9276 713.516 48.2123 716.778 49.7657L718.497 46.1543ZM711.5 40.506C709.711 38.1217 708.72 34.8393 708.72 30.47H704.72C704.72 35.4287 705.848 39.637 708.3 42.906L711.5 40.506ZM708.72 30.47C708.72 26.4383 709.722 23.0219 711.664 20.1397L708.347 17.9043C705.908 21.5234 704.72 25.7391 704.72 30.47H708.72ZM711.664 20.1397C713.619 17.239 716.375 15.0003 720.015 13.4403L718.44 9.76371C714.165 11.5957 710.774 14.3036 708.347 17.9043L711.664 20.1397ZM720.043 13.4283C723.703 11.7943 727.94 10.952 732.796 10.952V6.952C727.475 6.952 722.667 7.87633 718.412 9.77572L720.043 13.4283ZM732.796 10.952C740.098 10.952 745.808 12.7395 750.105 16.1386L752.586 13.0014C747.414 8.90981 740.757 6.952 732.796 6.952V10.952ZM750.131 16.1587C754.434 19.4492 756.844 24.0567 757.301 30.1945L761.29 29.8975C760.758 22.7499 757.868 17.0402 752.56 12.9813L750.131 16.1587ZM759.296 28.046H742.972V32.046H759.296V28.046ZM744.969 29.9351C744.794 26.8031 743.412 24.1948 740.928 22.225L738.443 25.359C740.058 26.6398 740.866 28.2009 740.975 30.1569L744.969 29.9351ZM740.987 22.2735C738.556 20.1892 735.4 19.248 731.736 19.248V23.248C734.714 23.248 736.858 24.0028 738.384 25.3105L740.987 22.2735ZM731.736 19.248C728.491 19.248 725.665 20.0849 723.453 21.9426L726.026 25.0054C727.348 23.8951 729.185 23.248 731.736 23.248V19.248ZM723.423 21.9688C721.186 23.9256 720.196 26.6947 720.196 29.94H724.196C724.196 27.5319 724.901 25.9904 726.057 24.9791L723.423 21.9688ZM720.196 29.94C720.196 32.3912 721.002 34.5558 722.652 36.2975L725.555 33.5465C724.661 32.6029 724.196 31.4462 724.196 29.94H720.196ZM722.728 36.3739C724.256 37.821 726.078 39.0011 728.167 39.9296L729.792 36.2744C728.065 35.5069 726.637 34.567 725.479 33.4701L722.728 36.3739ZM728.248 39.9635C730.302 40.7705 733.119 41.7075 736.673 42.7737L737.822 38.9423C734.31 37.8885 731.614 36.9882 729.711 36.2405L728.248 39.9635ZM736.683 42.7767C741.435 44.1743 745.254 45.5552 748.17 46.9114L749.857 43.2846C746.696 41.8142 742.671 40.3684 737.812 38.9393L736.683 42.7767ZM748.17 46.9114C750.9 48.1813 753.268 50.0912 755.277 52.6831L758.438 50.2329C756.066 47.1715 753.204 44.8414 749.857 43.2846L748.17 46.9114ZM755.277 52.6831C757.127 55.0703 758.144 58.3108 758.144 62.588H762.144C762.144 57.6785 760.97 53.499 758.438 50.2329L755.277 52.6831ZM758.144 62.588C758.144 66.1802 757.219 69.4973 755.358 72.5778L758.781 74.6462C761.019 70.9427 762.144 66.9104 762.144 62.588H758.144ZM755.358 72.5778C753.522 75.6162 750.812 78.0965 747.14 79.998L748.979 83.55C753.222 81.3528 756.518 78.3918 758.781 74.6462L755.358 72.5778ZM747.165 79.9851C743.542 81.7967 739.162 82.742 733.962 82.742V86.742C739.643 86.742 744.662 85.7086 748.954 83.5629L747.165 79.9851ZM772.903 38.738L774.658 39.6976L774.664 39.6862L772.903 38.738ZM783.185 28.138L784.169 29.8796L784.179 29.8737L784.19 29.8676L783.185 28.138ZM816.257 29.834L815.031 31.414L815.044 31.4241L815.057 31.434L816.257 29.834ZM825.903 45.098V47.098H828.458L827.845 44.6178L825.903 45.098ZM809.897 45.098L808 45.7305L808.456 47.098H809.897V45.098ZM805.551 39.162L804.351 40.762L804.383 40.7859L804.416 40.8084L805.551 39.162ZM788.061 41.6L789.612 42.8625L789.62 42.8538L789.627 42.845L788.061 41.6ZM788.061 67.676L786.496 68.921L786.503 68.9298L786.51 68.9385L788.061 67.676ZM809.897 64.178V62.178H808.468L808.005 63.5306L809.897 64.178ZM825.903 64.178L827.841 64.6732L828.479 62.178H825.903V64.178ZM816.257 79.336L817.487 80.9135L816.257 79.336ZM783.185 81.244L782.181 82.9736L782.192 82.9797L782.202 82.9856L783.185 81.244ZM772.903 70.644L771.142 71.5922L771.149 71.6036L772.903 70.644ZM771.193 54.638C771.193 48.8359 772.372 43.8774 774.658 39.6976L771.149 37.7784C768.488 42.6439 767.193 48.2854 767.193 54.638H771.193ZM774.664 39.6862C776.965 35.4126 780.129 32.1602 784.169 29.8796L782.202 26.3963C777.479 29.0625 773.788 32.8768 771.142 37.7898L774.664 39.6862ZM784.19 29.8676C788.232 27.5206 792.895 26.322 798.237 26.322V22.322C792.273 22.322 786.902 23.6674 782.181 26.4084L784.19 29.8676ZM798.237 26.322C805.17 26.322 810.717 28.0661 815.031 31.414L817.484 28.254C812.328 24.2526 805.862 22.322 798.237 22.322V26.322ZM815.057 31.434C819.447 34.7263 822.432 39.3935 823.962 45.5782L827.845 44.6178C826.124 37.6585 822.678 32.1497 817.457 28.234L815.057 31.434ZM825.903 43.098H809.897V47.098H825.903V43.098ZM811.795 44.4655C810.821 41.5436 809.122 39.1947 806.687 37.5156L804.416 40.8084C806.08 41.9559 807.278 43.5644 808 45.7305L811.795 44.4655ZM806.751 37.562C804.361 35.7696 801.443 34.936 798.131 34.936V38.936C800.756 38.936 802.784 39.5864 804.351 40.762L806.751 37.562ZM798.131 34.936C793.329 34.936 789.377 36.7329 786.496 40.3549L789.627 42.845C791.692 40.2484 794.454 38.936 798.131 38.936V34.936ZM786.51 40.3375C783.642 43.8612 782.351 48.7233 782.351 54.638H786.351C786.351 49.2461 787.534 45.4161 789.612 42.8625L786.51 40.3375ZM782.351 54.638C782.351 60.4931 783.647 65.3389 786.496 68.921L789.627 66.431C787.529 63.7944 786.351 59.9482 786.351 54.638H782.351ZM786.51 68.9385C789.398 72.4859 793.346 74.234 798.131 74.234V70.234C794.436 70.234 791.672 68.9434 789.612 66.4135L786.51 68.9385ZM798.131 74.234C801.431 74.234 804.336 73.4943 806.708 71.8702C809.089 70.2396 810.759 67.8369 811.79 64.8254L808.005 63.5306C807.198 65.8898 805.988 67.5151 804.448 68.5697C802.898 69.6311 800.838 70.234 798.131 70.234V74.234ZM809.897 66.178H825.903V62.178H809.897V66.178ZM823.966 63.6828C822.441 69.649 819.456 74.3072 815.028 77.7585L817.487 80.9135C822.669 76.8741 826.115 71.427 827.841 64.6732L823.966 63.6828ZM815.028 77.7585C810.635 81.1822 805.085 82.954 798.237 82.954V86.954C805.806 86.954 812.269 84.9805 817.487 80.9135L815.028 77.7585ZM798.237 82.954C792.885 82.954 788.214 81.7862 784.169 79.5023L782.202 82.9856C786.919 85.6485 792.283 86.954 798.237 86.954V82.954ZM784.19 79.5144C780.13 77.1571 776.959 73.8926 774.658 69.6844L771.149 71.6036C773.794 76.4407 777.478 80.2429 782.181 82.9736L784.19 79.5144ZM774.664 69.6958C772.372 65.4386 771.193 60.4392 771.193 54.638H767.193C767.193 60.9915 768.488 66.6627 771.142 71.5922L774.664 69.6958ZM890.941 59.09V61.09H892.635L892.914 59.4188L890.941 59.09ZM848.011 59.09V57.09H845.837L846.018 59.2561L848.011 59.09ZM852.463 69.054L851.11 70.5267L852.463 69.054ZM873.875 65.556V63.556H872.631L872.081 64.6723L873.875 65.556ZM889.881 65.556L891.797 66.1307L892.569 63.556H889.881V65.556ZM880.129 79.548L881.329 81.148L881.336 81.1424L881.344 81.1367L880.129 79.548ZM847.163 81.244L846.171 82.9805L846.187 82.9898L846.203 82.9987L847.163 81.244ZM836.669 70.538L834.908 71.4862L834.914 71.4966L834.919 71.507L836.669 70.538ZM836.669 38.632L834.908 37.6838L836.669 38.632ZM847.057 28.032L848.028 29.7803L847.057 28.032ZM877.373 27.926L876.411 29.6797L876.423 29.686L877.373 27.926ZM887.655 38.208L885.895 39.1579L885.904 39.1746L885.913 39.1912L887.655 38.208ZM875.995 49.126V51.126H878.032L877.995 49.089L875.995 49.126ZM871.861 40.01L870.55 41.5201L870.561 41.53L870.573 41.5398L871.861 40.01ZM852.675 39.904L854.001 41.4012L854.004 41.3988L852.675 39.904ZM848.117 49.126L846.137 48.8432L845.811 51.126H848.117V49.126ZM889.365 53.366C889.365 55.4001 889.229 57.1955 888.968 58.7612L892.914 59.4188C893.218 57.5925 893.365 55.5719 893.365 53.366H889.365ZM890.941 57.09H848.011V61.09H890.941V57.09ZM846.018 59.2561C846.404 63.8916 848.054 67.7192 851.11 70.5267L853.816 67.5813C851.642 65.5835 850.324 62.7684 850.004 58.9239L846.018 59.2561ZM851.11 70.5267C854.122 73.2951 857.833 74.658 862.109 74.658V70.658C858.753 70.658 856.033 69.6182 853.816 67.5813L851.11 70.5267ZM862.109 74.658C865.155 74.658 867.887 74.0017 870.218 72.5948C872.554 71.1847 874.36 69.0969 875.669 66.4397L872.081 64.6723C871.057 66.7498 869.737 68.213 868.151 69.1702C866.56 70.1306 864.575 70.658 862.109 70.658V74.658ZM873.875 67.556H889.881V63.556H873.875V67.556ZM887.965 64.9813C886.393 70.2206 883.394 74.5336 878.914 77.9593L881.344 81.1367C886.475 77.2131 889.976 72.198 891.797 66.1307L887.965 64.9813ZM878.929 77.948C874.525 81.2512 869.064 82.954 862.427 82.954V86.954C869.782 86.954 876.123 85.0528 881.329 81.148L878.929 77.948ZM862.427 82.954C857.076 82.954 852.323 81.7865 848.123 79.4893L846.203 82.9987C851.048 85.6482 856.471 86.954 862.427 86.954V82.954ZM848.155 79.5075C844.029 77.1497 840.79 73.8501 838.419 69.569L834.919 71.507C837.636 76.4126 841.393 80.2503 846.171 82.9805L848.155 79.5075ZM838.43 69.5898C836.136 65.3293 834.959 60.3642 834.959 54.638H830.959C830.959 60.9251 832.255 66.56 834.908 71.4862L838.43 69.5898ZM834.959 54.638C834.959 48.8368 836.138 43.8374 838.43 39.5802L834.908 37.6838C832.254 42.6133 830.959 48.2845 830.959 54.638H834.959ZM838.43 39.5802C840.727 35.3149 843.919 32.0632 848.028 29.7803L846.086 26.2837C841.291 28.9475 837.558 32.7624 834.908 37.6838L838.43 39.5802ZM848.028 29.7803C852.144 27.4937 856.925 26.322 862.427 26.322V22.322C856.34 22.322 850.874 23.6237 846.086 26.2837L848.028 29.7803ZM862.427 26.322C867.714 26.322 872.358 27.4568 876.411 29.6796L878.335 26.1724C873.625 23.5898 868.306 22.322 862.427 22.322V26.322ZM876.423 29.686C880.532 31.9034 883.677 35.0492 885.895 39.1579L889.415 37.2581C886.827 32.4628 883.118 28.7539 878.323 26.166L876.423 29.686ZM885.913 39.1912C888.195 43.2332 889.365 47.9383 889.365 53.366H893.365C893.365 47.3456 892.061 41.9455 889.397 37.2248L885.913 39.1912ZM877.995 49.089C877.914 44.7527 876.318 41.1482 873.149 38.4802L870.573 41.5398C872.775 43.3945 873.934 45.8673 873.995 49.163L877.995 49.089ZM873.172 38.4999C870.088 35.8217 866.323 34.512 862.003 34.512V38.512C865.456 38.512 868.263 39.5343 870.55 41.5201L873.172 38.4999ZM862.003 34.512C857.881 34.512 854.287 35.7954 851.346 38.4092L854.004 41.3988C856.151 39.49 858.776 38.512 862.003 38.512V34.512ZM851.349 38.4068C848.45 40.9745 846.755 44.519 846.137 48.8432L850.097 49.4088C850.61 45.8183 851.953 43.2148 854.001 41.4012L851.349 38.4068ZM848.117 51.126H875.995V47.126H848.117V51.126ZM951.699 31.106L950.262 32.4972L950.268 32.503L950.273 32.5087L951.699 31.106ZM958.165 84V86H960.165V84H958.165ZM943.325 84H941.325V86H943.325V84ZM939.827 40.858L938.352 42.2094L938.362 42.2198L938.372 42.23L939.827 40.858ZM920.535 40.858L919.081 39.4847L919.08 39.486L920.535 40.858ZM917.037 84V86H919.037V84H917.037ZM902.197 84H900.197V86H902.197V84ZM902.197 25.276V23.276H900.197V25.276H902.197ZM917.037 25.276H919.037V23.276H917.037V25.276ZM917.037 32.59H915.037V38.4191L918.616 33.8179L917.037 32.59ZM924.563 26.654L925.406 28.4674L925.415 28.4632L925.424 28.459L924.563 26.654ZM934.739 26.428C941.27 26.428 946.378 28.4861 950.262 32.4972L953.136 29.7148C948.398 24.8219 942.2 22.428 934.739 22.428V26.428ZM950.273 32.5087C954.118 36.4169 956.165 42.0026 956.165 49.55H960.165C960.165 41.268 957.901 34.5577 953.124 29.7033L950.273 32.5087ZM956.165 49.55V84H960.165V49.55H956.165ZM958.165 82H943.325V86H958.165V82ZM945.325 84V51.564H941.325V84H945.325ZM945.325 51.564C945.325 46.5822 944.077 42.45 941.282 39.486L938.372 42.23C940.241 44.2126 941.325 47.2178 941.325 51.564H945.325ZM941.301 39.5066C938.526 36.4793 934.773 35.042 930.287 35.042V39.042C933.857 39.042 936.464 40.1487 938.352 42.2094L941.301 39.5066ZM930.287 35.042C925.74 35.042 921.926 36.4718 919.081 39.4847L921.989 42.2312C923.949 40.1562 926.636 39.042 930.287 39.042V35.042ZM919.08 39.486C916.285 42.45 915.037 46.5822 915.037 51.564H919.037C919.037 47.2178 920.121 44.2126 921.99 42.23L919.08 39.486ZM915.037 51.564V84H919.037V51.564H915.037ZM917.037 82H902.197V86H917.037V82ZM904.197 84V25.276H900.197V84H904.197ZM902.197 27.276H917.037V23.276H902.197V27.276ZM915.037 25.276V32.59H919.037V25.276H915.037ZM918.616 33.8179C920.391 31.5348 922.644 29.7523 925.406 28.4674L923.719 24.8406C920.404 26.3824 917.64 28.5572 915.458 31.3621L918.616 33.8179ZM925.424 28.459C928.247 27.1118 931.342 26.428 934.739 26.428V22.428C930.786 22.428 927.097 23.2282 923.701 24.849L925.424 28.459ZM973.231 15.842L971.817 17.2562L971.846 17.2857L971.877 17.3139L973.231 15.842ZM973.231 3.43999L974.615 4.88397L974.616 4.88277L973.231 3.43999ZM986.269 3.43999L984.855 4.85421L984.884 4.88366L984.915 4.91186L986.269 3.43999ZM986.269 15.842L987.653 17.286L987.654 17.2848L986.269 15.842ZM987.117 25.276H989.117V23.276H987.117V25.276ZM987.117 84V86H989.117V84H987.117ZM972.277 84H970.277V86H972.277V84ZM972.277 25.276V23.276H970.277V25.276H972.277ZM979.803 16.28C977.641 16.28 975.948 15.6243 974.585 14.3701L971.877 17.3139C974.047 19.3104 976.735 20.28 979.803 20.28V16.28ZM974.645 14.4278C973.337 13.1197 972.687 11.5494 972.687 9.588H968.687C968.687 12.5733 969.733 15.1723 971.817 17.2562L974.645 14.4278ZM972.687 9.588C972.687 7.62756 973.335 6.11031 974.615 4.88397L971.847 1.99602C969.735 4.02035 968.687 6.60176 968.687 9.588H972.687ZM974.616 4.88277C975.983 3.5701 977.666 2.896 979.803 2.896V-1.104C976.71 -1.104 974.012 -0.0821114 971.846 1.99722L974.616 4.88277ZM979.803 2.896C981.94 2.896 983.569 3.56894 984.855 4.85421L987.683 2.02578C985.576 -0.0809517 982.895 -1.104 979.803 -1.104V2.896ZM984.915 4.91186C986.256 6.14566 986.919 7.6548 986.919 9.588H990.919C990.919 6.57452 989.815 3.985 987.623 1.96813L984.915 4.91186ZM986.919 9.588C986.919 11.5229 986.253 13.0846 984.884 14.3992L987.654 17.2848C989.818 15.2074 990.919 12.5998 990.919 9.588H986.919ZM984.885 14.398C983.605 15.6249 981.965 16.28 979.803 16.28V20.28C982.87 20.28 985.541 19.3097 987.653 17.286L984.885 14.398ZM985.117 25.276V84H989.117V25.276H985.117ZM987.117 82H972.277V86H987.117V82ZM974.277 84V25.276H970.277V84H974.277ZM972.277 27.276H987.117V23.276H972.277V27.276ZM1057.22 25.276H1059.22V23.276H1057.22V25.276ZM1057.22 84V86H1059.22V84H1057.22ZM1042.27 84H1040.27V86H1042.27V84ZM1042.27 76.58H1044.27V70.58L1040.67 75.38L1042.27 76.58ZM1034.74 82.622L1035.59 84.4354L1035.6 84.4312L1035.61 84.427L1034.74 82.622ZM1012.59 81.88L1011.61 83.625L1011.63 83.6325L1011.64 83.6398L1012.59 81.88ZM1004.22 73.294L1002.44 74.2146L1002.45 74.2344L1002.46 74.254L1004.22 73.294ZM1001.25 25.276V23.276H999.249V25.276H1001.25ZM1016.09 25.276H1018.09V23.276H1016.09V25.276ZM1019.59 68.418L1018.11 69.7694L1018.12 69.7798L1018.13 69.79L1019.59 68.418ZM1038.77 68.418L1040.23 69.79L1040.24 69.7798L1040.25 69.7694L1038.77 68.418ZM1042.27 25.276V23.276H1040.27V25.276H1042.27ZM1055.22 25.276V84H1059.22V25.276H1055.22ZM1057.22 82H1042.27V86H1057.22V82ZM1044.27 84V76.58H1040.27V84H1044.27ZM1040.67 75.38C1038.97 77.6445 1036.73 79.4602 1033.88 80.817L1035.61 84.427C1038.98 82.8158 1041.75 80.6035 1043.87 77.78L1040.67 75.38ZM1033.9 80.8086C1031.15 82.0899 1028.12 82.742 1024.78 82.742V86.742C1028.65 86.742 1032.27 85.9808 1035.59 84.4354L1033.9 80.8086ZM1024.78 82.742C1020.47 82.742 1016.74 81.8491 1013.54 80.1202L1011.64 83.6398C1015.51 85.7269 1019.9 86.742 1024.78 86.742V82.742ZM1013.57 80.135C1010.38 78.35 1007.85 75.7686 1005.97 72.334L1002.46 74.254C1004.68 78.3101 1007.73 81.4527 1011.61 83.625L1013.57 80.135ZM1005.99 72.3734C1004.19 68.897 1003.25 64.7035 1003.25 59.726H999.249C999.249 65.2072 1000.29 70.059 1002.44 74.2146L1005.99 72.3734ZM1003.25 59.726V25.276H999.249V59.726H1003.25ZM1001.25 27.276H1016.09V23.276H1001.25V27.276ZM1014.09 25.276V57.606H1018.09V25.276H1014.09ZM1014.09 57.606C1014.09 62.5919 1015.34 66.7433 1018.11 69.7694L1021.06 67.0666C1019.17 65.0047 1018.09 61.9481 1018.09 57.606H1014.09ZM1018.13 69.79C1020.91 72.738 1024.66 74.128 1029.13 74.128V70.128C1025.54 70.128 1022.93 69.0446 1021.04 67.046L1018.13 69.79ZM1029.13 74.128C1033.65 74.128 1037.44 72.7452 1040.23 69.79L1037.32 67.046C1035.44 69.0375 1032.8 70.128 1029.13 70.128V74.128ZM1040.25 69.7694C1043.02 66.7433 1044.27 62.5919 1044.27 57.606H1040.27C1040.27 61.9481 1039.19 65.0047 1037.3 67.0666L1040.25 69.7694ZM1044.27 57.606V25.276H1040.27V57.606H1044.27ZM1042.27 27.276H1057.22V23.276H1042.27V27.276ZM1085.43 71.81L1083.83 70.6116L1081.43 73.81H1085.43V71.81ZM1111.61 71.81H1113.61V69.81H1111.61V71.81ZM1111.61 84V86H1113.61V84H1111.61ZM1068.57 84H1066.57V86H1068.57V84ZM1068.57 72.022L1066.97 70.8299L1066.57 71.3608V72.022H1068.57ZM1094.22 37.466L1095.83 38.6581L1098.2 35.466H1094.22V37.466ZM1068.68 37.466H1066.68V39.466H1068.68V37.466ZM1068.68 25.276V23.276H1066.68V25.276H1068.68ZM1111.29 25.276H1113.29V23.276H1111.29V25.276ZM1111.29 37.254L1112.89 38.4524L1113.29 37.9196V37.254H1111.29ZM1085.43 73.81H1111.61V69.81H1085.43V73.81ZM1109.61 71.81V84H1113.61V71.81H1109.61ZM1111.61 82H1068.57V86H1111.61V82ZM1070.57 84V72.022H1066.57V84H1070.57ZM1070.18 73.2141L1095.83 38.6581L1092.62 36.2739L1066.97 70.8299L1070.18 73.2141ZM1094.22 35.466H1068.68V39.466H1094.22V35.466ZM1070.68 37.466V25.276H1066.68V37.466H1070.68ZM1068.68 27.276H1111.29V23.276H1068.68V27.276ZM1109.29 25.276V37.254H1113.29V25.276H1109.29ZM1109.69 36.0556L1083.83 70.6116L1087.03 73.0084L1112.89 38.4524L1109.69 36.0556ZM1186.73 13.51L1185.39 14.9931L1185.4 15.0042L1185.41 15.0152L1186.73 13.51ZM1186.83 45.84L1188.09 47.3945L1188.1 47.3885L1188.11 47.3824L1186.83 45.84ZM1169.13 51.246V49.246H1167.23L1167.14 51.1422L1169.13 51.246ZM1168.71 59.408V61.408H1170.61L1170.71 59.5118L1168.71 59.408ZM1155.67 59.408L1153.67 59.4668L1153.73 61.408H1155.67V59.408ZM1155.14 41.388V39.388H1153.08L1153.14 41.4468L1155.14 41.388ZM1174.11 38.95L1173.24 37.1536L1174.11 38.95ZM1176.34 22.626L1174.9 24.0122L1174.91 24.0263L1174.93 24.0402L1176.34 22.626ZM1161.4 22.52L1160.01 21.0783L1159.99 21.0919L1159.98 21.1058L1161.4 22.52ZM1158.74 29.834V31.834H1160.74V29.834H1158.74ZM1144.75 29.834L1142.75 29.8668L1142.79 31.834H1144.75V29.834ZM1147.51 18.28L1149.25 19.2605L1147.51 18.28ZM1155.88 10.33L1154.98 8.54792L1154.97 8.55143L1154.96 8.555L1155.88 10.33ZM1155.46 82.304L1154.04 83.7182L1154.07 83.7477L1154.1 83.7759L1155.46 82.304ZM1155.46 69.902L1156.84 71.346L1156.84 71.3448L1155.46 69.902ZM1168.6 69.902L1167.19 71.3162L1167.2 71.3313L1167.22 71.346L1168.6 69.902ZM1168.6 82.304L1169.99 83.748L1170 83.7333L1170.02 83.7182L1168.6 82.304ZM1169.03 9.46799C1176 9.46799 1181.38 11.3684 1185.39 14.9931L1188.07 12.0269C1183.17 7.59559 1176.76 5.46799 1169.03 5.46799V9.46799ZM1185.41 15.0152C1189.43 18.5289 1191.51 23.4162 1191.51 29.94H1195.51C1195.51 22.4718 1193.08 16.4058 1188.05 12.0048L1185.41 15.0152ZM1191.51 29.94C1191.51 36.4002 1189.46 41.0794 1185.56 44.2976L1188.11 47.3824C1193.11 43.2513 1195.51 37.3305 1195.51 29.94H1191.51ZM1185.58 44.2855C1181.57 47.5281 1176.16 49.246 1169.13 49.246V53.246C1176.81 53.246 1183.19 51.3599 1188.09 47.3945L1185.58 44.2855ZM1167.14 51.1422L1166.71 59.3042L1170.71 59.5118L1171.13 51.3498L1167.14 51.1422ZM1168.71 57.408H1155.67V61.408H1168.71V57.408ZM1157.67 59.3492L1157.14 41.3292L1153.14 41.4468L1153.67 59.4668L1157.67 59.3492ZM1155.14 43.388H1159.91V39.388H1155.14V43.388ZM1159.91 43.388C1166.19 43.388 1171.28 42.5663 1174.99 40.7464L1173.24 37.1536C1170.31 38.5843 1165.93 39.388 1159.91 39.388V43.388ZM1174.99 40.7464C1176.99 39.7713 1178.55 38.3518 1179.6 36.4816C1180.63 34.6296 1181.1 32.4536 1181.1 30.046H1177.1C1177.1 31.9491 1176.73 33.4124 1176.11 34.5284C1175.49 35.6262 1174.56 36.5033 1173.24 37.1536L1174.99 40.7464ZM1181.1 30.046C1181.1 26.518 1180.04 23.4964 1177.76 21.2118L1174.93 24.0402C1176.32 25.4302 1177.1 27.3554 1177.1 30.046H1181.1ZM1177.78 21.2398C1175.56 18.9266 1172.55 17.87 1169.03 17.87V21.87C1171.72 21.87 1173.59 22.6507 1174.9 24.0122L1177.78 21.2398ZM1169.03 17.87C1165.41 17.87 1162.31 18.8623 1160.01 21.0783L1162.78 23.9617C1164.15 22.6444 1166.14 21.87 1169.03 21.87V17.87ZM1159.98 21.1058C1157.75 23.3345 1156.74 26.3314 1156.74 29.834H1160.74C1160.74 27.1179 1161.5 25.2388 1162.81 23.9342L1159.98 21.1058ZM1158.74 27.834H1144.75V31.834H1158.74V27.834ZM1146.75 29.8012C1146.69 25.8059 1147.54 22.311 1149.25 19.2605L1145.77 17.2995C1143.67 21.033 1142.68 25.2408 1142.75 29.8668L1146.75 29.8012ZM1149.25 19.2605C1150.96 16.2296 1153.45 13.8457 1156.8 12.105L1154.96 8.555C1150.96 10.6303 1147.88 13.5463 1145.77 17.2995L1149.25 19.2605ZM1156.79 12.1121C1160.21 10.3725 1164.26 9.46799 1169.03 9.46799V5.46799C1163.75 5.46799 1159.05 6.47146 1154.98 8.54792L1156.79 12.1121ZM1162.14 82.742C1159.89 82.742 1158.17 82.0767 1156.81 80.8321L1154.1 83.7759C1156.29 85.782 1159.01 86.742 1162.14 86.742V82.742ZM1156.87 80.8898C1155.57 79.5817 1154.91 78.0114 1154.91 76.05H1150.91C1150.91 79.0353 1151.96 81.6343 1154.04 83.7182L1156.87 80.8898ZM1154.91 76.05C1154.91 74.0896 1155.56 72.5723 1156.84 71.346L1154.08 68.458C1151.96 70.4824 1150.91 73.0638 1150.91 76.05H1154.91ZM1156.84 71.3448C1158.2 70.0423 1159.91 69.358 1162.14 69.358V65.358C1158.99 65.358 1156.25 66.3697 1154.07 68.4592L1156.84 71.3448ZM1162.14 69.358C1164.27 69.358 1165.9 70.0309 1167.19 71.3162L1170.02 68.4878C1167.91 66.3811 1165.23 65.358 1162.14 65.358V69.358ZM1167.22 71.346C1168.5 72.5723 1169.15 74.0896 1169.15 76.05H1173.15C1173.15 73.0638 1172.1 70.4824 1169.99 68.458L1167.22 71.346ZM1169.15 76.05C1169.15 78.0114 1168.5 79.5817 1167.19 80.8898L1170.02 83.7182C1172.1 81.6343 1173.15 79.0353 1173.15 76.05H1169.15ZM1167.22 80.86C1165.94 82.0869 1164.3 82.742 1162.14 82.742V86.742C1165.2 86.742 1167.88 85.7717 1169.99 83.748L1167.22 80.86Z" fill="#D10000"/>
</svg>
